<svg width="330" height="330" viewBox="0 0 330 330" fill="none" xmlns="http://www.w3.org/2000/svg">
<g clip-path="url(#clip0_2048_30788)">
<path d="M31.3438 39.8711C34.0023 38.2713 37.3605 38.0942 40.3482 38.9331C43.3358 39.772 45.9885 41.5459 48.2966 43.6183C52.7621 47.6298 55.6976 53.8818 57.4606 59.6175C50.9736 61.1617 44.0742 57.6643 40.6858 55.6714C35.3303 52.5206 27.5658 43.5763 31.3438 39.8711Z" fill="#E7E8E5"/>
<path d="M68.8691 60.5779C65.6561 59.2761 63.4586 55.9888 63.0835 52.5454C62.7083 49.1012 64.0134 45.5925 66.2354 42.934C67.2624 41.7042 68.645 40.5696 70.2477 40.5884C71.7461 40.6057 73.0882 41.6802 73.7667 43.0151C74.4455 44.35 74.556 45.9039 74.4678 47.3987C74.1645 52.5251 72.9295 57.4302 68.8691 60.5779Z" fill="#E7E8E5"/>
<path d="M76.6537 73.4203C76.5921 73.4729 75.495 72.4381 73.8631 70.5997C73.0465 69.679 72.1875 68.4484 71.4307 67.01C70.6836 65.5723 69.8288 64.0071 69.1743 62.2242C67.8341 58.6826 67.5888 55.1611 67.9629 52.7142C68.1391 51.4859 68.4437 50.5254 68.6757 49.8778C68.9382 49.2385 69.1131 48.9016 69.1544 48.9181C69.2694 48.9587 68.6731 50.3671 68.4355 52.7697C68.1931 55.1596 68.5026 58.543 69.8054 61.9909C70.4343 63.7099 71.2691 65.2819 71.979 66.7211C72.6977 68.1566 73.473 69.3504 74.2307 70.2981C75.7503 72.192 76.7341 73.3528 76.6537 73.4203Z" fill="#DADBD8"/>
<path d="M37.8602 46.1599C37.8857 46.1216 38.505 46.478 39.6033 47.1571C40.7018 47.8354 42.2773 48.8379 44.2134 50.0947C48.0843 52.6077 53.3947 56.1389 59.1633 60.1818C64.9322 64.2285 70.051 68.0373 73.6964 70.8707C75.5186 72.2866 76.98 73.4504 77.9735 74.275C78.9693 75.0967 79.5054 75.5686 79.4769 75.6054C79.4484 75.6422 78.8574 75.24 77.8135 74.4814C76.6758 73.647 75.1942 72.5597 73.4092 71.2496C69.6943 68.516 64.5387 64.774 58.777 60.7318C53.0351 56.7662 47.8412 53.178 43.9491 50.4902C42.1292 49.2273 40.6182 48.1798 39.4589 47.3747C38.405 46.6296 37.8344 46.1989 37.8602 46.1599Z" fill="#DADBD8"/>
<path d="M66.3335 68.0771C59.4059 65.7487 51.3684 67.0371 45.5171 71.4131C44.0272 72.5274 42.5459 74.2262 43.0137 76.0263C43.4818 77.8295 45.6148 78.5941 47.4681 78.7989C55.1783 79.6521 63.2018 75.3203 66.7134 68.4095" fill="#E7E8E5"/>
<path d="M50.7824 72.8238C50.7599 72.7833 51.0684 72.5694 51.6472 72.216C52.2212 71.8544 53.0843 71.3876 54.1673 70.8406C56.3421 69.8051 59.4927 68.4207 63.2547 68.1093C65.1269 67.9585 66.9333 68.1378 68.5111 68.5355C70.097 68.928 71.4211 69.5853 72.4839 70.1833C73.5276 70.8196 74.3316 71.3944 74.8321 71.8581C75.3463 72.3038 75.6137 72.5649 75.5836 72.601C75.5003 72.7075 74.3569 71.7253 72.2539 70.599C71.1899 70.07 69.8928 69.481 68.363 69.1366C66.8391 68.7884 65.1127 68.6346 63.3087 68.7794C59.6877 69.0765 56.5701 70.3559 54.3668 71.2721C52.1664 72.237 50.8344 72.9191 50.7824 72.8238Z" fill="#DADBD8"/>
<path d="M133.882 325.906C143.857 317.214 144.796 302.973 143.014 290.454C142.717 288.365 142.709 286.13 141.512 284.396C140.315 282.664 137.85 281.657 136.066 282.743C134.586 283.644 134.103 285.529 133.392 287.122C132.447 289.24 130.896 291.075 128.976 292.35C127.714 293.187 126.107 293.789 124.708 293.203C122.79 292.4 122.307 289.924 122.095 287.836C121.7 283.946 121.305 280.056 120.91 276.166C120.698 274.078 120.474 271.948 119.612 270.037C118.749 268.128 117.116 266.443 115.071 266.101C113.024 265.76 110.692 267.168 110.493 269.255C110.41 270.124 110.678 270.987 110.713 271.858C110.749 272.731 110.449 273.732 109.652 274.063C108.844 274.397 107.945 273.896 107.256 273.352C104.874 271.478 103.119 268.922 101.462 266.371C99.8044 263.82 98.18 261.2 95.9767 259.114C93.7742 257.027 90.8732 255.498 87.8657 255.652C84.8573 255.804 81.8708 257.991 81.4315 261.005C80.9914 264.028 83.0303 266.826 85.1555 269.005C88.308 272.238 91.9246 275.009 95.8543 277.201C96.5625 277.597 97.33 278.025 97.6656 278.77C98.2687 280.112 97.0987 281.635 95.774 282.24C94.2736 282.926 92.5681 282.946 90.9611 283.313C89.3541 283.68 87.6682 284.587 87.2176 286.19C86.5928 288.414 88.6181 290.457 90.5323 291.731C94.3644 294.285 98.6291 296.167 103.082 297.273C104.677 297.67 106.347 297.988 107.701 298.933C109.056 299.878 110.005 301.673 109.416 303.222C108.826 304.773 106.956 305.45 105.316 305.325C103.676 305.201 102.141 304.483 100.546 304.07C97.5605 303.297 93.8771 303.893 92.3061 306.569C91.2742 308.327 91.4124 310.607 92.2332 312.482C93.0525 314.357 94.4718 315.896 95.9535 317.296C101.133 322.191 107.487 325.897 114.392 327.486C121.295 329.076 127.529 329.035 133.882 325.906Z" fill="#E7E8E5"/>
<path d="M129.789 318.379C127.254 312.238 123.917 305.737 120.193 299.055C119.255 297.389 118.33 295.742 117.417 294.119C116.502 292.502 115.595 290.897 114.612 289.382C112.655 286.344 110.544 283.571 108.456 281.002C106.369 278.432 104.296 276.067 102.34 273.872C100.379 271.679 98.5133 269.67 96.7343 267.911C93.1853 264.379 89.9914 261.874 87.7288 260.245C86.5994 259.425 85.702 258.819 85.0877 258.416C84.7926 258.224 84.5613 258.075 84.3871 257.962C84.2279 257.862 84.1445 257.813 84.1408 257.819C84.137 257.825 84.2128 257.884 84.3653 257.996C84.5343 258.116 84.7588 258.277 85.0449 258.481C85.6434 258.904 86.5265 259.53 87.6417 260.367C89.8736 262.033 93.0291 264.562 96.5428 268.108C98.3045 269.874 100.155 271.889 102.102 274.088C104.046 276.292 106.108 278.66 108.182 281.229C110.256 283.798 112.353 286.565 114.294 289.59C115.271 291.098 116.168 292.689 117.084 294.311C117.995 295.934 118.921 297.58 119.857 299.246C123.578 305.922 126.916 312.402 129.461 318.518" fill="#DADBD8"/>
<path d="M114.498 289.379C114.525 289.38 114.561 289.056 114.607 288.467C114.654 287.879 114.694 287.026 114.729 285.971C114.8 283.862 114.799 280.947 114.785 277.733C114.772 274.517 114.812 271.61 114.915 269.508C114.964 268.457 115.011 267.607 115.052 267.019C115.089 266.432 115.098 266.105 115.071 266.101C115.045 266.098 114.986 266.419 114.903 267.004C114.816 267.588 114.727 268.438 114.643 269.49C114.47 271.595 114.386 274.513 114.4 277.732C114.421 280.904 114.441 283.774 114.456 285.966C114.456 286.956 114.456 287.792 114.456 288.461C114.458 289.05 114.471 289.378 114.498 289.379Z" fill="#DADBD8"/>
<path d="M87.1172 287.257C87.1194 287.284 87.5062 287.287 88.2016 287.27C88.897 287.257 89.9032 287.233 91.1461 287.243C93.6332 287.243 97.0689 287.364 100.853 287.663C104.638 287.969 108.051 288.391 110.511 288.768C111.743 288.948 112.735 289.12 113.422 289.234C114.11 289.353 114.492 289.405 114.498 289.379C114.503 289.352 114.131 289.249 113.452 289.085C112.772 288.925 111.784 288.711 110.554 288.496C108.098 288.047 104.678 287.581 100.881 287.273C97.0869 286.974 93.6362 286.896 91.1431 286.967C89.8957 286.993 88.888 287.058 88.1933 287.119C87.4987 287.182 87.1157 287.23 87.1172 287.257Z" fill="#DADBD8"/>
<path d="M129.405 317.922C129.418 317.926 129.469 317.806 129.554 317.575C129.65 317.299 129.767 316.962 129.909 316.555C130.212 315.668 130.618 314.373 131.099 312.767C132.062 309.555 133.254 305.078 134.501 300.118C135.75 295.157 136.898 290.673 137.793 287.447C138.233 285.877 138.596 284.586 138.864 283.626C138.979 283.21 139.073 282.867 139.15 282.585C139.211 282.346 139.238 282.219 139.224 282.214C139.211 282.21 139.161 282.33 139.076 282.562C138.98 282.837 138.863 283.173 138.721 283.581C138.418 284.468 138.011 285.762 137.531 287.368C136.567 290.579 135.376 295.058 134.128 300.019C132.88 304.98 131.732 309.462 130.837 312.69C130.397 314.259 130.035 315.55 129.766 316.509C129.651 316.926 129.557 317.269 129.48 317.551C129.419 317.789 129.393 317.918 129.405 317.922Z" fill="#DADBD8"/>
<path d="M92.5 310.276C92.4985 310.29 92.6254 310.326 92.8695 310.384C93.1586 310.447 93.5138 310.524 93.9433 310.619C94.9331 310.827 96.2698 311.106 97.8956 311.445C101.234 312.143 105.832 313.159 110.911 314.289C115.992 315.421 120.605 316.395 123.958 317.024C125.634 317.338 126.993 317.58 127.935 317.727C128.371 317.793 128.73 317.847 129.022 317.891C129.271 317.925 129.403 317.934 129.405 317.922C129.407 317.908 129.28 317.871 129.036 317.813C128.747 317.75 128.393 317.673 127.962 317.579C126.972 317.371 125.636 317.092 124.01 316.753C120.672 316.055 116.073 315.039 110.992 313.908C105.913 312.777 101.3 311.803 97.9482 311.174C96.2713 310.859 94.9128 310.617 93.9696 310.47C93.5341 310.405 93.1759 310.35 92.8838 310.307C92.6344 310.273 92.503 310.263 92.5 310.276Z" fill="#DADBD8"/>
<path d="M308.278 155.087L300.667 165.784L297.833 164.53L276.235 177.37L272.398 166.033C272.398 166.033 284.52 162.803 287.227 159.052C289.933 155.301 287.632 154.021 287.632 154.021L293.895 148.719L308.278 155.087Z" fill="#E7E8E5"/>
<path d="M304.075 130.328C304.075 130.328 295.708 127.145 285.262 113.662C274.817 100.18 271.387 83.8113 269.886 83.668C268.385 83.5247 262.326 79.5508 245.995 104.617C229.664 129.684 233.617 136.643 236.085 136.955C238.555 137.267 255.953 135.072 266.218 137.794C276.482 140.515 289.1 147.925 289.1 147.925L304.075 130.328Z" fill="#E7E8E5"/>
<path d="M320.285 147.685L316.509 152.855L314.818 155.172C312.498 158.349 308.095 159.155 304.798 157.007L287.215 147.828L301.637 124.793L318.701 137.378C321.977 139.793 322.685 144.399 320.285 147.685Z" fill="#DADBD8"/>
<path d="M246.923 105.254C238.193 118.85 233.541 131.425 236.531 133.342C239.52 135.258 249.02 125.789 257.749 112.194C266.478 98.5979 271.131 86.0234 268.141 84.1062C265.152 82.1898 255.652 91.6578 246.923 105.254Z" fill="#DADBD8"/>
<path d="M320.682 156.018L315.891 153.702L319.87 148.253L323.294 151.148L320.682 156.018Z" fill="#DADBD8"/>
<path d="M316.21 149.106C316.112 149.258 313.748 147.915 310.931 146.108C308.111 144.3 305.905 142.711 306.003 142.56C306.1 142.409 308.464 143.751 311.283 145.559C314.101 147.367 316.307 148.955 316.21 149.106Z" fill="#E7E8E5"/>
<path d="M318.273 145.816C318.17 145.964 316.042 144.675 313.52 142.937C310.996 141.197 309.034 139.668 309.137 139.52C309.239 139.372 311.366 140.661 313.889 142.4C316.413 144.139 318.375 145.668 318.273 145.816Z" fill="#E7E8E5"/>
<path d="M313.718 152.509C313.678 152.591 313.101 152.366 312.193 151.931C311.739 151.715 311.203 151.446 310.611 151.139C310.025 150.823 309.43 150.404 308.786 149.991C306.226 148.311 304.311 146.755 304.401 146.617C304.509 146.454 306.606 147.782 309.142 149.444C309.78 149.854 310.363 150.288 310.924 150.625C311.488 150.956 311.992 151.26 312.411 151.526C313.252 152.056 313.756 152.428 313.718 152.509Z" fill="#E7E8E5"/>
<path d="M260.824 103.989C260.824 103.989 253.995 98.2272 248.388 107.768C242.781 117.31 250.443 120.141 250.443 120.141C254.417 115.603 257.893 110.243 260.824 103.989Z" fill="#E7E8E5"/>
<path d="M270.598 93.0729C270.64 93.0872 270.432 93.7603 270.018 94.9684C269.598 96.1727 268.997 97.9233 268.189 100.062C267.71 101.104 267.188 102.241 266.628 103.46C266.346 104.071 266.054 104.702 265.753 105.352C265.602 105.677 265.448 106.007 265.294 106.341C265.131 106.671 264.934 106.989 264.751 107.32C264.005 108.637 263.221 110.018 262.409 111.448C262.205 111.806 262 112.167 261.792 112.53C261.589 112.896 261.329 113.231 261.096 113.587C260.618 114.289 260.131 115.003 259.64 115.724C259.148 116.445 258.66 117.158 258.181 117.86C257.934 118.206 257.717 118.57 257.451 118.894C257.187 119.219 256.926 119.543 256.667 119.863C255.631 121.142 254.631 122.375 253.678 123.552C253.434 123.842 253.211 124.141 252.962 124.414C252.708 124.681 252.456 124.944 252.208 125.203C251.711 125.722 251.229 126.225 250.763 126.712C249.831 127.679 248.96 128.581 248.164 129.408C246.471 130.936 245.064 132.131 244.095 132.963C243.122 133.789 242.57 134.229 242.54 134.196C242.51 134.163 243.004 133.658 243.924 132.774C244.877 131.876 246.213 130.616 247.854 129.067C248.626 128.23 249.47 127.316 250.375 126.336C250.829 125.846 251.3 125.34 251.783 124.819C252.025 124.559 252.271 124.295 252.521 124.027C252.762 123.754 252.982 123.453 253.22 123.162C254.157 121.987 255.141 120.753 256.16 119.475C256.416 119.155 256.674 118.833 256.934 118.509C257.197 118.187 257.411 117.824 257.656 117.48C258.131 116.782 258.614 116.074 259.101 115.357C259.591 114.641 260.074 113.934 260.551 113.237C260.782 112.884 261.042 112.552 261.245 112.19C261.452 111.83 261.658 111.472 261.862 111.118C262.679 109.704 263.469 108.338 264.222 107.037C264.407 106.71 264.606 106.396 264.772 106.07C264.93 105.74 265.086 105.415 265.241 105.094C265.55 104.453 265.85 103.83 266.14 103.228C266.723 102.027 267.266 100.907 267.764 99.8817C268.606 97.7935 269.291 96.0939 269.779 94.8828C270.266 93.7048 270.556 93.0587 270.598 93.0729Z" fill="#DADBD8"/>
<path d="M256.513 244.717C256.513 244.717 261.478 246.727 255.751 257.26C250.023 267.793 246.111 272.98 246.111 272.98C246.111 272.98 245.08 275.433 247.158 275.872C249.235 276.311 253.851 275.697 254.715 278.274C255.611 280.946 253.621 283.394 249.663 285.484C245.704 287.573 237.199 292.47 236.432 292.916C235.678 293.353 234.904 294.487 236.272 295.013C237.639 295.539 247.951 296.885 247.019 301.736C246.087 306.587 234.101 310.597 232.799 311.061C231.497 311.525 231.174 312.063 231.261 312.773C231.348 313.482 234.856 313.609 237.774 314.111C240.691 314.614 243.985 315.708 243.213 318.462C242.44 321.215 235.256 326.857 218.134 328.087L210.162 328.138L206.002 321.303C197.992 306.132 198.985 297.055 200.915 294.944C202.845 292.832 205.516 295.048 207.486 297.256C209.456 299.463 211.419 302.372 212.067 302.07C212.717 301.768 213.003 301.21 212.708 299.861C212.412 298.513 209.481 286.226 213.108 282.871C216.735 279.514 223.332 287.547 224.502 288.429C225.672 289.31 226.226 288.055 226.199 287.184C226.171 286.298 225.833 276.496 225.514 272.033C225.195 267.571 226.222 264.59 228.965 263.936C231.611 263.306 233.532 267.545 235.003 269.075C236.475 270.604 238.013 268.433 238.013 268.433C238.013 268.433 240.349 262.371 246.266 251.943C252.185 241.516 256.611 244.765 256.611 244.765" fill="#E7E8E5"/>
<path d="M209.7 329.999C214.016 322.325 221.457 308.554 227.908 296.765C234.356 284.979 240.204 274.315 244.481 266.619C246.619 262.78 248.352 259.67 249.554 257.509C250.149 256.44 250.613 255.607 250.932 255.031C251.084 254.753 251.202 254.539 251.286 254.384C251.364 254.238 251.398 254.159 251.398 254.159C251.398 254.159 251.349 254.229 251.264 254.371C251.175 254.524 251.05 254.735 250.889 255.007C250.56 255.577 250.082 256.403 249.471 257.462C248.241 259.595 246.484 262.695 244.327 266.533C240.012 274.209 234.138 284.861 227.691 296.646C221.24 308.435 213.824 322.218 209.547 329.914" fill="#DADBD8"/>
<path d="M248.291 279.392C248.285 279.376 248.086 279.427 247.732 279.533C247.376 279.637 246.866 279.803 246.238 280.013C244.983 280.437 243.264 281.066 241.382 281.793C239.526 282.519 237.848 283.175 236.566 283.676C235.986 283.899 235.497 284.086 235.104 284.237C234.758 284.368 234.569 284.448 234.574 284.464C234.58 284.48 234.779 284.432 235.135 284.328C235.49 284.224 236.001 284.058 236.627 283.84C237.878 283.404 239.587 282.753 241.47 282.024C243.329 281.314 245.011 280.67 246.297 280.178C246.878 279.958 247.368 279.773 247.763 279.624C248.108 279.49 248.297 279.409 248.291 279.392Z" fill="#DADBD8"/>
<path d="M234.041 283.942C234.106 283.92 232.964 280.323 231.491 275.909C230.017 271.492 228.77 267.932 228.706 267.953C228.64 267.975 229.782 271.57 231.256 275.987C232.729 280.401 233.976 283.963 234.041 283.942Z" fill="#DADBD8"/>
<path d="M224.956 302.489C224.969 302.479 224.858 302.301 224.645 301.989C224.401 301.637 224.096 301.197 223.735 300.675C222.968 299.564 221.916 298.026 220.817 296.286C219.714 294.548 218.77 292.941 218.097 291.771C217.779 291.221 217.511 290.758 217.297 290.387C217.106 290.061 216.994 289.884 216.978 289.892C216.964 289.9 217.047 290.092 217.212 290.432C217.377 290.772 217.625 291.26 217.944 291.856C218.578 293.049 219.501 294.675 220.607 296.419C221.709 298.163 222.788 299.69 223.593 300.777C223.997 301.318 224.329 301.753 224.567 302.047C224.805 302.341 224.942 302.499 224.956 302.489Z" fill="#DADBD8"/>
<path d="M238.747 301.208C238.747 301.192 238.552 301.191 238.203 301.204C237.801 301.225 237.309 301.252 236.726 301.282C235.48 301.36 233.76 301.483 231.86 301.635C229.961 301.787 228.242 301.938 227 302.06C226.421 302.122 225.929 302.174 225.529 302.217C225.182 302.26 224.991 302.292 224.992 302.308C224.994 302.325 225.187 302.326 225.537 302.313C225.938 302.292 226.432 302.266 227.015 302.234C228.26 302.157 229.981 302.033 231.88 301.882C233.779 301.73 235.498 301.579 236.74 301.457C237.319 301.395 237.811 301.342 238.211 301.299C238.558 301.257 238.749 301.225 238.747 301.208Z" fill="#DADBD8"/>
<path d="M232.811 318.6C232.81 318.584 232.562 318.586 232.115 318.601C231.621 318.626 230.985 318.658 230.221 318.695C228.623 318.785 226.417 318.927 223.982 319.098C221.545 319.27 219.34 319.439 217.746 319.573C216.985 319.643 216.351 319.701 215.858 319.745C215.414 319.791 215.167 319.825 215.168 319.842C215.169 319.86 215.417 319.858 215.865 319.841C216.358 319.817 216.994 319.786 217.759 319.747C219.357 319.658 221.562 319.517 223.998 319.345C226.434 319.174 228.639 319.004 230.234 318.87C230.995 318.801 231.629 318.743 232.122 318.698C232.566 318.651 232.812 318.619 232.811 318.6Z" fill="#DADBD8"/>
<path d="M215.58 319.694C215.595 319.684 215.459 319.456 215.203 319.051C214.921 318.61 214.553 318.036 214.109 317.342C213.188 315.899 211.922 313.901 210.587 311.656C209.249 309.412 208.091 307.35 207.263 305.851C206.865 305.132 206.534 304.534 206.281 304.077C206.048 303.658 205.911 303.431 205.896 303.438C205.88 303.446 205.988 303.689 206.196 304.121C206.403 304.552 206.713 305.174 207.109 305.934C207.898 307.456 209.034 309.536 210.375 311.783C211.711 314.032 213.003 316.019 213.964 317.438C214.445 318.148 214.841 318.717 215.124 319.105C215.405 319.494 215.567 319.704 215.58 319.694Z" fill="#DADBD8"/>
<path d="M248.942 68.6458H75.6914V0.191383H248.942V68.6458Z" fill="#FE4D00"/>
<path d="M248.942 68.6458C248.942 68.6458 248.932 68.2308 248.927 67.4325C248.925 66.6303 248.92 65.4463 248.914 63.8945C248.905 60.785 248.894 56.2056 248.88 50.2995C248.862 38.4979 248.836 21.3995 248.805 0.19136L248.942 0.327179C205.239 0.342186 143.753 0.363953 75.7034 0.386459H75.6913L75.8866 0.19136C75.8836 24.1405 75.8813 47.2741 75.8783 68.6458L75.6913 68.4589C125.859 68.4942 169.147 68.525 199.899 68.5468C215.287 68.5693 227.537 68.5873 235.947 68.5993C240.151 68.609 243.394 68.6173 245.592 68.6225C246.688 68.6278 247.521 68.6315 248.087 68.6345C248.649 68.6383 248.942 68.6458 248.942 68.6458C248.942 68.6458 248.665 68.6541 248.111 68.6578C247.549 68.6601 246.723 68.6645 245.638 68.669C243.449 68.6751 240.219 68.6833 236.032 68.6931C227.631 68.7051 215.396 68.7231 200.027 68.7456C169.243 68.7673 125.911 68.7974 75.6913 68.8334H75.5036V68.6458C75.5013 47.2741 75.4983 24.1405 75.4961 0.19136V-0.0037384H75.6913H75.7034C143.753 0.0195236 205.239 0.040535 248.942 0.055542H249.079L249.078 0.19136C249.047 21.4347 249.021 38.5602 249.004 50.3821C248.989 56.2746 248.978 60.8436 248.971 63.9471C248.964 65.4875 248.959 66.6633 248.956 67.4602C248.951 68.2496 248.942 68.6458 248.942 68.6458Z" fill="#17282F"/>
<path d="M115.463 15.9632H115.45C113.988 15.9564 112.675 16.706 111.939 17.9681L95.196 46.6498C94.4593 47.9119 94.4525 49.4224 95.178 50.6912C95.9011 51.9563 97.2018 52.7165 98.6587 52.727H98.6714L131.902 52.8748C133.364 52.8808 134.677 52.1319 135.413 50.8698C136.15 49.6077 136.157 48.0972 135.431 46.8284L118.944 17.9996C118.22 16.7345 116.92 15.9744 115.463 15.9632ZM98.6451 54.4475C96.568 54.4325 94.7139 53.3483 93.6828 51.5451C92.6488 49.736 92.6585 47.5825 93.7083 45.7831L110.452 17.1007C111.501 15.3021 113.373 14.2336 115.458 14.2426H115.476C117.553 14.2584 119.408 15.3426 120.439 17.1457L136.927 45.9745C137.961 47.7836 137.952 49.9371 136.901 51.7365C135.85 53.5358 133.979 54.6043 131.894 54.5953L98.6639 54.4475H98.6451Z" fill="white"/>
<path d="M113.142 27.9359L117.214 27.9374L116.521 40.806L113.796 40.8053L113.142 27.9359ZM112.941 45.2317C112.942 44.0491 113.878 43.1156 115.171 43.1156C116.437 43.1156 117.344 44.0513 117.344 45.2339C117.344 46.4157 116.435 47.3777 115.169 47.3777C113.876 47.3777 112.941 46.4135 112.941 45.2317Z" fill="white"/>
<path d="M144.817 30.1832L143.485 26.8697L142.152 30.1832H144.817ZM145.675 32.3428H141.293L140.479 34.3552H137.488L142.063 23.9995H144.95L149.54 34.3552H146.49L145.675 32.3428Z" fill="white"/>
<path d="M152.058 26.3219H148.875V23.9995H158.157V26.3219H154.989V34.3552H152.058V26.3219Z" fill="white"/>
<path d="M161.609 26.3219H158.426V23.9995H167.708V26.3219H164.54V34.3552H161.609V26.3219Z" fill="white"/>
<path d="M177.125 32.0922V34.3552H168.805V23.9995H176.932V26.2634H171.706V28.0087H176.31V30.1982H171.706V32.0922H177.125Z" fill="white"/>
<path d="M188.614 23.9995V34.3552H186.2L181.626 28.8371V34.3552H178.754V23.9995H181.167L185.742 29.5177V23.9995H188.614Z" fill="white"/>
<path d="M192.893 26.3219H189.711V23.9995H198.993V26.3219H195.824V34.3552H192.893V26.3219Z" fill="white"/>
<path d="M200.09 23.9995H203.022V34.3552H200.09V23.9995Z" fill="white"/>
<path d="M213.135 29.1777C213.135 27.3874 211.907 26.219 210.337 26.219C208.768 26.219 207.539 27.3874 207.539 29.1777C207.539 30.9673 208.768 32.1356 210.337 32.1356C211.907 32.1356 213.135 30.9673 213.135 29.1777ZM204.578 29.1777C204.578 26.0712 207.021 23.7924 210.337 23.7924C213.653 23.7924 216.096 26.0712 216.096 29.1777C216.096 32.2834 213.653 34.5615 210.337 34.5615C207.021 34.5615 204.578 32.2834 204.578 29.1777Z" fill="white"/>
<path d="M227.497 23.9995V34.3552H225.083L220.51 28.8371V34.3552H217.637V23.9995H220.05L224.625 29.5177V23.9995H227.497Z" fill="white"/>
<path d="M161.864 44.1482C161.864 43.4353 161.414 43.0189 160.514 43.0189H159.306V45.267H160.514C161.414 45.267 161.864 44.8505 161.864 44.1482ZM164.06 44.1482C164.06 45.8927 162.742 46.9778 160.646 46.9778H159.306V48.9857H157.133V41.3073H160.646C162.742 41.3073 164.06 42.3931 164.06 44.1482Z" fill="white"/>
<path d="M165.113 41.3073H167.287V47.2636H170.953V48.9857H165.113V41.3073Z" fill="white"/>
<path d="M177.978 47.3072V48.9857H171.809V41.3073H177.835V42.9851H173.96V44.2795H177.374V45.9033H173.96V47.3072H177.978Z" fill="white"/>
<path d="M183.696 45.8927L182.708 43.4353L181.72 45.8927H183.696ZM184.332 47.494H181.083L180.479 48.9857H178.262L181.654 41.3073H183.795L187.197 48.9857H184.935L184.332 47.494Z" fill="white"/>
<path d="M187.273 48.2946L187.987 46.6926C188.667 47.1429 189.634 47.4497 190.523 47.4497C191.423 47.4497 191.775 47.1976 191.775 46.8247C191.775 45.6069 187.406 46.4953 187.406 43.6432C187.406 42.2723 188.525 41.1535 190.808 41.1535C191.807 41.1535 192.839 41.3838 193.596 41.8228L192.927 43.4353C192.191 43.0406 191.467 42.8433 190.797 42.8433C189.886 42.8433 189.557 43.1502 189.557 43.5336C189.557 44.7072 193.915 43.83 193.915 46.6596C193.915 47.9982 192.795 49.1388 190.512 49.1388C189.25 49.1388 187.998 48.7989 187.273 48.2946Z" fill="white"/>
<path d="M201.082 47.3072V48.9857H194.914V41.3073H200.94V42.9851H197.066V44.2795H200.479V45.9033H197.066V47.3072H201.082Z" fill="white"/>
<path d="M201.941 41.3073H204.422L204.005 46.1883H202.347L201.941 41.3073ZM201.93 47.9322C201.93 47.2854 202.446 46.8029 203.181 46.8029C203.917 46.8029 204.422 47.2854 204.422 47.9322C204.422 48.5685 203.917 49.084 203.181 49.084C202.446 49.084 201.93 48.5685 201.93 47.9322Z" fill="white"/>
<path d="M85.7109 6.74506C85.7109 8.3906 84.3757 9.72473 82.7281 9.72473C81.0813 9.72473 79.7461 8.3906 79.7461 6.74506C79.7461 5.09953 81.0813 3.76462 82.7281 3.76462C84.3757 3.76462 85.7109 5.09953 85.7109 6.74506Z" fill="#DADBD8"/>
<path d="M85.711 6.745C85.675 6.7465 85.6742 6.48011 85.5436 6.0359C85.4152 5.59994 85.108 4.9674 84.4487 4.48642C83.8119 4.00319 82.7733 3.73906 81.7738 4.11574C80.7833 4.46166 79.9309 5.5159 79.9422 6.74423C79.9302 7.97332 80.7833 9.02831 81.7738 9.37422C82.774 9.7509 83.8119 9.48678 84.4494 9.00355C85.108 8.52182 85.4152 7.88929 85.5436 7.45333C85.6742 7.00987 85.675 6.7435 85.711 6.745C85.7283 6.7435 85.7816 7.01137 85.6915 7.49085C85.6021 7.95983 85.3168 8.6644 84.6169 9.22342C83.941 9.78243 82.7883 10.1186 81.6514 9.71265C80.5242 9.34348 79.5367 8.14815 79.5509 6.74423C79.5374 5.34181 80.5249 4.14574 81.6514 3.77731C82.7883 3.37137 83.941 3.70753 84.6169 4.26655C85.3168 4.82556 85.6021 5.53014 85.6915 5.99911C85.7816 6.47859 85.7283 6.7465 85.711 6.745Z" fill="#17282F"/>
<path d="M84.3395 5.27649C84.3651 5.3898 83.3445 5.60065 82.4471 6.43654C81.5317 7.25368 81.2276 8.24942 81.1172 8.21341C81.0136 8.21641 81.1705 7.06009 82.1835 6.14765C83.1846 5.22396 84.3516 5.17294 84.3395 5.27649Z" fill="#17282F"/>
<path d="M83.6994 8.06705C83.5905 8.10532 83.2668 7.29794 82.5084 6.59561C81.7619 5.87977 80.9374 5.60362 80.9697 5.49257C80.9764 5.39127 81.9429 5.51734 82.7765 6.31122C83.6183 7.09684 83.8008 8.05429 83.6994 8.06705Z" fill="#17282F"/>
<path d="M87.6399 61.6525C87.6399 63.298 86.3047 64.6321 84.6578 64.6321C83.0102 64.6321 81.6758 63.298 81.6758 61.6525C81.6758 60.0062 83.0102 58.6728 84.6578 58.6728C86.3047 58.6728 87.6399 60.0062 87.6399 61.6525Z" fill="#DADBD8"/>
<path d="M87.6407 61.6525C87.6047 61.6532 87.6039 61.3868 87.474 60.9434C87.3448 60.5074 87.0384 59.8748 86.3791 59.3939C85.7423 58.9106 84.703 58.6465 83.7042 59.0232C82.7129 59.3691 81.8613 60.4234 81.8719 61.6517C81.8606 62.8815 82.7129 63.935 83.7042 64.2825C84.7037 64.6584 85.7423 64.3943 86.3791 63.911C87.0384 63.4293 87.3448 62.7967 87.474 62.3615C87.6039 61.9173 87.6047 61.651 87.6407 61.6525C87.658 61.6502 87.7113 61.9188 87.6212 62.3983C87.5318 62.8673 87.2472 63.5719 86.5466 64.1309C85.8714 64.6899 84.718 65.0261 83.581 64.6201C82.4546 64.2509 81.4671 63.0556 81.4806 61.6517C81.4678 60.2493 82.4546 59.054 83.581 58.684C84.718 58.2788 85.8714 58.615 86.5466 59.174C87.2472 59.7323 87.5318 60.4369 87.6212 60.9059C87.7113 61.3853 87.658 61.654 87.6407 61.6525Z" fill="#17282F"/>
<path d="M86.2692 60.1833C86.2947 60.2973 85.2749 60.5082 84.3768 61.3441C83.4621 62.1612 83.158 63.157 83.0468 63.1209C82.9432 63.1239 83.1009 61.9684 84.1132 61.056C85.115 60.1315 86.2812 60.0805 86.2692 60.1833Z" fill="#17282F"/>
<path d="M85.6291 62.9746C85.5209 63.0129 85.1965 62.2055 84.4381 61.5032C83.6924 60.7873 82.8671 60.5105 82.8994 60.4002C82.9061 60.2981 83.8726 60.4249 84.7062 61.2188C85.548 62.0052 85.7312 62.9619 85.6291 62.9746Z" fill="#17282F"/>
<path d="M243.761 6.78034C243.761 8.42588 242.426 9.76001 240.78 9.76001C239.132 9.76001 237.797 8.42588 237.797 6.78034C237.797 5.13406 239.132 3.79994 240.78 3.79994C242.426 3.79994 243.761 5.13406 243.761 6.78034Z" fill="#DADBD8"/>
<path d="M243.762 6.78029C243.726 6.78104 243.726 6.51466 243.595 6.07045C243.466 5.63524 243.16 5.0027 242.501 4.52097C241.863 4.03774 240.825 3.77362 239.825 4.1503C238.835 4.49696 237.982 5.55047 237.994 6.77955C237.982 8.00864 238.834 9.06288 239.825 9.40954C240.825 9.78622 241.863 9.52133 242.501 9.0381C243.16 8.55712 243.467 7.92458 243.595 7.48862C243.726 7.04441 243.726 6.77879 243.762 6.78029C243.78 6.77804 243.833 7.04591 243.743 7.52614C243.654 7.99511 243.368 8.6997 242.668 9.25797C241.993 9.81699 240.84 10.1531 239.703 9.74794C238.576 9.37876 237.589 8.18272 237.602 6.77955C237.589 5.37638 238.576 4.18104 239.703 3.81186C240.84 3.40667 241.993 3.74208 242.668 4.3011C243.368 4.86012 243.654 5.56469 243.743 6.03367C243.833 6.51314 243.78 6.78179 243.762 6.78029Z" fill="#17282F"/>
<path d="M242.39 5.31108C242.415 5.42438 241.395 5.636 240.498 6.4719C239.582 7.28829 239.279 8.28399 239.168 8.24872C239.064 8.25172 239.222 7.09544 240.234 6.183C241.235 5.25931 242.402 5.20828 242.39 5.31108Z" fill="#17282F"/>
<path d="M241.75 8.10154C241.641 8.14056 241.318 7.33321 240.559 6.63087C239.813 5.91428 238.987 5.63813 239.02 5.52783C239.027 5.42578 239.994 5.5526 240.827 6.34648C241.668 7.13211 241.852 8.08879 241.75 8.10154Z" fill="#17282F"/>
<path d="M243.761 61.6525C243.761 63.298 242.426 64.6321 240.78 64.6321C239.132 64.6321 237.797 63.298 237.797 61.6525C237.797 60.0062 239.132 58.6728 240.78 58.6728C242.426 58.6728 243.761 60.0062 243.761 61.6525Z" fill="#DADBD8"/>
<path d="M243.762 61.6525C243.726 61.6532 243.726 61.3868 243.595 60.9434C243.466 60.5074 243.16 59.8748 242.501 59.3939C241.863 58.9106 240.825 58.6465 239.825 59.0232C238.835 59.3691 237.982 60.4234 237.994 61.6517C237.982 62.8815 238.834 63.935 239.825 64.2825C240.825 64.6584 241.863 64.3943 242.501 63.911C243.16 63.4293 243.467 62.7967 243.595 62.3615C243.726 61.9173 243.726 61.651 243.762 61.6525C243.78 61.6502 243.833 61.9188 243.743 62.3983C243.654 62.8673 243.368 63.5719 242.668 64.1309C241.993 64.6899 240.84 65.0261 239.703 64.6201C238.576 64.2509 237.589 63.0556 237.602 61.6517C237.589 60.2493 238.576 59.054 239.703 58.684C240.84 58.2788 241.993 58.615 242.668 59.174C243.368 59.7323 243.654 60.4369 243.743 60.9059C243.833 61.3853 243.78 61.654 243.762 61.6525Z" fill="#17282F"/>
<path d="M242.39 60.1833C242.415 60.2973 241.395 60.5082 240.498 61.3441C239.582 62.1612 239.279 63.157 239.168 63.1209C239.064 63.1239 239.222 61.9684 240.234 61.056C241.235 60.1315 242.402 60.0805 242.39 60.1833Z" fill="#17282F"/>
<path d="M241.75 62.9746C241.641 63.0129 241.318 62.2055 240.559 61.5032C239.813 60.7873 238.987 60.5105 239.02 60.4002C239.027 60.2981 239.994 60.4249 240.827 61.2188C241.668 62.0052 241.852 62.9619 241.75 62.9746Z" fill="#17282F"/>
<path d="M28.7109 300.466L33.0274 328.808H58.1026L63.9228 300.876L28.7109 300.466Z" fill="#FE4D00"/>
<path d="M60.4155 318.63C60.4155 318.712 53.9901 318.776 46.0658 318.776C38.139 318.776 31.7148 318.712 31.7148 318.63C31.7148 318.549 38.139 318.483 46.0658 318.483C53.9901 318.483 60.4155 318.549 60.4155 318.63Z" fill="#FAFAF9"/>
<path d="M60.5126 317.236C60.5126 317.318 54.0438 317.383 46.0655 317.383C38.0848 317.383 31.6172 317.318 31.6172 317.236C31.6172 317.155 38.0848 317.089 46.0655 317.089C54.0438 317.089 60.5126 317.155 60.5126 317.236Z" fill="#FAFAF9"/>
<path d="M60.4618 315.661C60.4618 315.742 53.9927 315.809 46.0147 315.809C38.0337 315.809 31.5664 315.742 31.5664 315.661C31.5664 315.581 38.0337 315.515 46.0147 315.515C53.9927 315.515 60.4618 315.581 60.4618 315.661Z" fill="#FAFAF9"/>
<path d="M35.9057 327.19C35.8253 327.204 35.4809 325.606 35.1362 323.622C34.7916 321.636 34.5771 320.017 34.6575 320.003C34.7373 319.99 35.0817 321.587 35.4264 323.572C35.7711 325.557 35.9855 327.177 35.9057 327.19Z" fill="#FAFAF9"/>
<path d="M37.6117 326.889C37.5284 326.891 37.4328 325.33 37.3008 323.407C37.1711 321.485 37.0544 319.925 37.1371 319.915C37.216 319.906 37.4642 321.457 37.5944 323.388C37.7267 325.318 37.6909 326.888 37.6117 326.889Z" fill="#FAFAF9"/>
<path d="M40.7211 326.888C40.6433 326.902 40.301 325.309 40.0689 323.318C39.8337 321.326 39.7991 319.698 39.8777 319.694C39.961 319.688 40.1271 321.301 40.3611 323.283C40.592 325.267 40.8037 326.873 40.7211 326.888Z" fill="#FAFAF9"/>
<path d="M42.9046 327.038C42.8259 327.044 42.6212 325.423 42.5572 323.41C42.4904 321.397 42.5892 319.766 42.6682 319.768C42.7514 319.77 42.7849 321.396 42.8515 323.401C42.9154 325.404 42.9879 327.03 42.9046 327.038Z" fill="#FAFAF9"/>
<path d="M46.7656 326.889C46.6844 326.892 46.5661 325.351 46.5019 323.446C46.4373 321.543 46.4505 319.996 46.5318 319.994C46.6133 319.992 46.7313 321.532 46.7958 323.437C46.8603 325.341 46.8469 326.887 46.7656 326.889Z" fill="#FAFAF9"/>
<path d="M49.5899 327.038C49.5084 327.038 49.4556 325.443 49.4716 323.477C49.4875 321.51 49.5667 319.917 49.6477 319.918C49.7289 319.918 49.782 321.513 49.7662 323.48C49.75 325.445 49.6712 327.039 49.5899 327.038Z" fill="#FAFAF9"/>
<path d="M52.2358 326.66C52.1548 326.653 52.2507 324.986 52.4497 322.938C52.6485 320.89 52.8756 319.236 52.9565 319.244C53.0372 319.252 52.9416 320.918 52.7427 322.966C52.5435 325.014 52.317 326.668 52.2358 326.66Z" fill="#FAFAF9"/>
<path d="M55.6473 326.289C55.5696 326.279 55.6916 324.849 56.0691 323.123C56.4431 321.396 56.9268 320.046 57.0016 320.069C57.0823 320.093 56.7276 321.472 56.3566 323.186C55.982 324.898 55.7303 326.3 55.6473 326.289Z" fill="#FAFAF9"/>
<path d="M25.832 294.854V300.157C25.832 301.31 26.7675 302.245 27.9215 302.245H64.2331C65.3872 302.245 66.3227 301.31 66.3227 300.157V294.854H25.832Z" fill="#FE4D00"/>
<path d="M62.787 306.319L29.2818 303.933L28.9805 302.245H63.6359L62.787 306.319Z" fill="#9C2438"/>
<path d="M39.0021 294.838C33.6668 291.747 30.8117 284.556 30.5987 278.671C30.3858 272.786 32.8384 266.647 37.6683 263.272C42.7563 259.718 50.0018 259.782 55.2292 263.127C60.4569 266.473 63.5193 272.786 63.2832 278.984C63.0474 285.183 59.6657 291.102 54.6648 294.777" fill="#33535F"/>
<path d="M47.5197 295.406C47.4854 295.406 47.4519 294.927 47.4211 294.06C47.3936 293.097 47.359 291.865 47.317 290.389C47.2375 287.29 47.1157 283.01 46.9087 278.287C46.6995 273.562 46.4452 269.287 46.2518 266.193C46.1639 264.719 46.0905 263.49 46.033 262.528C45.9876 261.662 45.9788 261.182 46.0131 261.179C46.0477 261.176 46.1219 261.651 46.2269 262.512C46.3331 263.373 46.4631 264.622 46.6045 266.166C46.8878 269.256 47.1991 273.533 47.4079 278.265C47.6156 282.995 47.6817 287.283 47.6705 290.386C47.6655 291.937 47.6458 293.192 47.6156 294.059C47.5866 294.927 47.5543 295.406 47.5197 295.406Z" fill="white"/>
<path d="M32.1778 277.338C32.1664 277.476 31.3157 277.518 30.2772 277.434C29.2388 277.348 28.4066 277.167 28.4181 277.03C28.4289 276.893 29.2799 276.85 30.3183 276.935C31.3565 277.02 32.1892 277.201 32.1778 277.338Z" fill="#17282F"/>
<path d="M32.47 272.059C32.414 272.185 31.6797 271.982 30.8305 271.605C29.981 271.228 29.338 270.821 29.394 270.695C29.4497 270.569 30.1837 270.772 31.0335 271.149C31.8827 271.525 32.5257 271.933 32.47 272.059Z" fill="#17282F"/>
<path d="M35.1876 268.139C35.1161 268.253 34.2909 267.865 33.4334 267.154C32.5733 266.444 32.0372 265.707 32.1369 265.616C32.2395 265.519 32.9198 266.083 33.752 266.769C34.5818 267.458 35.263 268.02 35.1876 268.139Z" fill="#17282F"/>
<path d="M37.922 264.441C37.7959 264.498 37.4007 263.879 37.0391 263.062C36.6777 262.245 36.487 261.537 36.6131 261.48C36.7396 261.425 37.135 262.042 37.4964 262.86C37.8578 263.677 38.0487 264.385 37.922 264.441Z" fill="#17282F"/>
<path d="M42.2128 261.817C42.0902 261.874 41.664 261.217 41.3818 260.307C41.0964 259.396 41.0741 258.613 41.2081 258.591C41.3466 258.566 41.5845 259.282 41.8591 260.158C42.1301 261.034 42.3404 261.759 42.2128 261.817Z" fill="#17282F"/>
<path d="M49.3734 258.859C49.5039 258.905 49.4241 259.466 49.1958 260.113C48.9676 260.759 48.6769 261.247 48.547 261.2C48.4167 261.154 48.4963 260.593 48.7245 259.946C48.9527 259.301 49.2434 258.814 49.3734 258.859Z" fill="#17282F"/>
<path d="M54.6855 261.137C54.779 261.238 54.4384 261.705 53.9245 262.18C53.4106 262.655 52.918 262.958 52.8241 262.857C52.7303 262.756 53.0709 262.288 53.5851 261.813C54.0987 261.338 54.5916 261.035 54.6855 261.137Z" fill="#17282F"/>
<path d="M59.36 264.153C59.4377 264.266 59.0223 264.684 58.4324 265.082C57.8425 265.481 57.3015 265.713 57.2241 265.598C57.1467 265.484 57.5624 265.068 58.1522 264.668C58.7419 264.27 59.2825 264.038 59.36 264.153Z" fill="#17282F"/>
<path d="M62.6787 268.651C62.7324 268.778 62.078 269.178 61.2164 269.545C60.3542 269.912 59.6121 270.107 59.5578 269.98C59.5035 269.854 60.158 269.453 61.0202 269.086C61.8817 268.719 62.6244 268.524 62.6787 268.651Z" fill="#17282F"/>
<path d="M63.9862 273.556C64.003 273.692 63.337 273.888 62.4984 273.992C61.66 274.095 60.9666 274.069 60.9495 273.932C60.9329 273.794 61.5987 273.6 62.4368 273.496C63.2755 273.391 63.9689 273.419 63.9862 273.556Z" fill="#17282F"/>
<path d="M64.6652 279.594C64.6103 279.721 63.9007 279.535 63.0805 279.178C62.26 278.821 61.6399 278.43 61.6948 278.303C61.7499 278.177 62.4593 278.363 63.28 278.72C64.1002 279.075 64.7203 279.468 64.6652 279.594Z" fill="#17282F"/>
<path d="M64.0654 284.775C64.0214 284.901 63.1241 284.688 62.1868 284.072C61.2461 283.461 60.6905 282.726 60.7885 282.634C60.89 282.535 61.5717 283.078 62.4605 283.654C63.3449 284.236 64.1165 284.641 64.0654 284.775Z" fill="#17282F"/>
<path d="M61.3647 289.493C61.2822 289.599 60.5682 289.181 59.8829 288.441C59.1948 287.702 58.829 286.96 58.9422 286.886C59.0587 286.807 59.5905 287.395 60.249 288.101C60.9047 288.809 61.4524 289.382 61.3647 289.493Z" fill="#17282F"/>
<path d="M35.7291 290.046C35.7931 290.168 35.0429 290.685 34.0544 291.2C33.0653 291.714 32.2122 292.032 32.1483 291.909C32.0846 291.787 32.8344 291.27 33.8235 290.756C34.8121 290.242 35.6655 289.923 35.7291 290.046Z" fill="#17282F"/>
<path d="M33.3889 285.78C33.4458 285.905 32.8442 286.301 32.0457 286.662C31.2466 287.024 30.5529 287.216 30.496 287.09C30.4387 286.965 31.0401 286.569 31.8392 286.207C32.6379 285.846 33.332 285.654 33.3889 285.78Z" fill="#17282F"/>
<path d="M31.6661 282.001C31.6855 282.137 30.945 282.355 30.0131 282.487C29.0803 282.62 28.3088 282.616 28.2894 282.479C28.2703 282.343 29.0102 282.126 29.9427 281.993C30.8752 281.861 31.6467 281.865 31.6661 282.001Z" fill="#17282F"/>
<path d="M37.3122 279.918C37.3536 280.046 36.6311 280.383 35.6684 280.491C34.705 280.601 33.9261 280.434 33.9376 280.299C33.9467 280.158 34.7003 280.1 35.612 279.994C36.524 279.893 37.272 279.783 37.3122 279.918Z" fill="#17282F"/>
<path d="M42.0021 275.255C42.0429 275.383 41.4679 275.674 40.6932 275.749C39.9179 275.827 39.2977 275.654 39.3128 275.519C39.3259 275.379 39.9234 275.324 40.6439 275.252C41.3647 275.183 41.9619 275.12 42.0021 275.255Z" fill="#17282F"/>
<path d="M42.8995 271.519C42.8543 271.649 42.2322 271.553 41.51 271.303C40.7878 271.054 40.2389 270.746 40.2838 270.616C40.329 270.486 40.9508 270.581 41.6734 270.831C42.3956 271.08 42.9444 271.388 42.8995 271.519Z" fill="#17282F"/>
<path d="M44.6189 267.741C44.523 267.837 44.0953 267.555 43.7911 267.025C43.484 266.497 43.4543 265.986 43.5851 265.951C43.7201 265.912 43.9504 266.307 44.2241 266.776C44.4931 267.247 44.7204 267.644 44.6189 267.741Z" fill="#17282F"/>
<path d="M42.5471 283.208C42.5799 283.342 42.041 283.589 41.3438 283.758C40.9413 283.857 40.5737 283.909 40.3329 283.908L40.2344 283.617C40.4148 283.584 40.5312 283.591 40.5547 283.644C40.5782 283.698 40.5045 283.789 40.3581 283.9L40.2596 283.608C40.4726 283.496 40.8225 283.372 41.2256 283.274C41.9225 283.103 42.5142 283.074 42.5471 283.208Z" fill="#17282F"/>
<path d="M43.5115 289.831C43.5617 289.959 42.8747 290.349 41.9776 290.702C41.0797 291.054 40.3112 291.236 40.2604 291.107C40.21 290.98 40.8966 290.589 41.7945 290.236C42.6922 289.884 43.4608 289.703 43.5115 289.831Z" fill="#17282F"/>
<path d="M38.2142 286.889C38.2588 287.019 37.8006 287.294 37.1911 287.5C36.5818 287.708 36.0514 287.77 36.0069 287.639C35.9626 287.51 36.4204 287.235 37.0303 287.028C37.6396 286.821 38.1699 286.759 38.2142 286.889Z" fill="#17282F"/>
<path d="M38.6193 273.408C38.5879 273.539 37.79 273.461 36.8686 273.133C35.9467 272.808 35.277 272.368 35.3356 272.245C35.3955 272.119 36.1403 272.347 37.0355 272.662C37.9302 272.98 38.6527 273.271 38.6193 273.408Z" fill="#17282F"/>
<path d="M51.4418 271.942C51.5178 272.058 51.069 272.487 50.4391 272.902C49.8091 273.317 49.2368 273.561 49.1608 273.445C49.0845 273.33 49.5336 272.901 50.1637 272.485C50.7935 272.07 51.3661 271.827 51.4418 271.942Z" fill="#17282F"/>
<path d="M52.1367 278.593C52.1649 278.728 51.6929 278.941 51.0825 279.067C50.4723 279.193 49.9548 279.186 49.927 279.051C49.8988 278.916 50.3708 278.704 50.9812 278.577C51.5914 278.451 52.1089 278.458 52.1367 278.593Z" fill="#17282F"/>
<path d="M52.9469 286.072C52.8885 286.197 52.2091 286.006 51.4291 285.644C50.6488 285.284 50.0634 284.889 50.1211 284.764C50.1795 284.639 50.8586 284.83 51.6395 285.192C52.4192 285.552 53.0049 285.946 52.9469 286.072Z" fill="#17282F"/>
<path d="M51.2332 293.352C51.1264 293.44 50.6852 293.079 50.2479 292.547C49.8102 292.015 49.5418 291.513 49.6483 291.425C49.7551 291.337 50.1963 291.698 50.6339 292.231C51.0719 292.763 51.34 293.265 51.2332 293.352Z" fill="#17282F"/>
<path d="M50.8844 267.044C50.9686 267.151 50.6773 267.518 50.1774 267.768C49.6784 268.019 49.2097 268.032 49.1745 267.902C49.137 267.767 49.5028 267.549 49.953 267.321C50.4047 267.096 50.7987 266.934 50.8844 267.044Z" fill="#17282F"/>
<path d="M57.1654 273.753C57.2112 273.88 56.6301 274.199 55.8342 274.309C55.0393 274.421 54.3928 274.272 54.4025 274.136C54.4098 273.996 55.0246 273.919 55.7659 273.814C56.5072 273.713 57.12 273.62 57.1654 273.753Z" fill="#17282F"/>
<path d="M55.9139 267.731C55.9752 267.852 55.3976 268.263 54.5771 268.525C53.7569 268.787 53.0479 268.787 53.0279 268.654C53.0051 268.515 53.6451 268.3 54.4249 268.048C55.2052 267.801 55.8517 267.605 55.9139 267.731Z" fill="#17282F"/>
<path d="M58.5369 283.079C58.5351 283.214 57.5481 283.301 56.3574 283.083C55.1658 282.87 54.2726 282.442 54.3181 282.315C54.3635 282.181 55.2972 282.386 56.4466 282.592C57.5947 282.803 58.541 282.938 58.5369 283.079Z" fill="#17282F"/>
<path d="M56.2048 291.827C56.122 291.934 55.3952 291.507 54.67 290.777C53.9429 290.049 53.5181 289.322 53.626 289.238C53.7366 289.152 54.3213 289.722 55.0244 290.424C55.7252 291.131 56.2922 291.717 56.2048 291.827Z" fill="#17282F"/>
<path d="M45.9384 260.613C46.0126 260.719 43.9448 261.558 41.5553 264.073C39.1669 266.535 36.7031 270.881 36.0962 276.132C35.8055 278.742 36.0548 281.267 36.4253 283.521C36.8152 285.776 37.3329 287.78 37.8105 289.449C38.2901 291.119 38.7307 292.456 39.0267 293.383C39.3232 294.31 39.4817 294.826 39.4476 294.838C39.4168 294.85 39.1968 294.357 38.8434 293.448C38.4904 292.539 37.9973 291.216 37.472 289.551C36.9486 287.886 36.3913 285.878 35.9715 283.6C35.5717 281.323 35.3013 278.757 35.5992 276.073C36.2194 270.702 38.7982 266.275 41.301 263.828C42.5462 262.585 43.7166 261.755 44.5708 261.275C44.9851 261.014 45.3432 260.873 45.5714 260.756C45.805 260.647 45.9307 260.597 45.9384 260.613Z" fill="white"/>
<path d="M52.7558 295.159C52.6473 295.105 53.8787 293.209 55.0028 289.793C56.1601 286.419 57.1166 281.423 56.3464 275.997C55.9858 273.291 55.2026 270.784 54.2173 268.64C53.1947 266.527 51.8761 264.795 50.5868 263.588C49.253 262.409 47.943 261.733 47.0292 261.341C46.1049 260.957 45.5511 260.867 45.5587 260.824C45.5616 260.808 45.7016 260.816 45.9676 260.855C46.2307 260.904 46.6183 260.991 47.0999 261.16C48.0547 261.505 49.4118 262.141 50.8201 263.323C52.1911 264.546 53.5522 266.273 54.6326 268.441C55.6635 270.622 56.4731 273.171 56.8412 275.928C57.6259 281.455 56.5928 286.529 55.3366 289.909C55.0541 290.772 54.691 291.512 54.4199 292.177C54.0982 292.822 53.8324 293.382 53.588 293.825C53.0799 294.702 52.7855 295.176 52.7558 295.159Z" fill="white"/>
<path d="M62.8968 166.134C62.8968 166.134 43.1678 214.628 39.9911 227.06C36.493 240.749 39.0504 251.706 56.5128 253.412C71.001 254.828 118.305 236.097 118.305 236.097L112.525 200.019L70.6712 216.882L80.8096 170.024L62.8968 166.134Z" fill="#F8A58D"/>
<path d="M85.5059 136.622C84.3374 135.973 81.4816 132.083 81.4816 132.083C81.4816 132.083 79.4052 118.593 78.4965 115.741C77.5879 112.887 74.9916 113.665 74.4474 114.703C73.9033 115.741 75.5107 138.568 75.5107 138.568L67.0737 142.978L61.225 146.35C61.225 146.35 59.934 147.776 59.6744 149.462C59.4148 151.148 62.7897 167.881 62.7897 167.881L80.5932 171.023C85.1815 166.673 87.7731 159.871 89.0106 151.408V138.828C89.0106 138.828 86.6737 137.271 85.5059 136.622Z" fill="#F8A58D"/>
<path d="M70.8164 141.221C70.8164 141.208 70.9901 141.194 71.3198 141.181C71.6903 141.173 72.1696 141.162 72.7639 141.148C73.4066 141.142 74.1708 141.136 75.0493 141.13C75.273 141.131 75.5042 141.133 75.7423 141.135C75.8602 141.142 75.9834 141.13 76.1283 141.164C76.2605 141.201 76.3866 141.247 76.5038 141.315C76.9814 141.576 77.3456 142.075 77.4808 142.655C77.7631 144.91 78.0305 147.539 78.4195 150.48C78.614 151.945 78.8167 153.489 79.1239 155.058C79.2162 155.441 79.2801 155.85 79.4528 156.175C79.618 156.507 79.8883 156.773 80.2338 156.907C80.9352 157.179 81.795 156.979 82.5054 156.604C82.8636 156.414 83.2008 156.169 83.4651 155.882C83.6514 155.638 83.722 155.191 83.7633 154.8C83.8376 153.991 83.8196 153.173 83.782 152.374C83.7024 150.772 83.5312 149.229 83.3405 147.764C83.1467 146.3 82.9282 144.911 82.6774 143.623C82.546 142.982 82.4251 142.356 82.2245 141.798C82.018 141.237 81.7522 140.721 81.4571 140.255C81.1635 139.786 80.842 139.367 80.5199 138.986C80.1962 138.596 79.8786 138.274 79.4873 138.084C78.7198 137.687 77.9141 137.726 77.3448 137.923C76.7876 138.127 76.3386 138.291 75.9916 138.418C75.6807 138.528 75.5148 138.58 75.5095 138.568C75.5043 138.555 75.6604 138.479 75.9623 138.345C76.2657 138.212 76.7073 138.016 77.2938 137.779C77.8863 137.55 78.7454 137.479 79.5857 137.89C80.01 138.079 80.3817 138.443 80.7076 138.823C81.0433 139.205 81.3805 139.629 81.6899 140.106C82.0008 140.581 82.2846 141.11 82.5077 141.694C82.7277 142.285 82.8554 142.912 82.995 143.559C83.2616 144.854 83.4929 146.246 83.6979 147.716C83.8992 149.187 84.0787 150.736 84.165 152.354C84.2048 153.165 84.2266 153.991 84.15 154.839C84.0892 155.263 84.0772 155.698 83.7557 156.144C83.4464 156.477 83.0844 156.737 82.6894 156.949C81.9107 157.352 80.9705 157.6 80.0896 157.268C79.6563 157.101 79.3026 156.75 79.1073 156.349C78.8993 155.942 78.8445 155.531 78.7484 155.135C78.4412 153.54 78.2482 151.997 78.062 150.526C77.694 147.592 77.4477 144.91 77.2112 142.717C77.1 142.203 76.7876 141.764 76.3814 141.532C76.1658 141.401 75.9834 141.367 75.7348 141.369C75.4982 141.361 75.2692 141.355 75.0464 141.348C74.169 141.33 73.4058 141.313 72.7636 141.3C72.1693 141.283 71.6903 141.271 71.3198 141.26C70.9901 141.247 70.8164 141.235 70.8164 141.221Z" fill="#F68260"/>
<path d="M79.4845 156.589C79.495 156.586 79.5604 156.751 79.5904 157.078C79.6152 157.4 79.6197 157.906 79.3659 158.481C79.1203 159.035 78.6232 159.724 77.7318 159.961C76.8772 160.177 75.7553 159.922 75.0405 159.055L75.0302 159.043L75.0212 159.025C74.5691 158.118 74.3301 157.028 74.2502 155.891C74.1573 154.752 74.1813 153.555 74.0649 152.344C73.9064 150.495 73.1825 148.847 72.4884 147.386C72.1317 146.657 71.8122 145.946 71.4497 145.339C71.2661 145.037 71.0687 144.759 70.8484 144.521C70.6356 144.258 70.3954 144.153 70.1047 144.034C68.9683 143.63 67.9619 143.517 67.2872 143.458C66.602 143.396 66.237 143.49 66.2273 143.466C66.1868 143.366 67.7861 143.039 70.2007 143.775C70.3503 143.83 70.5028 143.889 70.6559 143.976C70.8172 144.066 70.9543 144.192 71.068 144.315C71.3115 144.566 71.5274 144.857 71.7257 145.169C72.1186 145.8 72.4444 146.5 72.8129 147.229C73.5271 148.686 74.2884 150.385 74.4538 152.306C74.5729 153.55 74.5433 154.746 74.6269 155.862C74.6961 156.978 74.9144 158.013 75.3257 158.874L75.3062 158.844C75.907 159.604 76.9088 159.864 77.6695 159.691C78.4385 159.513 78.9363 158.903 79.1857 158.398C79.4477 157.874 79.477 157.395 79.4853 157.082C79.4898 156.764 79.459 156.592 79.4845 156.589Z" fill="#F68260"/>
<path d="M74.3369 157.982C74.3544 157.956 74.5211 158.27 74.2893 158.744C74.1831 158.974 74.013 159.234 73.7663 159.494C73.5214 159.739 73.1961 160.049 72.7077 160.13C72.2356 160.208 71.7015 160.077 71.2483 159.766C70.7883 159.453 70.4413 158.961 70.2054 158.413C69.7475 157.314 69.5498 155.996 69.7088 154.639C69.7689 154.126 69.883 153.629 70.0341 153.159L70.0957 153.368C69.0628 152.521 68.3653 151.449 67.9793 150.439L68.1755 150.539C66.7575 150.869 65.5501 150.472 64.8502 150.075C64.492 149.874 64.2424 149.669 64.0837 149.52C63.9282 149.367 63.8569 149.275 63.8684 149.264C63.8992 149.228 64.2271 149.561 64.9387 149.903C65.6355 150.236 66.791 150.556 68.0925 150.216L68.2327 150.18L68.2887 150.316C68.6812 151.269 69.3582 152.274 70.34 153.069L70.4416 153.15L70.4017 153.277C70.2614 153.725 70.1544 154.197 70.0972 154.686C69.9447 155.972 70.1262 157.238 70.5372 158.272C70.7458 158.783 71.0494 159.225 71.4348 159.502C71.8194 159.781 72.2741 159.906 72.6672 159.856C73.059 159.813 73.3644 159.559 73.6126 159.339C73.8578 159.11 74.0356 158.877 74.1535 158.675C74.4058 158.262 74.3061 157.989 74.3369 157.982Z" fill="#F68260"/>
<path d="M67.4464 147.174C67.5599 147.199 67.4602 147.927 67.7124 148.773C67.9662 149.62 68.2446 150.332 68.131 150.378C68.0459 150.413 67.6136 149.798 67.3352 148.876C67.0574 147.927 67.3516 147.134 67.4464 147.174Z" fill="#F68260"/>
<path d="M69.0964 153.218C69.0642 153.333 67.7881 152.975 66.1915 153.075C64.5936 153.156 63.3668 153.658 63.322 153.547C63.2686 153.465 64.4845 152.774 66.1695 152.685C67.853 152.582 69.1398 153.13 69.0964 153.218Z" fill="#F68260"/>
<path d="M85.7899 142.442C85.7914 142.464 85.5857 142.51 85.2072 142.493C84.831 142.475 84.279 142.379 83.6595 142.095C83.0414 141.815 82.3603 141.345 81.7543 140.681C81.1468 140.019 80.6166 139.182 80.1645 138.268C79.1695 136.491 78.936 134.403 79.6606 133.164C80.0083 132.552 80.57 132.245 80.9643 132.227C81.3615 132.212 81.5515 132.337 81.544 132.35C81.5365 132.386 81.3308 132.319 80.9853 132.377C80.6444 132.44 80.1885 132.733 79.9009 133.299C79.5915 133.849 79.5315 134.629 79.6298 135.476C79.6824 135.897 79.7718 136.338 79.9242 136.772C80.0752 137.196 80.3004 137.647 80.5152 138.094C80.9575 138.989 81.4584 139.798 82.0231 140.44C82.5841 141.084 83.2089 141.549 83.7804 141.847C84.9376 142.45 85.7989 142.368 85.7899 142.442Z" fill="#F68260"/>
<path d="M86.8372 153.624C86.7208 153.65 86.4166 152.303 85.5373 150.884C84.6752 149.456 83.6148 148.57 83.6914 148.479C83.7387 148.394 84.962 149.18 85.8714 150.68C86.7929 152.173 86.9356 153.619 86.8372 153.624Z" fill="#F68260"/>
<path d="M78.7984 120.154C78.8915 120.203 78.6114 120.896 78.0309 121.596C77.4526 122.301 76.8271 122.708 76.761 122.627C76.6889 122.542 77.177 122.021 77.7282 121.348C78.2839 120.679 78.7015 120.1 78.7984 120.154Z" fill="#F68260"/>
<path d="M82.913 143.082C82.8057 143.07 82.7561 142.725 82.8027 142.312C82.8492 141.899 82.9746 141.574 83.082 141.586C83.1886 141.598 83.2382 141.942 83.1917 142.356C83.1451 142.769 83.0204 143.094 82.913 143.082Z" fill="#F68260"/>
<path d="M59.2395 235.93C59.2204 235.911 59.4243 235.663 59.8083 235.231C60.1955 234.802 60.7452 234.173 61.409 233.383C62.739 231.806 64.4789 229.544 66.1403 226.872C67.7975 224.198 69.0529 221.635 69.8754 219.744C70.2882 218.799 70.6088 218.026 70.8209 217.489C71.0377 216.953 71.1697 216.661 71.1956 216.67C71.2207 216.678 71.1374 216.988 70.964 217.541C70.7954 218.096 70.5126 218.886 70.1307 219.851C69.3692 221.779 68.1427 224.383 66.4727 227.079C64.7983 229.77 63.0086 232.025 61.6182 233.564C60.9235 234.334 60.3407 234.939 59.9183 235.336C59.4991 235.736 59.2585 235.949 59.2395 235.93Z" fill="#F68260"/>
<path d="M222.71 233.934L246.365 239.457L241.456 207.722L221.872 197.648C214.406 193.807 206.329 191.29 198 190.211L184.723 188.489L148.44 188.664C140.29 187.727 129.124 190.534 115.49 196.988L86.0352 209.811L102.827 243.746L121.193 238.122L122.818 253.06L126.802 301.748L123.399 328.691H212.735L206.098 314.685C203.081 308.319 202.294 301.125 203.864 294.258L215.416 238.589C216.105 235.265 219.402 233.162 222.71 233.934Z" fill="#FE4D00"/>
<path d="M123.419 328.673H212.704L206.08 314.693C204.577 311.523 203.622 308.147 203.24 304.661C202.86 301.174 203.062 297.672 203.843 294.253L215.396 238.585C215.73 236.973 216.68 235.596 218.069 234.709C219.459 233.823 221.107 233.54 222.713 233.916L246.341 239.432L241.438 207.735L221.861 197.665C214.377 193.814 206.347 191.311 197.997 190.229L184.719 188.507L148.438 188.683C144.379 188.215 139.53 188.683 134.025 190.072C128.507 191.464 122.273 193.797 115.496 197.004L86.0596 209.82L102.834 243.724L121.207 238.098L121.21 238.121L122.835 253.058L126.819 301.746L123.419 328.673ZM212.762 328.711H123.376L123.378 328.689L126.781 301.745L122.797 253.061L121.175 238.148L102.815 243.77L102.808 243.755L86.0078 209.802L86.0266 209.794L115.481 196.971C122.259 193.762 128.495 191.429 134.015 190.036C139.524 188.646 144.376 188.176 148.44 188.646L184.721 188.469L198.002 190.192C206.356 191.275 214.39 193.779 221.879 197.631L241.471 207.71L241.473 207.72L246.386 239.482L246.359 239.475L222.704 233.953C221.109 233.579 219.471 233.86 218.09 234.741C216.709 235.622 215.765 236.99 215.433 238.593L203.88 294.261C203.1 297.677 202.896 301.174 203.278 304.657C203.659 308.14 204.613 311.511 206.113 314.678L212.762 328.711Z" fill="#17282F"/>
<path d="M122.815 253.06C122.788 253.061 122.732 252.599 122.653 251.762C122.566 250.861 122.45 249.667 122.309 248.22C122.005 245.231 121.504 241.111 120.743 236.592C119.976 232.072 119.094 228.015 118.398 225.093C118.055 223.681 117.772 222.514 117.559 221.635C117.358 220.818 117.259 220.363 117.285 220.355C117.311 220.349 117.46 220.79 117.706 221.595C117.955 222.399 118.285 223.571 118.666 225.026C119.432 227.937 120.36 231.996 121.128 236.526C121.892 241.057 122.351 245.195 122.585 248.195C122.702 249.695 122.776 250.911 122.806 251.752C122.838 252.593 122.842 253.058 122.815 253.06Z" fill="#17282F"/>
<path d="M225.126 222.675C225.167 222.737 224.012 223.469 222.34 224.892C221.501 225.599 220.559 226.505 219.575 227.568C218.606 228.645 217.605 229.886 216.67 231.272C215.749 232.667 214.986 234.067 214.362 235.374C213.757 236.69 213.282 237.908 212.952 238.954C212.278 241.042 212.046 242.389 211.972 242.375C211.946 242.369 211.989 242.032 212.09 241.422C212.136 241.115 212.204 240.743 212.312 240.317C212.416 239.891 212.516 239.399 212.688 238.872C212.987 237.806 213.442 236.564 214.035 235.224C214.648 233.892 215.412 232.468 216.346 231.055C217.292 229.651 218.316 228.4 219.31 227.324C220.321 226.262 221.294 225.366 222.164 224.68C222.584 224.32 223.001 224.039 223.355 223.778C223.707 223.514 224.025 223.31 224.29 223.149C224.815 222.822 225.112 222.652 225.126 222.675Z" fill="#17282F"/>
<path d="M175.168 252.896C175.173 252.896 175.161 252.939 175.134 253.024C175.101 253.122 175.06 253.244 175.008 253.399C174.884 253.749 174.712 254.238 174.49 254.864C174.017 256.169 173.337 258.045 172.475 260.424C170.705 265.236 168.193 272.072 165.187 280.255L165.026 280.692L164.867 280.254C162.083 272.587 158.815 263.587 155.334 253.996C155.196 253.616 155.058 253.236 154.923 252.864L154.898 252.795L154.925 252.727C158.62 243.192 162.072 234.285 165.003 226.722L165.162 226.313L165.317 226.722C168.292 234.572 170.772 241.112 172.515 245.711C173.365 247.983 174.035 249.774 174.501 251.02C174.718 251.616 174.889 252.082 175.011 252.418C175.062 252.564 175.102 252.681 175.135 252.775C175.161 252.856 175.173 252.896 175.168 252.896C175.164 252.897 175.143 252.856 175.108 252.776C175.068 252.681 175.02 252.564 174.958 252.418C174.824 252.084 174.637 251.618 174.398 251.023C173.911 249.782 173.21 247.996 172.321 245.731C170.548 241.155 168.028 234.65 165.003 226.842L165.317 226.842C162.4 234.412 158.966 243.325 155.29 252.867L155.291 252.73C155.426 253.103 155.564 253.483 155.701 253.864C159.166 263.46 162.417 272.467 165.187 280.137L164.867 280.136C167.924 271.996 170.478 265.194 172.276 260.405C173.177 258.034 173.889 256.162 174.385 254.861C174.628 254.236 174.818 253.749 174.955 253.399C175.017 253.244 175.067 253.122 175.107 253.024C175.143 252.939 175.164 252.897 175.168 252.896Z" fill="#FAFAF9"/>
<path d="M196.347 253.489C196.352 253.489 196.34 253.531 196.314 253.616C196.28 253.714 196.239 253.836 196.188 253.991C196.063 254.341 195.891 254.83 195.669 255.456C195.197 256.761 194.516 258.638 193.654 261.016C191.885 265.829 189.373 272.665 186.366 280.847L186.206 281.285L186.046 280.846C183.263 273.18 179.994 264.179 176.513 254.588C176.375 254.208 176.237 253.828 176.103 253.456L176.078 253.387L176.104 253.319C179.8 243.784 183.251 234.878 186.183 227.314L186.341 226.905L186.497 227.314C189.473 235.164 191.951 241.704 193.696 246.303C194.544 248.576 195.215 250.367 195.68 251.612C195.898 252.21 196.068 252.674 196.19 253.01C196.241 253.156 196.281 253.273 196.314 253.368C196.34 253.448 196.352 253.489 196.347 253.489C196.343 253.489 196.323 253.448 196.288 253.368C196.248 253.274 196.199 253.157 196.138 253.01C196.003 252.676 195.817 252.211 195.577 251.616C195.09 250.374 194.389 248.588 193.5 246.324C191.727 241.748 189.208 235.242 186.183 227.434L186.497 227.434C183.58 235.004 180.146 243.917 176.469 253.46L176.471 253.323C176.605 253.695 176.743 254.075 176.881 254.456C180.345 264.053 183.597 273.059 186.366 280.73L186.046 280.728C189.103 272.588 191.657 265.786 193.455 260.997C194.357 258.626 195.07 256.755 195.565 255.454C195.807 254.828 195.997 254.341 196.134 253.991C196.197 253.836 196.247 253.714 196.286 253.616C196.322 253.531 196.343 253.489 196.347 253.489Z" fill="#FAFAF9"/>
<path d="M207.198 281.059C207.185 281.064 207.105 280.881 206.963 280.528C206.813 280.139 206.614 279.623 206.364 278.978C205.844 277.588 205.117 275.641 204.225 273.253C202.443 268.372 200.003 261.693 197.308 254.315C197.235 254.114 197.163 253.913 197.095 253.727L197.07 253.658L197.097 253.59C199.899 246.4 202.425 239.921 204.269 235.192C205.19 232.88 205.939 230.999 206.475 229.654C206.732 229.031 206.937 228.534 207.092 228.157C207.237 227.817 207.319 227.64 207.332 227.645C207.344 227.65 207.286 227.836 207.165 228.185C207.026 228.568 206.844 229.075 206.616 229.707C206.107 231.064 205.398 232.96 204.524 235.291C202.708 240.03 200.221 246.525 197.462 253.731L197.462 253.594C197.53 253.78 197.603 253.981 197.676 254.182C200.329 261.576 202.73 268.268 204.485 273.16C205.329 275.565 206.016 277.525 206.507 278.926C206.728 279.582 206.905 280.106 207.038 280.501C207.155 280.863 207.211 281.055 207.198 281.059Z" fill="#FAFAF9"/>
<path d="M155.105 252.797C155.109 252.797 155.098 252.839 155.071 252.924C155.038 253.024 154.997 253.145 154.945 253.3C154.821 253.65 154.648 254.139 154.427 254.765C153.955 256.069 153.274 257.946 152.411 260.325C150.643 265.137 148.131 271.973 145.123 280.156L144.963 280.593L144.804 280.155C142.02 272.488 138.752 263.488 135.271 253.898C135.133 253.517 134.996 253.136 134.861 252.764L134.836 252.695L134.862 252.628C138.558 243.092 142.009 234.186 144.941 226.622L145.099 226.213L145.255 226.622C148.23 234.472 150.709 241.012 152.453 245.612C153.303 247.884 153.973 249.676 154.438 250.921C154.656 251.518 154.826 251.983 154.948 252.318C154.999 252.464 155.039 252.581 155.072 252.676C155.098 252.756 155.109 252.797 155.105 252.797C155.1 252.797 155.081 252.757 155.046 252.676C155.006 252.582 154.957 252.465 154.895 252.318C154.761 251.984 154.574 251.52 154.335 250.924C153.848 249.682 153.146 247.897 152.258 245.632C150.485 241.056 147.966 234.551 144.941 226.742H145.255C142.337 234.313 138.904 243.226 135.227 252.769L135.229 252.631C135.363 253.004 135.501 253.383 135.639 253.764C139.103 263.361 142.355 272.367 145.124 280.038L144.805 280.037C147.861 271.896 150.415 265.094 152.213 260.306C153.115 257.934 153.827 256.063 154.322 254.762C154.566 254.137 154.755 253.65 154.892 253.3C154.954 253.145 155.004 253.024 155.044 252.924C155.08 252.839 155.1 252.797 155.105 252.797Z" fill="#FAFAF9"/>
<path d="M121.655 242.375C121.647 242.372 121.659 242.273 121.692 242.082C121.732 241.864 121.784 241.585 121.849 241.237C122.003 240.467 122.219 239.39 122.491 238.032C123.072 235.24 123.893 231.296 124.882 226.549L124.994 226.012L125.192 226.525C127.295 231.988 129.824 238.555 132.547 245.625C133.466 248.026 134.362 250.371 135.227 252.629L135.252 252.697L135.228 252.765C132.312 260.533 129.759 267.339 127.922 272.237C127.002 274.644 126.263 276.58 125.739 277.948C125.486 278.591 125.286 279.099 125.138 279.475C124.997 279.822 124.918 280.001 124.907 279.998C124.896 279.993 124.953 279.806 125.072 279.451C125.206 279.069 125.386 278.554 125.614 277.901C126.111 276.524 126.815 274.574 127.689 272.151C129.495 267.241 132.004 260.419 134.869 252.631L134.869 252.766C134.003 250.509 133.103 248.166 132.182 245.765C129.483 238.687 126.975 232.111 124.889 226.64L125.199 226.617C124.155 231.352 123.287 235.285 122.673 238.071C122.364 239.421 122.12 240.491 121.945 241.257C121.861 241.602 121.794 241.877 121.741 242.092C121.692 242.28 121.663 242.376 121.655 242.375Z" fill="#FAFAF9"/>
<path d="M212.782 238.962L207.316 228.513L207.35 228.495L212.815 238.945L212.782 238.962Z" fill="#FAFAF9"/>
<path d="M181.125 291.268C181.134 291.276 181.047 291.399 180.869 291.625C180.665 291.88 180.404 292.204 180.082 292.606C179.397 293.456 178.363 294.651 177.046 296.094C175.734 297.539 174.107 299.204 172.243 300.992C170.366 302.766 168.244 304.657 165.931 306.537C163.608 308.408 161.314 310.089 159.187 311.553C157.048 313.004 155.081 314.246 153.392 315.229C151.707 316.215 150.321 316.978 149.346 317.469C148.886 317.702 148.514 317.889 148.223 318.035C147.965 318.161 147.827 318.222 147.821 318.211C147.815 318.2 147.941 318.118 148.189 317.971C148.471 317.809 148.832 317.603 149.28 317.347C150.233 316.818 151.596 316.024 153.261 315.011C154.929 314.003 156.877 312.741 158.998 311.282C161.11 309.806 163.389 308.123 165.705 306.259C168.011 304.384 170.132 302.508 172.015 300.752C173.886 298.982 175.526 297.341 176.861 295.921C178.198 294.504 179.259 293.336 179.975 292.514C180.319 292.132 180.597 291.822 180.813 291.579C181.008 291.368 181.116 291.26 181.125 291.268Z" fill="#17282F"/>
<path d="M144.921 276.794C144.596 276.794 144.27 276.789 143.948 276.779C142.892 273.854 141.777 270.765 140.616 267.549C142.561 267.506 144.535 267.218 146.409 266.772C147.693 266.466 148.949 266.096 150.192 265.689C148.982 268.91 147.582 272.64 146.029 276.776C145.66 276.788 145.29 276.794 144.921 276.794ZM143.573 276.764C141.091 276.648 138.692 276.193 136.583 275.195C132.654 273.337 130.246 269.101 132.32 265.678L132.966 266.037C135.08 267.116 137.562 267.554 140.115 267.554C140.153 267.554 140.191 267.554 140.229 267.554C141.394 270.762 142.513 273.844 143.573 276.764ZM146.371 276.762C147.904 272.592 149.285 268.835 150.475 265.596C153.173 264.702 155.809 263.651 158.514 262.762C160.022 266.914 161.467 270.897 162.827 274.642C158.541 274.891 154.321 275.885 150.052 276.436C148.841 276.592 147.605 276.709 146.371 276.762ZM179.74 275.548C177.3 275.548 174.824 275.307 172.337 275.066C170.641 274.901 168.941 274.736 167.244 274.648C169.207 269.308 170.889 264.732 172.201 261.163C172.509 261.222 172.814 261.29 173.118 261.368C175.433 261.958 177.566 263.082 179.827 263.725C181.287 267.748 182.689 271.61 184.01 275.247C182.603 275.464 181.178 275.548 179.74 275.548ZM184.363 275.189C183.069 271.606 181.697 267.804 180.267 263.843C181.151 264.067 182.058 264.209 183.006 264.209C183.071 264.209 183.136 264.208 183.202 264.206C185.035 264.168 186.888 263.581 188.684 263.581C189.116 263.581 189.546 263.615 189.971 263.699C190.794 263.863 191.499 264.213 192.067 264.685C191.054 267.384 189.884 270.501 188.584 273.961C188.069 274.19 187.537 274.389 186.997 274.559C186.127 274.832 185.249 275.038 184.363 275.189ZM166.931 274.633C166.245 274.601 165.559 274.583 164.874 274.583C164.525 274.583 164.178 274.588 163.83 274.598C163.617 274.604 163.406 274.613 163.194 274.622C161.832 270.85 160.382 266.834 158.87 262.646C159.072 262.581 159.274 262.517 159.476 262.454C162.445 261.531 165.635 260.848 168.742 260.848C169.844 260.848 170.935 260.935 172.003 261.126C170.663 264.696 168.942 269.28 166.931 274.633ZM188.957 273.789C190.179 270.463 191.283 267.46 192.245 264.841C193.549 266.047 194.034 267.926 193.416 269.55C192.728 271.36 191.006 272.807 188.957 273.789Z" fill="#FE4D00"/>
<path d="M167.246 274.648C167.142 274.643 167.037 274.638 166.933 274.633C168.943 269.28 170.665 264.696 172.005 261.126C172.071 261.138 172.136 261.15 172.203 261.163C170.891 264.732 169.209 269.308 167.246 274.648ZM162.829 274.641C161.469 270.897 160.024 266.914 158.516 262.762C158.634 262.723 158.753 262.685 158.872 262.646C160.384 266.834 161.833 270.85 163.196 274.622C163.073 274.628 162.951 274.635 162.829 274.641Z" fill="#A4A6A5"/>
<path d="M184.011 275.247C182.691 271.61 181.289 267.748 179.828 263.725C179.975 263.767 180.121 263.806 180.268 263.843C181.698 267.804 183.071 271.606 184.364 275.189C184.247 275.21 184.129 275.228 184.011 275.247ZM188.586 273.961C189.885 270.5 191.055 267.384 192.069 264.685C192.13 264.736 192.189 264.788 192.247 264.841C191.284 267.46 190.18 270.463 188.958 273.789C188.835 273.848 188.711 273.906 188.586 273.961Z" fill="#A4A6A5"/>
<path d="M143.949 276.779C143.824 276.775 143.699 276.77 143.574 276.764C142.515 273.844 141.395 270.762 140.23 267.554C140.36 267.553 140.488 267.551 140.617 267.549C141.778 270.765 142.893 273.854 143.949 276.779ZM146.031 276.776C147.584 272.64 148.984 268.91 150.193 265.689C150.288 265.658 150.382 265.627 150.477 265.596C149.286 268.835 147.905 272.591 146.373 276.762C146.259 276.767 146.145 276.772 146.031 276.776Z" fill="#A4A6A5"/>
<path d="M215.465 196.265C215.489 196.278 215.345 196.626 215.064 197.245C214.919 197.552 214.748 197.93 214.573 198.379C214.395 198.827 214.169 199.327 213.976 199.902C213.548 201.035 213.126 202.416 212.744 203.969C212.384 205.528 212.077 207.262 211.906 209.099C211.75 210.941 211.747 212.701 211.827 214.299C211.93 215.895 212.103 217.329 212.324 218.52C212.412 219.12 212.547 219.652 212.644 220.124C212.736 220.597 212.839 220.999 212.927 221.326C213.095 221.984 213.175 222.354 213.149 222.362C213.124 222.37 212.994 222.017 212.781 221.368C212.67 221.045 212.545 220.647 212.432 220.175C212.314 219.705 212.159 219.174 212.053 218.572C211.794 217.378 211.591 215.934 211.467 214.322C211.367 212.709 211.359 210.926 211.516 209.066C211.689 207.206 212.01 205.453 212.394 203.884C212.8 202.318 213.253 200.933 213.719 199.803C213.929 199.229 214.175 198.733 214.374 198.291C214.568 197.847 214.761 197.476 214.927 197.178C215.251 196.577 215.441 196.252 215.465 196.265Z" fill="#17282F"/>
<path d="M124.296 193.691C124.345 193.728 123.847 194.44 123.131 195.641C122.413 196.841 121.506 198.549 120.731 200.532C119.959 202.517 119.47 204.388 119.187 205.756C118.901 207.125 118.786 207.986 118.723 207.979C118.696 207.976 118.697 207.758 118.721 207.365C118.741 206.971 118.805 206.403 118.915 205.706C119.131 204.313 119.584 202.403 120.366 200.39C121.153 198.379 122.112 196.667 122.896 195.495C123.288 194.907 123.625 194.446 123.876 194.142C124.126 193.836 124.274 193.675 124.296 193.691Z" fill="#17282F"/>
<path d="M120.793 237.695C118.046 236.683 116.418 233.707 116.144 230.795C115.869 227.882 116.693 224.99 117.524 222.185L117.716 222.289C117.905 223.066 118.134 224.007 118.397 225.093C118.605 225.962 118.828 226.932 119.06 227.984C119.711 231.208 120.289 234.446 120.793 237.695Z" fill="#FE4D00"/>
<path d="M119.062 227.984C118.83 226.932 118.607 225.962 118.4 225.093C118.136 224.007 117.908 223.066 117.719 222.289L117.848 222.358C118.277 224.228 118.682 226.104 119.062 227.984Z" fill="#0F191D"/>
<path d="M181.47 115.862C184.452 116.183 186.692 118.731 186.626 121.728L183.18 192.262C183.035 201.468 169.568 206.641 159.702 206.412C149.736 204.061 149.373 198.088 149.249 189.329C149.041 174.695 149.104 179.832 149.099 179.916C149.099 179.916 136.515 177.8 133.944 161.383C132.664 153.219 133.104 139.838 133.818 128.902C134.461 119.057 141.016 106.992 150.831 108.052L181.47 115.862Z" fill="#F8A58D"/>
<path d="M139.287 139.568C139.245 140.679 140.152 141.631 141.313 141.696C142.472 141.761 143.447 140.915 143.489 139.803C143.53 138.692 142.623 137.739 141.464 137.674C140.303 137.609 139.329 138.457 139.287 139.568Z" fill="#17282F"/>
<path d="M136.709 136.453C136.969 136.728 138.568 135.551 140.834 135.563C143.099 135.541 144.759 136.71 145.006 136.433C145.127 136.311 144.862 135.815 144.139 135.287C143.428 134.761 142.212 134.247 140.8 134.25C139.389 134.254 138.2 134.771 137.516 135.302C136.818 135.834 136.581 136.33 136.709 136.453Z" fill="#17282F"/>
<path d="M161.236 139.805C161.194 140.917 162.101 141.868 163.262 141.933C164.421 141.998 165.395 141.152 165.437 140.04C165.479 138.929 164.572 137.976 163.413 137.911C162.252 137.846 161.277 138.694 161.236 139.805Z" fill="#17282F"/>
<path d="M159.189 136.453C159.45 136.728 161.051 135.552 163.316 135.563C165.58 135.542 167.241 136.71 167.487 136.434C167.608 136.311 167.346 135.815 166.62 135.287C165.909 134.76 164.694 134.247 163.282 134.25C161.87 134.255 160.681 134.771 159.997 135.302C159.301 135.834 159.061 136.33 159.189 136.453Z" fill="#17282F"/>
<path d="M150.725 153.118C150.735 152.99 149.327 152.743 147.044 152.447C146.466 152.385 145.918 152.269 145.822 151.875C145.686 151.457 145.93 150.834 146.212 150.162C146.76 148.763 147.332 147.298 147.934 145.762C150.325 139.497 152.056 134.345 151.803 134.251C151.549 134.157 149.405 139.158 147.015 145.423C146.44 146.968 145.889 148.441 145.366 149.85C145.145 150.507 144.767 151.251 145.06 152.119C145.215 152.552 145.639 152.866 146.01 152.967C146.381 153.081 146.707 153.087 146.993 153.105C149.291 153.234 150.716 153.247 150.725 153.118Z" fill="#17282F"/>
<path d="M149.102 179.916C149.102 179.916 160.149 180.652 171.11 174.102C171.11 174.102 165.535 185.672 149.102 184.1V179.916Z" fill="#F68260"/>
<path d="M151.088 158.624C152.212 156.943 153.911 155.821 155.444 155.748C156.508 155.698 157.506 156.164 157.998 157.17C158.49 158.176 158.391 159.751 157.633 160.936C156.779 162.27 155.327 162.809 154.198 162.596C153.068 162.382 152.19 161.568 151.361 160.749C151.132 160.522 150.9 160.285 150.786 159.937C150.674 159.589 150.712 159.101 150.966 158.749" fill="#F68260"/>
<path d="M157.394 154.7C157.025 154.678 157.015 157.136 154.905 158.876C152.799 160.622 150.177 160.34 150.158 160.684C150.123 160.838 150.74 161.163 151.847 161.195C152.932 161.235 154.519 160.89 155.81 159.825C157.097 158.758 157.653 157.331 157.739 156.323C157.835 155.296 157.562 154.686 157.394 154.7Z" fill="#17282F"/>
<path d="M157.899 131.253C158.183 131.843 160.406 131.332 163.083 131.389C165.763 131.393 167.973 131.957 168.27 131.373C168.401 131.094 167.972 130.554 167.051 130.045C166.137 129.538 164.717 129.11 163.11 129.089C161.504 129.072 160.075 129.468 159.15 129.955C158.216 130.442 157.775 130.971 157.899 131.253Z" fill="#17282F"/>
<path d="M136.909 132.718C137.405 133.231 139.344 132.694 141.676 132.665C144.007 132.57 145.985 133.002 146.439 132.464C146.637 132.202 146.326 131.687 145.462 131.202C144.61 130.718 143.187 130.324 141.584 130.366C139.982 130.41 138.594 130.878 137.783 131.406C136.96 131.937 136.69 132.467 136.909 132.718Z" fill="#17282F"/>
<path d="M193.116 171.239C193.113 171.253 193.015 171.239 192.831 171.202C192.648 171.161 192.38 171.094 192.041 170.98C191.375 170.749 190.383 170.36 189.41 169.492C188.452 168.656 187.577 167.139 187.805 165.372C187.931 164.518 188.355 163.587 189.228 163.075C189.65 162.831 190.25 162.725 190.742 163.003C191.2 163.251 191.598 163.808 191.42 164.418C191.342 164.702 191.119 164.936 190.875 165.068C190.627 165.197 190.362 165.247 190.109 165.261C189.598 165.292 189.106 165.145 188.678 164.975C187.802 164.632 187.045 164.104 186.438 163.497C185.207 162.283 184.634 160.736 184.555 159.453C184.455 158.159 184.752 157.127 185.023 156.471C185.166 156.143 185.299 155.899 185.401 155.741C185.504 155.583 185.563 155.505 185.574 155.512C185.605 155.529 185.401 155.867 185.165 156.526C184.943 157.183 184.699 158.191 184.83 159.428C184.941 160.656 185.511 162.103 186.692 163.241C187.273 163.809 187.993 164.3 188.818 164.617C189.232 164.78 189.652 164.899 190.089 164.872C190.517 164.857 190.942 164.677 191.047 164.301C191.163 163.95 190.904 163.531 190.555 163.344C190.209 163.145 189.771 163.212 189.415 163.409C188.687 163.826 188.281 164.651 188.161 165.424C188.041 166.214 188.188 166.995 188.462 167.656C188.73 168.325 189.158 168.86 189.599 169.291C190.504 170.144 191.453 170.567 192.096 170.837C192.747 171.103 193.125 171.208 193.116 171.239Z" fill="#17282F"/>
<path d="M153.282 98.423C151.27 97.1842 150.446 94.3373 151.486 92.2161C150.799 91.2436 151.61 89.7939 152.733 89.394C153.855 88.9933 155.092 89.3107 156.24 89.6303C155.932 89.0803 156.757 88.6091 157.379 88.5093C158.828 88.2774 160.276 88.0456 161.725 87.8137C159.708 87.3882 158.037 85.832 157.182 83.9576C156.326 82.084 156.218 79.9319 156.56 77.9007C156.658 77.3147 156.831 76.6761 157.327 76.3482C158.635 77.8392 159.668 79.5703 160.36 81.4289C161.555 81.4829 162.715 82.0682 163.469 82.9949C163.718 82.3211 164.696 82.0585 165.249 82.5169C166.167 79.953 167.908 77.2441 170.615 76.9335C169.765 75.7389 171.308 74.3088 172.621 73.6544C173.582 73.175 174.573 72.688 175.642 72.6009C176.713 72.5146 177.896 72.9228 178.417 73.8615C178.938 74.7995 178.455 76.2357 177.396 76.4165C178.5 77.1534 178.967 78.7111 178.45 79.9334C179.278 78.9115 180.856 78.5903 182.019 79.2071C183.884 78.3884 185.972 78.0846 187.995 78.3359C188.514 78.4012 189.055 78.513 189.458 78.8484C189.763 79.1035 189.966 79.469 190.284 79.7083C190.735 80.0498 191.339 80.0843 191.902 80.1405C193.194 80.2688 194.521 80.6058 195.504 81.4559C196.485 82.3053 197.018 83.7723 196.478 84.9533C199.476 85.9243 202.45 82.4794 205.541 83.0902C207.351 83.4474 208.604 85.1072 209.394 86.7745C207.87 87.3928 206.198 87.6389 204.561 87.4835C204.369 88.3825 203.487 89.0811 202.567 89.0631C203.105 89.6768 202.686 90.8234 201.88 90.9479C203.73 90.3341 205.753 90.5953 207.65 91.0432C210.536 91.7253 213.705 93.2395 214.371 96.1269C214.606 97.1497 214.486 98.2159 214.365 99.2574C214.184 100.813 213.388 102.86 211.847 102.572C210.896 102.395 210.403 101.377 209.894 100.555C208.778 98.7487 206.927 97.4123 204.861 96.9223C204.124 97.6374 205.491 98.5506 206.085 99.3872C206.671 100.213 206.435 101.34 206.583 102.341C206.809 103.867 207.933 105.083 208.603 106.473C210.05 109.475 209.29 113.023 208.503 116.261C208.29 117.142 207.291 118.229 206.747 117.504C207.863 117.659 208.581 118.869 208.584 119.994C208.586 121.118 208.058 122.168 207.544 123.169C207.324 123.597 207.05 124.07 206.581 124.179C205.902 124.338 205.348 123.655 204.986 123.061C204.003 121.447 203.02 119.833 202.037 118.219C202.3 119.311 202.205 120.463 201.957 121.56C201.48 123.682 200.223 125.849 198.136 126.47C196.704 126.896 195.171 126.518 193.727 126.14" fill="#17282F"/>
<path d="M185.616 149.452C184.975 149.188 182.411 150.237 181.989 149.689C179.845 146.907 178.683 138.96 178.148 135.491C177.613 132.02 179.782 128.147 179.456 124.651C179.193 121.852 178.674 118.902 176.815 116.791C175.693 115.517 174.164 114.657 172.57 114.073C167.674 112.279 161.916 113.046 157.662 116.059C155.903 117.305 154.241 118.969 152.094 119.17C149.963 119.37 148.024 118.063 146.188 116.961C144.352 115.861 142.083 114.9 140.136 115.792C139.375 116.141 138.758 116.742 138.208 117.373C136.87 118.905 134.116 125.623 134.066 128.284C134.066 128.284 132.712 122.094 135.049 116.374C137.875 109.459 145.479 101.64 157.603 99.6738C177.016 96.5253 186.116 107.325 189.564 115.043C191.043 118.356 192.274 127.035 191.201 133.726C189.774 142.627 185.616 149.452 185.616 149.452Z" fill="#17282F"/>
<path d="M190.822 117.719C190.532 117.811 189.742 115.633 187.798 112.517C186.822 110.969 185.583 109.166 183.962 107.395C182.355 105.625 180.389 103.831 178.021 102.551C175.637 101.274 173.064 100.553 170.724 100.172C168.366 99.8075 166.192 99.7955 164.381 99.9523C160.746 100.276 158.564 101.115 158.449 100.816C158.401 100.7 158.884 100.347 159.856 99.8983C160.824 99.4398 162.302 98.9355 164.198 98.5829C166.092 98.237 168.415 98.0967 170.967 98.3885C173.514 98.7014 176.286 99.4098 178.949 100.831C181.618 102.278 183.689 104.268 185.322 106.216C186.968 108.166 188.144 110.139 189.005 111.843C190.719 115.278 191.048 117.664 190.822 117.719Z" fill="#FE4D00"/>
<path d="M171.864 100.869C171.865 100.901 171.446 100.93 170.692 101.006C169.939 101.082 168.852 101.232 167.535 101.532C164.912 102.119 161.341 103.476 158.111 106.043C154.879 108.61 152.751 111.78 151.588 114.202C150.998 115.416 150.607 116.44 150.364 117.156C150.119 117.873 149.996 118.274 149.965 118.267C149.953 118.263 149.968 118.159 150.009 117.963C150.055 117.768 150.109 117.475 150.219 117.111C150.418 116.376 150.773 115.327 151.338 114.084C152.45 111.603 154.578 108.35 157.868 105.737C161.155 103.124 164.806 101.786 167.476 101.262C168.816 100.992 169.918 100.883 170.68 100.855C171.06 100.83 171.358 100.844 171.558 100.843C171.759 100.847 171.864 100.856 171.864 100.869Z" fill="#33535F"/>
<path d="M177.032 103.209C177.056 103.264 176.164 103.693 174.76 104.45C173.355 105.205 171.45 106.316 169.459 107.711C167.469 109.109 165.775 110.52 164.586 111.584C163.396 112.646 162.69 113.339 162.646 113.297C162.627 113.279 162.781 113.084 163.079 112.748C163.374 112.41 163.824 111.941 164.397 111.381C165.545 110.26 167.226 108.801 169.234 107.391C171.243 105.984 173.187 104.9 174.634 104.204C175.356 103.854 175.95 103.591 176.368 103.429C176.786 103.264 177.021 103.184 177.032 103.209Z" fill="#33535F"/>
<path d="M187.533 111.915C187.56 111.919 187.545 112.15 187.495 112.566C187.448 112.982 187.347 113.58 187.191 114.311C186.883 115.775 186.305 117.773 185.389 119.872C184.468 121.969 183.392 123.75 182.525 124.969C182.092 125.581 181.722 126.06 181.448 126.377C181.176 126.696 181.017 126.863 180.995 126.847C180.946 126.808 181.495 126.066 182.295 124.816C183.096 123.567 184.121 121.787 185.03 119.715C185.936 117.642 186.549 115.683 186.922 114.247C187.299 112.811 187.471 111.905 187.533 111.915Z" fill="#33535F"/>
<path d="M182.12 135.377C182.065 135.329 182.913 134.422 184.046 132.787C184.618 131.974 185.23 130.959 185.84 129.798C186.432 128.626 187.011 127.303 187.494 125.867C187.961 124.427 188.286 123.018 188.508 121.725C188.711 120.429 188.823 119.249 188.85 118.256C188.914 116.268 188.773 115.036 188.847 115.028C188.874 115.025 188.925 115.331 188.995 115.888C189.074 116.444 189.124 117.256 189.127 118.26C189.135 119.266 189.05 120.463 188.865 121.781C188.659 123.095 188.341 124.527 187.865 125.99C187.376 127.447 186.777 128.786 186.159 129.964C185.523 131.133 184.878 132.146 184.271 132.948C183.67 133.753 183.146 134.376 182.751 134.776C182.363 135.182 182.14 135.396 182.12 135.377Z" fill="#33535F"/>
<path d="M120.15 118.158C120.174 118.137 120.458 118.478 121.036 119.02C121.616 119.55 122.514 120.306 123.826 120.808C125.105 121.298 126.935 121.458 128.525 120.527C129.308 120.076 129.945 119.299 130.266 118.374C130.586 117.46 130.55 116.342 129.968 115.506C129.683 115.096 129.239 114.828 128.774 114.856C128.306 114.863 127.954 115.2 127.854 115.654C127.661 116.576 127.994 117.575 128.496 118.307C129.009 119.055 129.727 119.6 130.475 119.895C131.228 120.188 132.009 120.217 132.68 120.057C134.043 119.744 134.916 118.888 135.348 118.255C135.797 117.607 135.878 117.157 135.921 117.173C135.935 117.177 135.914 117.285 135.86 117.491C135.799 117.694 135.689 117.992 135.476 118.338C135.067 119.02 134.189 119.955 132.744 120.326C132.033 120.514 131.18 120.502 130.36 120.197C129.544 119.892 128.764 119.316 128.199 118.511C127.65 117.708 127.264 116.672 127.483 115.562C127.55 115.289 127.685 115.007 127.915 114.799C128.147 114.588 128.456 114.48 128.757 114.467C129.372 114.427 129.958 114.795 130.286 115.278C130.963 116.256 130.981 117.495 130.628 118.498C130.273 119.51 129.567 120.353 128.709 120.837C126.972 121.824 125.049 121.608 123.726 121.066C122.372 120.508 121.486 119.699 120.93 119.129C120.651 118.839 120.455 118.596 120.325 118.429C120.199 118.259 120.139 118.166 120.15 118.158Z" fill="#17282F"/>
<path d="M219.808 113.324C219.81 113.336 219.66 113.369 219.371 113.418C219.082 113.467 218.656 113.532 218.103 113.597C217.006 113.703 215.358 113.902 213.389 113.41C212.42 113.147 211.369 112.702 210.468 111.901C209.56 111.124 208.863 109.911 208.784 108.542C208.737 107.865 208.841 107.144 209.156 106.492C209.46 105.834 210.002 105.272 210.657 104.908C211.968 104.19 213.687 104.13 215.087 104.925C215.761 105.318 216.373 106.038 216.332 106.898C216.285 107.746 215.684 108.412 215.003 108.744C214.307 109.079 213.548 109.118 212.852 109.076C212.152 109.026 211.475 108.914 210.83 108.741C208.237 108.046 206.25 106.468 205.073 104.849C203.874 103.222 203.396 101.623 203.196 100.532C203.092 99.9823 203.066 99.5479 203.052 99.256C203.048 98.9618 203.053 98.8088 203.066 98.808C203.106 98.805 203.103 99.4248 203.345 100.502C203.586 101.567 204.098 103.12 205.294 104.683C206.467 106.236 208.41 107.74 210.922 108.392C211.546 108.555 212.202 108.659 212.874 108.704C213.539 108.741 214.234 108.692 214.834 108.4C215.418 108.117 215.915 107.533 215.943 106.881C215.977 106.221 215.494 105.618 214.884 105.26C213.646 104.547 212.022 104.59 210.844 105.243C209.617 105.885 209.046 107.271 209.143 108.521C209.209 109.79 209.835 110.913 210.685 111.66C211.526 112.427 212.529 112.873 213.461 113.144C215.357 113.655 216.993 113.507 218.088 113.445C218.606 113.402 219.027 113.367 219.361 113.34C219.653 113.317 219.806 113.309 219.808 113.324Z" fill="#17282F"/>
<path d="M143.891 77.8595C143.934 77.8767 143.612 78.3637 143.469 79.3572C143.342 80.3206 143.462 81.8994 144.602 83.2823C145.704 84.6412 147.958 85.5536 150.234 84.9586C151.33 84.6772 152.511 83.9606 152.865 82.7811C153.029 82.2115 152.919 81.5452 152.586 81.0342C152.259 80.5202 151.627 80.2148 151.024 80.3807C150.424 80.5315 149.93 81.026 149.672 81.5887C149.401 82.1545 149.428 82.8021 149.614 83.3918C150.005 84.5797 150.925 85.4936 151.842 86.2147C153.713 87.6651 155.839 88.3007 157.613 88.4695C159.403 88.6293 160.863 88.3735 161.826 88.0906C162.793 87.8062 163.294 87.5428 163.312 87.5849C163.318 87.5969 163.196 87.6644 162.956 87.7844C162.72 87.915 162.353 88.0628 161.871 88.2362C160.909 88.5671 159.426 88.8725 157.589 88.7442C155.77 88.6076 153.572 87.9863 151.621 86.4991C150.672 85.7585 149.693 84.8243 149.249 83.5074C149.037 82.8651 149.001 82.0922 149.318 81.4274C149.619 80.7769 150.177 80.1961 150.932 80.001C151.695 79.7856 152.526 80.1953 152.91 80.8189C153.308 81.4364 153.429 82.1988 153.234 82.8846C153.032 83.5667 152.577 84.1174 152.05 84.5069C151.521 84.8978 150.925 85.1574 150.325 85.3068C147.894 85.9183 145.533 84.9211 144.388 83.4579C143.212 81.9692 143.142 80.3214 143.319 79.3339C143.409 78.8259 143.566 78.4545 143.677 78.2099C143.805 77.972 143.881 77.8535 143.891 77.8595Z" fill="#17282F"/>
<path d="M181.59 147.034C181.772 143.402 185.73 140.977 188.881 142.797C190.612 143.796 191.935 145.804 191.776 149.661C191.351 159.944 181.108 157.397 181.102 157.103C181.098 156.919 181.377 151.287 181.59 147.034Z" fill="#F8A58D"/>
<path d="M184.405 153.336C184.452 153.305 184.579 153.469 184.877 153.619C185.167 153.767 185.67 153.881 186.216 153.703C187.319 153.349 188.306 151.662 188.432 149.81C188.497 148.876 188.338 147.976 188.035 147.225C187.752 146.459 187.287 145.914 186.744 145.794C186.205 145.646 185.804 145.958 185.666 146.241C185.517 146.523 185.573 146.731 185.518 146.747C185.488 146.772 185.304 146.565 185.405 146.144C185.455 145.942 185.586 145.704 185.836 145.516C186.091 145.326 186.458 145.239 186.838 145.296C187.629 145.383 188.314 146.142 188.645 146.967C189.02 147.797 189.222 148.809 189.149 149.859C188.997 151.928 187.856 153.824 186.35 154.192C185.619 154.351 185.024 154.108 184.721 153.852C184.413 153.585 184.369 153.353 184.405 153.336Z" fill="#F68260"/>
<path d="M277.782 215.842C272.621 202.33 217.251 158.874 217.251 158.874L201.34 167.358L241.48 207.715L245.773 235.631C245.773 235.631 259.16 239.485 264.871 238.933C275.53 237.903 280.599 223.217 277.782 215.842Z" fill="#F8A58D"/>
<path d="M252.876 225.969C252.853 225.982 252.663 225.706 252.342 225.197C251.985 224.614 251.538 223.887 251.007 223.021C249.847 221.108 248.327 218.601 246.644 215.828C244.922 213.03 243.319 210.526 242.142 208.723C241.59 207.872 241.124 207.157 240.752 206.584C240.427 206.077 240.257 205.789 240.279 205.774C240.301 205.758 240.513 206.016 240.877 206.497C241.243 206.977 241.754 207.684 242.372 208.567C243.608 210.334 245.253 212.82 246.978 215.623C248.701 218.425 250.191 221.004 251.246 222.883C251.773 223.823 252.193 224.587 252.473 225.12C252.755 225.654 252.899 225.955 252.876 225.969Z" fill="#F68260"/>
<path d="M201.289 126.826C199.706 126.748 199.904 128.155 200.335 129.204C200.766 130.253 203.251 136.017 203.251 136.017C203.251 136.017 197.23 125.19 196.575 124.539C195.918 123.889 194.76 122.729 193.87 123.402C192.978 124.073 193.358 124.99 193.706 126.073C194.018 127.042 197.169 134.299 197.831 135.824C197.909 136.003 198.47 137.189 198.167 137.377C197.947 137.807 197 136.862 196.708 136.477L192.091 130.391C192.091 130.391 188.475 125.32 187.638 125.643C186.122 126.231 185.402 127.072 185.761 127.947C186.121 128.821 193.912 140.395 193.912 140.395L187.182 132.277C186.721 131.752 186.109 131.368 185.423 131.242C184.829 131.133 184.142 131.199 183.609 131.802C182.737 132.789 184.405 134.716 185.15 136.074C185.623 136.936 188.557 140.871 188.557 140.871L195.113 152.214L194.042 152.449L191.664 148.609L189.165 155.961C189.165 155.961 192.645 162.05 195.971 165.654C197.368 167.169 201.339 167.358 201.339 167.358L217.342 160.32C217.342 160.32 216.968 153.73 216.523 152.176C216.078 150.622 213.565 145.217 212.321 143.377C211.079 141.537 208.49 138.87 207.533 137.015C206.576 135.16 203.136 126.919 201.289 126.826Z" fill="#F8A58D"/>
<path d="M207 142.03C207.055 142.08 206.349 142.815 205.466 144.178C205.02 144.855 204.56 145.708 204.124 146.685C203.707 147.671 203.325 148.787 203.054 149.992C202.798 151.202 202.68 152.376 202.65 153.446C202.64 154.516 202.703 155.482 202.827 156.284C203.063 157.89 203.398 158.852 203.328 158.874C203.302 158.883 203.204 158.649 203.048 158.215C202.966 158 202.876 157.732 202.801 157.414C202.722 157.096 202.614 156.737 202.554 156.329C202.393 155.519 202.299 154.536 202.289 153.442C202.301 152.349 202.409 151.146 202.672 149.91C202.948 148.676 203.35 147.538 203.795 146.538C204.258 145.549 204.752 144.692 205.237 144.024C205.461 143.676 205.71 143.396 205.913 143.14C206.114 142.88 206.307 142.675 206.471 142.513C206.794 142.183 206.98 142.011 207 142.03Z" fill="#F68260"/>
<path d="M201.44 154.546C201.398 154.659 199.611 153.745 197.22 153.73C196.336 153.714 195.518 153.822 194.85 153.959L194.738 153.983L194.68 153.897C194.019 152.93 193.614 152.272 193.669 152.232C193.724 152.192 194.225 152.78 194.943 153.706L194.773 153.644C195.454 153.46 196.306 153.323 197.225 153.339C198.459 153.351 199.555 153.634 200.302 153.923C201.05 154.22 201.462 154.504 201.44 154.546Z" fill="#F68260"/>
<path d="M207.161 138.701C207.171 138.761 206.316 138.942 204.958 139.311C203.6 139.677 201.745 140.262 199.771 141.1C197.799 141.942 196.093 142.876 194.888 143.6C193.682 144.324 192.959 144.816 192.923 144.766C192.895 144.729 193.562 144.157 194.74 143.366C195.918 142.576 197.624 141.593 199.618 140.74C201.614 139.893 203.506 139.343 204.892 139.042C206.278 138.74 207.153 138.655 207.161 138.701Z" fill="#F68260"/>
<path d="M191.093 145.278C191.116 145.266 191.221 145.418 191.391 145.71C191.553 146.005 191.76 146.452 191.916 147.04C192.075 147.627 192.161 148.362 192.086 149.167C192.02 149.973 191.777 150.835 191.444 151.687C191.112 152.534 190.78 153.349 190.38 154.043C189.987 154.74 189.547 155.32 189.133 155.761C188.716 156.201 188.329 156.507 188.044 156.688C187.761 156.871 187.589 156.946 187.576 156.926C187.535 156.868 188.171 156.476 188.926 155.578C189.3 155.128 189.7 154.554 190.065 153.869C190.434 153.189 190.747 152.392 191.078 151.547C191.406 150.71 191.645 149.893 191.727 149.13C191.818 148.368 191.765 147.672 191.647 147.103C191.411 145.957 191.021 145.311 191.093 145.278Z" fill="#F68260"/>
<path d="M330 328.691C330 328.8 256.121 328.887 165.008 328.887C73.8633 328.887 0 328.8 0 328.691C0 328.584 73.8633 328.497 165.008 328.497C256.121 328.497 330 328.584 330 328.691Z" fill="#17282F"/>
</g>
<defs>
<clipPath id="clip0_2048_30788">
<rect width="330" height="330" fill="white"/>
</clipPath>
</defs>
</svg>
