<svg width="1440" height="218" viewBox="0 0 1440 218" fill="none" xmlns="http://www.w3.org/2000/svg">
<path fill-rule="evenodd" clip-rule="evenodd" d="M1666 190.077L1656.75 158.324C1647.07 126.571 1628.13 63.5061 1609.64 77.1776C1590.71 90.408 1571.78 181.257 1552.84 203.748C1534.35 226.24 1515.42 181.257 1496.48 158.324C1477.55 135.832 1459.06 135.832 1440.12 131.422C1421.19 126.571 1402.26 117.751 1383.77 108.49C1364.83 99.6693 1345.9 90.408 1326.97 113.341C1308.47 135.832 1289.54 190.077 1270.61 190.077C1251.68 190.077 1233.18 135.832 1214.25 99.6693C1195.32 63.5061 1176.38 45.4246 1157.89 36.1633C1138.96 27.343 1120.03 27.343 1101.09 49.8347C1082.6 72.3264 1063.67 117.751 1044.73 117.751C1025.8 117.751 1007.31 72.3264 988.375 58.655C969.442 45.4246 950.509 63.5061 932.016 90.408C913.083 117.751 894.15 153.914 875.217 171.996C856.725 190.077 837.792 190.077 818.859 194.487C799.926 199.338 781.433 208.159 771.746 213.01L762.5 217.42V0.000137329H771.746C781.433 0.000137329 799.926 0.000137329 818.859 0.000137329C837.792 0.000137329 856.725 0.000137329 875.217 0.000137329C894.15 0.000137329 913.083 0.000137329 932.016 0.000137329C950.509 0.000137329 969.442 0.000137329 988.375 0.000137329C1007.31 0.000137329 1025.8 0.000137329 1044.73 0.000137329C1063.67 0.000137329 1082.6 0.000137329 1101.09 0.000137329C1120.03 0.000137329 1138.96 0.000137329 1157.89 0.000137329C1176.38 0.000137329 1195.32 0.000137329 1214.25 0.000137329C1233.18 0.000137329 1251.68 0.000137329 1270.61 0.000137329C1289.54 0.000137329 1308.47 0.000137329 1326.97 0.000137329C1345.9 0.000137329 1364.83 0.000137329 1383.77 0.000137329C1402.26 0.000137329 1421.19 0.000137329 1440.12 0.000137329C1459.06 0.000137329 1477.55 0.000137329 1496.48 0.000137329C1515.42 0.000137329 1534.35 0.000137329 1552.84 0.000137329C1571.78 0.000137329 1590.71 0.000137329 1609.64 0.000137329C1628.13 0.000137329 1647.07 0.000137329 1656.75 0.000137329H1666V190.077Z" fill="white" fill-opacity="0.05"/>
<path fill-rule="evenodd" clip-rule="evenodd" d="M-141 190.077L-131.754 158.324C-122.067 126.571 -103.134 63.5061 -84.6413 77.1776C-65.7083 90.408 -46.7753 181.257 -27.8424 203.748C-9.34966 226.24 9.58333 181.257 28.5163 158.324C47.4493 135.832 65.942 135.832 84.875 131.422C103.808 126.571 122.741 117.751 141.234 108.49C160.167 99.6693 179.1 90.408 198.033 113.341C216.525 135.832 235.458 190.077 254.391 190.077C273.324 190.077 291.817 135.832 310.75 99.6693C329.683 63.5061 348.616 45.4246 367.109 36.1633C386.042 27.343 404.975 27.343 423.908 49.8347C442.4 72.3264 461.333 117.751 480.266 117.751C499.199 117.751 517.692 72.3264 536.625 58.655C555.558 45.4246 574.491 63.5061 592.984 90.408C611.917 117.751 630.85 153.914 649.783 171.996C668.275 190.077 687.208 190.077 706.141 194.487C725.074 199.338 743.567 208.159 753.254 213.01L762.5 217.42V0.000137329H753.254C743.567 0.000137329 725.074 0.000137329 706.141 0.000137329C687.208 0.000137329 668.275 0.000137329 649.783 0.000137329C630.85 0.000137329 611.917 0.000137329 592.984 0.000137329C574.491 0.000137329 555.558 0.000137329 536.625 0.000137329C517.692 0.000137329 499.199 0.000137329 480.266 0.000137329C461.333 0.000137329 442.4 0.000137329 423.908 0.000137329C404.975 0.000137329 386.042 0.000137329 367.109 0.000137329C348.616 0.000137329 329.683 0.000137329 310.75 0.000137329C291.817 0.000137329 273.324 0.000137329 254.391 0.000137329C235.458 0.000137329 216.525 0.000137329 198.033 0.000137329C179.1 0.000137329 160.167 0.000137329 141.234 0.000137329C122.741 0.000137329 103.808 0.000137329 84.875 0.000137329C65.942 0.000137329 47.4493 0.000137329 28.5163 0.000137329C9.58333 0.000137329 -9.34966 0.000137329 -27.8424 0.000137329C-46.7753 0.000137329 -65.7083 0.000137329 -84.6413 0.000137329C-103.134 0.000137329 -122.067 0.000137329 -131.754 0.000137329H-141L-141 190.077Z" fill="white" fill-opacity="0.05"/>
</svg>
