<svg width="59" height="25" viewBox="0 0 59 25" fill="none" xmlns="http://www.w3.org/2000/svg">
<path d="M49.2796 5.52758C49.2989 6.24347 49.2638 6.95755 49.2304 7.67208C49.2229 7.83444 49.2089 8.00312 49.0032 7.99996C48.8094 7.99724 48.8107 7.83444 48.7984 7.68339C48.7437 6.96124 48.731 6.23637 48.7601 5.51265C48.7852 4.78591 48.0904 4.20388 47.5296 4.20659C46.7935 4.21021 46.2472 4.72214 46.2173 5.47286C46.2107 5.62662 46.2173 5.78128 46.2046 5.93414C46.1734 6.2602 46.0055 6.4316 45.6917 6.44019C45.2606 6.45195 44.829 6.44336 44.3974 6.45059C44.2133 6.45376 44.1337 6.36738 44.1003 6.18377C43.7597 4.21428 44.2805 2.53784 45.7497 1.21867C46.5988 0.459361 47.5924 0.0500873 48.736 0.00486359C50.0074 -0.0457869 51.1369 0.297461 52.1279 1.1151C53.0007 1.83507 53.5782 2.7513 53.8467 3.87375C54.08 4.85646 54.0515 5.82515 53.7302 6.78615C53.6423 7.04709 53.5105 7.17281 53.2314 7.15066C52.9603 7.12895 52.686 7.15066 52.4131 7.14342C52.0097 7.13302 51.8299 6.95574 51.8246 6.54059C51.8145 5.79756 51.8246 5.05454 51.8141 4.31151C51.8053 3.65848 51.3408 3.13208 50.6996 3.02942C50.1282 2.93898 49.5288 3.3175 49.3302 3.90314C49.2374 4.17449 49.2919 4.4603 49.2831 4.73933C49.2748 5.00163 49.2796 5.26483 49.2796 5.52758ZM48.2249 3.0751C48.2215 2.87385 48.1427 2.68173 48.0048 2.53895C47.8669 2.39616 47.6808 2.31377 47.4852 2.30901C47.1002 2.30901 46.7183 2.67803 46.7117 3.0561C46.7121 3.26729 46.7922 3.47007 46.9351 3.62162C47.078 3.77317 47.2726 3.86163 47.4777 3.86832C47.8733 3.87375 48.2218 3.50382 48.2249 3.0751ZM50.5036 2.67713C50.7069 2.67955 50.9029 2.59913 51.0488 2.4534C51.1947 2.30767 51.2786 2.10848 51.2823 1.89928C51.2823 1.50674 50.8907 1.11601 50.508 1.12415C50.1388 1.13229 49.7696 1.52302 49.7705 1.90426C49.7718 2.3063 50.1203 2.67758 50.5022 2.67803L50.5036 2.67713Z" fill="#F26F21"/>
<path d="M49.786 6.34925C49.786 5.78371 49.7828 5.21817 49.786 4.6498C49.7897 4.22235 49.9541 4.01498 50.2847 4.00084C50.6237 3.98576 50.8117 4.17239 50.8591 4.58099C50.9478 5.34353 50.8879 6.10889 50.9009 6.87284C50.9153 7.72115 51.4288 8.24993 52.2614 8.26124C52.4378 8.26351 52.614 8.27689 52.7889 8.3013C53.0438 8.33712 53.0554 8.38377 52.8905 8.59727C52.2117 9.47621 51.3555 10.1054 50.3056 10.4405C50.0902 10.5093 50.0368 10.6045 50.0563 10.8212C50.0835 11.181 50.0195 11.5418 49.8705 11.8694C49.7953 12.0433 49.6964 12.0405 49.6244 11.8793C49.2966 11.1427 48.6414 10.8868 47.9454 10.7011C46.7683 10.3848 45.6702 9.92581 44.8311 8.9823C44.5269 8.65016 44.2674 8.27854 44.0594 7.87715C43.9493 7.65753 43.9846 7.58919 44.2293 7.58165C44.6194 7.57034 45.009 7.57647 45.399 7.52981C46.0314 7.45488 46.5348 6.92563 46.5473 6.28421C46.5505 6.1235 46.5445 5.96279 46.5519 5.80256C46.5682 5.4524 46.7962 5.21157 47.1036 5.21016C47.4109 5.20874 47.6505 5.45287 47.6547 5.8002C47.6645 6.54577 47.6877 7.29323 47.6547 8.03785C47.6269 8.68021 48.1738 9.22266 48.7227 9.21276C49.3152 9.20192 49.7674 8.71791 49.7767 8.05011C49.7846 7.48457 49.7767 6.91903 49.7767 6.35019L49.786 6.34925Z" fill="#F26F21"/>
<path d="M56.972 18.9668C56.723 19.2573 56.4249 19.5041 56.0906 19.6966C55.77 19.8814 55.4298 20.0024 55.0498 19.9952C54.8208 19.9908 54.5919 19.9845 54.3629 19.9952C53.1555 20.0591 52.2685 19.4783 51.7035 18.5307C50.7511 16.934 50.7442 15.2721 51.8148 13.7161C52.7337 12.3769 54.7338 11.9547 56.2055 12.8273C56.4179 12.9532 56.6254 13.0813 56.7952 13.2626C56.841 13.3103 56.8868 13.4005 56.9692 13.359C57.0439 13.3215 57.015 13.23 57.015 13.1617C57.0169 12.2392 57.0169 11.3177 57.015 10.3973C57.015 10.0009 57.015 10.0004 57.4345 10C57.8109 10 58.1871 10 58.5632 10C58.9904 10 59 10.0094 59 10.416C59 11.4278 59 12.4387 59 13.4487V19.489C59 19.964 58.9808 19.98 58.484 19.98C58.0984 19.98 57.7124 19.9707 57.3278 19.9836C57.0842 19.9917 57.0027 19.8943 57.0109 19.6658C57.0173 19.4578 57.0384 19.244 56.972 18.9668ZM54.9728 18.3785C55.553 18.3865 56.0086 18.2129 56.3836 17.8428C57.0535 17.1835 57.2197 16.0479 56.7641 15.1418C56.4244 14.4655 55.8653 14.0991 55.0841 14.0808C54.2599 14.0611 53.6646 14.42 53.2754 15.1239C53.0231 15.5801 53.0094 16.0747 53.0639 16.5635C53.1811 17.6147 54.0145 18.4115 54.9728 18.3785Z" fill="#0F3F76"/>
<path d="M5.01664 16.6419C4.16704 16.6419 3.31792 16.6419 2.46832 16.6419C2.15237 16.6419 2.10902 16.6997 2.17452 16.9923C2.44905 18.2228 3.99991 18.8057 5.06095 18.0747C5.16209 18.0052 5.28009 17.9251 5.32681 17.8226C5.48238 17.482 5.76269 17.4568 6.09164 17.469C6.54438 17.4857 6.99856 17.469 7.45225 17.4741C7.75906 17.4769 7.79759 17.5388 7.67477 17.8091C7.18302 18.8947 6.37147 19.6784 5.15872 19.8824C3.69889 20.1275 2.2511 20.0688 1.12263 18.9264C0.415116 18.2112 0.0606342 17.3292 0.00861779 16.3475C-0.0602557 15.0527 0.276406 13.886 1.28206 12.9639C1.84942 12.444 2.54971 12.1919 3.30491 12.0666C4.3224 11.8867 5.37274 12.0742 6.25684 12.5935C7.13293 13.0986 7.63913 13.8762 7.87128 14.8239C7.98746 15.2879 8.02536 15.767 7.9835 16.2426C7.95075 16.5958 7.89921 16.6396 7.53702 16.6405C6.69738 16.6405 5.85757 16.6405 5.0176 16.6405L5.01664 16.6419ZM3.96571 15.2908H5.4135C5.86238 15.2908 5.92259 15.206 5.77136 14.7955C5.4896 14.0318 4.74211 13.6176 3.7485 13.674C3.03424 13.7155 2.3744 14.2788 2.18945 14.9875C2.13166 15.2092 2.18608 15.3001 2.43027 15.2964C2.94224 15.2861 3.45374 15.2917 3.96571 15.2922V15.2908Z" fill="#0F3F76"/>
<path d="M39.9559 19.9808C39.1763 20.0566 38.4509 19.912 37.7852 19.4807C36.8155 18.852 36.2516 17.9619 36.0719 16.8298C35.8347 15.3386 36.1695 14.0176 37.2987 12.9604C37.9056 12.3944 38.6525 12.1469 39.4559 12.0417C40.6772 11.8812 41.7822 12.182 42.7238 12.9772C43.438 13.5853 43.8367 14.3932 43.9478 15.3161C44.0533 16.1881 44.0272 17.0675 43.6019 17.8697C42.8942 19.2043 41.8279 19.9897 40.2654 19.9808H39.9559ZM38.0232 15.9921C38.0232 16.095 38.0153 16.1988 38.0232 16.3008C38.1231 17.3668 38.6829 18.2509 39.8831 18.3047C40.2814 18.3218 40.6752 18.2137 41.0093 17.9957C41.3434 17.7776 41.6012 17.4605 41.7467 17.0885C41.9856 16.4729 42.0126 15.7949 41.8232 15.1622C41.3989 13.6897 39.7636 13.438 38.8537 14.1191C38.23 14.5887 38.0391 15.252 38.0232 15.9921Z" fill="#0F3F76"/>
<path d="M31.6153 19.9816C30.5996 20.0863 29.7312 19.7437 29.0227 18.9664C28.4666 18.3588 28.1927 17.6049 28.0616 16.7669C27.9013 15.7162 28.0525 14.7314 28.5295 13.8097C29.027 12.8478 29.8199 12.314 30.8154 12.0953C31.7533 11.8882 32.6471 12.0177 33.4893 12.4921C34.2778 12.9366 34.7399 13.6667 34.9867 14.5673C35.0304 14.7328 34.964 14.7973 34.8203 14.7978C34.2861 14.7978 33.7522 14.7978 33.218 14.7978C33.087 14.7978 33.0136 14.7202 32.9585 14.6015C32.6292 13.8924 32.0674 13.6494 31.3685 13.7424C30.6887 13.8326 30.272 14.278 30.0702 14.9632C29.841 15.7086 29.8564 16.5154 30.1139 17.2502C30.341 17.9045 30.7988 18.2784 31.458 18.3336C32.1172 18.3887 32.6449 18.1499 32.9515 17.4862C33.0166 17.346 33.1001 17.2693 33.2543 17.2712C33.7619 17.2768 34.2699 17.2777 34.7775 17.2712C35.0007 17.2679 35.0147 17.3689 34.9618 17.5699C34.6041 18.9314 33.287 20.0854 31.9818 19.9821C31.8612 19.9732 31.738 19.9816 31.6153 19.9816Z" fill="#0F3F76"/>
<path d="M11.6271 19.9712C10.8699 20.0778 10.181 19.8865 9.55413 19.4324C8.63614 18.7683 8.18851 17.8096 8.04294 16.661C7.93769 15.869 8.02672 15.0612 8.30129 14.3171C8.76772 13.0497 9.65249 12.3089 10.8931 12.0817C12.2006 11.8422 13.3848 12.1041 14.3177 13.2041C14.6429 13.5861 14.8422 14.0412 14.9804 14.5308C15.0302 14.7076 14.9804 14.7983 14.7959 14.7969C14.2792 14.7935 13.7625 14.7935 13.2458 14.7969C13.1055 14.7969 13.0242 14.7315 12.9621 14.5972C12.6561 13.9378 12.1381 13.6862 11.4732 13.7302C10.7947 13.7769 10.3244 14.1576 10.118 14.8297C9.82122 15.7945 9.79369 16.7635 10.3301 17.6656C10.8664 18.5677 12.4401 18.6365 12.9455 17.5141C13.0263 17.3349 13.1269 17.2653 13.3087 17.2685C13.7988 17.2779 14.2897 17.2793 14.7797 17.2685C15.0027 17.2643 15.0332 17.3653 14.9729 17.5627C14.5913 18.8114 13.7966 19.5998 12.622 19.9445C12.2985 20.0371 11.9567 19.9656 11.6271 19.9712Z" fill="#0F3F76"/>
<path d="M19.5964 19.9802C18.5522 20.0925 17.6726 19.7247 16.9604 18.9227C16.4177 18.3093 16.1382 17.5574 16.0432 16.7235C15.9442 15.8429 16.0038 14.9787 16.3437 14.1603C16.8426 12.9587 17.7226 12.2854 18.928 12.0697C20.0708 11.8657 21.1116 12.102 22.02 12.8806C22.5224 13.3115 22.7927 13.9128 22.9837 14.558C23.0319 14.7199 22.9718 14.792 22.8242 14.792C22.2802 14.792 21.7357 14.792 21.1917 14.792C21.0682 14.792 20.9955 14.7143 20.9569 14.6016C20.5785 13.5043 18.7852 13.3232 18.2061 14.5922C17.7449 15.602 17.7467 16.6482 18.2986 17.6304C18.8754 18.657 20.5207 18.5713 20.9407 17.4961C21.0016 17.3393 21.0993 17.2673 21.264 17.2696C21.7642 17.2765 22.2644 17.2765 22.7647 17.2696C22.992 17.2668 23.0345 17.3571 22.9613 17.5808C22.5632 18.8062 21.7966 19.6078 20.6144 19.9358C20.2806 20.0317 19.935 19.9657 19.5964 19.9802Z" fill="#0F3F76"/>
<path d="M49.9986 16.9988V20.5032C49.9986 21 49.9986 21 49.5057 21H48.5076C48.0254 21 48 20.9761 48 20.4865C48 18.5041 48 16.522 48 14.5402C48 14.1577 48 13.7752 48 13.3926C48 13.0417 48.0332 13.0101 48.3604 13.0058C48.7946 13.003 49.2293 13.0163 49.6631 13.0006C49.9188 12.9915 50.0018 13.0924 50 13.352C49.9935 14.5665 49.9986 15.7824 49.9986 16.9988Z" fill="#0F3F76"/>
<path d="M45.5005 20C44.56 20 44.0012 19.6319 44 19.0097C44 18.4031 44.5964 18.0012 45.5 18C46.3925 18 46.9918 18.404 46.9999 19.0118C47.0074 19.6307 46.4469 19.9996 45.5005 20Z" fill="#0F3F76"/>
<path d="M25.5068 19.9931C24.4933 20.0643 23.9847 19.4963 24.0003 19.0175C24.0194 18.3898 24.5822 17.9996 25.5213 18C26.388 18 27.0029 18.4166 27 19.0003C26.9959 19.5136 26.4799 20.0684 25.5068 19.9931Z" fill="#0F3F76"/>
<path d="M47.5418 23.9149C47.2909 24.0179 47.0793 24.1329 46.843 24.0964C46.4825 24.0419 46.2169 23.8473 46.0907 23.4854C45.9335 23.0429 45.9681 22.6134 46.2939 22.2668C46.5596 21.984 46.9038 21.9398 47.2569 22.0695C47.3993 22.124 47.5031 22.1556 47.6566 22.0624C47.8316 21.9562 47.994 22.0346 47.995 22.2804C47.9982 22.9023 48.0097 23.5247 47.9814 24.1454C47.9636 24.5334 47.7645 24.8403 47.3847 24.9422C46.9954 25.0468 46.6067 25.0321 46.3002 24.7062C46.1955 24.5945 46.0482 24.4272 46.1865 24.2849C46.3248 24.1427 46.4899 24.2386 46.6156 24.3901C46.7817 24.5901 46.9923 24.6659 47.2364 24.5536C47.4806 24.4413 47.5418 24.219 47.5418 23.9149ZM47.5455 23.026C47.5371 22.6772 47.2799 22.4069 46.9692 22.421C46.6795 22.4341 46.4453 22.7181 46.4453 23.0483C46.4506 23.4037 46.7 23.6816 47.0038 23.6707C47.3077 23.6598 47.5518 23.3699 47.5418 23.026H47.5455Z" fill="#F26F21"/>
<path d="M36.5403 23.9176C36.2798 24.0267 36.0648 24.1357 35.8275 24.103C35.4461 24.0485 35.1808 23.8342 35.0709 23.4487C34.9462 23.0163 34.9653 22.5921 35.2965 22.26C35.5702 21.9874 35.9158 21.9329 36.2703 22.079C36.4066 22.1335 36.4975 22.1531 36.6428 22.0697C36.8404 21.9558 36.9952 22.0485 36.9957 22.3064C36.9957 22.9182 37.0094 23.5299 36.9878 24.1412C36.9725 24.5638 36.7347 24.8658 36.3633 24.9514C35.9559 25.0452 35.5554 25.03 35.2574 24.6624C35.166 24.5501 35.035 24.3931 35.1898 24.2666C35.3097 24.169 35.4677 24.2284 35.5787 24.368C35.7493 24.5828 35.9638 24.6739 36.2259 24.5567C36.4774 24.4465 36.5308 24.2235 36.5403 23.9176ZM36.0119 22.4258C35.6949 22.4181 35.4434 22.6804 35.4307 23.0256C35.4181 23.3707 35.6796 23.6799 35.9966 23.6772C36.2956 23.6772 36.5329 23.4132 36.5397 23.0774C36.5461 22.7289 36.3057 22.4334 36.0103 22.4258H36.0119Z" fill="#F26F21"/>
<path d="M33.0027 23.5061C33.0027 23.109 32.9948 22.7124 33.0059 22.3158C33.0133 22.04 33.1594 21.9363 33.3726 22.0742C33.5108 22.1636 33.5958 22.1227 33.715 22.0742C33.9014 21.9929 34.1082 21.978 34.3036 22.0316C34.4989 22.0852 34.672 22.2044 34.7962 22.371C35.06 22.7317 35.0679 23.3296 34.8189 23.7113C34.5862 24.0688 34.1619 24.2343 33.7588 24.0533C33.4597 23.9187 33.4227 24.0169 33.4459 24.2911C33.4541 24.4452 33.4541 24.5997 33.4459 24.7539C33.4459 24.889 33.4011 24.9911 33.2497 24.9993C33.0882 25.0087 33.0117 24.9188 33.0101 24.7632C33.0059 24.3446 33.0101 23.9259 33.0101 23.5072L33.0027 23.5061ZM34.5556 23.0362C34.5503 22.6837 34.2986 22.414 33.9836 22.4223C33.6802 22.4311 33.4481 22.7196 33.456 23.0792C33.4628 23.4102 33.7082 23.6992 33.991 23.7042C34.2912 23.7097 34.5608 23.3914 34.5556 23.0362Z" fill="#F26F21"/>
<path d="M41.9962 22.0197C41.9962 22.2676 42.0047 22.5159 41.9962 22.7634C41.9878 22.9712 41.8373 23.0437 41.6048 22.9343C41.4851 22.8783 41.4189 22.9059 41.323 22.9343C40.885 23.0681 40.4687 22.9944 40.2108 22.7413C39.9343 22.471 39.929 22.0069 40.1997 21.7262C40.4354 21.4815 40.8585 21.3926 41.2812 21.53C41.5238 21.61 41.5577 21.5392 41.546 21.385C41.5423 21.3213 41.546 21.2572 41.546 21.1932C41.546 21.0843 41.5963 21.0042 41.7611 21.0002C41.9464 20.9957 41.9941 21.0859 41.9946 21.2028C41.9968 21.4743 41.9962 21.7478 41.9962 22.0197ZM40.9899 21.7722C40.679 21.7722 40.4237 21.9773 40.4242 22.2275C40.4248 22.4778 40.679 22.6937 40.9761 22.7017C41.2733 22.7097 41.5354 22.4918 41.5354 22.2404C41.5381 21.9825 41.2929 21.7722 40.992 21.7722H40.9899Z" fill="#F26F21"/>
<path d="M48.0024 23.5098C48.0024 23.1118 47.997 22.7132 48.0024 22.3153C48.0072 22.0219 48.1234 21.935 48.358 22.0794C48.4887 22.1597 48.5713 22.1176 48.6779 22.0756C49.1194 21.9067 49.5433 22.0258 49.7939 22.3828C50.0648 22.7703 50.0691 23.3542 49.8041 23.7218C49.5311 24.1009 49.1216 24.226 48.6662 24.0301C48.4625 23.9421 48.3996 23.9664 48.4161 24.1961C48.4268 24.3622 48.4161 24.5283 48.4161 24.6943C48.4161 24.8427 48.4097 24.9949 48.2103 24.9999C48.0109 25.0049 48.0002 24.8582 48.0002 24.7054C48.002 24.3065 48.0027 23.9079 48.0024 23.5098ZM49.5439 23.0393C49.538 22.6828 49.2826 22.4066 48.9712 22.4193C48.6598 22.432 48.4204 22.7182 48.4252 23.0736C48.43 23.429 48.6918 23.7074 49.0011 23.6974C49.3103 23.6875 49.5497 23.3952 49.5439 23.0393Z" fill="#F26F21"/>
<path d="M39.9981 23.0282C39.9981 23.2573 40.0024 23.4864 39.9981 23.7155C39.9918 23.9758 39.8091 24.0305 39.6338 23.9237C39.4924 23.8363 39.4103 23.8779 39.2938 23.9237C38.8639 24.0857 38.4662 23.9862 38.2099 23.6587C37.9409 23.3151 37.9287 22.7215 38.1834 22.3649C38.4116 22.0442 38.8501 21.9114 39.261 22.0619C39.3253 22.0915 39.3958 22.1058 39.4667 22.1035C39.5377 22.1013 39.6071 22.0825 39.6693 22.0489C39.8366 21.9666 39.987 22.0369 39.9955 22.2514C40.0034 22.5117 39.9955 22.772 39.9955 23.0324L39.9981 23.0282ZM39.0063 22.3961C38.6886 22.3899 38.4376 22.6434 38.4291 22.9741C38.4206 23.2937 38.6732 23.5879 38.9655 23.5989C39.2695 23.6113 39.5231 23.3515 39.5374 23.0142C39.5523 22.6851 39.3081 22.4024 39.0063 22.3961Z" fill="#F26F21"/>
<path d="M51.9969 23.0009C51.9969 23.2293 52.0038 23.4582 51.9969 23.6861C51.9869 23.9389 51.8335 24.0534 51.633 23.9259C51.4945 23.838 51.4114 23.8739 51.294 23.9217C50.8852 24.084 50.4853 23.9894 50.2362 23.6798C49.94 23.3104 49.9188 22.7382 50.1928 22.3688C50.4377 22.0369 50.8503 21.9136 51.2649 22.0624C51.3966 22.1092 51.4939 22.1415 51.6426 22.0598C51.8383 21.9526 51.9927 22.0385 51.9959 22.2845C51.9991 22.5306 51.9959 22.7621 51.9959 23.0009H51.9969ZM51.5394 22.991C51.5394 22.6456 51.3056 22.3943 50.9841 22.3995C50.672 22.4037 50.4192 22.6752 50.4245 22.9999C50.4298 23.3245 50.7006 23.6065 50.9931 23.6028C51.3014 23.5997 51.5378 23.3349 51.5394 22.9915V22.991Z" fill="#F26F21"/>
<path d="M52 22.1775V21.5524C52 21.3998 52.1179 21.3248 52.2446 21.3859C52.5194 21.516 52.762 21.2905 53.031 21.366C53.1337 21.3946 53.1748 21.2728 53.1743 21.1783C53.1743 21.0638 53.2301 20.9975 53.37 21.0001C53.4893 21.0022 53.5534 21.0599 53.5549 21.1618C53.5578 21.3035 53.636 21.3629 53.7916 21.3664C53.9104 21.3664 54.0063 21.4076 53.998 21.535C53.9906 21.646 53.9002 21.6824 53.795 21.6798C53.5901 21.6751 53.5505 21.7813 53.5588 21.9317C53.5646 22.0618 53.5656 22.1918 53.5588 22.3219C53.5485 22.5131 53.5725 22.6717 53.8522 22.6804C53.9549 22.6839 54.0083 22.7467 53.999 22.8408C53.9897 22.9349 53.929 22.9709 53.8278 22.9873C53.4389 23.0489 53.1963 22.8842 53.1802 22.5339C53.1724 22.3691 53.189 22.2031 53.1729 22.0392C53.1597 21.9035 53.2707 21.7015 52.9772 21.6829C52.6745 21.6638 52.4392 21.796 52.3967 22.0188C52.3846 22.1051 52.3802 22.1921 52.3835 22.279C52.3835 22.4524 52.3835 22.6258 52.3786 22.7992C52.3786 22.908 52.3297 22.9821 52.1883 22.9834C52.047 22.9847 51.9995 22.9141 52.001 22.8018C52.001 22.7844 52.001 22.7671 52.001 22.7498V22.1775H52Z" fill="#F26F21"/>
<path d="M57.222 23.1989C57.0683 23.1989 56.9145 23.1958 56.7613 23.1989C56.6778 23.1989 56.5674 23.1817 56.5416 23.289C56.5207 23.3797 56.5965 23.4453 56.6674 23.4937C56.8986 23.65 57.1342 23.6609 57.3648 23.4937C57.4159 23.4562 57.4499 23.3953 57.5026 23.3614C57.6202 23.2854 57.7668 23.264 57.8684 23.3531C57.97 23.4422 57.8684 23.5469 57.8135 23.6312C57.5592 24.0041 56.9348 24.114 56.4861 23.8692C56.0946 23.6567 55.9007 23.1193 56.0507 22.6599C56.1929 22.225 56.5855 21.9745 57.0836 22.0021C57.5532 22.0281 57.8914 22.3208 57.9788 22.7755C58.0425 23.1078 57.9744 23.188 57.6169 23.1974C57.4856 23.2005 57.3538 23.1974 57.222 23.1974V23.1989ZM57.0172 22.8088C57.0606 22.8133 57.1044 22.8133 57.1479 22.8088C57.2627 22.7838 57.4565 22.8818 57.4735 22.7073C57.4884 22.5557 57.3346 22.4547 57.1775 22.4151C57.0205 22.3755 56.8706 22.3734 56.7327 22.4588C56.6328 22.5213 56.5076 22.5979 56.5378 22.7219C56.5696 22.8547 56.719 22.7974 56.82 22.8083C56.8857 22.8121 56.9515 22.8123 57.0172 22.8088Z" fill="#F26F21"/>
<path d="M19.0001 23.0055C18.9942 22.4262 19.3976 22.0116 19.9773 22.0002C20.5571 21.9888 20.987 22.4024 20.9997 22.9682C21.0125 23.5538 20.5608 24.0046 19.9688 24C19.4385 23.9948 19.0059 23.5533 19.0001 23.0055ZM20.5438 22.9744C20.5385 22.6267 20.3041 22.3873 19.9773 22.3961C19.6505 22.4049 19.4459 22.6485 19.4565 23.0138C19.4672 23.3792 19.6909 23.6144 20.0161 23.5999C20.3291 23.5859 20.5491 23.3247 20.5438 22.9744Z" fill="#F26F21"/>
<path d="M32.9953 22.9945C32.9953 23.2164 32.9953 23.4388 32.9953 23.6606C32.9953 23.9105 32.8598 24.0304 32.596 23.9411C32.4428 23.8883 32.328 23.9242 32.1925 23.9591C31.5676 24.1207 31.0388 23.7895 31.0087 23.2111C30.9928 22.8942 31.0034 22.5773 31.004 22.2603C31.004 22.1193 31.0505 22.0084 31.2396 22.0004C31.4463 21.992 31.5029 22.1087 31.5058 22.2645C31.5111 22.5603 31.5111 22.8567 31.5164 23.1525C31.5217 23.4108 31.6513 23.5788 31.9546 23.5978C32.2579 23.6168 32.4293 23.453 32.4635 23.2111C32.5047 22.919 32.4905 22.6211 32.4976 22.3253C32.5011 22.1563 32.5153 21.9915 32.7703 22.002C33.0112 22.0115 32.9935 22.1832 32.9976 22.33C33.0029 22.5519 32.9976 22.7738 32.9976 22.9961L32.9953 22.9945Z" fill="#F26F21"/>
<path d="M27.9946 22.9774C27.9946 23.2201 27.9946 23.4632 27.9946 23.7059C27.9946 23.9106 27.8572 24.0139 27.6507 23.9491C27.4649 23.891 27.3144 23.9258 27.1428 23.968C26.5752 24.1068 26.0484 23.7797 26.013 23.2591C25.9906 22.9331 26.0042 22.605 26.003 22.2775C26.003 22.125 26.0431 21.9979 26.2531 22.0026C26.4632 22.0074 26.5021 22.134 26.5056 22.2848C26.5121 22.5792 26.4348 22.8704 26.5003 23.1689C26.5546 23.4158 26.6649 23.5951 26.9664 23.6014C27.2885 23.6088 27.4383 23.4126 27.469 23.1621C27.5038 22.8804 27.4926 22.5934 27.4979 22.3086C27.4979 22.1503 27.5215 22.0011 27.7522 22C27.9923 22 27.9958 22.1582 27.9982 22.3123C28.0023 22.5338 27.9982 22.7559 27.9982 22.9774H27.9946Z" fill="#F26F21"/>
<path d="M44.0018 23.0092C44.0018 22.7655 44.0018 22.5213 44.0018 22.2776C44.0018 22.0657 44.154 21.9778 44.3529 22.0451C44.5405 22.1081 44.6916 22.0636 44.8639 22.0271C45.4109 21.9105 45.8558 22.1786 45.9549 22.6754C46.0281 23.0462 45.9915 23.417 45.9862 23.7878C45.9862 23.924 45.9077 24.0045 45.7431 23.9997C45.5784 23.995 45.507 23.9171 45.5017 23.781C45.4952 23.4944 45.5017 23.2078 45.4899 22.9218C45.4764 22.5796 45.31 22.4106 45.0037 22.4085C44.6975 22.4063 44.5252 22.5674 44.5092 22.9106C44.4962 23.1861 44.5033 23.4626 44.4998 23.7381C44.4998 23.897 44.4408 24.0061 44.2319 23.9997C44.0378 23.9934 44.0012 23.8795 44 23.7407C44 23.4965 44 23.2528 44 23.0086L44.0018 23.0092Z" fill="#F26F21"/>
<path d="M18.0302 23.4072C18.197 22.9957 18.3314 22.6616 18.4681 22.3285C18.4945 22.2441 18.5337 22.1639 18.5843 22.0907C18.6745 21.9833 18.8072 21.98 18.9247 22.0353C19.0421 22.0907 18.9956 22.1875 18.9621 22.2688C18.6097 23.1207 18.2548 23.972 17.8975 24.8228C17.8215 25.0037 17.6593 25.0325 17.5005 24.97C17.3263 24.902 17.408 24.746 17.467 24.6585C17.8022 24.164 17.6559 23.696 17.4267 23.2175C17.2923 22.937 17.1874 22.6427 17.0739 22.3534C17.0286 22.2378 16.9117 22.094 17.1193 22.0243C17.2844 21.969 17.4341 22.0088 17.5078 22.1902C17.6243 22.4786 17.7423 22.7667 17.8618 23.0543C17.8975 23.1445 17.9446 23.2302 18.0302 23.4072Z" fill="#F26F21"/>
<path d="M30.0268 23.4078C30.1859 23.0159 30.3133 22.7016 30.4413 22.3878C30.4724 22.2929 30.5128 22.2012 30.562 22.114C30.6517 21.9799 30.7944 21.9787 30.9235 22.0403C31.0526 22.1018 30.9872 22.2143 30.9506 22.303C30.6122 23.1245 30.2682 23.9444 29.9287 24.7664C29.8678 24.9139 29.7821 25.0126 29.6039 24.9987C29.4612 24.9882 29.3969 24.9255 29.4347 24.7814C29.4364 24.7705 29.4396 24.7598 29.4443 24.7498C29.8898 24.0846 29.5571 23.4793 29.2915 22.8695C29.2154 22.6966 29.1403 22.5231 29.0704 22.3474C29.0281 22.2409 28.9232 22.1096 29.0958 22.0358C29.252 21.9688 29.4139 21.9865 29.4905 22.1694C29.618 22.4654 29.737 22.7653 29.8616 23.0625C29.9033 23.1506 29.9496 23.2365 30.0268 23.4078Z" fill="#F26F21"/>
<path d="M22.9984 23.0007C22.9984 23.2331 22.9937 23.4655 22.9984 23.6979C23.0031 23.9302 22.8645 24.0147 22.6431 23.9429C22.4933 23.8933 22.3782 23.9186 22.2414 23.9561C21.6542 24.1146 21.1538 23.8331 21.0499 23.2864C20.9939 22.9412 20.985 22.591 21.0235 22.2438C21.0346 22.107 21.0887 21.9929 21.2772 22.0003C21.4657 22.0077 21.5038 22.1229 21.5062 22.2644C21.5115 22.5496 21.5062 22.8348 21.5244 23.119C21.542 23.3873 21.6683 23.6012 22.0083 23.6028C22.3483 23.6044 22.4916 23.4005 22.518 23.1338C22.5462 22.8507 22.5356 22.5644 22.5397 22.2797C22.5397 22.1255 22.5844 22.0009 22.7905 22.004C22.9966 22.0072 22.9972 22.1419 22.9978 22.2745C23.0005 22.5156 23.0007 22.7577 22.9984 23.0007Z" fill="#F26F21"/>
<path d="M54.0001 23.0212C54.0001 22.7774 54.0031 22.5336 54.0001 22.2899C53.9965 22.0805 54.1114 21.9761 54.3339 22.0487C54.5108 22.1065 54.6552 22.0699 54.8194 22.0328C55.4522 21.8913 55.9623 22.2188 55.9906 22.7922C56.0074 23.1102 55.9966 23.4282 55.996 23.7462C55.996 23.8871 55.9521 23.9989 55.7554 24C55.5683 24 55.4967 23.9009 55.4919 23.7578C55.4823 23.4828 55.4889 23.2067 55.4793 22.9316C55.4655 22.5686 55.3181 22.4102 55.0071 22.408C54.6961 22.4059 54.4976 22.5898 54.4795 22.938C54.4657 23.203 54.4741 23.4679 54.4705 23.7329C54.4705 23.868 54.4446 23.9921 54.2437 23.9979C54.0157 24.0053 54.0031 23.8686 54.0031 23.7218L54.0001 23.0212Z" fill="#F26F21"/>
<path d="M24.6947 23C24.268 23 24.0673 22.8693 24.0371 22.5476C24.0188 22.365 24.0302 22.1811 24.0268 21.9977C24.0298 21.9366 24.0256 21.8755 24.0142 21.8151C23.9857 21.7044 24.0034 21.2355 24.0376 21.14C24.069 21.0529 24.13 21.0027 24.2509 21.0001C24.3804 20.9975 24.4888 21.0333 24.4979 21.1383C24.5116 21.3013 24.616 21.3684 24.8213 21.3758C24.9399 21.3797 25.0021 21.4381 24.9992 21.534C25.0017 21.5538 24.9983 21.5738 24.9894 21.5926C24.9804 21.6113 24.9662 21.6283 24.9476 21.6423C24.9291 21.6563 24.9067 21.667 24.8821 21.6736C24.8575 21.6802 24.8313 21.6825 24.8053 21.6804C24.5509 21.6782 24.5042 21.7907 24.5133 21.9528C24.5224 22.1149 24.519 22.267 24.5133 22.4239C24.5104 22.5638 24.5703 22.6614 24.7717 22.6823C24.9091 22.6963 25.0158 22.7398 24.9941 22.8666C24.9707 23.02 24.811 22.9913 24.6947 23Z" fill="#F26F21"/>
<path d="M28 21.9916C28 21.7314 28 21.4713 28 21.2115C28 21.0959 28.082 20.9968 28.5077 21.0001C28.9334 21.0033 28.9988 21.1036 29 21.2184C29 21.7382 29 22.2583 29 22.7786C29 22.8902 28.9596 22.9941 28.5244 22.9998C28.0345 23.0059 28.0024 22.8914 28 22.7717C28 22.5115 28 22.2514 28 21.9916Z" fill="#F26F21"/>
<path d="M25 23.0006C25 22.7983 25 22.5955 25 22.3926C24.9999 22.3182 25.0046 22.2438 25.0142 22.17C25.0299 22.0549 25.1384 21.9661 25.2012 22.0126C25.4501 22.1962 25.7477 21.8473 25.9565 22.0945C26.0412 22.1946 26.0042 22.3755 25.8278 22.4156C25.4811 22.4911 25.4223 22.7496 25.4309 23.0649C25.437 23.2993 25.4309 23.5342 25.4268 23.7692C25.4243 23.9228 25.3528 24.0036 25.1992 23.9999C25.0537 23.9956 25.0061 23.9019 25.0041 23.7703C25.0005 23.5144 25.0041 23.2586 25.0041 23.0022L25 23.0006Z" fill="#F26F21"/>
<path d="M22.001 22.9753C22.001 22.772 22.001 22.5687 22.001 22.3653C22.0002 22.2904 22.0068 22.2156 22.0207 22.1422C22.0419 22.0451 22.1438 21.9716 22.1982 22.0107C22.4459 22.1904 22.7415 21.8525 22.9549 22.088C23.0416 22.1851 23.0053 22.3664 22.8288 22.4066C22.4883 22.4839 22.4182 22.7355 22.4328 23.0574C22.4419 23.2602 22.4358 23.4635 22.4328 23.6668C22.4328 23.832 22.4328 24.0037 22.2083 23.9999C21.999 23.9962 22.0066 23.8331 22.0035 23.6813C21.9975 23.4458 22.001 23.2103 22.001 22.9753Z" fill="#F26F21"/>
<path d="M58.2455 22.021C58.404 22.1752 58.5826 22.0615 58.7648 22.0108C58.8616 21.9841 58.9588 22.0017 58.9861 22.1213C59.0134 22.2409 59.0129 22.3776 58.8677 22.4064C58.4195 22.4955 58.3804 22.8265 58.3999 23.2072C58.4092 23.3876 58.3999 23.5696 58.3999 23.7511C58.3999 23.8953 58.3587 24.0036 58.1904 23.9999C58.0402 23.9967 58 23.8995 58 23.7672C58 23.2653 58 22.7637 58 22.2623C57.999 22.1096 58.0613 22.0183 58.2455 22.021Z" fill="#F26F21"/>
<path d="M37.0016 22.9877C37.0016 22.7426 37.0016 22.4974 37.0016 22.2517C37.0016 22.0492 37.1264 21.9586 37.289 22.0386C37.4516 22.1185 37.5636 22.0807 37.7043 22.0284C37.8173 21.9858 37.948 21.9703 37.9874 22.135C38.0199 22.2709 37.997 22.3967 37.8275 22.4303C37.4798 22.5001 37.4084 22.7458 37.4164 23.0522C37.4223 23.2867 37.4164 23.5212 37.4137 23.7562C37.4137 23.9023 37.3604 24.0051 37.1887 23.9998C37.0288 23.995 37.0005 23.8884 37 23.76C37.0016 23.4999 37.0021 23.2441 37.0016 22.9877Z" fill="#F26F21"/>
<path d="M43.0015 22.9897C43.0015 22.7426 43.0015 22.4956 43.0015 22.2486C43.0015 22.0965 43.1439 21.9995 43.5354 22C43.9268 22.0005 43.9987 22.1079 44 22.2373C44 22.7407 44 23.2455 44 23.7517C44 23.8984 43.8922 24.0052 43.4764 23.9998C43.0605 23.9944 43.0028 23.8677 43.0015 23.7301C42.9989 23.4837 43.0002 23.2367 43.0015 22.9897Z" fill="#F26F21"/>
<path d="M42.4974 22.997C42.3864 22.997 42.2753 23.0038 42.1642 22.997C42.0754 22.9902 42.0046 22.8981 42.0002 22.4999C41.9958 22.1016 42.0679 22.0014 42.1572 22C42.386 22 42.6148 22 42.8432 22.0081C42.9332 22.0081 43.0039 22.1328 42.9998 22.5297C42.9961 22.8805 42.931 22.9834 42.8517 22.9916C42.7336 23.0038 42.6159 22.9916 42.4978 22.9916L42.4974 22.997Z" fill="#F26F21"/>
</svg>
