<svg width="188" height="188" viewBox="0 0 188 188" fill="none" xmlns="http://www.w3.org/2000/svg">
<path d="M151.704 146.909C159.35 147.887 167.095 145.6 172.814 140.458C177.605 136.15 180.555 130.335 173.188 124.306C155.558 109.877 156.955 98.2197 165.088 89.9691C173.22 81.7186 193.893 65.0309 181.168 50.2291C175.036 43.0981 163.941 43.1564 153.514 43.2152C142.297 43.2779 131.853 43.3412 129.189 34.4561C124.05 17.3116 114.811 3.12093 98.4802 0.460709C85.0217 -1.7314 66.5004 3.73071 62.8286 20.452C59.1919 37.011 79.9751 36.0869 60.2922 62.8043C48.717 78.5167 67.9437 112.177 85.3341 105.267C102.724 98.3569 123.992 108.97 124.738 128.479C125.23 141.344 141.012 145.542 151.704 146.909Z" fill="#DEDBD9"/>
<path d="M51.3287 50.9682C51.5048 48.9261 52.5095 47.0219 54.1584 45.7613C55.8303 44.4831 58.2642 43.7187 61.3114 45.7757C67.4059 49.8888 57.8057 61.848 54.014 59.682C50.9006 57.9031 51.0404 54.307 51.3287 50.9682Z" fill="#DEDBD9"/>
<path d="M144.244 32.6908C142.491 31.6837 141.19 29.991 140.719 27.988C140.242 25.9565 140.527 23.4555 143.575 21.5762C149.671 17.8181 156.218 30.5238 154.083 34.2534C152.535 36.9564 147.112 34.3368 144.244 32.6908Z" fill="#DEDBD9"/>
<path d="M187.895 90.8838C187.704 92.0823 187.022 93.166 185.984 93.8434C184.931 94.5306 183.445 94.8834 181.712 93.5462C178.247 90.8722 183.42 84.9543 186.008 85.3953C187.883 85.7148 188.21 88.9244 187.895 90.8838Z" fill="#DEDBD9"/>
<path d="M90.6543 127.886C88.1227 133.442 98.611 143.714 114.08 150.831C129.549 157.948 144.141 159.214 146.673 153.659C149.204 148.104 138.716 137.832 123.247 130.715C107.778 123.597 93.1859 122.332 90.6543 127.886Z" fill="#DEDBD9"/>
<path d="M99.3598 138.762L123.073 152.151C124.086 152.723 125.336 152.723 126.349 152.151L137.966 145.592C139.672 144.628 140.046 142.535 139.085 141.078C138.817 140.67 138.444 140.313 137.967 140.044L114.299 126.671C113.288 126.1 112.043 126.098 111.029 126.666L99.3675 133.21C98.8865 133.48 98.5111 133.84 98.2419 134.249C97.2816 135.706 97.6528 137.798 99.3598 138.762Z" fill="#3A3B5A"/>
<path d="M97.7227 134.195C97.9851 134.6 98.3502 134.955 98.818 135.222L122.053 148.52C123.046 149.089 124.271 149.089 125.263 148.52L136.646 142.006C137.114 141.738 137.479 141.383 137.742 140.978C137.48 140.574 137.115 140.219 136.648 139.951L113.456 126.669C112.466 126.101 111.245 126.099 110.252 126.663L98.8256 133.164C98.3543 133.431 97.9865 133.789 97.7227 134.195Z" fill="#4C4D7D"/>
<path d="M113.545 112.618V133.19L119.538 136.59L119.582 141.819L120.942 142.589L120.943 142.588L125.644 140.055V119.563L113.545 112.618Z" fill="#2A2A3F"/>
<path d="M108.892 115.343V135.773L119.63 141.823L120.989 142.588L120.991 142.589V122.088L113.593 117.964L108.892 115.343Z" fill="#3A3B5A"/>
<path d="M74.4551 6.6283V86.9029C74.4551 88.2958 75.2052 89.5831 76.4228 90.2795L176.512 147.511C179.136 149.011 182.415 147.135 182.415 144.134V64.0003C182.415 63.1129 182.11 62.2675 181.573 61.5908C181.304 61.2504 180.976 60.9538 180.597 60.7145C180.55 60.685 180.501 60.6551 180.452 60.6264L174.98 57.4896L80.361 3.25441C77.7375 1.75107 74.4551 3.62564 74.4551 6.6283Z" fill="#2A2A3F"/>
<path d="M179.623 147.155L173.108 150.763L174.612 146.222C174.612 146.222 177.57 147.257 179.623 147.155Z" fill="#2A2A3F"/>
<path d="M67.0098 6.54479V10.6437L74.3905 14.8012L167.435 67.2078L174.723 64.1441L181.485 61.176C181.216 60.8359 180.888 60.5397 180.509 60.3007L174.893 57.0792L78.1229 1.57459C76.5944 0.697975 74.7107 0.685005 73.1705 1.54331L68.6542 4.05523L68.1761 4.32152C67.4852 4.7996 67.0098 5.59087 67.0098 6.54479Z" fill="#3A3B5A"/>
<path d="M67.0098 6.35895V89.4096C67.0098 90.3813 67.5328 91.28 68.3832 91.7665L170.85 150.394C172.682 151.442 174.97 150.134 174.97 148.038V65.1315C174.97 64.1607 174.448 63.2633 173.599 62.7763L173.453 62.6918L71.1327 4.00293C70.317 3.53522 69.4102 3.53522 68.655 3.86552C68.4879 3.93849 68.3267 4.02754 68.1763 4.13272C67.4862 4.61073 67.0098 5.40338 67.0098 6.35895Z" fill="#4C4D7D"/>
<path d="M70.7324 10.9715V89.1461C70.7324 89.4937 70.9218 89.8185 71.2264 89.9928L167.904 145.179C168.059 145.268 168.225 145.314 168.394 145.314C168.871 145.314 169.386 144.939 169.386 144.332V66.2936C169.386 65.946 169.197 65.6229 168.892 65.4482L72.216 10.1261C72.0592 10.0354 71.8947 9.9903 71.7248 9.9903C71.2471 9.9903 70.7324 10.3652 70.7324 10.9715Z" fill="white"/>
<path d="M169.386 70.8406L70.7324 14.6608V10.9672C70.7324 10.3636 71.2471 9.99033 71.7248 9.99033C71.8947 9.99033 72.0592 10.0353 72.216 10.1256L168.892 65.2044C169.197 65.3783 169.386 65.7 169.386 66.046V70.8406Z" fill="#E2E0E1"/>
<path d="M165.666 66.7539C165.703 67.5059 166.149 68.1159 166.661 68.1159C167.174 68.1159 167.559 67.5059 167.522 66.7539C167.485 66.0013 167.039 65.3913 166.526 65.3913C166.014 65.3913 165.628 66.0013 165.666 66.7539Z" fill="#F14C7F"/>
<path d="M162.874 64.9375C162.911 65.6895 163.357 66.2996 163.869 66.2996C164.382 66.2996 164.767 65.6895 164.73 64.9375C164.692 64.1849 164.247 63.5749 163.735 63.5749C163.222 63.5749 162.837 64.1849 162.874 64.9375Z" fill="#3A3B5A"/>
<path d="M160.082 63.1208C160.119 63.8736 160.564 64.4832 161.077 64.4832C161.589 64.4832 161.975 63.8736 161.938 63.1208C161.901 62.3686 161.455 61.7585 160.942 61.7585C160.43 61.7585 160.044 62.3686 160.082 63.1208Z" fill="#FE4D00"/>
<path d="M70.7324 79.9227V89.1469C70.7324 89.495 70.9218 89.8193 71.2268 89.9936L167.904 145.179C168.059 145.269 168.225 145.314 168.394 145.314C168.871 145.314 169.386 144.939 169.386 144.333V136.237L70.7324 79.9227Z" fill="#4C4D7D"/>
<path d="M111.691 110.802C111.802 112.808 113.139 114.435 114.677 114.435C116.216 114.435 117.371 112.808 117.26 110.802C117.149 108.795 115.812 107.169 114.273 107.169C112.736 107.169 111.58 108.795 111.691 110.802Z" fill="#5E6A9A"/>
<path d="M143.173 117.159C142.995 117.159 142.813 117.115 142.641 117.015L91.7411 87.7096C91.4108 87.5195 91.2067 87.1658 91.208 86.7838L91.231 79.248L91.235 77.9272L91.3351 45.3768L91.3373 44.8294C91.3378 44.4119 91.5708 44.0762 91.8921 43.9009L91.8912 43.9L91.8957 43.8987L91.9016 43.8951C91.9944 43.8452 92.0954 43.8106 92.1999 43.7899L97.6037 41.8565L97.6713 41.8322C97.7781 41.7967 97.8912 41.7778 98.0061 41.7778C98.1841 41.7778 98.3666 41.8232 98.5383 41.9226L149.266 71.1976C149.451 71.3046 149.596 71.4623 149.687 71.6475C149.759 71.7917 149.798 71.9517 149.799 72.1185L149.842 114.104C149.843 114.562 149.564 114.925 149.194 115.084L149.057 115.133L143.592 117.074V117.074C143.461 117.129 143.318 117.159 143.173 117.159Z" fill="#E2E0E1"/>
<path d="M92.4972 39.2698L92.3805 77.5785C92.3796 77.961 92.582 78.3142 92.9123 78.5049L137.13 104.102L139.61 105.538L138.965 109.894L144.407 107.951L144.544 107.902C144.911 107.743 145.189 107.38 145.188 106.921L145.145 64.8874C145.144 64.7209 145.106 64.5603 145.035 64.4159C144.944 64.2305 144.8 64.0721 144.615 63.9655L94.1046 34.6571C93.8223 34.4933 93.5122 34.4758 93.2403 34.5671L93.1734 34.591L87.4854 36.6373L92.4972 39.2698Z" fill="#FE4D00"/>
<path d="M139.389 105.544L138.719 109.894L144.376 107.953L144.517 107.904C144.9 107.746 145.189 107.383 145.188 106.925L145.143 64.954C145.142 64.7878 145.102 64.6274 145.028 64.4832L137.519 66.9541L136.812 104.111L139.389 105.544Z" fill="#AA232A"/>
<path d="M86.5547 79.4465C86.5538 79.8294 86.7571 80.1834 87.088 80.3744L138.002 109.749C138.715 110.16 139.605 109.646 139.604 108.824L139.601 105.82L139.599 103.407L139.561 66.9021V66.7395C139.56 66.3588 139.358 66.0075 139.028 65.8174L138.954 65.7746L88.2866 36.4734C87.9422 36.2743 87.555 36.2919 87.2485 36.4567C86.9221 36.6306 86.685 36.9707 86.6841 37.3933L86.6818 37.9419L86.5817 70.569L86.5777 71.8929L86.5547 79.4465Z" fill="#FF863F"/>
<path d="M119.222 72.6987L139.604 105.353L139.602 102.962L120.305 72.0471C120.122 71.7529 119.731 71.6605 119.432 71.8413C119.134 72.0212 119.039 72.4046 119.222 72.6987Z" fill="#FE4D00"/>
<path d="M86.5547 71.7488L104.724 65.7628C105.061 65.6516 105.246 65.2823 105.137 64.9378C105.029 64.5924 104.666 64.4038 104.328 64.515L86.5588 70.3696L86.5547 71.7488Z" fill="#FE4D00"/>
<path d="M86.5547 37.8177L110.155 76.2899L139.604 66.8542V66.6912C139.603 66.3095 139.4 65.9572 139.07 65.7666L138.995 65.7237L110.714 74.7859L87.1232 36.3286C86.7957 36.5029 86.5579 36.8439 86.557 37.2676L86.5547 37.8177Z" fill="#FE4D00"/>
<path d="M37.1119 116.331C38.0307 119.241 33.4105 123.192 26.7921 125.155C20.1744 127.118 14.065 126.348 13.1466 123.438C12.2282 120.527 16.8487 116.575 23.4665 114.613C30.0843 112.651 36.1936 113.419 37.1119 116.331Z" fill="#DEDBD9"/>
<path d="M34.4355 43.0299L34.453 43.1454C34.4621 43.2091 34.4739 43.275 34.4879 43.3409C35.1879 46.8389 40.2259 52.6763 40.2259 52.6763L42.8118 51.1441C40.3567 47.8 37.64 40.8696 37.64 40.8696L35.9369 42.0174L34.4355 43.0299Z" fill="#FE4D00"/>
<path d="M32.7395 39.3641C33.0685 40.9381 33.8936 42.34 34.7047 43.4103C34.7497 43.4677 34.7924 43.5242 34.8365 43.5802C34.8719 43.6246 34.906 43.6684 34.9405 43.7115C35.1768 44.0061 35.4081 44.2716 35.6207 44.5024C35.9906 44.06 36.3981 43.6493 36.7771 43.213C37.0802 42.8636 37.3219 42.4695 37.5881 42.0953C37.7644 41.8463 37.9516 41.586 38.1584 41.3444C36.4336 37.7253 33.9731 29.971 33.9731 29.971C33.9731 29.971 32.0016 35.8402 32.7395 39.3641Z" fill="#FE4D00"/>
<path d="M34.4355 43.3413C34.4814 43.3814 34.5248 43.4208 34.5697 43.46C34.5794 43.5037 34.5919 43.5489 34.6067 43.5942L34.6757 43.5517C35.0222 43.3419 35.5353 43.0869 36.1669 42.9358C36.2428 42.9173 36.2914 42.8726 36.2969 42.8238L36.2863 42.7688C36.2632 42.7263 36.2086 42.6963 36.1447 42.686L36.0309 42.6911C35.3568 42.8532 34.8103 43.1176 34.4355 43.3413Z" fill="#AA232A"/>
<path d="M16.7066 115.567C16.282 115.7 15.9765 116.065 15.9099 116.494C15.8519 116.869 15.8054 117.406 15.8282 118.117C15.8792 119.705 15.9001 120.352 15.9001 120.352C15.9001 120.352 16.4031 121.19 17.8487 121.417L18.2739 121.474C18.2739 121.474 21.5457 123.348 23.0736 123.492C25.0673 123.68 27.1046 122.806 25.4557 120.959C23.8982 119.213 21.6083 118.514 20.9316 117.116C20.853 116.953 20.342 116.606 20.212 116.477C19.1073 115.389 18.2576 115.08 16.7066 115.567Z" fill="#FF863F"/>
<path d="M19.7681 118.976C19.8548 118.976 19.9375 118.945 19.9735 118.894C19.9764 118.89 20.2797 118.476 20.8443 118.362C21.3848 118.253 21.9654 118.537 21.9713 118.541C22.0664 118.587 22.2071 118.58 22.2858 118.522C22.364 118.465 22.3514 118.381 22.2567 118.333C22.2256 118.317 21.4816 117.95 20.703 118.107C19.9463 118.259 19.5783 118.766 19.5631 118.788C19.5144 118.857 19.5669 118.936 19.6804 118.965L19.7681 118.976Z" fill="white"/>
<path d="M20.698 118.976C20.7847 118.976 20.8671 118.945 20.9034 118.894C20.9062 118.89 21.2096 118.476 21.774 118.362C22.3147 118.253 22.8953 118.537 22.901 118.54C22.9961 118.588 23.1365 118.58 23.2152 118.522C23.2936 118.465 23.2812 118.38 23.1865 118.333C23.1553 118.317 22.4117 117.95 21.6325 118.106C20.8762 118.258 20.5082 118.766 20.4928 118.788C20.4441 118.857 20.4966 118.936 20.6098 118.965L20.698 118.976Z" fill="white"/>
<path d="M21.6294 119.884C21.7161 119.884 21.7988 119.853 21.8351 119.802C21.8376 119.798 22.141 119.384 22.7056 119.27C23.2461 119.161 23.8266 119.445 23.8323 119.448C23.9279 119.496 24.0683 119.488 24.147 119.431C24.2254 119.373 24.2126 119.289 24.1181 119.241C24.0869 119.225 23.3431 118.858 22.5642 119.015C21.8076 119.167 21.4396 119.674 21.4242 119.696C21.3759 119.764 21.4283 119.844 21.5417 119.873L21.6294 119.884Z" fill="white"/>
<path d="M16.9078 111.944L16.7529 115.706C16.7529 115.706 17.7027 116.672 19.179 116.032L19.545 111.97C19.545 111.97 17.9508 111.403 16.9078 111.944Z" fill="#F7977B"/>
<path d="M16.0922 89.5537C17.4406 82.8019 16.3724 72.1247 16.2701 67.2078L27.5861 68.8794L27.9213 75.5883L27.0744 75.6195C27.0744 75.6195 26.5858 75.413 26.0118 75.4344C25.2063 75.4644 24.9617 76.7462 24.8548 77.1137C24.4585 81.9605 24.4372 87.8959 23.9833 91.5964C23.0849 98.9186 20.2338 115.174 20.2338 115.174C18.8573 115.462 18.0534 115.39 16.6702 114.896C16.6702 114.896 15.2425 93.8085 16.0922 89.5537Z" fill="#4C4D7D"/>
<path d="M17.1827 114.435H17.1846C17.2653 114.433 17.33 114.338 17.3289 114.222C17.3221 113.473 17.1597 95.8821 17.0631 94.557C16.9645 93.2051 17.2703 88.3482 17.5704 85.71C17.7832 83.8411 17.6319 75.0517 17.6255 74.6783C17.6234 74.564 17.5584 74.4735 17.4794 74.4735L17.4755 74.4739C17.3949 74.4766 17.331 74.573 17.3331 74.689C17.3346 74.78 17.49 83.8121 17.2818 85.6427C16.9789 88.3045 16.6718 93.2203 16.7724 94.6007C16.8675 95.9071 17.0349 114.044 17.0365 114.227C17.0375 114.342 17.1028 114.435 17.1827 114.435Z" fill="#2A2A3F"/>
<path d="M20.4088 113.714C20.4088 113.714 17.8431 113.928 15.9002 113.527C15.7503 114.125 15.8327 114.753 16.011 115.094C16.011 115.094 18.3288 115.567 20.1931 115.21C20.4095 114.763 20.5731 114.236 20.4088 113.714Z" fill="#5E6A9A"/>
<path d="M26.0132 112.842C25.5887 112.976 25.2834 113.341 25.2167 113.77C25.1586 114.145 25.1121 114.681 25.1347 115.393C25.186 116.98 25.2069 117.628 25.2069 117.628C25.2069 117.628 25.7098 118.465 27.1552 118.692L27.5806 118.749C27.5806 118.749 30.8524 120.623 32.3803 120.767C34.374 120.955 36.4113 120.082 34.7622 118.234C33.2051 116.489 30.9149 115.79 30.2388 114.391C30.1597 114.228 29.6489 113.881 29.5186 113.753C28.414 112.664 27.564 112.356 26.0132 112.842Z" fill="#FF863F"/>
<path d="M30.0055 115.343C30.0924 115.343 30.1745 115.312 30.2107 115.261C30.2139 115.257 30.5173 114.843 31.0815 114.729C31.6219 114.62 32.2028 114.904 32.2082 114.907C32.3038 114.955 32.4441 114.947 32.523 114.889C32.6012 114.832 32.5888 114.748 32.4938 114.7C32.463 114.684 31.7191 114.317 30.94 114.474C30.1837 114.626 29.8155 115.133 29.8004 115.155C29.7518 115.223 29.8041 115.303 29.9175 115.332L30.0055 115.343Z" fill="white"/>
<path d="M30.0054 116.251C30.0924 116.251 30.175 116.221 30.2106 116.169C30.2139 116.166 30.5173 115.751 31.0815 115.638C31.6224 115.528 32.2028 115.813 32.2087 115.816C32.3038 115.863 32.4441 115.855 32.523 115.798C32.6012 115.741 32.5888 115.656 32.4938 115.608C32.463 115.593 31.7191 115.225 30.94 115.382C30.1836 115.534 29.8159 116.042 29.8003 116.063C29.7517 116.132 29.8046 116.211 29.9174 116.24L30.0054 116.251Z" fill="white"/>
<path d="M30.9362 116.251C31.0231 116.251 31.1051 116.22 31.1418 116.169C31.1445 116.165 31.4479 115.751 32.012 115.637C32.5529 115.529 33.1332 115.813 33.1392 115.816C33.2342 115.863 33.3751 115.855 33.4534 115.798C33.5322 115.741 33.5192 115.656 33.4247 115.608C33.3934 115.592 32.6496 115.225 31.8706 115.382C31.1143 115.534 30.7461 116.041 30.731 116.063C30.6824 116.132 30.7348 116.211 30.8482 116.24L30.9362 116.251Z" fill="white"/>
<path d="M26.2142 109.219L26.0596 112.981C26.0596 112.981 27.0089 113.948 28.4853 113.308L28.8516 109.245C28.8516 109.245 27.2572 108.678 26.2142 109.219Z" fill="#F7977B"/>
<path d="M33.9298 73.8611C33.5567 78.6914 32.7871 84.152 32.3598 87.8409C31.5105 95.1736 29.5428 111.54 29.5428 111.54C28.2416 111.83 27.4817 111.757 26.1744 111.262C26.1744 111.262 24.755 90.0725 25.2239 85.7594C25.9938 78.6815 25.9957 71.553 25.8987 66.6288L34.4358 65.3912L33.9298 73.8611Z" fill="#4C4D7D"/>
<path d="M26.823 74.4734C26.7413 74.4734 26.6755 74.5694 26.6767 74.6869C26.7059 77.5311 26.7227 81.702 26.5885 82.8827C26.2856 85.5473 25.9785 90.4695 26.079 91.8517C26.1744 93.1596 26.3415 111.319 26.3431 111.502C26.344 111.618 26.4096 111.71 26.4894 111.71H26.4913C26.572 111.708 26.6366 111.613 26.6354 111.497C26.6286 110.748 26.4664 93.1346 26.3698 91.8079C26.2713 90.4539 26.577 85.5915 26.8771 82.9501C27.0162 81.7257 26.9997 77.536 26.9696 74.6802C26.9684 74.5654 26.9031 74.4734 26.823 74.4734Z" fill="#2A2A3F"/>
<path d="M30.6461 110.989C30.6461 110.989 28.0799 111.204 26.1375 110.802C25.9876 111.4 26.07 112.029 26.2483 112.37C26.2483 112.37 28.566 112.842 30.4303 112.485C30.6466 112.038 30.8105 111.512 30.6461 110.989Z" fill="#5E6A9A"/>
<path d="M33.3369 28.7243C30.6304 28.1622 26.0631 27.8163 23.629 28.6626C20.1992 29.8547 18.5541 30.9932 16.2198 32.6528C16.1387 33.999 15.745 40.4509 15.7265 41.8759C15.7226 42.2195 15.721 42.5595 15.723 42.8919C15.7233 43.0315 15.7244 43.1693 15.727 43.3062C15.7919 47.6617 15.2493 57.3649 15.1514 59.7086C14.9758 63.9236 14.8227 66.1169 14.924 66.3803C15.5086 67.9012 19.3377 69.305 25.0213 68.9758C30.7044 68.6461 33.4863 68.5209 34.1046 66.4357C34.7233 64.3514 34.4011 62.7576 33.7535 56.561C33.2065 51.3363 33.2268 33.2604 33.3369 28.7243Z" fill="#FF863F"/>
<path d="M31.3509 56.3006C31.4609 56.3313 31.5794 56.2765 31.6251 56.1701C31.674 56.0544 31.619 55.9215 31.5023 55.8732C31.4021 55.8313 21.4922 51.6646 20.9325 46.5213C20.9189 46.3967 20.8055 46.3066 20.6795 46.3201C20.5535 46.3336 20.4624 46.4451 20.476 46.5696C20.7243 48.8537 22.6333 51.1865 26.1491 53.5045C28.7421 55.2134 31.2991 56.2806 31.3245 56.2913L31.3509 56.3006Z" fill="#FE4D00"/>
<path d="M29.4945 57.2084C29.6132 57.2436 29.7375 57.1723 29.7727 57.0478C29.8089 56.9213 29.7407 56.7885 29.6215 56.7504C29.59 56.7406 26.4428 55.7297 23.6248 53.6284C23.5228 53.5522 23.3813 53.5781 23.3094 53.685C23.2369 53.7929 23.2612 53.9414 23.363 54.0176C26.2433 56.1653 29.4587 57.1972 29.4907 57.207L29.4945 57.2084Z" fill="#FE4D00"/>
<path d="M31.3333 17.3208C31.3333 17.3208 32.596 14.3702 30.0216 12.6802C27.4472 10.9898 24.878 12.0904 24.9456 13.1516C25.0132 14.2134 24.3752 13.479 22.4075 14.8487C20.4397 16.2184 20.0818 18.3565 20.8509 19.9806C20.8509 19.9806 24.9656 14.8065 31.3333 17.3208Z" fill="#2A2A3F"/>
<path d="M27.921 27.9421L27.7007 30.0403L27.6257 30.7492C25.2844 31.3363 23.4789 29.746 23.4789 29.746L23.2676 26.505C23.3094 26.4756 23.3548 26.4509 23.4034 26.4321C24.6664 25.8802 27.921 27.9421 27.921 27.9421Z" fill="#F7977B"/>
<path d="M27.921 27.912L27.6941 29.9709C25.2254 29.1463 23.8712 27.4217 23.2676 26.4302C24.5685 25.8887 27.921 27.912 27.921 27.912Z" fill="#F35D63"/>
<path d="M31.1315 21.4332C31.1315 21.4332 31.9256 20.2938 32.4321 21.312C32.9383 22.3298 32.029 25.1793 30.7129 24.3831L31.1315 21.4332Z" fill="#F35D63"/>
<path d="M30.8623 23.6133C30.9307 23.6169 30.9965 23.5745 31.02 23.5052C31.3646 22.4775 32.4539 22.1131 32.4647 22.1095C32.5474 22.0826 32.5933 21.9926 32.5668 21.9088C32.5407 21.8244 32.4519 21.7778 32.3692 21.8047C32.3181 21.8213 31.1185 22.2187 30.7214 23.4022C30.6933 23.486 30.7372 23.5766 30.8199 23.605L30.8623 23.6133Z" fill="#CC4256"/>
<path d="M31.4543 22.7053L31.5527 22.6809C31.6395 22.6292 31.6692 22.5142 31.6197 22.4242C31.6121 22.4096 31.4141 22.0542 30.9751 21.8181C30.8871 21.77 30.7782 21.8072 30.7328 21.8996C30.6874 21.9915 30.7223 22.1047 30.8103 22.1522C31.1503 22.3353 31.3058 22.6079 31.307 22.6104C31.3384 22.6682 31.3949 22.7016 31.4543 22.7053Z" fill="#CC4256"/>
<path d="M31.6035 23.1704C31.5838 23.4619 31.555 23.7339 31.5171 23.9807C31.1668 26.2044 29.2916 30.7222 25.5117 28.4321C24.605 27.8821 23.9305 27.3384 23.404 26.7449C23.0065 26.2979 22.6919 25.8225 22.4233 25.2959C22.3193 25.0925 22.2718 24.8638 22.2038 24.6455L22.1692 24.5294L22.1492 24.4643C21.9601 23.8271 21.8166 23.183 21.7042 22.5692C21.5647 21.8032 21.4754 21.0895 21.4204 20.502C21.3183 19.4222 21.7757 18.3678 22.6213 17.7274C24.9108 15.9909 27.5583 16.2128 29.3383 16.6847C30.5743 17.0124 31.4669 18.1228 31.5533 19.4394C31.5952 20.064 31.6296 20.7759 31.641 21.4832C31.6493 22.0658 31.6406 22.6474 31.6035 23.1704Z" fill="#F7977B"/>
<path d="M23.2676 24.5218C23.2676 24.5218 22.7833 25.3789 21.6783 25.4301C21.5801 25.1964 21.4905 24.9597 21.4062 24.7221C21.9407 24.8077 22.7581 24.8623 23.2676 24.5218Z" fill="#F35D63"/>
<path d="M22.3049 26.3381C22.0156 25.9717 21.7866 25.5818 21.5912 25.1502C21.5155 24.9834 21.4809 24.7959 21.4314 24.6169L21.4062 24.5217C21.4726 24.525 21.5814 24.5495 21.7595 24.6162C21.7595 24.6162 22.4973 25.5967 22.3049 26.3381Z" fill="#2A2A3F"/>
<path d="M29.7823 25.8781C29.5828 26.4185 29.0371 27.3905 27.6913 27.2283C26.3424 27.0661 26.0977 26.0879 26.0596 25.4299L29.7823 25.8781Z" fill="white"/>
<path d="M26.9885 22.2669C26.9664 22.5174 26.7413 22.7137 26.4851 22.705C26.2292 22.6964 26.0393 22.486 26.0613 22.2355C26.0831 21.985 26.3086 21.7887 26.5645 21.7974C26.8207 21.8061 27.0106 22.0164 26.9885 22.2669Z" fill="#2A2A3F"/>
<path d="M30.7112 22.2668C30.6897 22.5177 30.4642 22.7137 30.208 22.705C29.9518 22.6964 29.7624 22.4863 29.7839 22.2353C29.806 21.9847 30.0308 21.7884 30.287 21.7974C30.5433 21.8057 30.7333 22.0162 30.7112 22.2668Z" fill="#2A2A3F"/>
<path d="M24.2276 20.3622C24.2276 20.3622 25.7105 19.8019 26.9903 20.0393L26.9629 20.5003C26.9629 20.5003 25.1694 20.564 24.326 20.8889C24.2105 20.7232 24.1624 20.5494 24.2276 20.3622Z" fill="#2A2A3F"/>
<path d="M31.6333 21.3446C31.6333 21.3446 30.217 20.7747 28.8904 20.9095L28.8516 21.3116C28.8516 21.3116 30.6534 21.4676 31.4576 21.7971C31.5987 21.6596 31.6721 21.5111 31.6333 21.3446Z" fill="#2A2A3F"/>
<path d="M27.4658 24.5211C27.2736 24.5116 27.0861 24.4106 27.057 24.3943C26.9998 24.3622 26.9744 24.2793 27.0005 24.2091C27.0267 24.1385 27.0943 24.1072 27.1518 24.1394C27.2529 24.196 27.4972 24.2884 27.6068 24.215C27.6278 24.201 27.6573 24.172 27.6673 24.0878C27.7241 23.6015 27.6687 21.9597 27.6684 21.943C27.6658 21.866 27.7145 21.8004 27.7776 21.7972C27.8407 21.794 27.8934 21.8543 27.896 21.9312C27.8986 22.0001 27.9528 23.616 27.8927 24.1276C27.8702 24.32 27.7842 24.4151 27.716 24.4604C27.6411 24.5107 27.5532 24.5252 27.4658 24.5211Z" fill="#F35D63"/>
<path d="M22.3635 21.3692C22.3635 21.3692 21.2102 20.2885 20.6243 21.3692C20.0387 22.4503 21.2235 25.1649 23.2667 24.3821L22.3635 21.3692Z" fill="#F7977B"/>
<path d="M22.2065 23.612C22.1421 23.622 22.0772 23.5814 22.0502 23.5097C21.6516 22.4377 20.6 22.1392 20.5893 22.1364C20.5093 22.1141 20.4598 22.0219 20.4786 21.9296C20.4974 21.8373 20.5776 21.78 20.6574 21.8017C20.7064 21.815 21.8647 22.1397 22.324 23.3741C22.3562 23.4614 22.3214 23.562 22.2459 23.5998L22.2065 23.612Z" fill="#F35D63"/>
<path d="M21.6192 22.7053L21.5144 22.6896C21.4202 22.6472 21.38 22.5403 21.4242 22.4509C21.4316 22.4363 21.6099 22.0825 22.0499 21.824C22.138 21.7717 22.2543 21.7979 22.3091 21.8827C22.3634 21.967 22.336 22.0773 22.2474 22.129C21.9073 22.3294 21.7662 22.6013 21.7648 22.6037C21.7363 22.6612 21.6805 22.6978 21.6192 22.7053Z" fill="#F35D63"/>
<path d="M20.7849 20.9442C20.7849 20.9442 21.6026 20.7984 21.9994 21.3988C22.4944 22.1492 22.5375 22.6911 22.5375 22.6911L23.1763 22.7053C23.1763 22.7053 22.6721 21.5177 22.8183 20.8038C22.9642 20.09 23.5077 19.9171 23.3674 19.1589C23.2272 18.4002 23.5944 17.4385 24.3752 17.3082C25.1558 17.1774 28.543 16.9419 29.7358 17.4856C30.9286 18.0303 30.7026 19.2897 31.0076 19.7497C31.3122 20.2103 31.3462 21.2886 31.3462 21.2886C31.5332 21.0256 31.6353 20.7115 31.6412 20.3877C31.6485 19.9972 31.6353 19.3981 31.545 18.6243C31.3757 17.1715 29.291 15.4401 26.1092 15.4396C22.9281 15.4387 21.0303 16.9519 20.6218 18.5178C20.2133 20.0836 20.7849 20.9442 20.7849 20.9442Z" fill="#2A2A3F"/>
<path d="M22.5538 21.1921L22.6531 21.1883C22.8812 21.1992 23.0932 21.2215 23.274 21.2486C23.4387 21.2714 23.5779 21.2985 23.6801 21.3199C23.6801 21.3127 24.068 21.393 24.2303 21.4619C24.2158 21.5384 24.2036 21.6177 24.1988 21.6971C24.1431 22.6976 24.931 23.5561 25.9566 23.6107C26.9823 23.6663 27.8623 22.8962 27.9183 21.8971C27.9738 20.8966 27.1859 20.0381 26.1603 19.9835C25.3469 19.9397 24.6255 20.4163 24.3347 21.1151C24.0969 21.0666 23.5648 20.9616 23.2022 20.9046C23.0955 20.888 23.0034 20.8752 22.9367 20.8695C22.7986 20.8576 22.5416 20.8196 22.3369 20.8234L22.35 20.8538L22.5538 21.1921ZM27.6286 21.8809C27.5808 22.7256 26.8382 23.3746 25.9727 23.3285C25.1072 23.2819 24.4417 22.5574 24.4891 21.7132C24.5365 20.869 25.2794 20.2196 26.1447 20.2657C27.0106 20.3122 27.6758 21.0363 27.6286 21.8809Z" fill="white"/>
<path d="M30.7989 21.1742C29.9339 21.1282 29.1917 21.777 29.1445 22.6215C29.0968 23.4655 29.7621 24.1898 30.627 24.2364C31.492 24.2825 32.2342 23.6332 32.2819 22.7891C32.3291 21.9446 31.6638 21.2208 30.7989 21.1742ZM30.611 24.519C29.5864 24.4644 28.7984 23.6061 28.8544 22.6058C28.9108 21.606 29.7899 20.837 30.8149 20.8916C31.8395 20.9462 32.6275 21.8045 32.5715 22.8048C32.5156 23.8046 31.636 24.5736 30.611 24.519Z" fill="white"/>
<path d="M28.6287 21.7971C28.6261 21.7922 28.3352 21.2453 27.9223 21.2172C27.5138 21.1898 27.2065 21.6944 27.2034 21.6999L26.9902 21.5061C27.0058 21.4792 27.3832 20.8532 27.9369 20.8905C28.4862 20.9279 28.837 21.5923 28.8516 21.6203L28.6287 21.7971Z" fill="white"/>
<path d="M44.6736 43.6241L30.7133 51.7681L21.4062 46.3386L35.2815 38.1449L44.6736 43.6241Z" fill="#5E6A9A"/>
<mask id="mask0_872_1485" style="mask-type:luminance" maskUnits="userSpaceOnUse" x="23" y="31" width="19" height="19">
<path d="M23.5858 46.0675L30.4277 49.9518L41.8814 43.4497L41.631 33.9111L35.5281 31.7875L23.2676 38.1239L23.5858 46.0675Z" fill="white"/>
</mask>
<g mask="url(#mask0_872_1485)">
<path d="M41.8814 43.1548L34.8494 39.0532L23.2676 45.8913L30.2287 49.9518L41.8814 43.1548Z" fill="#2A2A3F"/>
<path d="M35.4076 39.8558L35.4284 46.3175C35.4284 46.382 35.3927 46.4414 35.3341 46.4737L27.4891 50.7915L27.0491 51.0333L27.1637 51.7681L26.1981 51.4403L26.174 51.4321C26.1088 51.4054 26.0594 51.3439 26.0596 51.2669L26.0672 44.1766L26.0867 44.0975L26.1611 44.0213L35.1228 39.0779C35.1725 39.05 35.2276 39.047 35.2758 39.0625L35.2876 39.0668L36.2972 39.4114L35.4076 39.8558Z" fill="#DEDBD9"/>
<path d="M27.348 50.9851L27.4973 51.7681L26.24 51.4188L26.2085 51.4101C26.1236 51.3816 26.0593 51.3161 26.0596 51.234L26.0694 43.6786L26.0949 43.5942L27.7635 44.0389L27.921 50.7274L27.348 50.9851Z" fill="#BCBCB9"/>
<path d="M36.2972 46.5059C36.2972 46.5717 36.2617 46.6331 36.2035 46.6662L27.2713 51.7431C27.1463 51.8142 26.9898 51.7254 26.9902 51.5833L26.9907 51.0642L26.9911 50.6471L26.9979 44.3374V44.3096C26.9979 44.2438 27.0337 44.1829 27.0911 44.1502L27.1046 44.1427L35.9932 39.0781C36.0537 39.0437 36.1219 39.0468 36.1752 39.0755C36.2326 39.1055 36.2743 39.1642 36.2743 39.237L36.2747 39.3319L36.2922 44.9712L36.2931 45.2003L36.2972 46.5059Z" fill="white"/>
<path d="M30.6961 45.5901L26.9902 51.7681L26.9907 51.3158L30.4992 45.467C30.5325 45.4115 30.6033 45.3938 30.6581 45.4283C30.712 45.4623 30.7293 45.5345 30.6961 45.5901Z" fill="#DEDBD9"/>
<path d="M36.297 45.4107L32.663 44.6625C32.5957 44.6485 32.5586 44.6023 32.5805 44.5591C32.6019 44.5162 32.675 44.4925 32.7423 44.5065L36.2959 45.2381L36.297 45.4107Z" fill="#DEDBD9"/>
<path d="M36.2972 39.3237L32.1569 46.3189L26.9902 44.6033V44.5739C26.9902 44.5046 27.0262 44.4403 27.0838 44.4059L27.0973 44.398L32.0589 46.0456L36.1973 39.0532C36.2549 39.0849 36.2967 39.1468 36.2967 39.2236L36.2972 39.3237Z" fill="#DEDBD9"/>
<path d="M39.1307 41.6723L39.1515 48.134C39.1515 48.1985 39.1158 48.2579 39.0571 48.2901L31.2116 52.6075L30.772 52.8498L30.8862 53.5846L29.9208 53.2568L29.8964 53.2486C29.8314 53.2219 29.7818 53.1604 29.7822 53.0829L29.7899 45.9931L29.8093 45.9135L29.8838 45.8378L38.8455 40.894C38.8956 40.8665 38.9506 40.8635 38.9989 40.8789L39.0107 40.8832L40.0198 41.2283L39.1307 41.6723Z" fill="#DEDBD9"/>
<path d="M31.0712 52.8016L31.2198 53.5846L29.9627 53.2353L29.9309 53.2266C29.8463 53.1981 29.7816 53.1326 29.7822 53.0501L29.7922 45.4955L29.8175 45.4107L31.4867 45.8558L31.6436 52.5435L31.0712 52.8016Z" fill="#BCBCB9"/>
<path d="M40.0198 48.3219C40.0198 48.3881 39.984 48.4495 39.9261 48.4826L30.9935 53.5595C30.8685 53.6306 30.7124 53.5418 30.7129 53.3997L30.7133 52.8802L30.7138 52.4635L30.7201 46.1538V46.126C30.7205 46.0598 30.7559 45.9993 30.8138 45.9662L30.8268 45.9592L39.7159 40.8946C39.7764 40.8602 39.8441 40.8633 39.8979 40.8915C39.9548 40.922 39.9965 40.9807 39.997 41.0539L39.9974 41.1484L40.0149 46.7877L40.0153 47.0163L40.0198 48.3219Z" fill="white"/>
<path d="M34.4184 46.4989L30.7129 52.6765L30.7134 52.2245L34.222 46.3754C34.2548 46.3198 34.3261 46.3021 34.3804 46.3366C34.4348 46.3706 34.4521 46.4429 34.4184 46.4989Z" fill="#DEDBD9"/>
<path d="M40.9513 47.2272L37.3177 46.4787C37.2504 46.465 37.2129 46.4188 37.2348 46.3755C37.2567 46.3326 37.3292 46.309 37.3965 46.323L40.9508 47.0549L40.9513 47.2272Z" fill="#DEDBD9"/>
<path d="M40.0198 41.1406L35.8793 48.1353L30.7129 46.4198V46.3905C30.7133 46.3206 30.7489 46.2569 30.8069 46.2219L30.8199 46.2145L35.7813 47.862L39.92 40.8696C39.9771 40.9017 40.0189 40.9637 40.0194 41.0409L40.0198 41.1406Z" fill="#DEDBD9"/>
</g>
<path d="M44.6733 43.5942V59.3367L30.7129 67.2078V51.4653L44.6733 43.5942Z" fill="#3A3B5A"/>
<path d="M40.9058 55.4173L40.9504 57.323L35.8718 59.942L35.8365 58.4324L38.0703 54.815C38.4938 54.1222 38.5504 53.8086 38.5448 53.5585C38.5365 53.2045 38.3229 53.0934 37.9157 53.3036C37.5354 53.4997 37.1793 53.9257 36.9992 54.4611L35.3662 54.3654C35.8045 53.1282 36.7029 51.969 38.0698 51.2642C39.5723 50.4894 40.6528 50.8386 40.6848 52.223C40.7015 52.9415 40.5539 53.6709 39.6526 55.105L38.7695 56.5194L40.9058 55.4173Z" fill="#4C4D7D"/>
<path d="M30.7132 67.2078L21.4062 61.8778V46.3189L30.7132 51.5411V67.2078Z" fill="#2A2A3F"/>
<path d="M15.4574 49.9518C16.7699 49.7719 18.247 49.2522 19.5441 48.9796C19.5133 48.8266 19.4825 48.6613 19.4525 48.4867C19.4413 48.426 19.4317 48.3632 19.4204 48.2994C19.4082 48.2194 19.3951 48.1385 19.3828 48.0554C18.6237 43.1365 18.1468 31.7875 18.1468 31.7875C18.1468 31.7875 14.5696 33.3441 14.0282 37.5049C13.668 40.2807 14.8209 46.8502 15.4574 49.9518Z" fill="#FE4D00"/>
<path d="M15.8223 50.7224C16.1526 53.939 24.2374 62.5228 27.1003 64.4832L27.9213 60.9731C22.1451 53.1911 20.185 49.9634 19.7532 49.2191C19.684 49.0989 19.654 49.0435 19.654 49.0435L17.8326 49.8419L15.8223 50.7224Z" fill="#FE4D00"/>
<path d="M17.7165 49.869L17.7394 49.8956L17.7788 49.9239C17.8439 49.96 17.9303 49.9625 18.0006 49.9229C18.4968 49.6427 19.036 49.487 19.4809 49.4005L19.545 49.3884C19.4799 49.2906 19.4517 49.2455 19.4517 49.2455C19.4405 49.1793 19.4287 49.1123 19.4175 49.0436C18.9306 49.1352 18.3349 49.3062 17.7788 49.6198C17.6833 49.6744 17.6543 49.7853 17.7165 49.869Z" fill="#AA232A"/>
<path d="M27.8519 59.942C27.8519 59.942 29.6549 60.175 29.7823 60.946V62.2589V65.3246C29.7823 65.3246 28.5623 65.9041 27.0793 63.6472C26.8232 62.2659 27.1311 61.045 27.8519 59.942Z" fill="#F7977B"/>
<path d="M29.897 60.8524C29.897 60.8524 32.4646 61.2076 32.1887 61.916C32.0936 62.1602 30.1161 62.1486 30.1161 62.1486L30.15 62.4861C30.15 62.4861 32.2877 62.6732 32.5548 63.2916C32.8223 63.91 30.2569 63.5493 30.2569 63.5493L30.3005 63.9768C30.3005 63.9768 31.999 64.0985 32.2789 64.6194C32.5592 65.1403 30.1082 64.9829 30.1082 64.9829L30.1416 65.3153C30.1416 65.3153 31.1321 65.5223 31.4771 66.0117C31.8226 66.5015 30.1223 66.2772 29.4336 65.9945C28.7454 65.7113 28.8884 65.1677 28.9769 64.9179C28.9769 64.9179 28.6451 64.0182 29.0613 63.5154C29.0613 63.5154 28.6473 62.7935 29.1093 62.2976C29.1093 62.2976 28.6349 60.786 29.897 60.8524Z" fill="#F7977B"/>
<path d="M27.9231 60.9309C27.9231 60.9309 28.2949 60.4482 28.5227 59.9432C28.75 59.4383 29.3097 58.7753 29.5201 59.1377C29.7822 59.5883 29.5915 60.0678 29.538 60.5031C29.4154 61.499 29.8649 61.3288 29.7687 61.6499C29.673 61.9707 27.8489 61.5359 27.9231 60.9309Z" fill="#F7977B"/>
<path d="M44.5243 50.863C44.5243 50.863 41.9675 51.2487 42.2497 51.9516C42.3471 52.1942 44.3198 52.1581 44.3198 52.1581L44.2895 52.4952C44.2895 52.4952 42.1593 52.7077 41.8994 53.3277C41.6396 53.9477 44.1943 53.5569 44.1943 53.5569L44.1561 53.9838C44.1561 53.9838 42.463 54.1255 42.1891 54.6482C41.9157 55.1709 44.3589 54.9844 44.3589 54.9844L44.329 55.3163C44.329 55.3163 43.3431 55.5349 43.0038 56.0271C42.665 56.5197 44.3584 56.2757 45.0423 55.9854C45.7262 55.6951 45.5774 55.1547 45.4865 54.9061C45.4865 54.9061 45.8074 54.0051 45.3869 53.5083C45.3869 53.5083 45.792 52.7836 45.3259 52.2942C45.3259 52.2942 45.7819 50.7816 44.5243 50.863Z" fill="#F7977B"/>
<path d="M45.6035 51.1606C45.5796 51.4727 45.1249 51.6799 44.6729 51.7681V49.0434C44.9039 49.1225 45.1509 49.6563 45.2386 50.0725C45.3507 50.6191 45.6035 51.1606 45.6035 51.1606Z" fill="#F7977B"/>
<path d="M174.04 184.367C174.04 186.374 166.956 188 158.218 188C149.48 188 142.396 186.374 142.396 184.367C142.396 182.361 149.48 180.734 158.218 180.734C166.956 180.734 174.04 182.361 174.04 184.367Z" fill="#DCD9D7"/>
<path d="M152.841 106.413C153.95 106.542 155.882 106.907 157 106.912C160.711 106.931 161.516 107.481 165.183 106.912C166.246 106.747 167.266 107.224 168.456 106.346C167.909 104.96 166.681 96.0738 166.291 94.7191C165.612 92.3547 164.743 89.277 164.743 89.277C164.743 89.277 153.489 88.1941 152.939 90.3476C152.389 92.5016 152.679 96.0866 153.055 98.4801C153.137 99.0067 152.977 106.024 152.841 106.413Z" fill="#2A2A3F"/>
<path d="M166.641 179.142C167.065 179.275 167.37 179.64 167.437 180.069C167.495 180.445 167.542 180.981 167.519 181.693C167.468 183.28 167.447 183.927 167.447 183.927C167.447 183.927 166.944 184.765 165.498 184.992L165.073 185.049C165.073 185.049 161.801 186.922 160.274 187.067C158.28 187.255 156.242 186.382 157.891 184.533C159.449 182.788 161.739 182.089 162.416 180.691C162.494 180.528 163.005 180.18 163.135 180.053C164.24 178.963 165.09 178.655 166.641 179.142Z" fill="#FF863F"/>
<path d="M163.578 182.551C163.492 182.551 163.409 182.52 163.373 182.469C163.37 182.465 163.067 182.051 162.502 181.937C161.962 181.828 161.381 182.112 161.376 182.115C161.281 182.163 161.14 182.155 161.061 182.097C160.983 182.04 160.996 181.956 161.09 181.908C161.121 181.892 161.866 181.525 162.644 181.681C163.401 181.834 163.768 182.341 163.784 182.363C163.832 182.431 163.78 182.51 163.667 182.54L163.578 182.551Z" fill="white"/>
<path d="M162.648 182.551C162.561 182.551 162.479 182.52 162.442 182.469C162.439 182.465 162.136 182.051 161.572 181.937C161.031 181.828 160.451 182.112 160.445 182.115C160.35 182.163 160.209 182.155 160.131 182.097C160.052 182.04 160.065 181.956 160.159 181.908C160.191 181.892 160.934 181.525 161.713 181.681C162.47 181.834 162.838 182.341 162.853 182.363C162.902 182.431 162.849 182.51 162.736 182.54L162.648 182.551Z" fill="white"/>
<path d="M162.648 183.459C162.562 183.459 162.479 183.428 162.443 183.377C162.44 183.373 162.136 182.959 161.572 182.845C161.031 182.736 160.45 183.021 160.445 183.023C160.35 183.071 160.209 183.062 160.13 183.006C160.052 182.948 160.065 182.864 160.159 182.816C160.19 182.8 160.934 182.433 161.713 182.59C162.47 182.741 162.838 183.249 162.853 183.271C162.901 183.339 162.849 183.419 162.736 183.448L162.648 183.459Z" fill="white"/>
<path d="M154.542 179.142C154.967 179.275 155.272 179.64 155.339 180.069C155.397 180.444 155.443 180.981 155.42 181.692C155.369 183.28 155.347 183.948 155.347 183.948C155.347 183.948 154.845 184.764 153.4 184.992L152.846 185.077C152.846 185.077 149.703 186.923 148.175 187.067C146.181 187.255 144.144 186.382 145.793 184.534C147.35 182.788 149.64 182.089 150.317 180.691C150.395 180.528 150.907 180.18 151.037 180.052C152.141 178.963 152.991 178.655 154.542 179.142Z" fill="#FF863F"/>
<path d="M152.411 182.551C152.324 182.551 152.241 182.52 152.205 182.469C152.202 182.465 151.899 182.051 151.334 181.937C150.793 181.828 150.213 182.112 150.208 182.115C150.112 182.163 149.971 182.155 149.893 182.097C149.815 182.04 149.828 181.956 149.922 181.908C149.953 181.892 150.697 181.525 151.476 181.681C152.232 181.834 152.6 182.341 152.616 182.363C152.664 182.431 152.612 182.51 152.498 182.54L152.411 182.551Z" fill="white"/>
<path d="M151.48 182.551C151.393 182.551 151.31 182.52 151.274 182.469C151.272 182.465 150.968 182.051 150.404 181.937C149.863 181.828 149.283 182.113 149.277 182.116C149.182 182.163 149.041 182.155 148.963 182.097C148.884 182.04 148.897 181.956 148.991 181.908C149.023 181.892 149.766 181.525 150.546 181.681C151.302 181.834 151.67 182.341 151.685 182.363C151.733 182.431 151.681 182.51 151.568 182.54L151.48 182.551Z" fill="white"/>
<path d="M150.548 183.459C150.462 183.459 150.379 183.428 150.343 183.377C150.34 183.373 150.037 182.959 149.472 182.845C148.932 182.736 148.351 183.021 148.346 183.023C148.25 183.071 148.11 183.063 148.031 183.006C147.952 182.948 147.965 182.864 148.059 182.816C148.091 182.8 148.835 182.433 149.614 182.59C150.37 182.741 150.738 183.249 150.754 183.271C150.802 183.34 150.749 183.419 150.636 183.448L150.548 183.459Z" fill="white"/>
<path d="M167.464 131.248L151.61 130.783C150.615 136.3 148.301 148.631 149.062 153.897C150.289 162.378 152.261 180.19 152.261 180.19C153.609 180.481 153.932 180.51 155.288 180.012C155.288 180.012 156.526 160.641 155.111 154.676C154.258 151.081 156.91 144.369 157.973 139.058C157.973 139.058 158.303 137.955 158.866 137.955C159.232 137.955 159.445 138.483 159.55 138.853C159.938 143.737 160.44 149.596 160.884 153.325C161.765 160.703 164.248 180.483 164.248 180.483C165.597 180.774 165.651 180.891 167.007 180.394C167.007 180.394 168.031 157.809 167.199 153.521C165.877 146.718 167.364 136.204 167.464 131.248Z" fill="#F7977B"/>
<path d="M148.911 150.325C150.543 150.84 152.352 150.868 154.272 150.581C154.395 150.563 154.521 150.542 154.644 150.521C154.98 150.465 155.319 150.398 155.658 150.325C155.983 146.929 157.232 142.71 157.998 138.947C157.998 138.947 158.33 137.858 158.893 137.858C159.262 137.858 159.474 138.379 159.579 138.744C159.886 142.507 160.258 146.849 160.619 150.325C162.698 150.795 164.561 150.889 166.211 150.595C166.33 150.574 166.449 150.553 166.565 150.528C166.831 150.469 167.092 150.402 167.348 150.325C166.615 143.828 167.438 135.569 167.525 131.242L151.611 130.783C150.785 135.282 149.055 144.371 148.911 150.325Z" fill="#2A2A3F"/>
<path d="M154.495 150.763C154.62 150.745 154.748 150.723 154.874 150.702C155.479 145.983 157.263 138.358 157.282 138.271C157.307 138.172 157.245 138.075 157.145 138.053C157.05 138.031 156.951 138.089 156.929 138.187C156.841 138.554 155.083 146.074 154.495 150.763Z" fill="#5E6A9A"/>
<path d="M165.849 149.295C165.917 149.635 165.985 150.008 166.177 150.763C166.317 150.742 166.458 150.722 166.594 150.697C166.407 149.967 166.334 149.583 166.266 149.24C165.905 147.436 166.207 137.417 166.207 137.317C166.211 137.223 166.117 137.144 166.002 137.14C165.883 137.137 165.79 137.213 165.786 137.31C165.772 137.722 165.479 147.46 165.849 149.295Z" fill="#5E6A9A"/>
<path d="M167.076 148.947C167.574 149.265 167.571 150.475 167.472 151.103C167.472 151.103 163.118 152.287 160.379 151.237C160.095 150.999 159.935 149.946 160.258 149.122C160.258 149.122 164.426 149.683 167.076 148.947Z" fill="#5E6A9A"/>
<path d="M156.192 149.046C156.459 149.477 156.398 150.782 156.035 151.159C156.035 151.159 151.925 152.268 149.162 151.224C148.876 150.986 148.737 149.766 149.29 148.947C149.29 148.947 153.52 149.778 156.192 149.046Z" fill="#5E6A9A"/>
<path d="M154.296 111.323C153.5 115.163 150.027 118.068 150.027 118.068L147.05 115.507C147.236 115.391 147.447 115.159 147.677 114.837C147.753 114.732 147.829 114.617 147.908 114.493C149.988 111.214 153.247 101.72 153.247 101.72C153.247 101.72 155.092 107.484 154.296 111.323Z" fill="#FE4D00"/>
<path d="M149.841 117.349C149.841 117.349 149.205 119.24 146.84 118.944C144.475 118.649 138.673 111.412 138.673 111.412C139.461 111.411 140.121 111.203 141.185 110.802C141.185 110.802 143.838 113.563 146.43 114.237C149.022 114.91 149.841 117.349 149.841 117.349Z" fill="#FE4D00"/>
<path d="M148.78 116.235L148.686 116.251C148.601 116.251 148.519 116.214 148.481 116.148C148.096 115.492 147.465 115.004 147.05 114.733C147.131 114.643 147.213 114.543 147.298 114.435C147.748 114.722 148.455 115.259 148.89 116C148.942 116.09 148.894 116.195 148.78 116.235Z" fill="#AA232A"/>
<path d="M134.95 104.344L135.881 104.139L135.668 104.444L134.95 104.344Z" fill="#2A2A3F"/>
<path d="M139.026 104.968L142.304 110.127C142.515 110.458 142.342 110.835 141.993 110.8L140.78 110.676L138.694 110.464C138.536 110.448 138.381 110.346 138.286 110.197L135.042 105.122C134.834 104.795 134.998 104.419 135.342 104.446L138.607 104.699C138.769 104.711 138.928 104.815 139.026 104.968Z" fill="#2A2A3F"/>
<path d="M142.396 110.349L141.753 110.802L141.465 110.44L142.296 109.894L142.396 110.349Z" fill="#2A2A3F"/>
<path d="M135.043 105.119L138.296 110.188C138.391 110.338 138.546 110.439 138.703 110.456L141.995 110.799C142.343 110.836 142.515 110.461 142.303 110.129L139.016 104.977C138.918 104.823 138.758 104.721 138.598 104.708L135.34 104.446C134.998 104.418 134.833 104.791 135.043 105.119Z" fill="#4C4D7D"/>
<path d="M138.5 107.821C138.7 108.302 138.731 108.807 138.569 108.948C138.407 109.09 138.114 108.814 137.915 108.334C137.715 107.853 137.684 107.348 137.846 107.206C138.007 107.065 138.3 107.34 138.5 107.821Z" fill="#2A2A3F"/>
<path d="M136.039 106.802C136.019 106.749 135.718 105.97 136.002 105.826C136.109 105.771 136.262 105.914 136.415 106.118L136.416 106.119C136.639 106.419 136.859 106.848 136.926 106.983L136.927 106.986L136.934 106.999L136.909 106.941L136.906 106.931L136.866 106.828L136.86 106.814C136.706 106.417 136.421 105.584 136.655 105.378C136.823 105.229 137.203 105.771 137.516 106.297C137.762 106.711 137.965 107.115 137.991 107.166C137.985 107.149 137.968 107.096 137.944 107.02L137.941 107.009C137.839 106.668 137.641 105.887 137.935 105.7C138.162 105.557 138.51 106.276 138.752 106.879L138.753 106.88C138.917 107.289 139.034 107.644 139.034 107.644C139.034 107.644 138.924 106.556 139.265 106.589C139.607 106.62 139.825 108.456 140.248 108.983C140.673 109.509 141.501 110.179 141.464 110.75C141.445 111.046 140.905 111.772 139.496 111.706C138.991 111.682 138.521 111.448 138.197 111.07C137.209 109.917 136.163 107.836 136.041 106.805" fill="#F7977B"/>
<path d="M136.812 108.077C136.785 108.05 136.36 107.595 136.232 107.256C136.099 106.905 135.881 106.261 135.881 106.261L135.882 106.262C136.073 106.525 136.261 106.902 136.319 107.02L136.319 107.023C136.352 107.11 136.627 107.814 136.812 108.077Z" fill="#F35D63"/>
<path d="M137.742 108.077C137.711 108.037 137.222 107.374 137.023 106.982C136.888 106.715 136.833 106.426 136.812 106.261C137.08 106.66 137.301 107.051 137.329 107.1C137.329 107.1 137.647 107.881 137.742 108.077Z" fill="#F35D63"/>
<path d="M139.083 108.077C139.083 108.077 138.599 106.859 138.683 106.261C138.847 106.759 138.963 107.193 138.963 107.193" fill="#F35D63"/>
<path d="M166.973 133.468C163.707 136.007 150.802 133.004 151.753 129.624C152.351 127.501 154.443 118.343 154.134 115.501C153.821 112.665 151.684 110.933 153.065 107.742C153.885 105.846 153.817 103.978 153.332 102.239C152.936 100.818 153.436 100.188 154.848 99.9834C155.471 99.8932 156.544 99.8561 157.484 99.9977C159.477 100.291 161.744 100.67 163.679 101.1C165.133 101.423 166.406 101.777 167.219 102.142C170.642 103.673 165.951 110.965 165.226 115.222C164.501 119.484 168.712 132.116 166.973 133.468Z" fill="#FF863F"/>
<path d="M159.41 116.251C155.736 116.251 153.768 114.969 153.671 114.904C153.571 114.838 153.535 114.686 153.59 114.565C153.644 114.444 153.768 114.399 153.867 114.465C153.895 114.483 156.672 116.284 161.713 115.589C161.825 115.573 161.927 115.672 161.939 115.81C161.952 115.947 161.871 116.07 161.759 116.085C160.911 116.202 160.128 116.251 159.41 116.251Z" fill="#FE4D00"/>
<path d="M158.964 108.985L158.911 108.976C156.849 108.248 156.384 106.608 156.365 106.538C156.335 106.426 156.389 106.306 156.485 106.271C156.581 106.236 156.685 106.297 156.715 106.409C156.733 106.472 157.153 107.91 159.018 108.568C159.115 108.602 159.17 108.722 159.141 108.834C159.116 108.926 159.044 108.985 158.964 108.985Z" fill="#FE4D00"/>
<path d="M161.732 129.874C156.631 129.874 153.746 126.766 153.626 126.633C153.544 126.544 153.544 126.399 153.625 126.31C153.705 126.219 153.836 126.219 153.917 126.308C153.946 126.339 156.81 129.416 161.732 129.416C161.846 129.413 161.941 129.518 161.941 129.645C161.941 129.772 161.848 129.874 161.733 129.874H161.732Z" fill="#FE4D00"/>
<path d="M160.805 128.966H160.801C158.919 128.925 156.55 127.549 156.45 127.491C156.355 127.435 156.328 127.321 156.389 127.235C156.451 127.149 156.577 127.124 156.672 127.179C156.696 127.193 159.045 128.557 160.81 128.596C160.923 128.598 161.013 128.683 161.01 128.785C161.007 128.886 160.916 128.966 160.805 128.966Z" fill="#FE4D00"/>
<path d="M162.091 98.087C162.091 98.087 164.874 97.0558 165.429 94.1819C165.984 91.3085 165.82 87.0881 161.926 85.8472C158.032 84.6059 154.433 85.7969 153.564 89.4161C153.564 89.4161 156.552 96.6244 162.091 98.087Z" fill="#2A2A3F"/>
<path d="M157.287 99.4724L157.49 101.273L157.603 102.326C159.757 103.211 161.965 101.886 161.94 101.7C161.705 100.901 161.526 99.5313 161.467 98.2295C161.429 98.204 161.389 98.1831 161.345 98.1664C160.208 97.6955 157.287 99.4724 157.287 99.4724Z" fill="#F7977B"/>
<path d="M157.287 98.7583L157.473 100.812C159.448 99.9835 160.529 98.26 161.01 97.2693C159.967 96.7325 157.287 98.7583 157.287 98.7583Z" fill="#F35D63"/>
<path d="M154.072 92.2718C154.072 92.2718 153.277 91.1344 152.774 92.1541C152.271 93.1742 153.184 96.0224 154.495 95.2226L154.072 92.2718Z" fill="#F35D63"/>
<path d="M153.936 95.208C153.919 95.3087 153.822 95.3768 153.72 95.3598C153.619 95.3432 153.55 95.2474 153.567 95.1466C153.584 95.0459 153.68 94.9778 153.782 94.9944C153.884 95.0118 153.953 95.1068 153.936 95.208Z" fill="white"/>
<path d="M154.756 94.7931C154.702 94.7963 154.65 94.7636 154.632 94.7103C154.36 93.9222 153.504 93.6446 153.496 93.642C153.43 93.6214 153.394 93.5524 153.415 93.4879C153.436 93.4235 153.505 93.3872 153.57 93.4078C153.61 93.4203 154.552 93.723 154.866 94.6306C154.888 94.6951 154.854 94.7649 154.789 94.7869L154.756 94.7931Z" fill="#CC4256"/>
<path d="M153.888 94.4371L153.82 94.4215C153.761 94.3879 153.74 94.3131 153.774 94.254C153.78 94.2446 153.915 94.0122 154.217 93.8573C154.277 93.826 154.352 93.8497 154.384 93.9101C154.415 93.9701 154.391 94.044 154.33 94.0753C154.097 94.1949 153.99 94.3735 153.989 94.3753L153.888 94.4371Z" fill="#CC4256"/>
<path d="M153.579 94.1935C153.599 94.4796 153.63 94.7474 153.669 94.9896C154.034 97.1738 155.97 101.61 159.845 99.3498C160.775 98.8072 161.466 98.2712 162.005 97.6873C162.413 97.2467 162.735 96.7784 163.01 96.2603C163.116 96.0607 163.164 95.8354 163.233 95.6205L163.268 95.5063L163.289 95.4423C163.481 94.8155 163.627 94.1823 163.741 93.5792C163.883 92.8261 163.973 92.1245 164.028 91.5469C164.13 90.4853 163.658 89.4501 162.788 88.8223C160.434 87.1209 157.716 87.3452 155.89 87.8135C154.622 88.1386 153.707 89.232 153.622 90.5265C153.58 91.1403 153.546 91.8397 153.536 92.5351C153.529 93.1077 153.539 93.6795 153.579 94.1935Z" fill="#F7977B"/>
<path d="M155.209 92.0991C155.205 91.9858 155.109 91.898 154.995 91.902C154.692 91.9123 154.311 91.9522 153.965 92.0695C153.244 92.314 153.146 92.5173 153.146 92.5173C153.146 92.5173 153.236 92.6019 154.18 92.4116C154.423 92.3623 154.744 92.3426 155.023 92.3162C155.133 92.3059 155.213 92.2119 155.209 92.1026L155.209 92.0991Z" fill="#2A2A3F"/>
<path d="M157.839 91.9539C157.817 91.8205 157.91 91.696 158.045 91.6745C158.403 91.6172 158.86 91.5778 159.292 91.636C160.196 91.7592 160.358 91.9754 160.358 91.9754C160.358 91.9754 160.272 92.095 159.119 92.0869C158.823 92.0847 158.441 92.1348 158.108 92.1671C157.977 92.1796 157.861 92.0874 157.84 91.9589L157.839 91.9539Z" fill="#2A2A3F"/>
<path d="M157.211 95.8785L157.179 95.8696L156.369 95.5579L156.698 93.6071C156.714 93.5175 156.799 93.4571 156.889 93.4718C156.98 93.4871 157.04 93.5717 157.025 93.6612L156.74 95.3484L157.299 95.5633C157.384 95.5964 157.426 95.6913 157.393 95.776C157.364 95.8499 157.287 95.891 157.211 95.8785Z" fill="#F35D63"/>
<path d="M161.69 95.4437C161.69 95.4437 162.094 96.2165 163.009 96.2604C163.09 96.0495 163.164 95.8355 163.233 95.6205C162.79 95.6993 162.114 95.7499 161.69 95.4437Z" fill="#F35D63"/>
<path d="M162.007 97.6874C162.414 97.2469 162.736 96.7785 163.011 96.2605C163.117 96.0608 163.165 95.8355 163.234 95.6206L163.27 95.5064C163.176 95.5109 163.023 95.5409 162.772 95.6211C162.772 95.6211 161.734 96.7991 162.007 97.6874Z" fill="#2A2A3F"/>
<path d="M155.918 96.8309C156.109 97.3857 156.629 98.3824 157.907 98.2127C159.188 98.043 159.418 97.0382 159.452 96.3626L155.918 96.8309Z" fill="white"/>
<path d="M158.449 93.6478C158.466 93.9559 158.641 94.1963 158.839 94.1851C159.036 94.1744 159.182 93.9156 159.165 93.6075C159.147 93.2999 158.973 93.059 158.775 93.0702C158.578 93.081 158.431 93.3398 158.449 93.6478Z" fill="#2A2A3F"/>
<path d="M154.425 93.8766C154.443 94.1847 154.617 94.4251 154.815 94.4139C155.013 94.4032 155.159 94.1444 155.141 93.8363C155.124 93.5283 154.949 93.2878 154.752 93.299C154.554 93.3102 154.408 93.5686 154.425 93.8766Z" fill="#2A2A3F"/>
<path d="M162.844 93.1444C162.844 93.1444 163.729 92.2449 164.182 93.1418C164.634 94.0382 163.734 96.2617 162.161 95.6156L162.844 93.1444Z" fill="#F7977B"/>
<path d="M163.177 95.454C163.16 95.5547 163.064 95.6228 162.962 95.6062C162.86 95.5888 162.791 95.4938 162.808 95.3931C162.825 95.2919 162.922 95.2238 163.023 95.2409C163.125 95.2574 163.194 95.3532 163.177 95.454Z" fill="white"/>
<path d="M162.627 94.8854C162.678 94.8921 162.729 94.8648 162.75 94.8156C163.061 94.0915 163.886 93.8883 163.895 93.8865C163.958 93.8713 163.997 93.809 163.981 93.7468C163.966 93.6845 163.904 93.646 163.841 93.6604C163.802 93.6698 162.893 93.8909 162.535 94.7247C162.51 94.7838 162.537 94.8518 162.596 94.8774L162.627 94.8854Z" fill="#F35D63"/>
<path d="M163.468 94.6091L163.533 94.5988C163.592 94.5715 163.617 94.5021 163.589 94.4444C163.584 94.4345 163.473 94.2066 163.199 94.0405C163.144 94.0064 163.072 94.0239 163.038 94.0785C163.004 94.1332 163.021 94.2044 163.076 94.2379C163.288 94.3669 163.377 94.542 163.377 94.5438L163.468 94.6091Z" fill="#F35D63"/>
<path d="M163.878 92.7765C163.493 92.712 163.22 92.7366 163.007 92.8338C162.859 92.9014 162.74 93.003 162.633 93.1338L162.567 93.218C162.463 93.4696 162.324 93.6133 162.293 93.6577C162.123 93.9003 161.871 94.3929 161.794 94.272C161.592 93.9518 161.727 92.2853 161.652 91.9871C161.54 91.5322 161.04 91.1171 161.04 91.1171C157.134 92.3225 154.043 88.984 154.043 88.984C155.251 85.2959 161.82 87.0533 163.515 87.9453C165.208 88.8376 165.798 93.0953 163.878 92.7765Z" fill="#2A2A3F"/>
<path d="M154.925 89.2442C154.925 89.2442 155.259 91.8075 153.481 92.7102C153.481 92.7102 152.715 87.5105 154.925 89.2442Z" fill="#2A2A3F"/>
<path d="M163.152 128.601C163.152 128.601 161.373 128.943 160.776 129.452C160.18 129.961 158.959 130.877 159.701 130.829C159.797 130.823 160.183 130.672 160.571 130.454C160.959 130.237 161.173 130.165 161.288 130.273C161.517 130.49 160.414 131.567 160.036 132.129C159.659 132.691 158.745 133.71 158.933 134.166C159.122 134.623 159.958 133.395 160.385 132.929C160.81 132.463 161.007 132.132 161.084 132.221C161.161 132.31 159.168 134.318 159.3 134.978C159.431 135.637 161.535 132.891 161.789 132.854C162.043 132.817 160.161 134.662 160.074 135.071C159.988 135.479 161.21 134.539 162.222 133.523C162.222 133.523 162.419 133.521 162.23 133.721C162.041 133.921 161.259 134.629 161.173 135.028C161.087 135.428 162.906 133.882 163.805 132.806C164.705 131.73 164.84 130.249 164.84 130.249C164.84 130.249 163.583 129.537 163.152 128.601Z" fill="#F7977B"/>
<path d="M173.026 117.944C173.026 117.944 172.328 118.31 171.367 118.457C170.788 118.544 170.112 118.552 169.437 118.353L169.359 118.145L165.847 108.663C165.847 108.663 165.991 104.464 168.131 103.255C168.131 103.255 171.96 111.403 173.026 117.944Z" fill="#FF863F"/>
<path d="M172.557 121.922C171.432 124.374 164.91 130.611 164.91 130.611C164.097 130.289 163.556 129.525 163.114 128.602C163.114 128.602 166.205 124.54 167.266 122.591C168.135 120.994 169.038 119.168 169.336 118.562C169.401 118.428 169.437 118.353 169.437 118.353L170.812 118.196L173.027 117.945C173.027 117.945 173.68 119.47 172.557 121.922Z" fill="#FF863F"/>
<path d="M171.361 118.543L171.319 118.621C171.268 118.68 171.186 118.708 171.105 118.684C170.461 118.505 169.819 118.509 169.336 118.562C169.401 118.428 169.437 118.353 169.437 118.353L169.359 118.145C169.771 118.105 170.279 118.099 170.812 118.196C170.945 118.221 171.082 118.251 171.217 118.288C171.299 118.312 171.356 118.38 171.367 118.457L171.361 118.543Z" fill="#FE4D00"/>
<path d="M137.805 56.5824L139.477 60.2106V57.5397L137.805 56.5824Z" fill="#FF863F"/>
<path d="M139.475 60.2106L140.304 59.736V58.0135L139.476 57.5397L139.475 60.2106Z" fill="#AA232A"/>
<path d="M147.244 47.5361V59.5985L145.141 60.8025L145.323 48.6443L147.244 47.5361Z" fill="#AA232A"/>
<path d="M134.431 42.408V54.671L145.14 60.8025L145.323 48.6443L134.431 42.408Z" fill="#FF863F"/>
<path d="M139.306 56.2625C138.585 55.8519 138.109 54.9004 138.135 54.0855C138.162 53.2576 138.681 52.9124 139.401 53.323C140.122 53.7336 140.6 54.6479 140.573 55.4753C140.547 56.2902 140.027 56.6731 139.306 56.2625ZM140.249 53.3028L138.586 52.3549L138.343 46.7822L140.838 48.2038L140.249 53.3028Z" fill="white"/>
<path d="M147.244 47.5361L136.351 41.2998L134.431 42.408L145.323 48.6443L147.244 47.5361Z" fill="#FE4D00"/>
<path d="M171.051 41.0685L172.661 44.5641V41.9909L171.051 41.0685Z" fill="#FF863F"/>
<path d="M172.659 44.5641L173.459 44.1069V42.4476L172.661 41.9909L172.659 44.5641Z" fill="#AA232A"/>
<path d="M176.53 30.2827V41.9041L174.504 43.0642L174.68 31.3502L176.53 30.2827Z" fill="#AA232A"/>
<path d="M159.843 22.8559V34.6702L174.504 43.0642L174.68 31.3502L159.843 22.8559Z" fill="#FF863F"/>
<path d="M169.404 32.6306C168.856 32.6405 168.513 33.3484 168.637 34.2116C168.76 35.0749 169.304 35.7671 169.851 35.7577C170.398 35.7479 170.742 35.04 170.619 34.1767C170.495 33.3134 169.951 32.6212 169.404 32.6306Z" fill="white"/>
<path d="M166.534 31.1138C165.987 31.1236 165.643 31.8311 165.766 32.6948C165.89 33.5581 166.434 34.2503 166.981 34.2409C167.529 34.231 167.872 33.5231 167.748 32.6599C167.625 31.7966 167.082 31.1044 166.534 31.1138Z" fill="white"/>
<path d="M163.642 29.597C163.095 29.6069 162.751 30.3148 162.875 31.1781C162.998 32.0418 163.542 32.734 164.09 32.7241C164.637 32.7143 164.98 32.0068 164.857 31.1431C164.733 30.2799 164.19 29.5876 163.642 29.597Z" fill="white"/>
<path d="M176.53 30.2827L161.699 21.7915L159.849 22.859L174.68 31.3501L176.53 30.2827Z" fill="#FE4D00"/>
<path d="M50.9707 11.0007V35.8965C50.9707 36.0071 51.0308 36.1105 51.1274 36.1661L81.8251 53.7411C81.8743 53.7698 81.9272 53.7837 81.9805 53.7837C82.1322 53.7837 82.2961 53.6646 82.2961 53.4716V28.6188C82.2961 28.5082 82.2356 28.4052 82.1389 28.3497L51.4416 10.7316C51.392 10.7025 51.3396 10.6881 51.2854 10.6881C51.1342 10.6881 50.9707 10.8077 50.9707 11.0007Z" fill="#DEDBD9"/>
<path d="M62.1787 37.7765L63.8539 41.4114V38.7356L62.1787 37.7765Z" fill="#FF863F"/>
<path d="M63.8525 41.4114L64.6842 40.9359V39.2102L63.8543 38.7356L63.8525 41.4114Z" fill="#AA232A"/>
<path d="M71.6371 28.7146V40.798L69.5303 42.0047L69.7131 29.825L71.6371 28.7146Z" fill="#AA232A"/>
<path d="M58.8018 23.5776V35.8621L69.5304 42.0048L69.7133 29.825L58.8018 23.5776Z" fill="#FF863F"/>
<path d="M71.6372 28.7146L60.7257 22.4676L58.8018 23.5776L69.7133 29.8251L71.6372 28.7146Z" fill="#FE4D00"/>
<path d="M65.6615 35.1671C65.2524 35.9126 64.5706 35.978 64.3525 35.9789L64.3769 34.4046L65.6615 35.1671ZM67.0811 36.0098C66.6097 36.5175 65.8005 36.6053 64.888 36.2511C65.0465 36.2108 65.1955 36.1486 65.3328 36.0648C65.5983 35.9028 65.8114 35.6619 65.9667 35.348L67.0811 36.0098ZM66.2593 33.7683C66.2498 33.3546 66.1789 32.9086 66.0484 32.4416L67.1971 33.1236C67.3881 33.6134 67.496 34.0817 67.5186 34.5156L66.2593 33.7683ZM65.9712 33.8731C65.955 34.2895 65.8854 34.6522 65.7635 34.9517L64.3809 34.131L64.399 32.94L65.9712 33.8731ZM65.945 32.104C65.8222 31.736 65.6655 31.3599 65.479 30.9851C65.3413 30.7088 65.1901 30.4362 65.0289 30.1738C65.861 30.8517 66.5857 31.7812 67.0391 32.7537L65.945 32.104ZM65.7454 32.2616C65.8863 32.734 65.9626 33.1831 65.9735 33.5986L64.4031 32.6669L64.4216 31.4758L65.7454 32.2616ZM64.4256 31.2023L64.4478 29.7533L64.5381 29.812C64.6595 29.9839 64.9544 30.4223 65.2465 31.0111C65.3973 31.3146 65.5274 31.6196 65.6335 31.9196L64.4256 31.2023ZM66.2566 34.0428L67.5208 34.7928C67.5055 35.2016 67.4075 35.5472 67.2287 35.8213L66.0611 35.1281C66.1753 34.8201 66.2412 34.4552 66.2566 34.0428ZM62.2227 31.6482C62.2258 32.0722 62.2791 32.5079 62.3821 32.9445L61.2478 32.271C61.0803 31.792 60.9941 31.3366 60.9918 30.9175L62.2227 31.6482ZM61.0026 30.648C61.0379 30.2477 61.158 29.9154 61.3598 29.6584L62.4755 30.3206C62.3333 30.626 62.2502 30.9806 62.2285 31.3755L61.0026 30.648ZM62.5143 31.5452C62.5369 31.1485 62.6263 30.7975 62.7789 30.5006L64.1358 31.3061L64.1177 32.4972L62.5143 31.5452ZM61.5264 29.4816C61.9919 29.0678 62.7162 29.002 63.5361 29.2971C63.3731 29.3642 63.2196 29.4525 63.0787 29.5604C62.8846 29.709 62.7189 29.8944 62.5875 30.1115L61.5264 29.4816ZM62.8995 30.2965C63.2905 29.7184 63.8549 29.555 64.0351 29.516C64.0775 29.538 64.12 29.5608 64.162 29.5836L64.1398 31.033L62.8995 30.2965ZM64.0911 34.2349L64.0667 35.8289C63.9601 35.704 63.6228 35.2907 63.2887 34.6723C63.0747 34.2761 62.9013 33.8659 62.7726 33.4522L64.0911 34.2349ZM63.4892 35.4116C62.5907 34.6817 61.8316 33.6788 61.3864 32.6297L62.4683 33.2713C62.611 33.7621 62.8128 34.2492 63.0688 34.7211C63.198 34.9589 63.3393 35.1908 63.4892 35.4116ZM62.6796 33.1213C62.5694 32.6825 62.5116 32.2446 62.508 31.8179L64.1136 32.7707L64.0951 33.9613L62.6796 33.1213ZM60.7064 30.6833C60.6775 32.5576 62.2475 35.0278 64.2053 36.1902C66.1636 37.3521 67.7796 36.7732 67.8085 34.8989C67.8369 33.0246 66.267 30.5544 64.3091 29.392C62.3509 28.2296 60.7349 28.809 60.7064 30.6833Z" fill="white"/>
<path d="M77.9306 31.1611C77.8638 31.1611 77.796 31.1445 77.7342 31.1087L54.6948 17.892C54.5065 17.7841 54.4423 17.5454 54.5507 17.3587C54.6239 17.2338 54.7557 17.1639 54.8916 17.1639C54.9589 17.1639 55.0266 17.181 55.0885 17.2163L78.1284 30.4335C78.3162 30.5414 78.3803 30.78 78.2719 30.9663C78.1988 31.0917 78.0669 31.1611 77.9306 31.1611Z" fill="#C7C7C7"/>
<path d="M77.9306 49.119C77.8638 49.119 77.796 49.1019 77.7342 49.0666L64.1221 41.2574L64.6838 40.9359V40.6784L78.1284 48.3909C78.3162 48.4993 78.3803 48.7375 78.2719 48.9242C78.1988 49.0491 78.0669 49.119 77.9306 49.119ZM63.6625 40.9941L54.6948 35.8494C54.5065 35.7415 54.4423 35.5029 54.5507 35.3166C54.6239 35.1917 54.7562 35.1218 54.8921 35.1218C54.9589 35.1218 55.0266 35.1384 55.0885 35.1742L63.0976 39.7686L63.6625 40.9941Z" fill="#C7C7C7"/>
<path d="M63.8542 41.1034L63.6631 40.9941L63.0977 39.7687L63.8547 40.2025L63.8542 41.1034Z" fill="#E3285D"/>
<path d="M64.1224 41.2574L63.8535 41.1034L63.854 40.2025L64.6847 40.6785V40.936L64.1224 41.2574Z" fill="#9C222A"/>
<path d="M82.2961 30.1523L50.9707 12.1823V11.0007C50.9707 10.8077 51.1342 10.6882 51.2854 10.6882C51.3396 10.6882 51.392 10.7025 51.4416 10.7316L82.1389 28.3497C82.2356 28.4052 82.2961 28.5082 82.2961 28.6188V30.1523Z" fill="#C7C7C7"/>
<path d="M80.7996 28.522C80.8109 28.7293 80.9438 28.8972 81.0965 28.8972C81.2498 28.8972 81.365 28.7293 81.3537 28.522C81.3429 28.3147 81.2095 28.1463 81.0568 28.1463C80.9036 28.1463 80.7883 28.3147 80.7996 28.522Z" fill="#F14C7F"/>
<path d="M79.9177 28.0792C79.929 28.2865 80.0619 28.4544 80.2151 28.4544C80.3683 28.4544 80.4831 28.2865 80.4723 28.0792C80.461 27.8719 80.3276 27.704 80.1749 27.704C80.0221 27.704 79.9069 27.8719 79.9177 28.0792Z" fill="#3A3B5A"/>
<path d="M79.1336 27.648C79.1449 27.8554 79.2778 28.0233 79.431 28.0233C79.5837 28.0233 79.699 27.8554 79.6877 27.648C79.6764 27.4412 79.5435 27.2728 79.3907 27.2728C79.2375 27.2728 79.1223 27.4412 79.1336 27.648Z" fill="#FE4D00"/>
<path d="M48.1605 112.508C47.2399 114.483 50.8625 118.087 56.2514 120.557C61.6408 123.026 66.7561 123.426 67.6767 121.45C68.5974 119.475 64.9748 115.871 59.5854 113.401C54.1965 110.932 49.0812 110.532 48.1605 112.508Z" fill="#DEDBD9"/>
<path d="M60.0918 121.086L64.6712 118.544C65.1638 118.271 65.469 117.754 65.469 117.194V94.4453L60.2539 97.4309L60.0918 121.086Z" fill="#AA232A"/>
<path d="M60.2553 97.4309L49.8896 91.5891V114.271C49.8896 114.842 50.1958 115.37 50.6943 115.658L60.0932 121.086L60.2553 97.4309Z" fill="#FF863F"/>
<path d="M58.9073 107.408L57.6796 106.6L57.6502 111.126C57.6462 111.717 57.2195 111.917 56.6971 111.573C56.1747 111.229 55.7538 110.471 55.7579 109.881L55.7877 105.355L54.5596 104.547L55.655 104.059L56.7495 103.572L57.8286 105.49L58.9073 107.408Z" fill="#FE4D00"/>
<path d="M55.0538 109.172L53.8256 108.364L53.8554 103.838C53.859 103.247 53.4387 102.49 52.9163 102.146C52.3939 101.802 51.9672 102.002 51.9631 102.592L51.9338 107.118L50.7061 106.31L51.7852 108.229L52.8643 110.147L53.9588 109.66L55.0538 109.172Z" fill="#FE4D00"/>
<path d="M65.4704 94.4452L55.754 88.9553C55.3323 88.7171 54.8144 88.7207 54.3963 88.9643L49.8896 91.589L60.2553 97.4308L65.4704 94.4452Z" fill="#FE4D00"/>
<path d="M59.459 95.7921L62.4228 94.1466V88.0765L59.5231 86.4381L59.5005 89.6951L59.459 95.7921Z" fill="#93999A"/>
<path d="M53.8359 86.5017V92.5441L59.4583 95.7921L59.4998 89.695L59.5224 86.4381L56.6918 84.8387L53.8359 86.5017Z" fill="#BCBCB9"/>
<path d="M53.8359 86.502L59.4998 89.6953L59.5468 89.7208L59.5482 89.7217L62.4221 88.0767L59.5224 86.4384L56.6918 84.839L55.6149 85.4654L53.8359 86.502Z" fill="#DEDBD9"/>
<path d="M53.8359 86.5022L53.854 86.512L59.4998 89.6955L59.5468 89.7211L60.9185 88.9366L61.3353 88.698L58.4352 87.0592L55.6149 85.4656L53.8359 86.5022Z" fill="#93999A"/>
<path d="M53.8359 86.5017L59.4998 89.6955L59.5468 89.7211L60.9185 88.9366L58.0396 87.3104L55.2022 85.7061L53.8359 86.5017Z" fill="#7A8185"/>
<path d="M54.8057 91.1758L56.0027 91.8608V90.0542L54.8057 89.3687V91.1758Z" fill="#93999A"/>
<path d="M56.6787 92.1495L57.8757 92.835V91.0278L56.6787 90.3428V92.1495Z" fill="#93999A"/>
<path d="M120.308 161.114L126.129 164.348C126.934 164.878 126.897 166.062 126.06 166.54L94.1034 184.834C92.9122 185.516 91.4434 185.514 90.255 184.827L27.5429 148.625C26.9537 148.287 26.9388 147.449 27.5154 147.09L33.5391 143.392L91.0285 176.309L120.308 161.114Z" fill="#DEDBD9"/>
<path d="M93.125 180.349C93.5436 180.36 94.0041 180.295 94.4705 180.089L94.4719 180.088L95.062 179.748L95.0648 179.747L95.3086 179.607L122.567 163.896C123.059 163.613 123.36 163.093 123.36 162.528V159.535C123.352 159.23 123.195 158.93 122.891 158.756L120.031 157.119L93.3083 172.422L93.2058 176.864L93.125 180.349Z" fill="#2A2A3F"/>
<path d="M31.4712 141.501L31.4707 144.37C31.4707 145.108 31.8667 145.79 32.5115 146.159L91.298 179.82L91.4308 179.895L91.4425 179.902C91.7166 180.045 92.3496 180.328 93.1236 180.349L93.2044 176.864L93.3069 172.422L34.8549 139.19H34.854L31.9295 140.853C31.6676 141.001 31.515 141.243 31.4712 141.501Z" fill="#3A3B5A"/>
<path d="M112.213 158.029L86.2391 172.995L35.7344 144.076L61.8826 129.214L112.213 158.029Z" fill="white"/>
<path d="M112.213 158.029L86.2391 172.995L35.7344 144.076L61.8826 129.214L112.213 158.029Z" fill="white"/>
<path d="M113.36 167.286V168.052C113.36 168.113 113.328 168.169 113.274 168.2L105.853 172.448C105.738 172.514 105.595 172.432 105.595 172.3V171.535C105.595 171.474 105.627 171.417 105.681 171.387L113.102 167.139C113.217 167.072 113.36 167.155 113.36 167.286Z" fill="#5E6A9A"/>
<path d="M113.36 167.286V167.721C113.36 167.781 113.328 167.838 113.274 167.869L105.853 172.117C105.738 172.183 105.595 172.101 105.595 171.969V171.534C105.595 171.474 105.627 171.417 105.681 171.387L113.102 167.138C113.217 167.072 113.36 167.155 113.36 167.286Z" fill="#4C4D7D"/>
<path d="M103.249 173.489C103.227 173.94 103.019 174.296 102.786 174.284L102.705 174.265C102.515 174.183 102.383 173.844 102.403 173.448C102.423 173.065 102.575 172.751 102.764 172.672L102.868 172.652C103.101 172.664 103.272 173.038 103.249 173.489Z" fill="#5E6A9A"/>
<path d="M103.065 173.489C103.046 173.872 102.893 174.186 102.705 174.265C102.515 174.182 102.383 173.844 102.403 173.448C102.423 173.065 102.575 172.75 102.764 172.672C102.954 172.754 103.085 173.092 103.065 173.489Z" fill="#4C4D7D"/>
<path d="M31.4716 141.823C31.5154 142.081 31.6671 142.321 31.9272 142.47L91.0271 176.309C91.7003 176.696 92.4539 176.88 93.2043 176.864C93.901 176.85 94.5946 176.663 95.2181 176.304L122.892 160.371C123.194 160.196 123.35 159.897 123.36 159.593V159.535C123.351 159.23 123.194 158.93 122.89 158.756L120.029 157.119L108.941 150.77L79.2721 133.781L62.3571 124.096C62.0677 123.93 61.7101 123.929 61.4198 124.094L34.8553 139.189H34.8544L31.9299 140.852C31.6685 141.001 31.5154 141.243 31.4716 141.501C31.4522 141.607 31.4522 141.717 31.4716 141.823Z" fill="#4C4D7D"/>
<path d="M108.288 165.035C108.358 166.413 106.709 167.115 104.764 167.115C102.817 167.115 101.154 166.497 101.239 164.997C101.296 164.008 102.817 163.527 104.764 163.527C106.71 163.527 108.236 164.045 108.288 165.035Z" fill="#3A3B5A"/>
<path d="M108.289 164.997C108.288 165.988 106.71 166.791 104.764 166.791C102.818 166.791 101.24 165.988 101.24 164.997C101.24 164.006 102.818 163.203 104.764 163.203C106.71 163.203 108.289 164.007 108.289 164.997Z" fill="#5E6A9A"/>
<path d="M104.765 166.286C103.24 166.285 102.004 165.655 102.004 164.88C102.004 164.103 103.24 163.474 104.765 163.474C106.29 163.474 107.526 164.104 107.526 164.88C107.526 165.656 106.29 166.286 104.765 166.286Z" fill="#6F7BA9"/>
<path d="M37.7702 142.146L39.1703 142.948L43.8188 145.611L54.2395 151.58L65.5547 158.056L70.0961 160.657L78.3626 165.393L85.5739 169.519C86.2809 169.924 87.1519 169.923 87.8577 169.517L88.7828 168.985L98.1276 163.594L102.669 160.986L111.475 155.908C112.016 155.597 112.015 154.821 111.473 154.511L102.67 149.472L98.1285 146.871L88.7842 141.523L78.3644 135.555L70.0974 130.818L65.556 128.218L65.2192 128.025L63.4984 127.042C62.7936 126.639 61.9258 126.639 61.22 127.04L54.2399 131.007L43.8192 136.931L37.7733 140.366C37.0811 140.761 37.0789 141.75 37.7702 142.146Z" fill="white"/>
<path d="M88.096 163.917C88.2016 163.917 88.3086 163.89 88.4062 163.834L104.456 154.587C104.751 154.417 104.851 154.042 104.68 153.749C104.508 153.456 104.13 153.357 103.834 153.527L87.7849 162.774C87.49 162.944 87.3898 163.32 87.5614 163.612C87.6761 163.808 87.8833 163.917 88.096 163.917Z" fill="#DEDBD9"/>
<path d="M83.7582 161.547C83.8639 161.547 83.9709 161.52 84.0684 161.463L100.118 152.216C100.413 152.046 100.513 151.671 100.342 151.378C100.17 151.085 99.7918 150.986 99.497 151.156L83.4476 160.403C83.1523 160.573 83.052 160.948 83.2232 161.241C83.3383 161.437 83.5455 161.547 83.7582 161.547Z" fill="#DEDBD9"/>
<path d="M79.4206 159.176C79.5258 159.176 79.6324 159.148 79.7304 159.092L95.7798 149.845C96.0751 149.675 96.1753 149.3 96.0037 149.007C95.8322 148.714 95.4538 148.615 95.1589 148.785L79.1095 158.032C78.8142 158.202 78.714 158.577 78.8856 158.87C78.9998 159.066 79.2071 159.176 79.4206 159.176Z" fill="#DEDBD9"/>
<path d="M75.0818 156.804C75.1874 156.804 75.294 156.777 75.392 156.721L91.4414 147.474C91.7362 147.304 91.8369 146.929 91.6653 146.636C91.4937 146.343 91.1154 146.244 90.8201 146.414L74.7707 155.661C74.4754 155.831 74.3751 156.207 74.5467 156.499C74.6618 156.695 74.8687 156.804 75.0818 156.804Z" fill="#DEDBD9"/>
<path d="M70.7419 154.434C70.8476 154.434 70.9541 154.407 71.0521 154.35L87.1015 145.103C87.3968 144.933 87.4971 144.558 87.3255 144.266C87.1539 143.973 86.7755 143.873 86.4802 144.043L70.4308 153.29C70.1355 153.461 70.0353 153.836 70.2069 154.128C70.3216 154.324 70.5293 154.434 70.7419 154.434Z" fill="#DEDBD9"/>
<path d="M66.406 152.063C66.5116 152.063 66.6182 152.036 66.7157 151.979L82.7656 142.732C83.0604 142.562 83.1607 142.187 82.9891 141.895C82.818 141.602 82.4396 141.502 82.1443 141.673L66.0949 150.92C65.7996 151.09 65.6994 151.465 65.8709 151.757C65.9856 151.953 66.1929 152.063 66.406 152.063Z" fill="#DEDBD9"/>
<path d="M62.0671 149.692C62.1723 149.692 62.2793 149.665 62.3769 149.609L78.4263 140.362C78.7216 140.192 78.8218 139.816 78.6502 139.523C78.4791 139.231 78.1003 139.132 77.8054 139.301L61.756 148.548C61.4607 148.718 61.3605 149.094 61.5321 149.387C61.6467 149.583 61.854 149.692 62.0671 149.692Z" fill="#DEDBD9"/>
<path d="M57.7282 147.321C57.8335 147.321 57.9405 147.294 58.0384 147.238L74.0874 137.99C74.3827 137.82 74.4829 137.445 74.3118 137.153C74.1398 136.86 73.7614 136.76 73.4666 136.931L57.4171 146.177C57.1219 146.348 57.0216 146.723 57.1932 147.016C57.3079 147.211 57.5151 147.321 57.7282 147.321Z" fill="#DEDBD9"/>
<path d="M53.3894 144.95C53.4946 144.95 53.6016 144.923 53.6991 144.867L69.7485 135.619C70.0438 135.449 70.1441 135.075 69.9725 134.782C69.8009 134.489 69.4225 134.39 69.1277 134.56L53.0783 143.807C52.783 143.977 52.6827 144.352 52.8543 144.645C52.969 144.84 53.1763 144.95 53.3894 144.95Z" fill="#DEDBD9"/>
<path d="M49.0525 142.579C49.1577 142.579 49.2647 142.552 49.3622 142.496L65.4116 133.249C65.7069 133.078 65.8072 132.704 65.6356 132.411C65.464 132.118 65.0856 132.019 64.7908 132.189L48.7414 141.436C48.4461 141.606 48.3458 141.981 48.5174 142.274C48.6321 142.47 48.8393 142.579 49.0525 142.579Z" fill="#DEDBD9"/>
<path d="M37.7702 142.146L39.1703 142.948L65.2192 128.025L63.4984 127.042C62.7936 126.64 61.9258 126.639 61.22 127.04L54.2399 131.007L43.8192 136.931L37.7733 140.366C37.0811 140.761 37.0789 141.75 37.7702 142.146Z" fill="#4C4D7D"/>
<path d="M47.3572 136.665C47.4457 136.652 47.5301 136.624 47.601 136.584L57.1476 131.166C57.3621 131.044 57.3743 130.848 57.176 130.728C56.9778 130.607 56.6437 130.608 56.4297 130.729L46.8827 136.147C46.6691 136.269 46.6564 136.465 46.8547 136.586C46.987 136.666 47.1802 136.693 47.3572 136.665Z" fill="#5E6A9A"/>
<path d="M88.8683 146.508L88.8625 146.504C88.8846 146.626 88.8349 146.759 88.7116 146.829L72.0522 156.367L71.9357 156.407C71.8667 156.416 71.794 156.4 71.7326 156.363L61.1525 149.939C61.05 149.877 61.0007 149.77 61.003 149.665V146.868L63.2096 148.231L77.4985 140.051C77.5951 139.996 77.7143 139.996 77.811 140.051L86.2247 144.868L86.5358 145.046L88.8683 143.743V146.508Z" fill="#FE4D00"/>
<path d="M88.8681 146.508L88.8623 146.504C88.8844 146.626 88.8347 146.759 88.7115 146.829L72.052 156.367L71.9355 156.407V153.165L86.2245 144.868L86.5356 145.046L88.8681 143.743V146.508Z" fill="#AA232A"/>
<path d="M88.7632 144.025L88.7117 144.062L72.0523 153.6L71.9809 153.631C71.8979 153.654 71.8075 153.642 71.7326 153.596L71.4779 153.442L61.1525 147.172C61.1073 147.145 61.0721 147.108 61.05 147.068C60.962 146.927 61.0008 146.729 61.1602 146.638L61.376 146.515L77.3667 137.36L77.4986 137.283C77.5952 137.229 77.7144 137.229 77.811 137.283L77.9036 137.337L88.6932 143.514L88.6954 143.515L88.7117 143.525C88.9013 143.633 88.9189 143.89 88.7632 144.025Z" fill="#FF863F"/>
<path d="M77.9036 137.337L76.3594 141.841L76.195 142.32L75.3687 144.732C75.3376 144.819 75.2608 144.884 75.1691 144.898L71.78 145.419L71.2797 145.495L61.05 147.068C60.962 146.927 61.0008 146.729 61.1602 146.638L61.376 146.515L74.9425 144.429L75.7823 141.978L75.7837 141.977L75.7904 141.958L75.7913 141.954L77.3667 137.36L77.4986 137.283C77.5952 137.229 77.7144 137.229 77.811 137.283L77.9036 137.337Z" fill="#FE4D00"/>
<path d="M71.9843 153.59L71.982 153.631C71.8989 153.654 71.8085 153.642 71.7335 153.596L71.4786 153.442L71.2801 145.495L71.2774 145.386C71.2738 145.248 71.3845 145.134 71.5224 145.131H71.5287C71.6643 145.131 71.7759 145.238 71.78 145.373L71.7809 145.42L71.9843 153.59Z" fill="#FE4D00"/>
<path d="M88.7629 144.025L76.1948 142.32L75.9893 142.292C75.8525 142.274 75.7559 142.149 75.7748 142.013L75.7821 141.978L75.7834 141.977L75.7902 141.958L75.7911 141.954C75.8313 141.851 75.9405 141.784 76.0584 141.8L76.3591 141.841L88.6929 143.514L88.6952 143.515L88.7114 143.525C88.9011 143.633 88.9187 143.889 88.7629 144.025Z" fill="#FE4D00"/>
<path d="M25.2008 179.91C25.2008 181.435 20.8109 182.671 15.3951 182.671C9.97987 182.671 5.58984 181.435 5.58984 179.91C5.58984 178.385 9.97987 177.148 15.3951 177.148C20.8109 177.148 25.2008 178.385 25.2008 179.91Z" fill="#DEDBD9"/>
<path d="M25.109 164.821L20.9984 178.456C20.8289 179.135 20.3626 179.701 19.7315 180.015C16.6181 181.556 13.506 181.557 10.3952 180.015C9.76451 179.701 9.2985 179.135 9.12899 178.457L4.95312 164.953L15.0637 163.412L25.109 164.821Z" fill="#4C4D7D"/>
<path d="M25.2017 164.108C25.2017 167.045 20.6635 169.426 15.0657 169.426C9.46786 169.426 4.92969 167.045 4.92969 164.108C4.92969 161.172 9.46786 158.791 15.0657 158.791C20.6635 158.791 25.2017 161.172 25.2017 164.108Z" fill="#3A3B5A"/>
<path d="M22.0733 164.109C22.0733 165.823 18.935 167.213 15.0639 167.213C11.1928 167.213 8.05469 165.823 8.05469 164.109C8.05469 162.394 11.1928 161.005 15.0639 161.005C18.935 161.005 22.0733 162.394 22.0733 164.109Z" fill="#2A2A3F"/>
<path d="M11.0109 164.393H16.4147C18.802 163.644 26.0546 159.101 24.7825 155.235C22.1049 147.091 26.2284 150.085 27.3708 147.003C30.0804 139.698 22.232 141.218 27.4096 134.765C32.5868 128.313 27.6891 124.477 23.7717 127.921C19.8528 131.365 20.553 136.499 16.7748 139.275C12.9965 142.051 18.5929 145.797 16.3544 149.961C14.1158 154.124 12.1556 153.013 11.0362 157.732C10.3616 160.578 10.1112 163.053 11.0109 164.393Z" fill="#FE4D00"/>
<path d="M14.3838 164.393H14.7852C15.1376 159.791 17.2504 154.585 19.0015 153.223C21.279 151.453 22.117 148.062 21.3646 143.675C20.6725 139.642 23.3581 135.489 23.3862 135.448C23.4467 135.356 23.4197 135.233 23.3275 135.171C23.235 135.112 23.1105 135.139 23.049 135.23C22.9352 135.405 20.2493 139.553 20.9684 143.741C21.6953 147.979 20.9095 151.234 18.7537 152.91C16.9354 154.322 14.7437 159.682 14.3838 164.393Z" fill="#AA232A"/>
<path d="M16.2005 164.393H11.5036C9.42851 163.742 3.12465 159.793 4.23003 156.432C6.55763 149.355 2.97317 151.956 1.98067 149.277C-0.374835 142.928 6.44705 144.249 1.94681 138.64C-2.55344 133.032 1.70344 129.698 5.10869 132.692C8.51526 135.685 7.90638 140.148 11.1905 142.561C14.4746 144.973 9.6102 148.229 11.556 151.848C13.5018 155.467 15.2056 154.502 16.1783 158.603C16.7649 161.077 16.9825 163.228 16.2005 164.393Z" fill="#FF863F"/>
<path d="M13.2682 164.393H12.919C12.613 160.393 10.7767 155.868 9.25423 154.684C7.27494 153.146 6.54636 150.198 7.20035 146.384C7.80196 142.879 5.46744 139.27 5.44311 139.234C5.39073 139.154 5.4138 139.047 5.49444 138.994C5.57468 138.942 5.68282 138.965 5.73623 139.045C5.83521 139.197 8.1699 142.802 7.54481 146.442C6.91286 150.126 7.59615 152.955 9.46979 154.412C11.0501 155.639 12.9551 160.298 13.2682 164.393Z" fill="#FE4D00"/>
</svg>
