<svg width="100" height="100" viewBox="0 0 100 100" fill="none" xmlns="http://www.w3.org/2000/svg">
<path d="M80.6933 78.1427C84.7604 78.6628 88.8799 77.4463 91.922 74.7112C94.4704 72.4197 96.0393 69.3267 92.1212 66.1198C82.7433 58.445 83.4863 52.2441 87.8123 47.8555C92.1382 43.467 103.134 34.5906 96.3654 26.7174C93.104 22.9243 87.2026 22.9553 81.656 22.9866C75.6898 23.02 70.1343 23.0536 68.7176 18.3276C65.9839 9.20818 61.0698 1.66002 52.3831 0.245018C45.2243 -0.92099 35.3726 1.98437 33.4196 10.8786C31.4852 19.6865 42.54 19.195 32.0704 33.4063C25.9134 41.7639 36.1404 59.6683 45.3905 55.9928C54.6406 52.3171 65.9532 57.9625 66.3498 68.3395C66.6116 75.1825 75.0062 77.4155 80.6933 78.1427Z" fill="#DEDBD9"/>
<path d="M27.3021 27.1086C27.3958 26.0223 27.9302 25.0095 28.8073 24.339C29.6966 23.6591 30.9912 23.2525 32.612 24.3466C35.8538 26.5344 30.7473 32.8957 28.7305 31.7435C27.0744 30.7973 27.1488 28.8845 27.3021 27.1086Z" fill="#DEDBD9"/>
<path d="M76.7249 17.3875C75.7921 16.8518 75.1001 15.9515 74.8499 14.886C74.5962 13.8054 74.7478 12.4752 76.3689 11.4755C79.6114 9.47653 83.094 16.2349 81.9581 18.2187C81.1348 19.6564 78.2502 18.263 76.7249 17.3875Z" fill="#DEDBD9"/>
<path d="M99.9437 48.3402C99.8416 48.9776 99.4793 49.5541 98.9271 49.9144C98.3668 50.2799 97.5764 50.4676 96.6548 49.7563C94.8116 48.334 97.563 45.1862 98.9398 45.4208C99.9373 45.5907 100.111 47.298 99.9437 48.3402Z" fill="#DEDBD9"/>
<path d="M48.2201 68.0246C46.8736 70.9797 52.4524 76.4438 60.6804 80.2293C68.9087 84.0148 76.6705 84.6883 78.017 81.7335C79.3634 78.7787 73.7848 73.3146 65.5565 69.5291C57.3285 65.7433 49.5667 65.07 48.2201 68.0246Z" fill="#DEDBD9"/>
<path d="M52.8504 73.8101L65.4636 80.9315C66.0025 81.2357 66.6674 81.2357 67.2063 80.9315L73.3854 77.4427C74.2931 76.93 74.4918 75.8168 73.9805 75.0415C73.838 74.825 73.6398 74.6349 73.3861 74.4916L60.7967 67.3787C60.259 67.075 59.5965 67.0738 59.0574 67.3759L52.8545 70.8568C52.5987 71.0002 52.399 71.1916 52.2558 71.4094C51.745 72.1842 51.9425 73.2974 52.8504 73.8101Z" fill="#3A3B5A"/>
<path d="M51.9796 71.3796C52.1192 71.5949 52.3134 71.7835 52.5623 71.9259L64.9213 78.9992C65.4493 79.3017 66.1008 79.3017 66.6289 78.9992L72.6835 75.5341C72.9321 75.3917 73.1265 75.2025 73.2666 74.9874C73.127 74.7723 72.9328 74.5835 72.6842 74.4411L60.3484 67.376C59.8216 67.0742 59.1725 67.0731 58.6442 67.3731L52.5663 70.8307C52.3156 70.9731 52.1199 71.1633 51.9796 71.3796Z" fill="#4C4D7D"/>
<path d="M60.3955 59.9028V70.8452L63.5833 72.6537L63.6066 75.4348L64.3298 75.8447L64.3306 75.8443L66.8311 74.4966V63.597L60.3955 59.9028Z" fill="#2A2A3F"/>
<path d="M57.9219 61.3521V72.2192L63.6335 75.4369L64.3567 75.844L64.3575 75.8447V64.94L60.4224 62.7461L57.9219 61.3521Z" fill="#3A3B5A"/>
<path d="M39.6034 3.52448V46.2234C39.6034 46.9643 40.0024 47.649 40.6501 48.0195L93.8887 78.4614C95.2844 79.2593 97.0287 78.2617 97.0287 76.6653V34.0413C97.0287 33.5693 96.8663 33.1196 96.5805 32.7596C96.4375 32.5786 96.2629 32.4208 96.0613 32.2936C96.0364 32.2779 96.0107 32.2619 95.9842 32.2467L93.0736 30.5782L42.7448 1.72987C41.3494 0.930222 39.6034 1.92733 39.6034 3.52448Z" fill="#2A2A3F"/>
<path d="M95.5425 78.2729L92.0771 80.1919L92.8768 77.7765C92.8768 77.7765 94.4504 78.3267 95.5425 78.2729Z" fill="#2A2A3F"/>
<path d="M35.6434 3.47975V5.66003L39.5693 7.87144L89.0608 35.7471L92.9375 34.1174L96.5341 32.5387C96.391 32.3578 96.2166 32.2003 96.0151 32.0731L93.0278 30.3596L41.5546 0.836048C40.7416 0.369766 39.7396 0.362869 38.9204 0.819408L36.5182 2.15553L36.2638 2.29717C35.8963 2.55146 35.6434 2.97235 35.6434 3.47975Z" fill="#3A3B5A"/>
<path d="M35.6434 3.38168V47.5572C35.6434 48.0741 35.9216 48.5521 36.374 48.8109L90.8774 79.9955C91.8515 80.5531 93.0688 79.857 93.0688 78.7426V34.6434C93.0688 34.1271 92.7908 33.6497 92.3394 33.3907L92.2618 33.3457L37.8365 2.12848C37.4026 1.87969 36.9202 1.8797 36.5186 2.05539C36.4297 2.0942 36.3439 2.14156 36.2639 2.19751C35.8969 2.45177 35.6434 2.8734 35.6434 3.38168Z" fill="#4C4D7D"/>
<path d="M37.623 5.83469V47.4166C37.623 47.6015 37.7238 47.7743 37.8858 47.867L89.3095 77.2214C89.3922 77.2687 89.4804 77.293 89.5703 77.293C89.8242 77.293 90.0979 77.0936 90.0979 76.7708V35.2611C90.0979 35.0762 89.9972 34.9044 89.8352 34.8115L38.4122 5.38504C38.3288 5.33679 38.2413 5.31279 38.1509 5.31279C37.8968 5.31279 37.623 5.51218 37.623 5.83469Z" fill="white"/>
<path d="M90.0979 37.6807L37.623 7.79799V5.83335C37.623 5.51226 37.8968 5.31374 38.1509 5.31374C38.2413 5.31374 38.3288 5.33764 38.4122 5.38567L89.8352 34.6827C89.9972 34.7752 90.0979 34.9463 90.0979 35.1304V37.6807Z" fill="#E2E0E1"/>
<path d="M88.1185 35.5065C88.1382 35.9065 88.3755 36.231 88.6481 36.231C88.9207 36.231 89.1257 35.9065 89.106 35.5065C89.0863 35.1062 88.849 34.7817 88.5764 34.7817C88.3036 34.7817 88.0986 35.1062 88.1185 35.5065Z" fill="#F14C7F"/>
<path d="M86.6352 34.5406C86.6549 34.9407 86.8921 35.2651 87.1649 35.2651C87.4374 35.2651 87.6426 34.9407 87.6227 34.5406C87.6027 34.1403 87.366 33.8159 87.0932 33.8159C86.8207 33.8159 86.6155 34.1403 86.6352 34.5406Z" fill="#3A3B5A"/>
<path d="M85.1481 33.5747C85.1678 33.9751 85.4047 34.2993 85.6775 34.2993C85.95 34.2993 86.1552 33.9751 86.1355 33.5747C86.1156 33.1746 85.8786 32.8501 85.6058 32.8501C85.3333 32.8501 85.1281 33.1746 85.1481 33.5747Z" fill="#FE4D00"/>
<path d="M37.623 42.5106V47.4171C37.623 47.6022 37.7238 47.7748 37.886 47.8674L89.3095 77.2214C89.3922 77.269 89.4807 77.293 89.5703 77.293C89.8242 77.293 90.0979 77.0936 90.0979 76.7711V72.4647L37.623 42.5106Z" fill="#4C4D7D"/>
<path d="M59.409 58.9363C59.4682 60.0034 60.1794 60.8687 60.9973 60.8687C61.8156 60.8687 62.4304 60.0034 62.3714 58.9363C62.3119 57.8689 61.6007 57.0039 60.7826 57.0039C59.9647 57.0039 59.3497 57.8689 59.409 58.9363Z" fill="#5E6A9A"/>
<path d="M76.1534 62.3184C76.059 62.3184 75.9619 62.2945 75.8706 62.2416L48.7963 46.6537C48.6206 46.5525 48.512 46.3644 48.5127 46.1612L48.5249 42.1528L48.5271 41.4503L48.5803 24.1363L48.5815 23.8452C48.5817 23.6231 48.7057 23.4445 48.8766 23.3513L48.8761 23.3508L48.8785 23.3501L48.8816 23.3482C48.931 23.3217 48.9847 23.3032 49.0403 23.2923L51.9146 22.2639L51.9506 22.251C52.0074 22.2321 52.0676 22.222 52.1287 22.222C52.2234 22.222 52.3205 22.2462 52.4118 22.299L79.3943 37.8707C79.493 37.9276 79.57 38.0115 79.6184 38.11C79.6565 38.1867 79.6771 38.2718 79.6778 38.3605L79.7006 60.6931C79.7011 60.9369 79.5527 61.13 79.3561 61.2142L79.283 61.2402L76.3761 62.2729V62.2727C76.3066 62.3023 76.2308 62.3184 76.1534 62.3184Z" fill="#E2E0E1"/>
<path d="M49.2 20.8874L49.138 41.2643C49.1375 41.4677 49.2452 41.6556 49.4208 41.757L72.941 55.3726L74.2597 56.1362L73.917 58.4531L76.8115 57.4195L76.8841 57.3934C77.0798 57.3092 77.2275 57.1158 77.227 56.8717L77.2041 34.5137C77.2036 34.4252 77.1831 34.3397 77.1454 34.2629C77.097 34.1643 77.0203 34.0801 76.922 34.0233L50.055 18.4339C49.9049 18.3468 49.7399 18.3374 49.5953 18.386L49.5597 18.3987L46.5342 19.4871L49.2 20.8874Z" fill="#FE4D00"/>
<path d="M74.1433 56.1397L73.787 58.4531L76.7959 57.421L76.8713 57.395C77.0748 57.3109 77.2284 57.1178 77.2279 56.874L77.2041 34.5491C77.2036 34.4607 77.1822 34.3754 77.143 34.2987L73.1489 35.613L72.7725 55.3771L74.1433 56.1397Z" fill="#AA232A"/>
<path d="M46.04 42.2579C46.0396 42.4615 46.1477 42.6499 46.3237 42.7515L73.4055 58.3761C73.7846 58.5949 74.2581 58.3215 74.2577 57.884L74.256 56.286L74.2548 55.0026L74.2346 35.5854V35.4989C74.2342 35.2964 74.1265 35.1095 73.9512 35.0084L73.9117 34.9856L46.9613 19.4C46.7781 19.2941 46.5721 19.3034 46.4091 19.3911C46.2355 19.4836 46.1093 19.6645 46.1089 19.8893L46.1077 20.1811L46.0544 37.5358L46.0523 38.24L46.04 42.2579Z" fill="#FF863F"/>
<path d="M63.4146 38.6691L74.256 56.0381L74.2548 54.7665L63.9907 38.3225C63.8933 38.166 63.6855 38.1169 63.5261 38.213C63.3675 38.3087 63.3174 38.5126 63.4146 38.6691Z" fill="#FE4D00"/>
<path d="M46.04 38.1641L55.7045 34.98C55.8839 34.9209 55.9823 34.7244 55.9243 34.5412C55.8668 34.3575 55.6737 34.2572 55.494 34.3163L46.0422 37.4305L46.04 38.1641Z" fill="#FE4D00"/>
<path d="M46.04 20.1158L58.5933 40.5796L74.2577 35.5606V35.4739C74.2572 35.2709 74.1492 35.0835 73.9733 34.9821L73.9336 34.9593L58.8904 39.7796L46.3424 19.3237C46.1683 19.4164 46.0417 19.5978 46.0412 19.8232L46.04 20.1158Z" fill="#FE4D00"/>
<path d="M19.7402 61.8772C20.2289 63.4254 17.7714 65.5271 14.251 66.5709C10.731 67.6149 7.48129 67.2058 6.99278 65.6575C6.50426 64.1091 8.96196 62.0074 12.4821 60.9636C16.0022 59.9198 19.2517 60.3287 19.7402 61.8772Z" fill="#DEDBD9"/>
<path d="M18.3163 22.8861L18.3256 22.9475C18.3304 22.9813 18.3367 23.0164 18.3441 23.0515C18.7165 24.9121 21.3962 28.0171 21.3962 28.0171L22.7717 27.2021C21.4658 25.4233 20.0208 21.7369 20.0208 21.7369L19.1148 22.3475L18.3163 22.8861Z" fill="#FE4D00"/>
<path d="M17.4151 20.9388C17.5901 21.776 18.029 22.5217 18.4604 23.091C18.4843 23.1215 18.507 23.1516 18.5305 23.1814C18.5493 23.2049 18.5674 23.2283 18.5858 23.2512C18.7115 23.4079 18.8345 23.5491 18.9476 23.6719C19.1443 23.4366 19.3611 23.2181 19.5627 22.9861C19.7239 22.8002 19.8525 22.5906 19.9941 22.3915C20.0879 22.2591 20.1875 22.1206 20.2974 21.9921C19.38 20.0671 18.0713 15.9425 18.0713 15.9425C18.0713 15.9425 17.0226 19.0644 17.4151 20.9388Z" fill="#FE4D00"/>
<path d="M18.3163 23.0535C18.3406 23.0748 18.3638 23.0958 18.3877 23.1166C18.3928 23.1399 18.3995 23.1639 18.4073 23.188L18.444 23.1654C18.6283 23.0538 18.9013 22.9182 19.2372 22.8378C19.2776 22.8279 19.3034 22.8042 19.3064 22.7782L19.3007 22.749C19.2884 22.7264 19.2594 22.7104 19.2254 22.7049L19.1649 22.7076C18.8063 22.7939 18.5156 22.9345 18.3163 23.0535Z" fill="#AA232A"/>
<path d="M8.88642 61.4706C8.66054 61.5412 8.49805 61.7356 8.46266 61.9637C8.43176 62.1634 8.40703 62.4486 8.41917 62.8272C8.44631 63.6716 8.45742 64.016 8.45742 64.016C8.45742 64.016 8.72496 64.4613 9.4939 64.5822L9.72008 64.6125C9.72008 64.6125 11.4604 65.6092 12.2731 65.6859C13.3336 65.7859 14.4172 65.3212 13.5401 64.3384C12.7117 63.41 11.4937 63.0383 11.1338 62.2945C11.0919 62.2078 10.8201 62.0231 10.751 61.9548C10.1634 61.3757 9.7114 61.2115 8.88642 61.4706Z" fill="#FF863F"/>
<path d="M10.515 63.2842C10.561 63.2842 10.605 63.2679 10.6242 63.2407C10.6258 63.2386 10.7871 63.0182 11.0874 62.9579C11.3749 62.8998 11.6837 63.0509 11.6868 63.0526C11.7374 63.0776 11.8123 63.0734 11.8541 63.0429C11.8957 63.0126 11.889 62.9676 11.8386 62.9423C11.8221 62.9338 11.4264 62.7383 11.0122 62.8218C10.6097 62.9027 10.414 63.1727 10.4059 63.1842C10.38 63.2208 10.4079 63.2629 10.4683 63.2785L10.515 63.2842Z" fill="white"/>
<path d="M11.0097 63.2842C11.0558 63.2842 11.0997 63.2679 11.119 63.2408C11.1204 63.2386 11.2818 63.0182 11.582 62.9577C11.8696 62.8997 12.1784 63.051 12.1815 63.0526C12.2321 63.0779 12.3068 63.0734 12.3486 63.043C12.3903 63.0127 12.3837 62.9675 12.3334 62.9421C12.3168 62.934 11.9212 62.7385 11.5068 62.8217C11.1045 62.9026 10.9088 63.1727 10.9005 63.1843C10.8746 63.2207 10.9026 63.2629 10.9628 63.2785L11.0097 63.2842Z" fill="white"/>
<path d="M11.5044 63.7681C11.5506 63.7681 11.5945 63.7518 11.6138 63.7246C11.6152 63.7225 11.7766 63.502 12.0769 63.4416C12.3644 63.3837 12.6732 63.5348 12.6762 63.5364C12.727 63.5615 12.8017 63.5573 12.8436 63.5268C12.8853 63.4963 12.8785 63.4514 12.8282 63.4261C12.8116 63.4176 12.416 63.2222 12.0017 63.3057C11.5992 63.3866 11.4035 63.6565 11.3953 63.6681C11.3696 63.7045 11.3974 63.7466 11.4578 63.7622L11.5044 63.7681Z" fill="white"/>
<path d="M8.99349 59.5435L8.91113 61.5444C8.91113 61.5444 9.41633 62.0584 10.2016 61.718L10.3963 59.5572C10.3963 59.5572 9.5483 59.2557 8.99349 59.5435Z" fill="#F7977B"/>
<path d="M8.5596 47.6349C9.2768 44.0435 8.70866 38.3642 8.6542 35.7489L14.6733 36.638L14.8516 40.2065L14.4012 40.2232C14.4012 40.2232 14.1413 40.1133 13.8359 40.1247C13.4075 40.1407 13.2774 40.8224 13.2205 41.0179C13.0097 43.596 12.9984 46.7531 12.757 48.7214C12.2791 52.6162 10.7626 61.2624 10.7626 61.2624C10.0304 61.416 9.6028 61.3775 8.86703 61.1147C8.86703 61.1147 8.10765 49.8981 8.5596 47.6349Z" fill="#4C4D7D"/>
<path d="M9.13972 60.8687H9.14075C9.18368 60.8677 9.21808 60.8172 9.2175 60.7552C9.21388 60.3572 9.12751 51.0002 9.07614 50.2954C9.02366 49.5763 9.18632 46.9929 9.34594 45.5896C9.45916 44.5955 9.37868 39.9203 9.37525 39.7217C9.37415 39.6609 9.33955 39.6128 9.29753 39.6128L9.29546 39.613C9.25262 39.6144 9.21859 39.6657 9.21975 39.7274C9.22053 39.7758 9.30321 44.5801 9.19245 45.5538C9.03134 46.9696 8.86797 49.5844 8.92149 50.3187C8.97209 51.0135 9.0611 60.661 9.06195 60.7583C9.06252 60.8195 9.09724 60.8687 9.13972 60.8687Z" fill="#2A2A3F"/>
<path d="M10.8556 60.4859C10.8556 60.4859 9.49089 60.5998 8.45748 60.3864C8.37774 60.7045 8.42156 61.039 8.51641 61.2202C8.51641 61.2202 9.74926 61.4715 10.7409 61.2815C10.856 61.0439 10.943 60.764 10.8556 60.4859Z" fill="#5E6A9A"/>
<path d="M13.8357 60.0227C13.6099 60.0938 13.4475 60.288 13.4121 60.5161C13.3812 60.7157 13.3564 61.001 13.3685 61.3795C13.3957 62.2239 13.4068 62.5683 13.4068 62.5683C13.4068 62.5683 13.6743 63.0136 14.4432 63.1345L14.6695 63.1648C14.6695 63.1648 16.4098 64.1614 17.2225 64.2382C18.2829 64.3381 19.3666 63.8735 18.4894 62.8907C17.6612 61.9626 16.443 61.5906 16.0834 60.8468C16.0413 60.7601 15.7696 60.5755 15.7003 60.5072C15.1127 59.9278 14.6606 59.7639 13.8357 60.0227Z" fill="#FF863F"/>
<path d="M15.9587 61.3525C16.005 61.3525 16.0486 61.3362 16.0679 61.309C16.0696 61.307 16.231 61.0865 16.5311 61.0262C16.8185 60.9681 17.1275 61.1192 17.1304 61.1208C17.1812 61.1461 17.2559 61.1418 17.2978 61.1113C17.3394 61.0809 17.3328 61.0359 17.2823 61.0106C17.2659 61.0021 16.8702 60.8067 16.4558 60.8901C16.0535 60.9711 15.8577 61.2411 15.8496 61.2525C15.8238 61.2889 15.8516 61.331 15.9119 61.3468L15.9587 61.3525Z" fill="white"/>
<path d="M15.9587 61.8345C16.0049 61.8345 16.0489 61.8182 16.0678 61.791C16.0696 61.7889 16.2309 61.5684 16.531 61.5081C16.8188 61.45 17.1275 61.6012 17.1307 61.6029C17.1812 61.628 17.2559 61.6237 17.2978 61.5934C17.3394 61.563 17.3328 61.5178 17.2823 61.4925C17.2659 61.4842 16.8702 61.2887 16.4558 61.372C16.0535 61.453 15.8579 61.7232 15.8496 61.7345C15.8237 61.771 15.8519 61.8132 15.9119 61.8288L15.9587 61.8345Z" fill="white"/>
<path d="M16.4547 61.8345C16.5009 61.8345 16.5446 61.818 16.5641 61.791C16.5655 61.7887 16.7269 61.5685 17.027 61.508C17.3147 61.4501 17.6233 61.6012 17.6265 61.6028C17.677 61.6281 17.752 61.6236 17.7936 61.5933C17.8355 61.5629 17.8287 61.5179 17.7784 61.4924C17.7618 61.4841 17.3661 61.2888 16.9517 61.372C16.5495 61.4531 16.3536 61.7229 16.3456 61.7345C16.3197 61.7709 16.3476 61.813 16.4079 61.8286L16.4547 61.8345Z" fill="white"/>
<path d="M13.9436 58.0957L13.8613 60.0965C13.8613 60.0965 14.3663 60.6107 15.1516 60.2703L15.3465 58.1095C15.3465 58.1095 14.4984 57.8079 13.9436 58.0957Z" fill="#F7977B"/>
<path d="M18.0467 39.2867C17.8482 41.8559 17.4388 44.7605 17.2115 46.7227C16.7598 50.623 15.7131 59.3284 15.7131 59.3284C15.021 59.4827 14.6168 59.4439 13.9215 59.1807C13.9215 59.1807 13.1665 47.9097 13.4159 45.6155C13.8254 41.8507 13.8264 38.059 13.7748 35.4397L18.3158 34.7814L18.0467 39.2867Z" fill="#4C4D7D"/>
<path d="M14.2674 39.6123C14.224 39.6123 14.1889 39.6634 14.1896 39.7259C14.2051 41.2388 14.214 43.4573 14.1427 44.0853C13.9816 45.5027 13.8182 48.1209 13.8717 48.856C13.9224 49.5517 14.0113 59.211 14.0121 59.3085C14.0126 59.3698 14.0475 59.4189 14.09 59.4189H14.0909C14.1339 59.418 14.1683 59.3671 14.1676 59.3054C14.164 58.9071 14.0777 49.5384 14.0263 48.8327C13.974 48.1126 14.1366 45.5262 14.2962 44.1212C14.3702 43.4699 14.3614 41.2414 14.3454 39.7223C14.3447 39.6613 14.31 39.6123 14.2674 39.6123Z" fill="#2A2A3F"/>
<path d="M16.301 59.0364C16.301 59.0364 14.936 59.1503 13.9028 58.9367C13.8231 59.255 13.8669 59.5894 13.9617 59.7706C13.9617 59.7706 15.1945 60.0216 16.1862 59.8319C16.3012 59.5941 16.3884 59.3144 16.301 59.0364Z" fill="#5E6A9A"/>
<path d="M17.733 15.2789C16.2934 14.9799 13.864 14.7959 12.5693 15.2461C10.7449 15.8802 9.86987 16.4858 8.62822 17.3685C8.58508 18.0845 8.37568 21.5164 8.36584 22.2744C8.36377 22.4571 8.36293 22.638 8.36397 22.8148C8.36416 22.8891 8.36471 22.9624 8.36613 23.0352C8.40065 25.3519 8.112 30.5131 8.05996 31.7598C7.96655 34.0018 7.88508 35.1684 7.93899 35.3086C8.24994 36.1175 10.2867 36.8642 13.3099 36.6891C16.3328 36.5137 17.8125 36.4472 18.1414 35.338C18.4705 34.2294 18.2991 33.3816 17.9546 30.0855C17.6636 27.3065 17.6744 17.6917 17.733 15.2789Z" fill="#FF863F"/>
<path d="M16.6761 29.9457C16.7346 29.962 16.7977 29.9328 16.8219 29.8763C16.8479 29.8147 16.8187 29.744 16.7566 29.7183C16.7033 29.6961 11.4322 27.4798 11.1344 24.7439C11.1272 24.6777 11.0669 24.6298 10.9999 24.6369C10.9328 24.6441 10.8844 24.7034 10.8916 24.7696C11.0237 25.9846 12.0391 27.2254 13.9092 28.4584C15.2885 29.3674 16.6486 29.9351 16.6621 29.9407L16.6761 29.9457Z" fill="#FE4D00"/>
<path d="M15.6881 30.4278C15.7513 30.4466 15.8174 30.4086 15.8361 30.3424C15.8554 30.2751 15.8191 30.2045 15.7557 30.1842C15.7389 30.179 14.0649 29.6413 12.566 28.5236C12.5117 28.483 12.4365 28.4968 12.3982 28.5537C12.3596 28.6111 12.3726 28.6901 12.4267 28.7306C13.9588 29.873 15.6691 30.4219 15.6862 30.4271L15.6881 30.4278Z" fill="#FE4D00"/>
<path d="M16.6667 9.2122C16.6667 9.2122 17.3384 7.64271 15.969 6.7438C14.5997 5.84465 13.2331 6.43006 13.2691 6.99455C13.305 7.5593 12.9656 7.16868 11.919 7.89723C10.8723 8.62578 10.6819 9.76308 11.091 10.627C11.091 10.627 13.2797 7.87481 16.6667 9.2122Z" fill="#2A2A3F"/>
<path d="M14.8512 14.8615L14.734 15.9776L14.6941 16.3546C13.4487 16.6669 12.4884 15.821 12.4884 15.821L12.376 14.0971C12.3982 14.0814 12.4224 14.0683 12.4482 14.0583C13.12 13.7648 14.8512 14.8615 14.8512 14.8615Z" fill="#F7977B"/>
<path d="M14.8512 14.8467L14.7305 15.9419C13.4173 15.5033 12.6971 14.5859 12.376 14.0585C13.068 13.7705 14.8512 14.8467 14.8512 14.8467Z" fill="#F35D63"/>
<path d="M16.5586 11.3997C16.5586 11.3997 16.981 10.7936 17.2504 11.3352C17.5196 11.8766 17.036 13.3923 16.3359 12.9688L16.5586 11.3997Z" fill="#F35D63"/>
<path d="M16.4154 12.5585C16.4518 12.5604 16.4868 12.5378 16.4993 12.501C16.6826 11.9543 17.262 11.7605 17.2677 11.7586C17.3117 11.7443 17.3361 11.6964 17.322 11.6518C17.3082 11.6069 17.2609 11.5822 17.2169 11.5965C17.1898 11.6053 16.5517 11.8167 16.3404 12.4462C16.3255 12.4908 16.3489 12.5389 16.3929 12.5541L16.4154 12.5585Z" fill="#CC4256"/>
<path d="M16.7303 12.0767L16.7826 12.0637C16.8288 12.0362 16.8446 11.975 16.8183 11.9271C16.8142 11.9194 16.7089 11.7304 16.4754 11.6048C16.4286 11.5792 16.3707 11.5989 16.3465 11.6481C16.3224 11.697 16.341 11.7572 16.3877 11.7825C16.5686 11.8799 16.6513 12.0249 16.6519 12.0262C16.6687 12.0569 16.6987 12.0747 16.7303 12.0767Z" fill="#CC4256"/>
<path d="M16.8098 12.3238C16.7993 12.4788 16.784 12.6236 16.7638 12.7548C16.5775 13.9376 15.5801 16.3407 13.5695 15.1226C13.0872 14.83 12.7284 14.5408 12.4484 14.2251C12.2369 13.9874 12.0696 13.7345 11.9267 13.4544C11.8714 13.3462 11.8461 13.2246 11.81 13.1085L11.7916 13.0467L11.781 13.0121C11.6803 12.6731 11.604 12.3305 11.5442 12.004C11.47 11.5966 11.4225 11.217 11.3932 10.9044C11.3389 10.3301 11.5822 9.76924 12.032 9.42859C13.2498 8.50496 14.6581 8.623 15.6049 8.87398C16.2623 9.04827 16.7371 9.63894 16.7831 10.3392C16.8053 10.6715 16.8237 11.0501 16.8297 11.4264C16.8341 11.7362 16.8295 12.0456 16.8098 12.3238Z" fill="#F7977B"/>
<path d="M12.3758 13.0433C12.3758 13.0433 12.1182 13.4992 11.5305 13.5264C11.4782 13.4021 11.4306 13.2762 11.3857 13.1498C11.67 13.1953 12.1048 13.2244 12.3758 13.0433Z" fill="#F35D63"/>
<path d="M11.8638 14.0083C11.7099 13.8134 11.5881 13.606 11.4841 13.3764C11.4439 13.2877 11.4254 13.188 11.3991 13.0928L11.3857 13.0421C11.421 13.0439 11.4789 13.0569 11.5736 13.0924C11.5736 13.0924 11.9661 13.6139 11.8638 14.0083Z" fill="#2A2A3F"/>
<path d="M15.8415 13.7644C15.7354 14.0518 15.4451 14.5689 14.7293 14.4826C14.0118 14.3963 13.8816 13.876 13.8613 13.526L15.8415 13.7644Z" fill="white"/>
<path d="M14.3554 11.8435C14.3437 11.9767 14.2239 12.0811 14.0877 12.0765C13.9516 12.0719 13.8505 11.96 13.8623 11.8268C13.8738 11.6935 13.9938 11.5891 14.1299 11.5937C14.2662 11.5983 14.3672 11.7102 14.3554 11.8435Z" fill="#2A2A3F"/>
<path d="M16.3341 11.8434C16.3226 11.9769 16.2027 12.0811 16.0665 12.0765C15.9302 12.0719 15.8294 11.9602 15.8409 11.8267C15.8526 11.6934 15.9722 11.5889 16.1085 11.5937C16.2448 11.5982 16.3458 11.7101 16.3341 11.8434Z" fill="#2A2A3F"/>
<path d="M12.8867 10.8292C12.8867 10.8292 13.6755 10.5312 14.3562 10.6575L14.3417 10.9027C14.3417 10.9027 13.3877 10.9365 12.939 11.1094C12.8776 11.0212 12.852 10.9288 12.8867 10.8292Z" fill="#2A2A3F"/>
<path d="M16.8263 11.3521C16.8263 11.3521 16.073 11.0489 15.3673 11.1207L15.3467 11.3345C15.3467 11.3345 16.3051 11.4175 16.7329 11.5928C16.8079 11.5196 16.847 11.4407 16.8263 11.3521Z" fill="#2A2A3F"/>
<path d="M14.6093 13.0421C14.507 13.0371 14.4073 12.9834 14.3918 12.9747C14.3614 12.9576 14.3479 12.9135 14.3618 12.8762C14.3757 12.8386 14.4117 12.822 14.4423 12.8391C14.496 12.8692 14.626 12.9183 14.6843 12.8793C14.6954 12.8719 14.7111 12.8565 14.7164 12.8117C14.7467 12.553 14.7172 11.6797 14.717 11.6708C14.7157 11.6299 14.7416 11.595 14.7751 11.5933C14.8087 11.5916 14.8367 11.6236 14.8381 11.6646C14.8395 11.7012 14.8683 12.5607 14.8364 12.8328C14.8244 12.9352 14.7787 12.9858 14.7423 13.0099C14.7025 13.0366 14.6558 13.0443 14.6093 13.0421Z" fill="#F35D63"/>
<path d="M11.8956 11.3656C11.8956 11.3656 11.2822 10.7908 10.9705 11.3656C10.659 11.9407 11.2892 13.3846 12.376 12.9682L11.8956 11.3656Z" fill="#F7977B"/>
<path d="M11.8121 12.5578C11.7778 12.5631 11.7433 12.5415 11.729 12.5034C11.5169 11.9332 10.9576 11.7744 10.9519 11.7729C10.9093 11.7611 10.883 11.712 10.893 11.6629C10.903 11.6138 10.9457 11.5833 10.9881 11.5949C11.0142 11.602 11.6303 11.7747 11.8746 12.4312C11.8917 12.4777 11.8732 12.5312 11.833 12.5513L11.8121 12.5578Z" fill="#F35D63"/>
<path d="M11.499 12.0767L11.4433 12.0683C11.3932 12.0458 11.3718 11.9889 11.3953 11.9413C11.3993 11.9336 11.494 11.7454 11.7281 11.6079C11.7749 11.5801 11.8368 11.594 11.866 11.6391C11.8948 11.6839 11.8803 11.7426 11.8332 11.7701C11.6523 11.8767 11.5772 12.0213 11.5764 12.0226C11.5613 12.0532 11.5316 12.0726 11.499 12.0767Z" fill="#F35D63"/>
<path d="M11.0559 11.1399C11.0559 11.1399 11.4908 11.0623 11.7019 11.3817C11.9652 11.7809 11.9881 12.0691 11.9881 12.0691L12.3279 12.0767C12.3279 12.0767 12.0597 11.4449 12.1375 11.0652C12.2151 10.6855 12.5042 10.5936 12.4296 10.1903C12.355 9.78674 12.5503 9.27518 12.9656 9.20586C13.3809 9.13629 15.1825 9.01103 15.817 9.30025C16.4515 9.58995 16.3312 10.2599 16.4935 10.5046C16.6555 10.7495 16.6736 11.3231 16.6736 11.3231C16.7731 11.1832 16.8274 11.0161 16.8305 10.8439C16.8344 10.6362 16.8274 10.3175 16.7793 9.90593C16.6893 9.13313 15.5804 8.2122 13.888 8.21195C12.1959 8.21147 11.1864 9.01637 10.9691 9.84925C10.7519 10.6821 11.0559 11.1399 11.0559 11.1399Z" fill="#2A2A3F"/>
<path d="M11.9971 11.2706L12.0499 11.2686C12.1712 11.2744 12.284 11.2863 12.3801 11.3007C12.4678 11.3128 12.5418 11.3272 12.5962 11.3386C12.5962 11.3348 12.8025 11.3775 12.8888 11.4141C12.8811 11.4548 12.8746 11.497 12.8721 11.5392C12.8425 12.0714 13.2615 12.528 13.807 12.5571C14.3527 12.5867 14.8207 12.177 14.8505 11.6456C14.8801 11.1134 14.4609 10.6568 13.9154 10.6277C13.4827 10.6045 13.0991 10.8579 12.9443 11.2297C12.8179 11.2039 12.5349 11.148 12.342 11.1177C12.2852 11.1089 12.2362 11.102 12.2007 11.099C12.1273 11.0927 11.9906 11.0725 11.8817 11.0745L11.8887 11.0907L11.9971 11.2706ZM14.6964 11.637C14.671 12.0863 14.276 12.4315 13.8156 12.407C13.3553 12.3822 13.0013 11.9969 13.0265 11.5478C13.0517 11.0988 13.4468 10.7533 13.9071 10.7778C14.3677 10.8026 14.7215 11.1877 14.6964 11.637Z" fill="white"/>
<path d="M16.3825 11.2619C15.9224 11.2374 15.5276 11.5825 15.5025 12.0317C15.4771 12.4807 15.831 12.8659 16.2911 12.8907C16.7511 12.9152 17.146 12.5698 17.1713 12.1209C17.1964 11.6717 16.8425 11.2867 16.3825 11.2619ZM16.2825 13.041C15.7376 13.012 15.3184 12.5554 15.3482 12.0234C15.3782 11.4916 15.8458 11.0825 16.391 11.1116C16.936 11.1406 17.3551 11.5972 17.3254 12.1292C17.2956 12.6611 16.8278 13.0701 16.2825 13.041Z" fill="white"/>
<path d="M15.2278 11.5928C15.2264 11.5901 15.0717 11.2992 14.8521 11.2843C14.6348 11.2697 14.4713 11.5382 14.4697 11.5411L14.3563 11.438C14.3646 11.4236 14.5653 11.0907 14.8599 11.1105C15.152 11.1304 15.3386 11.4838 15.3464 11.4987L15.2278 11.5928Z" fill="white"/>
<path d="M23.7619 23.2033L16.3363 27.5352L11.3857 24.6472L18.7661 20.2888L23.7619 23.2033Z" fill="#5E6A9A"/>
<mask id="mask0_6270_5077" style="mask-type:luminance" maskUnits="userSpaceOnUse" x="12" y="16" width="11" height="11">
<path d="M12.5441 24.5013L16.1834 26.5674L22.2758 23.1088L22.1426 18.0352L18.8964 16.9056L12.3749 20.276L12.5441 24.5013Z" fill="white"/>
</mask>
<g mask="url(#mask0_6270_5077)">
<path d="M22.2758 22.9535L18.5354 20.7718L12.3749 24.4091L16.0776 26.5688L22.2758 22.9535Z" fill="#2A2A3F"/>
<path d="M18.8344 21.2003L18.8454 24.6374C18.8454 24.6717 18.8265 24.7033 18.7953 24.7204L14.6225 27.0171L14.3884 27.1457L14.4494 27.5366L13.9358 27.3622L13.9229 27.3579C13.8882 27.3437 13.862 27.311 13.8621 27.27L13.8661 23.4986L13.8765 23.4565L13.9161 23.416L18.6829 20.7866C18.7093 20.7717 18.7386 20.7701 18.7643 20.7783L18.7705 20.7806L19.3076 20.9639L18.8344 21.2003Z" fill="#DEDBD9"/>
<path d="M14.5474 27.1201L14.6268 27.5366L13.958 27.3508L13.9413 27.3462C13.8961 27.331 13.8619 27.2962 13.8621 27.2525L13.8673 23.2337L13.8808 23.1888L14.7684 23.4254L14.8522 26.9831L14.5474 27.1201Z" fill="#BCBCB9"/>
<path d="M19.3058 24.7376C19.3058 24.7726 19.287 24.8052 19.256 24.8228L14.5049 27.5233C14.4383 27.5611 14.3551 27.5139 14.3553 27.4383L14.3556 27.1622L14.3558 26.9403L14.3594 23.5841V23.5693C14.3594 23.5343 14.3785 23.5019 14.409 23.4846L14.4162 23.4806L19.1441 20.7867C19.1763 20.7684 19.2126 20.77 19.2409 20.7853C19.2715 20.8012 19.2936 20.8325 19.2936 20.8712L19.2939 20.9217L19.3032 23.9213L19.3037 24.0431L19.3058 24.7376Z" fill="white"/>
<path d="M16.3265 24.2504L14.3553 27.5366L14.3556 27.296L16.2218 24.185C16.2395 24.1555 16.2772 24.146 16.3063 24.1644C16.335 24.1825 16.3442 24.2209 16.3265 24.2504Z" fill="#DEDBD9"/>
<path d="M19.3062 24.1538L17.3733 23.7558C17.3375 23.7484 17.3177 23.7238 17.3294 23.7008C17.3408 23.678 17.3796 23.6654 17.4154 23.6729L19.3057 24.062L19.3062 24.1538Z" fill="#DEDBD9"/>
<path d="M19.3058 20.9169L17.1036 24.6377L14.3553 23.7251V23.7095C14.3553 23.6726 14.3745 23.6385 14.4051 23.6201L14.4123 23.6159L17.0514 24.4923L19.2527 20.773C19.2833 20.7898 19.3056 20.8228 19.3056 20.8636L19.3058 20.9169Z" fill="#DEDBD9"/>
<path d="M20.8133 22.1662L20.8243 25.6032C20.8243 25.6375 20.8053 25.6691 20.7741 25.6863L16.601 27.9827L16.3672 28.1116L16.4279 28.5024L15.9144 28.3281L15.9014 28.3237C15.8669 28.3095 15.8405 28.2768 15.8407 28.2356L15.8448 24.4645L15.8551 24.4221L15.8947 24.3818L20.6615 21.7522C20.6882 21.7375 20.7175 21.7359 20.7432 21.7442L20.7494 21.7465L21.2862 21.93L20.8133 22.1662Z" fill="#DEDBD9"/>
<path d="M16.5263 28.0859L16.6054 28.5024L15.9367 28.3166L15.9198 28.312C15.8748 28.2969 15.8404 28.262 15.8407 28.2181L15.846 24.1998L15.8595 24.1546L16.7473 24.3914L16.8308 27.9487L16.5263 28.0859Z" fill="#BCBCB9"/>
<path d="M21.2853 25.7032C21.2853 25.7384 21.2662 25.7711 21.2355 25.7887L16.4841 28.4891C16.4176 28.5269 16.3346 28.4797 16.3348 28.4041L16.3351 28.1278L16.3353 27.9062L16.3387 24.55V24.5352C16.3389 24.4999 16.3577 24.4678 16.3885 24.4502L16.3954 24.4464L21.1236 21.7525C21.1558 21.7342 21.1918 21.7359 21.2204 21.7509C21.2507 21.7671 21.2729 21.7983 21.2731 21.8373L21.2734 21.8875L21.2827 24.8871L21.2829 25.0087L21.2853 25.7032Z" fill="white"/>
<path d="M18.3058 24.7326L16.3348 28.0186L16.3351 27.7782L18.2014 24.6669C18.2188 24.6374 18.2567 24.628 18.2856 24.6463C18.3146 24.6644 18.3238 24.7028 18.3058 24.7326Z" fill="#DEDBD9"/>
<path d="M21.7808 25.1211L19.8481 24.723C19.8123 24.7157 19.7923 24.6911 19.804 24.6681C19.8156 24.6453 19.8542 24.6327 19.89 24.6401L21.7806 25.0294L21.7808 25.1211Z" fill="#DEDBD9"/>
<path d="M21.2853 21.8824L19.0829 25.603L16.3348 24.6905V24.6749C16.3351 24.6378 16.354 24.6039 16.3848 24.5853L16.3918 24.5813L19.0308 25.4577L21.2322 21.7383C21.2626 21.7554 21.2848 21.7883 21.2851 21.8294L21.2853 21.8824Z" fill="#DEDBD9"/>
</g>
<path d="M23.7616 23.1868V31.5604L16.3359 35.7471V27.3735L23.7616 23.1868Z" fill="#3A3B5A"/>
<path d="M21.7571 29.4751L21.7808 30.4887L19.0795 31.8818L19.0607 31.0788L20.2489 29.1547C20.4741 28.7862 20.5042 28.6194 20.5013 28.4864C20.4968 28.2981 20.3832 28.239 20.1666 28.3508C19.9644 28.4551 19.775 28.6817 19.6791 28.9665L18.8105 28.9156C19.0437 28.2575 19.5216 27.6409 20.2486 27.266C21.0478 26.8539 21.6225 27.0396 21.6396 27.776C21.6484 28.1582 21.5699 28.5461 21.0905 29.309L20.6208 30.0613L21.7571 29.4751Z" fill="#4C4D7D"/>
<path d="M16.3362 35.7471L11.3857 32.912V24.636L16.3362 27.4138V35.7471Z" fill="#2A2A3F"/>
<path d="M8.22228 26.5708C8.9204 26.4751 9.70611 26.1987 10.3961 26.0537C10.3797 25.9723 10.3633 25.8844 10.3473 25.7915C10.3414 25.7592 10.3362 25.7258 10.3303 25.6919C10.3237 25.6493 10.3168 25.6063 10.3103 25.5621C9.9065 22.9457 9.65282 16.909 9.65282 16.909C9.65282 16.909 7.75007 17.737 7.46207 19.9502C7.27047 21.4266 7.88375 24.921 8.22228 26.5708Z" fill="#FE4D00"/>
<path d="M8.41602 26.9798C8.59172 28.6908 12.8921 33.2566 14.4149 34.2993L14.8516 32.4323C11.7792 28.293 10.7366 26.5761 10.5069 26.1802C10.4701 26.1163 10.4542 26.0868 10.4542 26.0868L9.48531 26.5115L8.41602 26.9798Z" fill="#FE4D00"/>
<path d="M9.42288 26.5268L9.4351 26.5409L9.45606 26.556C9.49069 26.5752 9.53661 26.5765 9.574 26.5554C9.83793 26.4064 10.1248 26.3236 10.3614 26.2775L10.3955 26.2712C10.3609 26.2191 10.3459 26.1951 10.3459 26.1951C10.3399 26.1599 10.3336 26.1243 10.3277 26.0877C10.0687 26.1365 9.75186 26.2274 9.45606 26.3942C9.40521 26.4233 9.38979 26.4823 9.42288 26.5268Z" fill="#AA232A"/>
<path d="M14.8147 31.8827C14.8147 31.8827 15.7737 32.0066 15.8415 32.4167V33.1151V34.7458C15.8415 34.7458 15.1925 35.054 14.4037 33.8535C14.2675 33.1188 14.4313 32.4694 14.8147 31.8827Z" fill="#F7977B"/>
<path d="M15.9027 32.3677C15.9027 32.3677 17.2685 32.5567 17.1217 32.9335C17.0712 33.0634 16.0193 33.0572 16.0193 33.0572L16.0373 33.2367C16.0373 33.2367 17.1744 33.3362 17.3165 33.6652C17.4588 33.9941 16.0942 33.8022 16.0942 33.8022L16.1174 34.0297C16.1174 34.0297 17.0208 34.0944 17.1697 34.3714C17.3188 34.6485 16.0151 34.5648 16.0151 34.5648L16.0329 34.7416C16.0329 34.7416 16.5597 34.8517 16.7432 35.112C16.927 35.3725 16.0226 35.2533 15.6563 35.1029C15.2902 34.9522 15.3663 34.6631 15.4133 34.5302C15.4133 34.5302 15.2368 34.0516 15.4583 33.7842C15.4583 33.7842 15.238 33.4002 15.4838 33.1365C15.4838 33.1365 15.2315 32.3324 15.9027 32.3677Z" fill="#F7977B"/>
<path d="M14.8538 32.4094C14.8538 32.4094 15.0516 32.1527 15.1728 31.8841C15.2937 31.6155 15.5914 31.2628 15.7033 31.4556C15.8427 31.6953 15.7413 31.9503 15.7128 32.1818C15.6476 32.7116 15.8867 32.621 15.8355 32.7919C15.7846 32.9625 14.8143 32.7312 14.8538 32.4094Z" fill="#F7977B"/>
<path d="M23.6844 27.0534C23.6844 27.0534 22.3244 27.2585 22.4745 27.6324C22.5263 27.7614 23.5756 27.7422 23.5756 27.7422L23.5595 27.9215C23.5595 27.9215 22.4264 28.0345 22.2882 28.3643C22.15 28.6941 23.5088 28.4862 23.5088 28.4862L23.4885 28.7133C23.4885 28.7133 22.588 28.7887 22.4423 29.0667C22.2968 29.3448 23.5964 29.2455 23.5964 29.2455L23.5805 29.4221C23.5805 29.4221 23.0561 29.5384 22.8756 29.8002C22.6954 30.0622 23.5962 29.9324 23.9599 29.778C24.3237 29.6236 24.2445 29.3362 24.1962 29.2039C24.1962 29.2039 24.3669 28.7246 24.1432 28.4604C24.1432 28.4604 24.3587 28.0749 24.1108 27.8146C24.1108 27.8146 24.3533 27.01 23.6844 27.0534Z" fill="#F7977B"/>
<path d="M24.2568 27.212C24.244 27.3781 24.0022 27.4883 23.7617 27.5352V26.0859C23.8846 26.1279 24.016 26.4119 24.0626 26.6333C24.1223 26.924 24.2568 27.212 24.2568 27.212Z" fill="#F7977B"/>
<path d="M92.5729 98.0665C92.5729 99.1339 88.805 99.999 84.1572 99.999C79.5093 99.999 75.7413 99.1339 75.7413 98.0665C75.7413 96.9994 79.5093 96.1343 84.1572 96.1343C88.805 96.1343 92.5729 96.9994 92.5729 98.0665Z" fill="#DCD9D7"/>
<path d="M81.2988 56.6016C81.8887 56.6703 82.9161 56.8644 83.5109 56.8674C85.4851 56.877 85.913 57.1696 87.8637 56.8674C88.4292 56.7797 88.9715 57.0333 89.6043 56.5659C89.3138 55.8287 88.6602 51.1022 88.4529 50.3817C88.0915 49.124 87.6294 47.487 87.6294 47.487C87.6294 47.487 81.6433 46.9109 81.3506 48.0564C81.0582 49.2021 81.2126 51.109 81.4123 52.3822C81.4561 52.6623 81.3709 56.3949 81.2988 56.6016Z" fill="#2A2A3F"/>
<path d="M88.6383 95.2864C88.8642 95.3575 89.0265 95.5515 89.062 95.7797C89.093 95.9794 89.1177 96.2646 89.1054 96.6433C89.0784 97.4874 89.0672 97.8317 89.0672 97.8317C89.0672 97.8317 88.7996 98.2772 88.0307 98.3982L87.8045 98.4284C87.8045 98.4284 86.0643 99.425 85.2517 99.5018C84.191 99.6018 83.1074 99.1373 83.9845 98.1542C84.8128 97.2261 86.0309 96.854 86.391 96.1107C86.4326 96.0238 86.7046 95.8388 86.7737 95.7709C87.3614 95.1915 87.8133 95.0276 88.6383 95.2864Z" fill="#FF863F"/>
<path d="M87.0089 97.0996C86.963 97.0996 86.9189 97.0834 86.8996 97.0563C86.8981 97.054 86.7368 96.8337 86.4365 96.7732C86.149 96.7153 85.8402 96.8665 85.8374 96.868C85.7867 96.8931 85.7118 96.889 85.67 96.8584C85.6282 96.828 85.635 96.783 85.6851 96.7577C85.7019 96.7493 86.0978 96.5538 86.5119 96.6371C86.9144 96.7183 87.1099 96.9883 87.1182 96.9996C87.1438 97.036 87.1162 97.0781 87.0558 97.0938L87.0089 97.0996Z" fill="white"/>
<path d="M86.5129 97.0996C86.4668 97.0996 86.423 97.0833 86.4037 97.0562C86.4022 97.0541 86.2409 96.8337 85.9406 96.7732C85.6531 96.7151 85.3443 96.8665 85.3415 96.868C85.2908 96.8931 85.216 96.8888 85.1741 96.8584C85.1323 96.828 85.1391 96.783 85.1895 96.7576C85.206 96.7492 85.6016 96.5538 86.016 96.6372C86.4184 96.7182 86.614 96.9881 86.6222 96.9996C86.6481 97.0361 86.62 97.0781 86.5599 97.0938L86.5129 97.0996Z" fill="white"/>
<path d="M86.5133 97.5835C86.4672 97.5835 86.4231 97.5671 86.404 97.5399C86.4023 97.5378 86.2409 97.3174 85.9409 97.2571C85.6531 97.1991 85.3443 97.3505 85.3414 97.3518C85.2907 97.377 85.2159 97.3726 85.174 97.3423C85.1322 97.3119 85.1393 97.2668 85.1894 97.2415C85.2059 97.2331 85.6016 97.0376 86.016 97.1211C86.4185 97.2018 86.6141 97.472 86.6223 97.4836C86.6479 97.52 86.6203 97.562 86.56 97.5777L86.5133 97.5835Z" fill="white"/>
<path d="M82.202 95.2863C82.428 95.3574 82.5902 95.5515 82.6257 95.7799C82.6568 95.9793 82.6814 96.2645 82.6691 96.6432C82.6418 97.4874 82.6305 97.8431 82.6305 97.8431C82.6305 97.8431 82.3633 98.2772 81.5945 98.3981L81.2998 98.4435C81.2998 98.4435 79.6279 99.4251 78.8155 99.5018C77.7549 99.6018 76.6711 99.1374 77.5482 98.1544C78.3767 97.2261 79.5948 96.8542 79.9545 96.1107C79.9965 96.0238 80.2684 95.8389 80.3375 95.7708C80.9249 95.1913 81.3768 95.0277 82.202 95.2863Z" fill="#FF863F"/>
<path d="M81.0695 97.0996C81.0233 97.0996 80.9792 97.0834 80.9602 97.0563C80.9587 97.054 80.7973 96.8337 80.4971 96.7732C80.2093 96.7153 79.9008 96.8665 79.8979 96.868C79.847 96.8931 79.7721 96.889 79.7305 96.8584C79.6887 96.828 79.6955 96.783 79.7456 96.7577C79.7624 96.7493 80.1581 96.5538 80.5725 96.6371C80.9747 96.7182 81.1705 96.9883 81.1788 96.9996C81.2044 97.036 81.1765 97.0781 81.1161 97.0938L81.0695 97.0996Z" fill="white"/>
<path d="M80.5753 97.0996C80.5292 97.0996 80.4851 97.0833 80.466 97.056C80.4646 97.0541 80.3032 96.8337 80.0029 96.7732C79.7152 96.7151 79.4066 96.8665 79.4038 96.8681C79.3531 96.8931 79.278 96.8888 79.2364 96.8584C79.1946 96.828 79.2014 96.783 79.2515 96.7576C79.2683 96.7492 79.6639 96.5538 80.0783 96.6372C80.4805 96.7182 80.6764 96.9881 80.6846 96.9996C80.7102 97.0361 80.6823 97.0781 80.622 97.0938L80.5753 97.0996Z" fill="white"/>
<path d="M80.0782 97.5835C80.0321 97.5835 79.9883 97.5671 79.9689 97.5399C79.9675 97.5378 79.8061 97.3174 79.5058 97.2571C79.2184 97.1991 78.9095 97.3505 78.9067 97.3518C78.856 97.377 78.7812 97.3726 78.7393 97.3423C78.6975 97.3119 78.7043 97.2668 78.7544 97.2415C78.7712 97.2331 79.1669 97.0376 79.5813 97.1211C79.9835 97.2018 80.1793 97.472 80.1875 97.4834C80.2132 97.52 80.1853 97.562 80.1252 97.5777L80.0782 97.5835Z" fill="white"/>
<path d="M89.0777 69.8117L80.6446 69.5639C80.1152 72.4988 78.8843 79.0576 79.2893 81.8585C79.9418 86.3698 80.9909 95.844 80.9909 95.844C81.708 95.9989 81.8798 96.0143 82.6008 95.7495C82.6008 95.7495 83.2595 85.4459 82.5065 82.273C82.0529 80.3607 83.4635 76.7907 84.0291 73.9655C84.0291 73.9655 84.2047 73.3791 84.5041 73.3791C84.6989 73.3791 84.8119 73.6598 84.8677 73.8567C85.0741 76.4548 85.3413 79.5709 85.5777 81.5545C86.0459 85.4789 87.3668 96.0001 87.3668 96.0001C88.0844 96.155 88.1133 96.2174 88.8343 95.9526C88.8343 95.9526 89.3793 83.9397 88.9365 81.659C88.2335 78.0403 89.0241 72.4475 89.0777 69.8117Z" fill="#F7977B"/>
<path d="M79.209 79.9586C80.0769 80.2326 81.039 80.2478 82.0605 80.0948C82.1259 80.0854 82.193 80.0744 82.2585 80.0631C82.4369 80.0334 82.6175 79.9977 82.7978 79.9586C82.9707 78.1525 83.6351 75.9085 84.0424 73.9068C84.0424 73.9068 84.2188 73.3272 84.5185 73.3272C84.7145 73.3272 84.8275 73.6047 84.8832 73.7985C85.0467 75.8005 85.2444 78.1099 85.4364 79.9586C86.5423 80.2087 87.5331 80.2588 88.4107 80.1023C88.4742 80.091 88.5377 80.08 88.5991 80.0669C88.741 80.0352 88.8793 79.9996 89.0158 79.9586C88.6258 76.503 89.0636 72.1098 89.1099 69.8081L80.6452 69.5639C80.2056 71.957 79.2858 76.792 79.209 79.9586Z" fill="#2A2A3F"/>
<path d="M82.1758 80.1919C82.2423 80.1822 82.3105 80.1708 82.3771 80.1591C82.6991 77.6491 83.6481 73.5933 83.6579 73.5469C83.6714 73.4947 83.6383 73.4427 83.5855 73.431C83.5347 73.4196 83.4821 73.4502 83.4704 73.5025C83.4235 73.6978 82.4883 77.6974 82.1758 80.1919Z" fill="#5E6A9A"/>
<path d="M88.2163 79.4112C88.2524 79.5915 88.2885 79.7904 88.3904 80.1919C88.4652 80.1808 88.54 80.1699 88.6122 80.1569C88.5127 79.7684 88.474 79.564 88.4379 79.3818C88.2456 78.4221 88.4063 73.0931 88.4063 73.0396C88.4086 72.9898 88.3588 72.9475 88.2977 72.9456C88.2342 72.9438 88.1847 72.9843 88.1825 73.0359C88.1753 73.2552 88.0195 78.4351 88.2163 79.4112Z" fill="#5E6A9A"/>
<path d="M88.8684 79.2265C89.1332 79.3956 89.132 80.0393 89.0793 80.3733C89.0793 80.3733 86.7633 81.0034 85.306 80.4447C85.1552 80.3178 85.0699 79.7579 85.242 79.3195C85.242 79.3195 87.4592 79.618 88.8684 79.2265Z" fill="#5E6A9A"/>
<path d="M83.0816 79.2793C83.2236 79.5083 83.1914 80.2025 82.9985 80.4033C82.9985 80.4033 80.812 80.9929 79.3423 80.4375C79.1902 80.3114 79.1162 79.6621 79.4105 79.2265C79.4105 79.2265 81.6603 79.6687 83.0816 79.2793Z" fill="#5E6A9A"/>
<path d="M82.0722 59.2148C81.6487 61.2571 79.8014 62.8022 79.8014 62.8022L78.2177 61.4402C78.3168 61.3783 78.429 61.255 78.551 61.0836C78.5914 61.0281 78.6321 60.9669 78.6742 60.901C79.7807 59.1569 81.5138 54.1067 81.5138 54.1067C81.5138 54.1067 82.4952 57.1728 82.0722 59.2148Z" fill="#FE4D00"/>
<path d="M79.7023 62.4191C79.7023 62.4191 79.3637 63.4247 78.1058 63.2675C76.8477 63.1104 73.7617 59.261 73.7617 59.261C74.1811 59.2605 74.5321 59.1498 75.0978 58.9364C75.0978 58.9364 76.5092 60.4051 77.888 60.7634C79.2667 61.1213 79.7023 62.4191 79.7023 62.4191Z" fill="#FE4D00"/>
<path d="M79.1379 61.8261L79.0881 61.8345C79.0426 61.8345 78.9993 61.8144 78.9789 61.7796C78.7742 61.4308 78.4385 61.171 78.2177 61.0271C78.261 60.9788 78.3046 60.9256 78.3498 60.8683C78.5892 61.0212 78.9654 61.3066 79.1967 61.701C79.2243 61.7485 79.1985 61.8046 79.1379 61.8261Z" fill="#AA232A"/>
<path d="M71.7814 55.5006L72.2764 55.3918L72.1633 55.5542L71.7814 55.5006Z" fill="#2A2A3F"/>
<path d="M73.9492 55.8338L75.6928 58.5779C75.8053 58.754 75.713 58.9546 75.5274 58.9358L74.8823 58.87L73.7727 58.7574C73.6887 58.7486 73.6065 58.6947 73.5557 58.6152L71.8305 55.9156C71.7195 55.7419 71.8069 55.542 71.9895 55.5561L73.7265 55.6907C73.8125 55.6974 73.8971 55.7523 73.9492 55.8338Z" fill="#2A2A3F"/>
<path d="M75.7421 58.6962L75.4001 58.937L75.2471 58.7443L75.6891 58.4539L75.7421 58.6962Z" fill="#2A2A3F"/>
<path d="M71.8309 55.9141L73.5608 58.6106C73.6116 58.6901 73.6938 58.7441 73.7773 58.7528L75.5287 58.9357C75.7135 58.955 75.8052 58.7556 75.6925 58.5791L73.9443 55.8388C73.892 55.757 73.8069 55.7023 73.7219 55.6954L71.9888 55.5562C71.807 55.5415 71.7192 55.74 71.8309 55.9141Z" fill="#4C4D7D"/>
<path d="M73.6699 57.3497C73.7763 57.6055 73.7926 57.8741 73.7067 57.9495C73.6205 58.0247 73.4646 57.8782 73.3586 57.6225C73.2522 57.3667 73.2359 57.0981 73.3218 57.0227C73.4077 56.9478 73.5635 57.094 73.6699 57.3497Z" fill="#2A2A3F"/>
<path d="M72.3616 56.8085C72.3508 56.7801 72.1909 56.3658 72.3419 56.289C72.3989 56.2601 72.4799 56.336 72.5613 56.4445L72.562 56.4449C72.6807 56.6044 72.7978 56.8329 72.8334 56.9043L72.8336 56.9059L72.8377 56.913L72.8245 56.882L72.8228 56.8768L72.8011 56.8223L72.798 56.8146C72.7161 56.6037 72.5649 56.1605 72.6889 56.0506C72.7783 55.9715 72.9805 56.2596 73.147 56.5398C73.278 56.7599 73.3861 56.975 73.3998 57.002C73.3965 56.9931 73.3873 56.9649 73.3748 56.9243L73.3731 56.9186C73.3189 56.7369 73.2137 56.3214 73.37 56.2223C73.4909 56.1462 73.6756 56.5285 73.8047 56.8491L73.8049 56.8498C73.8923 57.0671 73.9545 57.2561 73.9545 57.2561C73.9545 57.2561 73.8959 56.6777 74.0773 56.6948C74.2593 56.7115 74.3752 57.688 74.6004 57.9684C74.8262 58.2483 75.2667 58.6044 75.247 58.908C75.2369 59.0659 74.9498 59.4517 74.2003 59.4167C73.9316 59.404 73.6818 59.2798 73.5092 59.0783C72.9837 58.4651 72.4276 57.3585 72.3623 56.8097" fill="#F7977B"/>
<path d="M72.7724 57.4873C72.7584 57.4727 72.5323 57.2306 72.4639 57.0506C72.3934 56.8638 72.2773 56.5211 72.2773 56.5211L72.278 56.5215C72.3796 56.6615 72.4797 56.8622 72.5102 56.9248L72.5104 56.9263C72.5282 56.9729 72.6741 57.3473 72.7724 57.4873Z" fill="#F35D63"/>
<path d="M73.2675 57.4873C73.251 57.466 72.991 57.113 72.8851 56.9047C72.8133 56.7625 72.784 56.6089 72.7725 56.5211C72.915 56.7337 73.0327 56.9415 73.0476 56.9676C73.0476 56.9676 73.2169 57.3827 73.2675 57.4873Z" fill="#F35D63"/>
<path d="M73.9801 57.4873C73.9801 57.4873 73.7224 56.8391 73.7669 56.5211C73.8541 56.7863 73.9162 57.0171 73.9162 57.0171" fill="#F35D63"/>
<path d="M88.8146 70.9942C87.0774 72.3447 80.213 70.7473 80.7187 68.9495C81.0366 67.82 82.1495 62.9487 81.9854 61.4374C81.8187 59.9285 80.6821 59.0077 81.4165 57.3103C81.8527 56.3014 81.8165 55.3081 81.5585 54.3828C81.3477 53.6274 81.6137 53.2918 82.3648 53.1832C82.6965 53.1352 83.2668 53.1155 83.7671 53.1908C84.827 53.3467 86.0331 53.5487 87.0621 53.7773C87.8357 53.9491 88.5129 54.1375 88.9451 54.3312C90.7659 55.146 88.2706 59.0243 87.885 61.2886C87.4995 63.5558 89.7394 70.2749 88.8146 70.9942Z" fill="#FF863F"/>
<path d="M84.7918 61.8345C82.8377 61.8345 81.7909 61.1524 81.7392 61.1177C81.6864 61.0827 81.6672 61.0017 81.6961 60.9376C81.725 60.8731 81.7909 60.8494 81.8438 60.8846C81.8583 60.8942 83.3358 61.8518 86.0171 61.4823C86.0764 61.4739 86.1307 61.5265 86.1373 61.5997C86.1442 61.6726 86.101 61.7382 86.0413 61.7463C85.5906 61.8085 85.1738 61.8345 84.7918 61.8345Z" fill="#FE4D00"/>
<path d="M84.5542 57.9697L84.5259 57.9648C83.4292 57.5777 83.1815 56.705 83.1715 56.6679C83.1553 56.6081 83.1841 56.5444 83.2356 56.5256C83.2866 56.5071 83.3418 56.54 83.3579 56.5995C83.3673 56.6328 83.5908 57.3976 84.5828 57.7477C84.6343 57.7659 84.6636 57.8294 84.6479 57.8892C84.6349 57.9381 84.5964 57.9697 84.5542 57.9697Z" fill="#FE4D00"/>
<path d="M86.0271 69.0825C83.3139 69.0825 81.7791 67.4293 81.7153 67.3587C81.672 67.3111 81.6717 67.2339 81.7146 67.1864C81.7573 67.1384 81.827 67.1381 81.8702 67.1856C81.8855 67.2021 83.4088 68.8386 86.0271 68.8386C86.0875 68.837 86.138 68.8927 86.138 68.9604C86.138 69.0278 86.0887 69.0825 86.0278 69.0825H86.0271Z" fill="#FE4D00"/>
<path d="M85.5334 68.5986H85.531C84.5302 68.5765 83.2698 67.845 83.2167 67.8139C83.1662 67.7842 83.1518 67.7233 83.1845 67.6776C83.2172 67.6318 83.2845 67.6187 83.335 67.6482C83.3476 67.6555 84.5973 68.3808 85.536 68.4016C85.5962 68.4029 85.6438 68.4482 85.6422 68.5025C85.6408 68.5561 85.5924 68.5986 85.5334 68.5986Z" fill="#FE4D00"/>
<path d="M86.2182 52.1748C86.2182 52.1748 87.6983 51.6263 87.9934 50.0977C88.2888 48.5693 88.2017 46.3244 86.1304 45.6643C84.0588 45.0041 82.1443 45.6376 81.6826 47.5626C81.6826 47.5626 83.2715 51.3969 86.2182 52.1748Z" fill="#2A2A3F"/>
<path d="M83.6631 52.9098L83.7709 53.8678L83.8311 54.4279C84.977 54.8986 86.151 54.1937 86.1382 54.0945C86.0131 53.6697 85.9179 52.9412 85.8864 52.2488C85.8663 52.2352 85.8449 52.2241 85.8213 52.2152C85.2169 51.9647 83.6631 52.9098 83.6631 52.9098Z" fill="#F7977B"/>
<path d="M83.6631 52.5318L83.762 53.624C84.8125 53.1835 85.3874 52.2668 85.6433 51.7398C85.0887 51.4543 83.6631 52.5318 83.6631 52.5318Z" fill="#F35D63"/>
<path d="M81.9533 49.0812C81.9533 49.0812 81.5309 48.4762 81.2632 49.0186C80.9955 49.5612 81.4809 51.0762 82.1786 50.6507L81.9533 49.0812Z" fill="#F35D63"/>
<path d="M81.88 50.643C81.8711 50.6966 81.8197 50.7328 81.7656 50.7237C81.7115 50.7149 81.6747 50.6639 81.6841 50.6103C81.6932 50.5568 81.7442 50.5206 81.7985 50.5294C81.8526 50.5387 81.8891 50.5891 81.88 50.643Z" fill="white"/>
<path d="M82.317 50.4203C82.2882 50.422 82.2606 50.4046 82.251 50.3762C82.1061 49.9571 81.651 49.8094 81.6467 49.808C81.6119 49.797 81.5927 49.7604 81.6037 49.7261C81.6148 49.6918 81.6515 49.6725 81.6863 49.6834C81.7075 49.6901 82.2087 49.8511 82.3756 50.3338C82.3874 50.3681 82.3689 50.4053 82.3345 50.417L82.317 50.4203Z" fill="#CC4256"/>
<path d="M81.8546 50.2324L81.8183 50.2241C81.7868 50.2062 81.7758 50.1664 81.7938 50.135C81.7967 50.13 81.8686 50.0064 82.0292 49.924C82.0614 49.9073 82.1013 49.92 82.1181 49.9521C82.1349 49.984 82.1222 50.0233 82.0898 50.04C81.9657 50.1036 81.9087 50.1986 81.9082 50.1996L81.8546 50.2324Z" fill="#CC4256"/>
<path d="M81.6906 50.1033C81.7017 50.2555 81.7178 50.3979 81.7389 50.5268C81.933 51.6886 82.9626 54.048 85.024 52.846C85.5187 52.5574 85.8862 52.2723 86.1729 51.9617C86.3898 51.7274 86.5608 51.4783 86.7071 51.2027C86.7635 51.0965 86.7892 50.9767 86.826 50.8624L86.8447 50.8016L86.8555 50.7676C86.9581 50.4341 87.0356 50.0974 87.0961 49.7766C87.1716 49.376 87.2194 49.0028 87.2487 48.6955C87.3032 48.1309 87.052 47.5802 86.5894 47.2463C85.3371 46.3413 83.8913 46.4606 82.9198 46.7097C82.2454 46.8826 81.7591 47.4642 81.7137 48.1528C81.6914 48.4793 81.6733 48.8513 81.6681 49.2212C81.6645 49.5258 81.6695 49.8299 81.6906 50.1033Z" fill="#F7977B"/>
<path d="M82.5585 48.9873C82.5566 48.9271 82.5052 48.8804 82.4447 48.8825C82.2833 48.888 82.0808 48.9092 81.8971 48.9716C81.5133 49.1016 81.4609 49.2098 81.4609 49.2098C81.4609 49.2098 81.509 49.2548 82.0114 49.1535C82.1404 49.1273 82.3114 49.1169 82.4596 49.1028C82.5179 49.0973 82.5604 49.0473 82.5588 48.9892L82.5585 48.9873Z" fill="#2A2A3F"/>
<path d="M83.9567 48.9104C83.9452 48.8395 83.9947 48.7733 84.0663 48.7618C84.257 48.7313 84.4995 48.7104 84.7296 48.7413C85.2102 48.8068 85.2964 48.9219 85.2964 48.9219C85.2964 48.9219 85.2508 48.9855 84.6374 48.9812C84.4801 48.98 84.2767 49.0067 84.0999 49.0238C84.0302 49.0305 83.9683 48.9814 83.9572 48.9131L83.9567 48.9104Z" fill="#2A2A3F"/>
<path d="M83.6217 50.9998L83.6045 50.995L83.1738 50.8293L83.3489 49.7916C83.3571 49.744 83.4025 49.7118 83.4505 49.7197C83.4985 49.7278 83.5307 49.7728 83.5228 49.8204L83.3712 50.7178L83.6683 50.8321C83.7135 50.8497 83.7361 50.9002 83.7185 50.9453C83.7029 50.9845 83.6621 51.0065 83.6217 50.9998Z" fill="#F35D63"/>
<path d="M86.005 50.7673C86.005 50.7673 86.2195 51.1783 86.7065 51.2017C86.7495 51.0895 86.7887 50.9756 86.8254 50.8613C86.5901 50.9032 86.23 50.9302 86.005 50.7673Z" fill="#F35D63"/>
<path d="M86.1727 51.9614C86.3896 51.7271 86.5606 51.478 86.7068 51.2024C86.7633 51.0962 86.789 50.9764 86.8257 50.8621L86.8444 50.8013C86.7947 50.8037 86.7131 50.8197 86.5795 50.8623C86.5795 50.8623 86.0274 51.4889 86.1727 51.9614Z" fill="#2A2A3F"/>
<path d="M82.9355 51.5048C83.0371 51.7999 83.3138 52.3301 83.9935 52.2398C84.6749 52.1495 84.7971 51.6151 84.8156 51.2557L82.9355 51.5048Z" fill="white"/>
<path d="M84.2802 49.8117C84.2896 49.9755 84.3824 50.1034 84.4877 50.0975C84.5927 50.0917 84.6704 49.9541 84.661 49.7902C84.6516 49.6266 84.5591 49.4985 84.4538 49.5044C84.3487 49.5101 84.2708 49.6478 84.2802 49.8117Z" fill="#2A2A3F"/>
<path d="M82.1404 49.9337C82.1498 50.0976 82.2426 50.2255 82.3479 50.2195C82.4529 50.2138 82.5306 50.0762 82.5212 49.9123C82.5118 49.7484 82.419 49.6205 82.314 49.6265C82.2087 49.6325 82.131 49.7699 82.1404 49.9337Z" fill="#2A2A3F"/>
<path d="M86.6192 49.5443C86.6192 49.5443 87.09 49.0658 87.3306 49.5429C87.5713 50.0197 87.0924 51.2024 86.2559 50.8587L86.6192 49.5443Z" fill="#F7977B"/>
<path d="M86.7942 50.7717C86.7851 50.8253 86.7338 50.8615 86.6798 50.8527C86.6257 50.8434 86.5891 50.7929 86.598 50.7393C86.6071 50.6855 86.6584 50.6493 86.7124 50.6583C86.7668 50.6672 86.8031 50.7181 86.7942 50.7717Z" fill="white"/>
<path d="M86.5035 50.4702C86.5306 50.4737 86.5575 50.4592 86.5688 50.433C86.7343 50.0479 87.1733 49.9398 87.1776 49.9388C87.2113 49.9307 87.2319 49.8976 87.2237 49.8645C87.2158 49.8314 87.1824 49.8109 87.149 49.8186C87.1286 49.8236 86.6449 49.9412 86.4542 50.3847C86.441 50.4161 86.4554 50.4523 86.4871 50.4659L86.5035 50.4702Z" fill="#F35D63"/>
<path d="M86.951 50.3237L86.9856 50.3182C87.0166 50.3037 87.0298 50.2668 87.0151 50.2361C87.0125 50.2308 86.9534 50.1096 86.8077 50.0213C86.7786 50.0032 86.7401 50.0124 86.7218 50.0415C86.7041 50.0706 86.7132 50.1084 86.7425 50.1263C86.8553 50.1949 86.9021 50.288 86.9024 50.289L86.951 50.3237Z" fill="#F35D63"/>
<path d="M87.1689 49.3479C86.964 49.3136 86.8187 49.3267 86.7056 49.3783C86.6268 49.4143 86.5634 49.4684 86.5065 49.5379L86.4717 49.5827C86.4164 49.7165 86.3422 49.793 86.3257 49.8166C86.2353 49.9456 86.1011 50.2076 86.0605 50.1433C85.9529 49.973 86.0245 49.0866 85.9851 48.928C85.925 48.686 85.6592 48.4652 85.6592 48.4652C83.5815 49.1064 81.9375 47.3306 81.9375 47.3306C82.5802 45.3689 86.0742 46.3036 86.9756 46.7781C87.8764 47.2527 88.1901 49.5174 87.1689 49.3479Z" fill="#2A2A3F"/>
<path d="M82.4064 47.4694C82.4064 47.4694 82.5841 48.8329 81.6385 49.313C81.6385 49.313 81.231 46.5472 82.4064 47.4694Z" fill="#2A2A3F"/>
<path d="M86.7827 68.4045C86.7827 68.4045 85.8362 68.5864 85.519 68.857C85.2017 69.1275 84.5525 69.6148 84.9469 69.5893C84.998 69.586 85.2034 69.5057 85.4097 69.39C85.616 69.2742 85.7303 69.2361 85.7911 69.2935C85.9131 69.4093 85.3261 69.9821 85.1253 70.2807C84.9245 70.5796 84.4387 71.1219 84.5388 71.3646C84.6392 71.6075 85.084 70.9545 85.3107 70.7066C85.5372 70.4584 85.6417 70.2824 85.6828 70.3295C85.7236 70.3769 84.6637 71.4451 84.7336 71.7962C84.8033 72.1467 85.9227 70.6861 86.0579 70.6665C86.1926 70.647 85.1916 71.6283 85.1457 71.8455C85.0996 72.0627 85.75 71.563 86.288 71.0221C86.288 71.0221 86.3929 71.0214 86.2923 71.1276C86.1917 71.2341 85.7759 71.6106 85.7303 71.8231C85.6844 72.0355 86.6518 71.2134 87.1303 70.6411C87.6087 70.0688 87.6807 69.2809 87.6807 69.2809C87.6807 69.2809 87.0121 68.9022 86.7827 68.4045Z" fill="#F7977B"/>
<path d="M92.0348 62.7368C92.0348 62.7368 91.6635 62.9311 91.1521 63.0093C90.8442 63.0557 90.4847 63.0602 90.1254 62.9543L90.0841 62.8433L88.2158 57.7997C88.2158 57.7997 88.2927 55.5664 89.4308 54.9231C89.4308 54.9231 91.4677 59.2575 92.0348 62.7368Z" fill="#FF863F"/>
<path d="M91.7851 64.8516C91.1871 66.1558 87.7176 69.4731 87.7176 69.4731C87.2853 69.3017 86.9978 68.8956 86.7627 68.4045C86.7627 68.4045 88.4069 66.2441 88.9708 65.2074C89.4331 64.3576 89.9137 63.3866 90.0722 63.0642C90.1068 62.993 90.1258 62.9532 90.1258 62.9532L90.8571 62.8696L92.0352 62.7357C92.0352 62.7357 92.3829 63.5472 91.7851 64.8516Z" fill="#FF863F"/>
<path d="M91.1475 63.0555L91.1254 63.097C91.098 63.1284 91.0543 63.1434 91.0113 63.1308C90.6686 63.0355 90.3273 63.0377 90.0703 63.0658C90.1049 62.9946 90.1239 62.9548 90.1239 62.9548L90.0826 62.8438C90.3016 62.8226 90.572 62.8195 90.8552 62.8712C90.9263 62.8843 90.9988 62.9002 91.0711 62.9202C91.1146 62.9329 91.1446 62.9688 91.1506 63.0098L91.1475 63.0555Z" fill="#FE4D00"/>
<path d="M73.2991 30.0975L74.1884 32.0273V30.6067L73.2991 30.0975Z" fill="#FF863F"/>
<path d="M74.1875 32.0273L74.6289 31.7749V30.8587L74.1882 30.6067L74.1875 32.0273Z" fill="#AA232A"/>
<path d="M78.3199 25.2843V31.7004L77.2012 32.3408L77.2982 25.8737L78.3199 25.2843Z" fill="#AA232A"/>
<path d="M71.5039 22.5566V29.0794L77.2005 32.3408L77.2975 25.8737L71.5039 22.5566Z" fill="#FF863F"/>
<path d="M74.1 29.9248C73.7167 29.7064 73.4631 29.2003 73.477 28.7668C73.4914 28.3264 73.7676 28.1428 74.1507 28.3612C74.534 28.5796 74.7883 29.0659 74.7741 29.5061C74.76 29.9395 74.4833 30.1432 74.1 29.9248ZM74.6015 28.3505L73.7172 27.8463L73.5879 24.8821L74.9146 25.6383L74.6015 28.3505Z" fill="white"/>
<path d="M78.3192 25.2846L72.5256 21.9674L71.5039 22.5569L77.2975 25.874L78.3192 25.2846Z" fill="#FE4D00"/>
<path d="M90.9845 21.8448L91.8412 23.7041V22.3354L90.9845 21.8448Z" fill="#FF863F"/>
<path d="M91.8389 23.7041L92.2641 23.4609V22.5783L91.8396 22.3354L91.8389 23.7041Z" fill="#AA232A"/>
<path d="M93.897 16.1081V22.2897L92.8193 22.9067L92.913 16.6759L93.897 16.1081Z" fill="#AA232A"/>
<path d="M85.0212 12.1577V18.4419L92.8198 22.9067L92.9135 16.6759L85.0212 12.1577Z" fill="#FF863F"/>
<path d="M90.1092 17.3552C89.8179 17.3604 89.6351 17.7369 89.7009 18.1961C89.7665 18.6553 90.0559 19.0235 90.347 19.0185C90.6381 19.0133 90.8211 18.6367 90.7553 18.1775C90.6894 17.7184 90.4003 17.3502 90.1092 17.3552Z" fill="white"/>
<path d="M88.5808 16.5505C88.2897 16.5557 88.1069 16.932 88.1725 17.3914C88.2383 17.8506 88.5275 18.2188 88.8188 18.2138C89.1099 18.2086 89.2927 17.832 89.2269 17.3729C89.1613 16.9137 88.8721 16.5455 88.5808 16.5505Z" fill="white"/>
<path d="M87.0425 15.7438C86.7514 15.7491 86.5689 16.1256 86.6344 16.5848C86.7002 17.0442 86.9894 17.4124 87.2807 17.4072C87.5716 17.4019 87.7543 17.0256 87.6888 16.5662C87.623 16.107 87.3338 15.7388 87.0425 15.7438Z" fill="white"/>
<path d="M93.8992 16.107L86.0108 11.5905L85.0264 12.1583L92.9152 16.6748L93.8992 16.107Z" fill="#FE4D00"/>
<path d="M27.1104 5.85163V19.094C27.1104 19.1528 27.1423 19.2078 27.1937 19.2374L43.5222 28.5858C43.5483 28.601 43.5764 28.6084 43.6048 28.6084C43.6855 28.6084 43.7727 28.545 43.7727 28.4424V15.2229C43.7727 15.1641 43.7405 15.1093 43.6891 15.0798L27.3609 5.7085C27.3344 5.69302 27.3066 5.68539 27.2778 5.68539C27.1973 5.68539 27.1104 5.74898 27.1104 5.85163Z" fill="#DEDBD9"/>
<path d="M33.0742 20.0934L33.9653 22.0269V20.6036L33.0742 20.0934Z" fill="#FF863F"/>
<path d="M33.9648 22.0269L34.4072 21.7739V20.856L33.9658 20.6036L33.9648 22.0269Z" fill="#AA232A"/>
<path d="M38.104 15.2712V21.6985L36.9834 22.3403L37.0807 15.8618L38.104 15.2712Z" fill="#AA232A"/>
<path d="M31.2784 12.5387V19.073L36.9851 22.3403L37.0824 15.8618L31.2784 12.5387Z" fill="#FF863F"/>
<path d="M38.1058 15.2721L32.3018 11.9493L31.2784 12.5397L37.0824 15.8628L38.1058 15.2721Z" fill="#FE4D00"/>
<path d="M34.9267 18.7054C34.7091 19.1019 34.3465 19.1367 34.2305 19.1371L34.2434 18.2998L34.9267 18.7054ZM35.6818 19.1536C35.4311 19.4237 35.0007 19.4703 34.5153 19.282C34.5996 19.2605 34.6789 19.2274 34.7519 19.1829C34.8931 19.0967 35.0065 18.9685 35.0891 18.8016L35.6818 19.1536ZM35.2447 17.9613C35.2397 17.7413 35.202 17.5041 35.1326 17.2557L35.7436 17.6184C35.8451 17.8789 35.9025 18.128 35.9146 18.3588L35.2447 17.9613ZM35.0915 18.0171C35.0828 18.2386 35.0459 18.4315 34.981 18.5908L34.2456 18.1542L34.2552 17.5207L35.0915 18.0171ZM35.0776 17.0761C35.0122 16.8803 34.9289 16.6802 34.8297 16.4809C34.7565 16.334 34.676 16.1889 34.5903 16.0494C35.0329 16.4099 35.4184 16.9044 35.6595 17.4217L35.0776 17.0761ZM34.9714 17.1599C35.0463 17.4112 35.0869 17.6501 35.0927 17.8711L34.2574 17.3755L34.2672 16.7419L34.9714 17.1599ZM34.2694 16.5964L34.2812 15.8257L34.3292 15.8569C34.3938 15.9484 34.5506 16.1815 34.706 16.4947C34.7862 16.6562 34.8554 16.8184 34.9118 16.978L34.2694 16.5964ZM35.2433 18.1073L35.9158 18.5063C35.9076 18.7237 35.8555 18.9076 35.7604 19.0533L35.1393 18.6846C35.2 18.5208 35.2351 18.3267 35.2433 18.1073ZM33.0976 16.8336C33.0993 17.0592 33.1276 17.2909 33.1824 17.5231L32.5791 17.1649C32.49 16.9101 32.4441 16.6679 32.4429 16.4449L33.0976 16.8336ZM32.4487 16.3016C32.4674 16.0887 32.5313 15.9119 32.6386 15.7752L33.2321 16.1275C33.1564 16.2899 33.1122 16.4785 33.1007 16.6886L32.4487 16.3016ZM33.2527 16.7788C33.2648 16.5678 33.3123 16.3811 33.3935 16.2232L34.1152 16.6517L34.1056 17.2852L33.2527 16.7788ZM32.7272 15.6812C32.9749 15.4611 33.3601 15.4261 33.7962 15.583C33.7095 15.6188 33.6279 15.6657 33.553 15.7231C33.4497 15.8021 33.3615 15.9007 33.2917 16.0162L32.7272 15.6812ZM33.4576 16.1146C33.6656 15.8071 33.9658 15.7202 34.0616 15.6995C34.0842 15.7112 34.1068 15.7233 34.1291 15.7355L34.1174 16.5064L33.4576 16.1146ZM34.0914 18.2095L34.0784 19.0574C34.0218 18.9909 33.8424 18.7711 33.6646 18.4422C33.5508 18.2314 33.4586 18.0133 33.3901 17.7932L34.0914 18.2095ZM33.7713 18.8354C33.2933 18.4472 32.8896 17.9137 32.6528 17.3557L33.2282 17.697C33.3041 17.958 33.4115 18.2171 33.5477 18.4681C33.6164 18.5946 33.6915 18.718 33.7713 18.8354ZM33.3406 17.6172C33.282 17.3838 33.2513 17.1509 33.2494 16.9239L34.1034 17.4307L34.0936 18.064L33.3406 17.6172ZM32.2911 16.3204C32.2757 17.3173 33.1108 18.6313 34.1522 19.2496C35.1938 19.8676 36.0534 19.5597 36.0687 18.5627C36.0839 17.5657 35.2488 16.2518 34.2074 15.6335C33.1658 15.0153 32.3062 15.3234 32.2911 16.3204Z" fill="white"/>
<path d="M41.4526 16.5742C41.417 16.5742 41.381 16.5654 41.3481 16.5463L29.0932 9.51624C28.993 9.45884 28.9589 9.3319 29.0165 9.23258C29.0554 9.16614 29.1256 9.12899 29.1979 9.12899C29.2337 9.12899 29.2697 9.13804 29.3026 9.15685L41.5578 16.1872C41.6577 16.2446 41.6918 16.3715 41.6341 16.4706C41.5952 16.5373 41.5251 16.5742 41.4526 16.5742Z" fill="#C7C7C7"/>
<path d="M41.4526 26.1265C41.417 26.1265 41.381 26.1174 41.3481 26.0986L34.1077 21.9448L34.4064 21.7738V21.6368L41.5578 25.7392C41.6577 25.7968 41.6918 25.9236 41.6341 26.0229C41.5952 26.0893 41.5251 26.1265 41.4526 26.1265ZM33.8632 21.8047L29.0932 19.0683C28.993 19.0109 28.9589 18.8839 29.0165 18.7848C29.0554 18.7184 29.1258 18.6812 29.1981 18.6812C29.2337 18.6812 29.2697 18.69 29.3026 18.7091L33.5627 21.1529L33.8632 21.8047Z" fill="#C7C7C7"/>
<path d="M33.9659 21.8618L33.8642 21.8037L33.5635 21.1519L33.9662 21.3826L33.9659 21.8618Z" fill="#E3285D"/>
<path d="M34.1079 21.9443L33.9648 21.8624L33.9651 21.3832L34.4069 21.6364V21.7733L34.1079 21.9443Z" fill="#9C222A"/>
<path d="M43.7727 16.0386L27.1104 6.48012V5.8516C27.1104 5.74895 27.1973 5.68536 27.2778 5.68536C27.3066 5.68536 27.3344 5.69299 27.3609 5.70847L43.6891 15.0797C43.7405 15.1093 43.7727 15.164 43.7727 15.2229V16.0386Z" fill="#C7C7C7"/>
<path d="M42.9799 15.1705C42.9859 15.2808 43.0566 15.3701 43.1378 15.3701C43.2193 15.3701 43.2806 15.2808 43.2746 15.1705C43.2689 15.0603 43.198 14.9707 43.1167 14.9707C43.0352 14.9707 42.9739 15.0603 42.9799 15.1705Z" fill="#F14C7F"/>
<path d="M42.5083 14.9357C42.5143 15.0459 42.585 15.1353 42.6665 15.1353C42.748 15.1353 42.8091 15.0459 42.8033 14.9357C42.7973 14.8254 42.7264 14.7361 42.6451 14.7361C42.5638 14.7361 42.5025 14.8254 42.5083 14.9357Z" fill="#3A3B5A"/>
<path d="M42.0922 14.7047C42.0982 14.815 42.1689 14.9043 42.2504 14.9043C42.3316 14.9043 42.393 14.815 42.3869 14.7047C42.3809 14.5947 42.3102 14.5051 42.229 14.5051C42.1475 14.5051 42.0862 14.5947 42.0922 14.7047Z" fill="#FE4D00"/>
<path d="M25.6171 59.8451C25.1273 60.8961 27.0542 62.8131 29.9207 64.1265C32.7873 65.44 35.5082 65.6527 35.9979 64.6019C36.4877 63.5509 34.5608 61.6339 31.6941 60.3205C28.8277 59.007 26.1068 58.7941 25.6171 59.8451Z" fill="#DEDBD9"/>
<path d="M31.9629 64.4077L34.3987 63.0554C34.6607 62.9099 34.8231 62.6353 34.8231 62.3374V50.237L32.0491 51.8251L31.9629 64.4077Z" fill="#AA232A"/>
<path d="M32.0488 51.8251L26.5352 48.7177V60.7824C26.5352 61.0863 26.698 61.3673 26.9631 61.5202L31.9625 64.4077L32.0488 51.8251Z" fill="#FF863F"/>
<path d="M31.3334 57.1303L30.6803 56.7006L30.6647 59.108C30.6626 59.4221 30.4356 59.5286 30.1577 59.3454C29.8798 59.1625 29.656 58.7595 29.6582 58.4454L29.674 56.038L29.0208 55.6081L29.6034 55.349L30.1856 55.0897L30.7596 56.11L31.3334 57.1303Z" fill="#FE4D00"/>
<path d="M29.2834 58.0692L28.6302 57.6393L28.646 55.2319C28.6479 54.9176 28.4243 54.5148 28.1465 54.3319C27.8686 54.1488 27.6416 54.2552 27.6395 54.5694L27.6239 56.9767L26.9708 56.5468L27.5448 57.5674L28.1188 58.5879L28.701 58.3285L29.2834 58.0692Z" fill="#FE4D00"/>
<path d="M34.8227 50.2371L29.6545 47.317C29.4302 47.1903 29.1547 47.1922 28.9323 47.3218L26.5352 48.7179L32.0488 51.8252L34.8227 50.2371Z" fill="#FE4D00"/>
<path d="M31.6261 50.9526L33.2026 50.0774V46.8486L31.6602 45.9772L31.6482 47.7096L31.6261 50.9526Z" fill="#93999A"/>
<path d="M28.6377 46.011V49.225L31.6283 50.9526L31.6504 47.7096L31.6624 45.9772L30.1568 45.1264L28.6377 46.011Z" fill="#BCBCB9"/>
<path d="M28.6377 46.011L31.6504 47.7096L31.6754 47.7232L31.6761 47.7236L33.2048 46.8486L31.6624 45.9772L30.1568 45.1265L29.584 45.4596L28.6377 46.011Z" fill="#DEDBD9"/>
<path d="M28.6377 46.0115L28.6473 46.0167L31.6504 47.7101L31.6754 47.7236L32.405 47.3064L32.6267 47.1794L31.0841 46.3078L29.584 45.4601L28.6377 46.0115Z" fill="#93999A"/>
<path d="M28.6377 46.0112L31.6504 47.7101L31.6754 47.7236L32.405 47.3064L30.8737 46.4414L29.3645 45.588L28.6377 46.0112Z" fill="#7A8185"/>
<path d="M29.1533 48.4989L29.79 48.8633V47.9023L29.1533 47.5377V48.4989Z" fill="#93999A"/>
<path d="M30.1475 49.0167L30.7842 49.3813V48.4201L30.1475 48.0557V49.0167Z" fill="#93999A"/>
<path d="M63.9928 85.6989L67.0888 87.4192C67.517 87.7007 67.4973 88.3304 67.0525 88.5848L50.0542 98.3157C49.4207 98.6786 48.6394 98.6772 48.0073 98.3121L14.65 79.0556C14.3366 78.8758 14.3286 78.43 14.6353 78.2394L17.8394 76.2724L48.4187 93.7813L63.9928 85.6989Z" fill="#DEDBD9"/>
<path d="M49.5352 95.9291C49.7578 95.9348 50.0028 95.9003 50.2509 95.7907L50.2516 95.7902L50.5655 95.6093L50.5669 95.6085L50.6966 95.534L65.1959 87.1775C65.4573 87.0267 65.6177 86.75 65.6177 86.4497V84.8576C65.6134 84.6954 65.5295 84.5358 65.3679 84.4432L63.8467 83.5724L49.6327 91.7126L49.5781 94.075L49.5352 95.9291Z" fill="#2A2A3F"/>
<path d="M16.7396 75.2656L16.7394 76.7918C16.7394 77.1845 16.95 77.5472 17.293 77.7435L48.5622 95.6482L48.6328 95.6882L48.6391 95.6915C48.7849 95.7677 49.1216 95.9183 49.5332 95.9297L49.5762 94.0756L49.6307 91.7132L18.5395 74.0365H18.539L16.9834 74.921C16.8441 74.9996 16.7629 75.1285 16.7396 75.2656Z" fill="#3A3B5A"/>
<path d="M59.6859 84.0577L45.8699 92.0181L19.0059 76.6355L32.9144 68.7304L59.6859 84.0577Z" fill="white"/>
<path d="M59.6859 84.0577L45.8699 92.0181L19.0059 76.6355L32.9144 68.7304L59.6859 84.0577Z" fill="white"/>
<path d="M60.2977 88.9807V89.3879C60.2977 89.4203 60.2804 89.4503 60.2521 89.4665L56.3044 91.7265C56.2434 91.7615 56.1672 91.7176 56.1672 91.6476V91.2404C56.1672 91.208 56.1845 91.178 56.2129 91.1618L60.1606 88.9021C60.2216 88.8668 60.2977 88.9107 60.2977 88.9807Z" fill="#5E6A9A"/>
<path d="M60.2977 88.981V89.2122C60.2977 89.2444 60.2804 89.2744 60.2521 89.2908L56.3044 91.5508C56.2434 91.5856 56.1672 91.5419 56.1672 91.472V91.2407C56.1672 91.2083 56.1845 91.1783 56.2129 91.1621L60.1606 88.9024C60.2216 88.8671 60.2977 88.911 60.2977 88.981Z" fill="#4C4D7D"/>
<path d="M54.9178 92.2813C54.906 92.5211 54.7954 92.7104 54.6711 92.7045L54.6281 92.6942C54.5271 92.6502 54.4572 92.4704 54.4677 92.2594C54.4781 92.056 54.5591 91.8886 54.6593 91.8466L54.7146 91.8364C54.8387 91.8423 54.9298 92.0417 54.9178 92.2813Z" fill="#5E6A9A"/>
<path d="M54.8199 92.2809C54.8096 92.4845 54.7283 92.6515 54.6281 92.6938C54.5271 92.6499 54.4572 92.47 54.4677 92.259C54.4781 92.0557 54.5591 91.8882 54.6593 91.8462C54.7608 91.89 54.8305 92.0699 54.8199 92.2809Z" fill="#4C4D7D"/>
<path d="M16.74 75.4362C16.7633 75.5732 16.844 75.701 16.9824 75.7804L48.4183 93.7798C48.7764 93.9853 49.1772 94.0835 49.5764 94.0746C49.947 94.0675 50.3159 93.9679 50.6475 93.7772L65.3673 85.3019C65.528 85.2088 65.6114 85.0499 65.6164 84.8884V84.8572C65.6116 84.6953 65.528 84.5355 65.3664 84.4428L63.8449 83.5721L57.947 80.195L42.1657 71.1586L33.1684 66.0068C33.0145 65.9185 32.8243 65.9182 32.6698 66.0061L18.5399 74.0353H18.5394L16.9838 74.9199C16.8448 74.9989 16.7633 75.1275 16.74 75.2647C16.7297 75.3214 16.7297 75.3795 16.74 75.4362Z" fill="#4C4D7D"/>
<path d="M57.5992 87.7849C57.6367 88.5177 56.7596 88.8911 55.7247 88.8911C54.6893 88.8911 53.8048 88.5624 53.8502 87.7646C53.8802 87.2385 54.6893 86.9827 55.7247 86.9827C56.7599 86.9827 57.5719 87.2585 57.5992 87.7849Z" fill="#3A3B5A"/>
<path d="M57.5996 87.7636C57.5994 88.2907 56.76 88.7178 55.7251 88.7178C54.6897 88.7178 53.8506 88.2907 53.8506 87.7636C53.8506 87.2366 54.6897 86.8093 55.7251 86.8096C56.7603 86.8096 57.5996 87.2369 57.5996 87.7636Z" fill="#5E6A9A"/>
<path d="M55.7257 88.4487C54.9144 88.4484 54.2571 88.1136 54.2571 87.7009C54.2571 87.2879 54.9147 86.953 55.7257 86.953C56.5368 86.953 57.1944 87.2881 57.1944 87.7009C57.1944 88.1139 56.5368 88.4487 55.7257 88.4487Z" fill="#6F7BA9"/>
<path d="M20.0893 75.6091L20.8341 76.0354L23.3067 77.452L28.8495 80.6267L34.8682 84.0715L37.2839 85.455L41.6809 87.9743L45.5167 90.1689C45.8928 90.3843 46.3561 90.3837 46.7314 90.1677L47.2235 89.8848L52.1941 87.0175L54.61 85.63L59.2938 82.9293C59.5818 82.7635 59.581 82.3508 59.2926 82.1857L54.6105 79.5059L52.1946 78.1222L47.2243 75.2773L41.6819 72.1033L37.2846 69.5835L34.8689 68.2003L34.6898 68.0976L33.7745 67.5751C33.3996 67.3607 32.938 67.3603 32.5626 67.5737L28.8498 69.684L23.3069 72.8349L20.091 74.6621C19.7228 74.8719 19.7216 75.3983 20.0893 75.6091Z" fill="white"/>
<path d="M46.8583 87.189C46.9145 87.189 46.9714 87.1747 47.0232 87.1447L55.5601 82.2261C55.7172 82.1356 55.7705 81.9361 55.6792 81.7805C55.5882 81.6245 55.387 81.5719 55.2296 81.6622L46.6928 86.581C46.5359 86.6715 46.4826 86.8711 46.5739 87.0265C46.6349 87.1306 46.7451 87.189 46.8583 87.189Z" fill="#DEDBD9"/>
<path d="M44.5518 85.9277C44.608 85.9277 44.6649 85.9134 44.7168 85.8834L53.2536 80.9649C53.4107 80.8744 53.464 80.6748 53.3728 80.519C53.2815 80.3633 53.0802 80.3106 52.9234 80.4009L44.3866 85.3195C44.2295 85.41 44.1762 85.6095 44.2672 85.7653C44.3284 85.8694 44.4387 85.9277 44.5518 85.9277Z" fill="#DEDBD9"/>
<path d="M42.2462 84.666C42.3021 84.666 42.3588 84.6515 42.4109 84.6217L50.9478 79.7032C51.1049 79.6127 51.1582 79.4131 51.0669 79.2573C50.9757 79.1016 50.7744 79.0487 50.6176 79.1392L42.0807 84.0577C41.9236 84.1482 41.8703 84.3478 41.9616 84.5036C42.0223 84.6077 42.1326 84.666 42.2462 84.666Z" fill="#DEDBD9"/>
<path d="M39.9366 83.4062C39.9928 83.4062 40.0495 83.392 40.1016 83.3619L48.6385 78.4434C48.7953 78.3529 48.8489 78.1533 48.7576 77.9978C48.6663 77.8418 48.4651 77.7892 48.308 77.8797L39.7711 82.7982C39.6141 82.8887 39.5607 83.0883 39.652 83.2438C39.7133 83.3481 39.8233 83.4062 39.9366 83.4062Z" fill="#DEDBD9"/>
<path d="M37.6283 82.145C37.6845 82.145 37.7411 82.1307 37.7933 82.1007L46.3301 77.1822C46.4872 77.0917 46.5405 76.8921 46.4492 76.7366C46.358 76.5808 46.1567 76.5279 45.9996 76.6184L37.4628 81.537C37.3057 81.6275 37.2524 81.8271 37.3437 81.9826C37.4047 82.0869 37.5151 82.145 37.6283 82.145Z" fill="#DEDBD9"/>
<path d="M35.3221 80.8838C35.3783 80.8838 35.435 80.8695 35.4869 80.8395L44.024 75.9209C44.1808 75.8304 44.2341 75.6309 44.1428 75.4753C44.0518 75.3196 43.8506 75.2667 43.6935 75.3572L35.1566 80.2758C34.9996 80.3663 34.9462 80.5658 35.0375 80.7214C35.0985 80.8257 35.2087 80.8838 35.3221 80.8838Z" fill="#DEDBD9"/>
<path d="M33.0138 79.6221C33.0697 79.6221 33.1266 79.6075 33.1785 79.5778L41.7154 74.6592C41.8724 74.5687 41.9258 74.3691 41.8345 74.2134C41.7435 74.0579 41.542 74.005 41.3851 74.0952L32.8483 79.0138C32.6912 79.1043 32.6379 79.3039 32.7292 79.4596C32.7902 79.564 32.9004 79.6221 33.0138 79.6221Z" fill="#DEDBD9"/>
<path d="M30.7081 78.3608C30.7641 78.3608 30.821 78.3468 30.8731 78.3168L39.4097 73.398C39.5668 73.3075 39.6201 73.1081 39.5291 72.9524C39.4376 72.7969 39.2363 72.7438 39.0795 72.8343L30.5426 77.7528C30.3855 77.8433 30.3322 78.0429 30.4235 78.1987C30.4845 78.3027 30.5947 78.3608 30.7081 78.3608Z" fill="#DEDBD9"/>
<path d="M28.3984 77.1011C28.4544 77.1011 28.5113 77.087 28.5632 77.057L37.1 72.1382C37.2571 72.0477 37.3104 71.8484 37.2191 71.6926C37.1279 71.5369 36.9266 71.484 36.7698 71.5745L28.2329 76.493C28.0759 76.5835 28.0225 76.7831 28.1138 76.9389C28.1748 77.043 28.285 77.1011 28.3984 77.1011Z" fill="#DEDBD9"/>
<path d="M26.0919 75.8379C26.1478 75.8379 26.2048 75.8238 26.2566 75.7938L34.7935 70.875C34.9506 70.7845 35.0039 70.5852 34.9126 70.4294C34.8214 70.2737 34.6201 70.2208 34.4633 70.3113L25.9264 75.2301C25.7693 75.3204 25.716 75.5199 25.8073 75.6757C25.8683 75.7798 25.9785 75.8379 26.0919 75.8379Z" fill="#DEDBD9"/>
<path d="M20.0893 75.6084L20.8341 76.0347L34.6898 68.0969L33.7745 67.5744C33.3996 67.36 32.938 67.3596 32.5626 67.573L28.8498 69.6833L23.3069 72.8342L20.091 74.6614C19.7228 74.8712 19.7216 75.3976 20.0893 75.6084Z" fill="#4C4D7D"/>
<path d="M25.1897 72.6926C25.2368 72.6855 25.2817 72.6709 25.3194 72.6495L30.3974 69.7675C30.5114 69.7029 30.5179 69.5986 30.4125 69.5346C30.307 69.4703 30.1293 69.4707 30.0155 69.5353L24.9373 72.4173C24.8237 72.4818 24.817 72.5861 24.9224 72.6504C24.9928 72.6931 25.0956 72.7074 25.1897 72.6926Z" fill="#5E6A9A"/>
<path d="M47.2702 77.9299L47.267 77.9278C47.2788 77.9925 47.2524 78.0633 47.1868 78.1009L38.3255 83.1743L38.2635 83.1955C38.2268 83.2002 38.1881 83.1919 38.1555 83.1721L32.5278 79.7552C32.4733 79.7221 32.4471 79.6652 32.4483 79.6094V78.1216L33.622 78.8466L41.2224 74.4954C41.2738 74.4663 41.3372 74.4663 41.3886 74.4954L45.864 77.0578L46.0294 77.1523L47.2702 76.459V77.9299Z" fill="#FE4D00"/>
<path d="M47.2693 77.9278L47.2662 77.9257C47.278 77.9904 47.2516 78.0612 47.186 78.0988L38.3247 83.1722L38.2627 83.1934V81.4686L45.8631 77.0556L46.0286 77.1502L47.2693 76.4569V77.9278Z" fill="#AA232A"/>
<path d="M47.2137 76.6087L47.1863 76.6284L38.325 81.7016L38.287 81.7182C38.2429 81.7302 38.1948 81.724 38.155 81.6997L38.0195 81.6175L32.5273 78.2825C32.5033 78.268 32.4845 78.2487 32.4728 78.227C32.4259 78.152 32.4466 78.047 32.5314 77.9986L32.6462 77.9331L41.1518 73.0631L41.2219 73.0227C41.2733 72.9936 41.3367 72.9936 41.3881 73.0227L41.4374 73.0512L47.1765 76.3367L47.1777 76.3374L47.1863 76.3427C47.2872 76.4003 47.2966 76.5365 47.2137 76.6087Z" fill="#FF863F"/>
<path d="M41.4374 73.0503L40.616 75.446L40.5286 75.7006L40.089 76.9836C40.0725 77.0303 40.0316 77.0643 39.9829 77.0722L38.1802 77.3494L37.9141 77.3896L32.4728 78.2261C32.4259 78.1511 32.4466 78.046 32.5314 77.9977L32.6462 77.9322L39.8623 76.8226L40.309 75.5186L40.3098 75.5182L40.3134 75.5082L40.3138 75.5062L41.1518 73.0622L41.2219 73.0217C41.2733 72.9927 41.3367 72.9927 41.3881 73.0217L41.4374 73.0503Z" fill="#FE4D00"/>
<path d="M38.2901 81.6963L38.2889 81.7182C38.2447 81.7302 38.1966 81.724 38.1567 81.6997L38.0211 81.6175L37.9155 77.3906L37.9141 77.3325C37.9122 77.2589 37.9711 77.1986 38.0444 77.1967H38.0478C38.1199 77.1967 38.1793 77.2536 38.1814 77.3258L38.1819 77.3503L38.2901 81.6963Z" fill="#FE4D00"/>
<path d="M47.2135 76.6084L40.5283 75.7012L40.4191 75.6867C40.3463 75.6769 40.2949 75.6105 40.305 75.5379L40.3088 75.5193L40.3095 75.5188L40.3131 75.5088L40.3136 75.5069C40.335 75.4519 40.3931 75.4162 40.4558 75.4247L40.6158 75.4466L47.1763 76.3364L47.1775 76.3371L47.1861 76.3424C47.287 76.4 47.2963 76.5362 47.2135 76.6084Z" fill="#FE4D00"/>
<path d="M13.4039 95.6954C13.4039 96.5068 11.0689 97.1641 8.1882 97.1641C5.30776 97.1641 2.97266 96.5068 2.97266 95.6954C2.97266 94.8841 5.30776 94.2264 8.1882 94.2264C11.0689 94.2264 13.4039 94.8841 13.4039 95.6954Z" fill="#DEDBD9"/>
<path d="M13.3552 87.6701L11.1687 94.9223C11.0785 95.2839 10.8305 95.5848 10.4948 95.7515C8.83879 96.5716 7.18339 96.5719 5.52874 95.7515C5.19327 95.5849 4.94538 95.2839 4.85522 94.9228L2.63403 87.7403L8.01198 86.9206L13.3552 87.6701Z" fill="#4C4D7D"/>
<path d="M13.404 87.2905C13.404 88.8526 10.9901 90.1187 8.01256 90.1187C5.035 90.1187 2.62109 88.8526 2.62109 87.2905C2.62109 85.7286 5.035 84.4621 8.01256 84.4621C10.9901 84.4621 13.404 85.7286 13.404 87.2905Z" fill="#3A3B5A"/>
<path d="M11.7409 87.2902C11.7409 88.2019 10.0717 88.9414 8.01259 88.9414C5.95349 88.9414 4.2843 88.2019 4.2843 87.2902C4.2843 86.3783 5.95349 85.6392 8.01259 85.6392C10.0717 85.6392 11.7409 86.3783 11.7409 87.2902Z" fill="#2A2A3F"/>
<path d="M5.85751 87.4419H8.73187C10.0017 87.0434 13.8594 84.627 13.1828 82.5705C11.7586 78.239 13.9519 79.8311 14.5595 78.1919C16.0008 74.3065 11.8261 75.1148 14.5802 71.6826C17.334 68.2504 14.7289 66.2103 12.6451 68.0423C10.5606 69.874 10.9331 72.605 8.92343 74.0816C6.9137 75.5578 9.8905 77.5507 8.69978 79.7654C7.50906 81.9799 6.46639 81.389 5.871 83.8987C5.51217 85.4127 5.37894 86.7293 5.85751 87.4419Z" fill="#FE4D00"/>
<path d="M7.65332 87.4419H7.86683C8.05428 84.9943 9.17811 82.2252 10.1095 81.5007C11.321 80.5592 11.7667 78.7554 11.3665 76.4216C10.9983 74.2767 12.4269 72.0675 12.4418 72.0458C12.474 71.997 12.4596 71.9313 12.4106 71.8986C12.3614 71.8672 12.2952 71.8812 12.2624 71.9298C12.2019 72.0232 10.7733 74.2293 11.1558 76.4568C11.5424 78.7111 11.1244 80.4425 9.97771 81.334C9.01055 82.0854 7.84478 84.9364 7.65332 87.4419Z" fill="#AA232A"/>
<path d="M8.61723 87.4419H6.11888C5.01513 87.0956 1.66204 84.9952 2.25 83.2076C3.48808 79.4429 1.58146 80.8267 1.05354 79.4017C-0.199379 76.0246 3.42926 76.7274 1.03553 73.7439C-1.3582 70.7607 0.906077 68.9873 2.71737 70.5797C4.52936 72.172 4.20549 74.5458 5.95237 75.8293C7.69923 77.1123 5.11177 78.8444 6.14677 80.7693C7.18173 82.6943 8.08801 82.1806 8.60541 84.3622C8.91744 85.6783 9.03321 86.8224 8.61723 87.4419Z" fill="#FF863F"/>
<path d="M7.05709 87.4419H6.87131C6.70855 85.3141 5.73182 82.9075 4.92199 82.2776C3.86918 81.4595 3.48164 79.8916 3.82951 77.8627C4.14951 75.9986 2.90776 74.0785 2.89481 74.0597C2.86695 74.0173 2.87922 73.9602 2.92212 73.9318C2.9648 73.9042 3.02232 73.9166 3.05073 73.959C3.10338 74.04 4.34523 75.9574 4.01273 77.8934C3.67659 79.8531 4.04004 81.358 5.03665 82.1328C5.87725 82.7858 6.89055 85.2639 7.05709 87.4419Z" fill="#FE4D00"/>
</svg>
