<svg width="40" height="40" viewBox="0 0 40 40" fill="none" xmlns="http://www.w3.org/2000/svg">
<circle cx="20" cy="20" r="20" fill="white" fill-opacity="0.25"/>
<path d="M24.75 11.875H17.25C16.0901 11.8762 14.978 12.3376 14.1578 13.1578C13.3376 13.978 12.8762 15.0901 12.875 16.25V23.75C12.8762 24.9099 13.3376 26.022 14.1578 26.8422C14.978 27.6624 16.0901 28.1238 17.25 28.125H24.75C25.9099 28.1238 27.022 27.6624 27.8422 26.8422C28.6624 26.022 29.1238 24.9099 29.125 23.75V16.25C29.1238 15.0901 28.6624 13.978 27.8422 13.1578C27.022 12.3376 25.9099 11.8762 24.75 11.875ZM21 23.75C20.2583 23.75 19.5333 23.5301 18.9166 23.118C18.2999 22.706 17.8193 22.1203 17.5355 21.4351C17.2516 20.7498 17.1774 19.9958 17.3221 19.2684C17.4668 18.541 17.8239 17.8728 18.3483 17.3483C18.8728 16.8239 19.541 16.4668 20.2684 16.3221C20.9958 16.1774 21.7498 16.2516 22.4351 16.5355C23.1203 16.8193 23.706 17.2999 24.118 17.9166C24.5301 18.5333 24.75 19.2583 24.75 20C24.749 20.9942 24.3535 21.9475 23.6505 22.6505C22.9475 23.3535 21.9942 23.749 21 23.75ZM25.6875 16.25C25.5021 16.25 25.3208 16.195 25.1667 16.092C25.0125 15.989 24.8923 15.8426 24.8214 15.6713C24.7504 15.5 24.7318 15.3115 24.768 15.1296C24.8042 14.9477 24.8935 14.7807 25.0246 14.6496C25.1557 14.5185 25.3227 14.4292 25.5046 14.393C25.6865 14.3568 25.875 14.3754 26.0463 14.4464C26.2176 14.5173 26.364 14.6375 26.467 14.7917C26.57 14.9458 26.625 15.1271 26.625 15.3125C26.625 15.5611 26.5262 15.7996 26.3504 15.9754C26.1746 16.1512 25.9361 16.25 25.6875 16.25ZM23.5 20C23.5 20.4945 23.3534 20.9778 23.0787 21.3889C22.804 21.8 22.4135 22.1205 21.9567 22.3097C21.4999 22.4989 20.9972 22.5484 20.5123 22.452C20.0273 22.3555 19.5819 22.1174 19.2322 21.7678C18.8826 21.4181 18.6445 20.9727 18.548 20.4877C18.4516 20.0028 18.5011 19.5001 18.6903 19.0433C18.8795 18.5865 19.2 18.196 19.6111 17.9213C20.0222 17.6466 20.5055 17.5 21 17.5C21.663 17.5 22.2989 17.7634 22.7678 18.2322C23.2366 18.7011 23.5 19.337 23.5 20Z" fill="white"/>
</svg>
