<svg width="141" height="161" viewBox="0 0 141 161" fill="none" xmlns="http://www.w3.org/2000/svg">
<path fill-rule="evenodd" clip-rule="evenodd" d="M167.522 64.2198C167.522 57.3271 164.769 50.7954 159.903 45.9917C160.674 43.5261 161.063 40.9758 161.063 38.385C161.063 25.9222 152.121 15.5136 140.317 13.2248C141.22 10.976 141.687 8.56527 141.687 6.09159C141.687 -1.80294 136.891 -8.59667 130.059 -11.5329C118.678 -20.5977 106.23 -26 96.6784 -26C91.369 -26 86.6606 -23.3891 83.7611 -19.3863C80.8615 -23.3891 76.1531 -26 70.8437 -26C61.2921 -26 48.8442 -20.5977 37.4628 -11.5329C30.6315 -8.59667 25.8347 -1.80294 25.8347 6.09159C25.8347 8.56527 26.3026 10.976 27.2048 13.2248C15.4007 15.5136 6.45868 25.9222 6.45868 38.385C6.45868 40.9758 6.84822 43.5257 7.61923 45.9917C2.75301 50.7954 0 57.3271 0 64.2198C0 69.6079 1.67482 74.6106 4.52633 78.7417C1.563 83.0254 0 88.0224 0 93.2838C0 102.604 5.08097 111.143 13.1257 115.645C12.9872 116.797 12.9174 117.958 12.9174 119.119C12.9174 131.69 21.1179 142.805 33.016 146.593C38.1914 155.451 47.6187 160.898 57.9263 160.898C69.227 160.898 79.0256 154.366 83.7611 144.883C88.4965 154.366 98.2951 160.898 109.596 160.898C119.903 160.898 129.331 155.451 134.506 146.593C146.404 142.805 154.605 131.69 154.605 119.119C154.605 117.958 154.535 116.797 154.396 115.645C162.441 111.143 167.522 102.604 167.522 93.2838C167.522 88.0224 165.959 83.0254 162.996 78.7417C165.847 74.6106 167.522 69.6079 167.522 64.2198ZM57.9263 154.843C49.4376 154.843 41.7025 150.163 37.7393 142.63C37.3465 141.883 36.6611 141.335 35.8469 141.116C25.9114 138.442 18.9724 129.396 18.9724 119.119C18.9724 117.581 19.1274 116.04 19.433 114.539C19.7163 113.148 18.9942 111.746 17.6964 111.169C10.6245 108.025 6.05502 101.004 6.05502 93.2838C6.05502 89.7723 6.96569 86.4158 8.70348 83.4428C13.2229 87.4274 19.1484 89.8527 25.6329 89.8527C27.3049 89.8527 28.6604 88.4976 28.6604 86.8251C28.6604 85.1528 27.3049 83.7976 25.6329 83.7976C14.8376 83.7976 6.05502 75.015 6.05502 64.2198C6.05502 58.4086 8.61912 52.9316 13.0901 49.1948C14.0993 48.3512 14.4485 46.9525 13.954 45.7338C12.9981 43.378 12.5137 40.9055 12.5137 38.385C12.5137 27.5897 21.2963 18.8071 32.0916 18.8071C42.8869 18.8071 51.6695 27.5897 51.6695 38.385C51.6695 40.0574 53.025 41.4125 54.697 41.4125C56.369 41.4125 57.7245 40.0574 57.7245 38.385C57.7245 24.8048 47.1072 13.6632 33.7382 12.8106C32.5263 10.785 31.8898 8.48171 31.8898 6.09159C31.8898 0.694956 35.1659 -3.94965 39.8331 -5.96153C40.0136 -6.01521 40.1904 -6.08545 40.3611 -6.17426C41.8071 -6.72406 43.3729 -7.02761 45.009 -7.02761C50.0778 -7.02761 54.6029 -4.19346 56.8187 0.369598C57.5493 1.87407 59.361 2.50137 60.8646 1.77033C62.3687 1.04009 62.996 -0.771166 62.2654 -2.27523C59.736 -7.48376 54.9489 -11.2274 49.436 -12.5534C57.163 -17.2683 64.7701 -19.945 70.8437 -19.945C76.2969 -19.945 80.7336 -15.5087 80.7336 -10.0551V29.1212C78.0132 26.9632 74.5776 25.6695 70.8437 25.6695C69.1717 25.6695 67.8162 27.0246 67.8162 28.697C67.8162 30.3694 69.1717 31.7245 70.8437 31.7245C76.2969 31.7245 80.7336 36.1608 80.7336 41.6144V114.387C76.9694 109.531 71.6627 105.865 65.4204 104.188C63.8062 103.756 62.1451 104.712 61.7111 106.326C61.2772 107.941 62.2347 109.602 63.8493 110.036C73.7905 112.707 80.7336 121.753 80.7336 132.036C80.7336 144.612 70.5022 154.843 57.9263 154.843ZM149.826 111.169C148.528 111.746 147.806 113.148 148.089 114.54C148.395 116.041 148.55 117.581 148.55 119.119C148.55 129.397 141.611 138.442 131.675 141.116C130.861 141.335 130.175 141.884 129.783 142.63C125.82 150.163 118.085 154.843 109.596 154.843C97.0199 154.843 86.7886 144.612 86.7886 132.036C86.7886 131.185 86.749 130.341 86.6751 129.505C86.747 129.246 86.7886 128.974 86.7886 128.692V28.697C86.7886 23.2434 91.2253 18.8071 96.6784 18.8071C98.3504 18.8071 99.7059 17.452 99.7059 15.7796C99.7059 14.1072 98.3504 12.7521 96.6784 12.7521C92.9445 12.7521 89.5089 14.0459 86.7886 16.2039V-10.0551C86.7886 -15.5087 91.2253 -19.945 96.6784 -19.945C102.752 -19.945 110.359 -17.2683 118.086 -12.5534C112.573 -11.2278 107.786 -7.48376 105.257 -2.27523C104.526 -0.770763 105.153 1.04049 106.658 1.77033C108.162 2.50097 109.973 1.87407 110.703 0.369598C112.919 -4.19346 117.444 -7.02761 122.513 -7.02761C124.149 -7.02761 125.715 -6.72406 127.161 -6.17426C127.331 -6.08545 127.508 -6.01562 127.688 -5.96193C132.356 -3.95005 135.632 0.694551 135.632 6.09159C135.632 8.48171 134.996 10.785 133.784 12.8106C120.415 13.6632 109.798 24.8048 109.798 38.385C109.798 40.0574 111.153 41.4125 112.825 41.4125C114.497 41.4125 115.853 40.0574 115.853 38.385C115.853 27.5897 124.635 18.8071 135.431 18.8071C146.226 18.8071 155.008 27.5897 155.008 38.385C155.008 40.9055 154.524 43.378 153.569 45.7338C153.074 46.9529 153.423 48.3512 154.432 49.1948C158.903 52.9316 161.467 58.4086 161.467 64.2198C161.467 75.015 152.685 83.7976 141.889 83.7976C140.217 83.7976 138.862 85.1528 138.862 86.8251C138.862 88.4976 140.217 89.8527 141.889 89.8527C148.374 89.8527 154.299 87.4274 158.819 83.4428C160.557 86.4158 161.467 89.7723 161.467 93.2838C161.467 101.004 156.898 108.025 149.826 111.169ZM38.5504 74.1095C44.8218 74.1095 50.0767 69.6849 51.3648 63.7942C38.8003 62.1545 29.0642 51.3891 29.0642 38.3849C29.0642 36.7125 30.4197 35.3574 32.0917 35.3574C33.7637 35.3574 35.1192 36.7125 35.1192 38.3849C35.1192 49.1802 43.9018 57.9628 54.6971 57.9628C60.0025 57.9628 64.9692 55.8755 68.6826 52.085C69.8528 50.8906 71.7698 50.872 72.9639 52.0414C74.1583 53.2112 74.1781 55.1283 73.0079 56.3227C68.8089 60.6085 63.3848 63.2266 57.5091 63.862C56.1188 73.0774 48.1472 80.1646 38.5504 80.1646C36.8784 80.1646 35.5229 78.8094 35.5229 77.137C35.5229 75.4646 36.8784 74.1095 38.5504 74.1095ZM61.1558 87.0273C62.8278 87.0273 64.1833 88.3825 64.1833 90.0549C64.1833 91.7272 62.8278 93.0824 61.1558 93.0824C50.3605 93.0824 41.5779 101.865 41.5779 112.66C41.5779 113.353 41.6146 114.046 41.6865 114.732C51.0794 118.539 57.7246 127.753 57.7246 138.495C57.7246 140.167 56.3691 141.522 54.6971 141.522C53.0251 141.522 51.6696 140.167 51.6696 138.495C51.6696 127.7 42.887 118.917 32.0917 118.917C30.4197 118.917 29.0642 117.562 29.0642 115.89C29.0642 114.217 30.4197 112.862 32.0917 112.862C33.2583 112.862 34.4047 112.948 35.5306 113.099C35.5299 113.061 35.5291 113.023 35.5282 112.985L35.5273 112.945C35.5251 112.85 35.5229 112.755 35.5229 112.66C35.5229 98.5262 47.0218 87.0273 61.1558 87.0273ZM122.616 60.5647C123.904 66.4554 129.159 70.88 135.431 70.88C137.103 70.88 138.458 72.2352 138.458 73.9075C138.458 75.5799 137.103 76.9351 135.431 76.9351C125.834 76.9351 117.862 69.8479 116.472 60.6325C110.596 59.9972 105.172 57.379 100.973 53.0932C99.8028 51.8988 99.8226 49.9822 101.017 48.8119C102.212 47.6417 104.129 47.6615 105.298 48.8555C109.012 52.646 113.978 54.7333 119.284 54.7333C130.079 54.7333 138.862 45.9507 138.862 35.1554C138.862 33.483 140.217 32.1279 141.889 32.1279C143.561 32.1279 144.917 33.483 144.917 35.1554C144.917 48.1596 135.181 58.925 122.616 60.5647ZM125.742 106.403C124.576 106.403 123.429 106.489 122.304 106.64C122.304 106.589 122.306 106.537 122.307 106.486C122.309 106.391 122.311 106.296 122.311 106.201C122.311 92.0671 110.812 80.5683 96.6783 80.5683C95.0063 80.5683 93.6508 81.9234 93.6508 83.5958C93.6508 85.2682 95.0063 86.6233 96.6783 86.6233C107.474 86.6233 116.256 95.4059 116.256 106.201C116.256 106.893 116.219 107.587 116.148 108.273C106.755 112.08 100.109 121.294 100.109 132.036C100.109 133.708 101.465 135.063 103.137 135.063C104.809 135.063 106.164 133.708 106.164 132.036C106.164 121.241 114.947 112.458 125.742 112.458C127.414 112.458 128.77 111.103 128.77 109.431C128.77 107.758 127.414 106.403 125.742 106.403Z" fill="#F9976A" fill-opacity="0.1"/>
</svg>
