<svg width="156" height="180" viewBox="0 0 156 180" fill="none" xmlns="http://www.w3.org/2000/svg">
<path d="M19.2426 31.0755C13.9453 64.163 36.4862 95.3703 69.4897 100.643C81.944 102.632 94.1348 100.646 104.773 95.6272L110.5 103.556C110.251 104.141 110.062 104.756 109.959 105.401C109.631 107.451 110.116 109.503 111.325 111.176L156.552 173.793C157.762 175.468 159.554 176.57 161.599 176.896C163.644 177.223 165.691 176.734 167.363 175.52L179.376 166.796C181.049 165.582 182.15 163.784 182.478 161.734C182.806 159.684 182.321 157.632 181.112 155.958L135.885 93.3421C134.23 91.0516 131.549 89.9458 128.921 90.1805L123.193 82.251C131.268 73.6808 136.952 62.6859 138.951 50.1999C144.248 17.1134 121.707 -14.0942 88.7033 -19.3666C55.6995 -24.6394 24.5397 -2.011 19.2426 31.0755ZM129.744 97.8019L174.971 160.417C174.98 160.43 175.007 160.467 174.995 160.538C174.984 160.611 174.946 160.638 174.934 160.647L162.92 169.37C162.908 169.379 162.871 169.406 162.8 169.394C162.729 169.383 162.702 169.346 162.693 169.334L117.466 106.718C117.458 106.705 117.431 106.668 117.442 106.597C117.454 106.525 117.491 106.498 117.503 106.489L119.858 104.779L129.517 97.765C129.583 97.7189 129.697 97.7371 129.744 97.8019ZM122.137 93.7482L115.998 98.2062L111.558 92.0589L117.697 87.6002L122.137 93.7482ZM131.467 49.0037C126.832 77.954 99.5682 97.754 70.6907 93.1407C41.8133 88.5275 22.0907 61.2213 26.7256 32.2709C31.3605 3.32055 58.6246 -16.4787 87.502 -11.8655C116.379 -7.25221 136.102 20.0536 131.467 49.0037Z" fill="#99AEEF" fill-opacity="0.1"/>
<path d="M34.209 33.4421C30.2361 58.2574 47.1421 81.6636 71.8953 85.618C96.6484 89.5724 120.019 72.6008 123.992 47.7851C127.965 22.9698 111.059 -0.436016 86.3054 -4.39039C61.5523 -8.34477 38.1819 8.62681 34.209 33.4421ZM116.509 46.5897C113.198 67.2689 93.7234 81.4113 73.0963 78.1161C52.4696 74.8209 38.3813 55.3167 41.692 34.6375C45.0027 13.9584 64.4773 -0.183719 85.1044 3.11151C105.731 6.40709 119.819 25.9112 116.509 46.5897Z" fill="#99AEEF" fill-opacity="0.1"/>
<path d="M53.5109 32.677C51.4446 32.3469 49.5004 33.7589 49.1688 35.8305C48.0081 43.0799 49.5038 50.4994 53.3794 56.7233C57.2555 62.9469 63.248 67.5495 70.2527 69.6829C72.2545 70.2926 74.3723 69.16 74.9828 67.1528C75.0345 66.9829 75.0736 66.8125 75.1009 66.6419C75.3962 64.7974 74.2961 62.9726 72.4638 62.4138C61.659 59.1227 54.8613 48.2087 56.6516 37.0259C56.9837 34.9543 55.5776 33.0071 53.5109 32.677Z" fill="#99AEEF" fill-opacity="0.1"/>
<path d="M83.2178 14.0756C82.6074 16.08 83.7344 18.2044 85.7369 18.8142C96.5409 22.1055 103.338 33.0202 101.548 44.202C101.216 46.2736 102.622 48.2208 104.689 48.551C106.755 48.8811 108.7 47.4694 109.031 45.3974C110.192 38.1487 108.696 30.7289 104.821 24.505C100.944 18.2817 94.9522 13.6792 87.948 11.5451C85.9463 10.9351 83.8284 12.0684 83.2178 14.0756Z" fill="#99AEEF" fill-opacity="0.1"/>
<path d="M81.2475 63.3075C79.1648 63.5171 77.6439 65.3788 77.8519 67.467C78.0591 69.5543 79.9153 71.0754 81.998 70.8658L82.0389 70.8619C82.1123 70.8548 82.1854 70.8474 82.2591 70.8386C83.9808 70.6327 85.2983 69.3006 85.5601 67.665C85.6143 67.3267 85.6231 66.9748 85.5811 66.6172C85.3355 64.5346 83.4548 63.0467 81.3764 63.2949L81.2475 63.3075Z" fill="#99AEEF" fill-opacity="0.1"/>
<path d="M76.9538 17.9212C78.7023 17.7448 80.0544 16.4035 80.3204 14.7422C80.3712 14.4247 80.3824 14.0962 80.3489 13.7617C80.1417 11.6747 78.2856 10.1529 76.2028 10.3632L76.1648 10.3669C76.0856 10.3741 76.0067 10.382 75.9274 10.3921C73.8499 10.6483 72.3654 12.545 72.6183 14.6271C72.8719 16.7095 74.7549 18.1898 76.8324 17.9332L76.9538 17.9212Z" fill="#99AEEF" fill-opacity="0.1"/>
</svg>
