<svg width="148" height="180" viewBox="0 0 148 180" fill="none" xmlns="http://www.w3.org/2000/svg">
<path d="M19.2426 31.0753C13.9453 64.1628 36.4862 95.3701 69.4897 100.642C81.944 102.632 94.1348 100.646 104.773 95.6271L110.5 103.556C110.251 104.14 110.062 104.756 109.959 105.401C109.631 107.451 110.116 109.502 111.325 111.176L156.552 173.793C157.762 175.468 159.554 176.569 161.599 176.896C163.644 177.223 165.691 176.734 167.363 175.52L179.376 166.796C181.049 165.581 182.15 163.784 182.478 161.734C182.806 159.684 182.321 157.632 181.112 155.958L135.885 93.3419C134.23 91.0515 131.549 89.9456 128.921 90.1803L123.193 82.2508C131.268 73.6806 136.952 62.6857 138.951 50.1997C144.248 17.1132 121.707 -14.0944 88.7033 -19.3668C55.6995 -24.6396 24.5397 -2.01119 19.2426 31.0753ZM129.744 97.8017L174.971 160.417C174.98 160.429 175.007 160.467 174.995 160.538C174.984 160.611 174.946 160.638 174.934 160.647L162.92 169.37C162.908 169.379 162.871 169.406 162.8 169.394C162.729 169.383 162.702 169.345 162.693 169.334L117.466 106.717C117.458 106.705 117.431 106.668 117.442 106.597C117.454 106.525 117.491 106.497 117.503 106.489L119.858 104.779L129.517 97.7648C129.583 97.7187 129.697 97.7369 129.744 97.8017ZM122.137 93.748L115.998 98.2061L111.558 92.0587L117.697 87.6L122.137 93.748ZM131.467 49.0035C126.832 77.9538 99.5682 97.7538 70.6907 93.1406C41.8133 88.5273 22.0907 61.2211 26.7256 32.2707C31.3605 3.32037 58.6246 -16.4789 87.502 -11.8656C116.379 -7.2524 136.102 20.0535 131.467 49.0035Z" fill="white" fill-opacity="0.5"/>
<path d="M34.209 33.4419C30.2361 58.2572 47.1421 81.6634 71.8953 85.6178C96.6484 89.5722 120.019 72.6006 123.992 47.7849C127.965 22.9696 111.059 -0.436199 86.3054 -4.39057C61.5523 -8.34495 38.1819 8.62663 34.209 33.4419ZM116.509 46.5895C113.198 67.2687 93.7234 81.4111 73.0963 78.1159C52.4696 74.8207 38.3813 55.3165 41.692 34.6374C45.0027 13.9582 64.4773 -0.183903 85.1044 3.11133C105.731 6.40691 119.819 25.911 116.509 46.5895Z" fill="white" fill-opacity="0.5"/>
<path d="M53.5109 32.6768C51.4446 32.3467 49.5004 33.7587 49.1688 35.8303C48.0081 43.0797 49.5038 50.4992 53.3794 56.7231C57.2555 62.9467 63.248 67.5493 70.2527 69.6827C72.2545 70.2924 74.3723 69.1599 74.9828 67.1526C75.0345 66.9827 75.0736 66.8123 75.1009 66.6417C75.3962 64.7972 74.2961 62.9725 72.4638 62.4136C61.659 59.1226 54.8613 48.2085 56.6516 37.0257C56.9837 34.9541 55.5776 33.007 53.5109 32.6768Z" fill="white" fill-opacity="0.5"/>
<path d="M83.2178 14.0754C82.6074 16.0798 83.7344 18.2042 85.7369 18.814C96.5409 22.1054 103.338 33.02 101.548 44.2018C101.216 46.2734 102.622 48.2206 104.689 48.5508C106.755 48.8809 108.7 47.4692 109.031 45.3972C110.192 38.1485 108.696 30.7287 104.821 24.5048C100.944 18.2815 94.9522 13.679 87.948 11.545C85.9463 10.9349 83.8284 12.0682 83.2178 14.0754Z" fill="white" fill-opacity="0.5"/>
<path d="M81.2475 63.3073C79.1648 63.5169 77.6439 65.3786 77.8519 67.4668C78.0591 69.5541 79.9153 71.0752 81.998 70.8656L82.0389 70.8617C82.1123 70.8547 82.1854 70.8472 82.2591 70.8384C83.9808 70.6325 85.2983 69.3004 85.5601 67.6648C85.6143 67.3266 85.6231 66.9746 85.5811 66.617C85.3355 64.5344 83.4548 63.0466 81.3764 63.2947L81.2475 63.3073Z" fill="white" fill-opacity="0.5"/>
<path d="M76.9538 17.9211C78.7023 17.7446 80.0544 16.4033 80.3204 14.742C80.3712 14.4245 80.3824 14.096 80.3489 13.7615C80.1417 11.6745 78.2856 10.1527 76.2028 10.363L76.1648 10.3667C76.0856 10.3739 76.0067 10.3818 75.9274 10.3919C73.8499 10.6481 72.3654 12.5449 72.6183 14.6269C72.8719 16.7094 74.7549 18.1896 76.8324 17.9331L76.9538 17.9211Z" fill="white" fill-opacity="0.5"/>
</svg>
