<svg width="144" height="155" viewBox="0 0 144 155" fill="none" xmlns="http://www.w3.org/2000/svg">
<path fill-rule="evenodd" clip-rule="evenodd" d="M10.6595 77.2813C10.6595 94.9505 17.6785 111.896 30.1725 124.39C42.6665 136.884 59.6121 143.903 77.2812 143.903C86.0301 143.903 94.6934 142.18 102.776 138.832C110.859 135.484 118.204 130.576 124.39 124.39C130.576 118.204 135.484 110.859 138.832 102.776C142.18 94.6934 143.903 86.0302 143.903 77.2813C143.903 70.8998 143.008 64.7315 141.338 58.8972C141.006 57.5576 141.206 56.1415 141.897 54.9468C142.588 53.7521 143.716 52.8721 145.042 52.4918C146.369 52.1116 147.792 52.2608 149.011 52.9081C150.23 53.5554 151.15 54.6503 151.578 55.9623C153.525 62.7418 154.562 69.8907 154.562 77.2813C154.562 119.962 119.962 154.563 77.2812 154.563C34.6007 154.563 0 119.962 0 77.2813C0 34.6007 34.6007 3.75346e-05 77.2812 3.75346e-05C84.4942 -0.00706879 91.6644 0.994923 98.6002 2.97759C99.2765 3.16728 99.9086 3.48878 100.46 3.92358C101.012 4.35838 101.472 4.89792 101.814 5.51118C102.157 6.12444 102.375 6.79932 102.455 7.49703C102.536 8.19474 102.478 8.90152 102.284 9.57673C102.091 10.2519 101.766 10.8823 101.328 11.4315C100.891 11.9807 100.348 12.438 99.7334 12.777C99.1182 13.116 98.4422 13.3301 97.744 13.407C97.0459 13.4838 96.3394 13.422 95.6653 13.2249C89.6867 11.5175 83.4989 10.654 77.2812 10.6595C59.6121 10.6595 42.6665 17.6786 30.1725 30.1726C17.6785 42.6666 10.6595 59.6121 10.6595 77.2813ZM135.354 39.9736H122.129L89.682 72.4069C90.7996 75.255 90.9023 78.4011 89.9731 81.3161C89.0438 84.2311 87.1391 86.7373 84.5793 88.4131C82.0196 90.0889 78.9608 90.8323 75.9174 90.5181C72.8741 90.2039 70.0317 88.8514 67.8682 86.688C65.7048 84.5245 64.3523 81.6821 64.0381 78.6388C63.7239 75.5954 64.4673 72.5366 66.1431 69.9769C67.8189 67.4171 70.3251 65.5124 73.2401 64.5831C76.1551 63.6539 79.3012 63.7566 82.1493 64.8742L114.59 32.4338V19.209C114.59 17.4393 115.293 15.7423 116.544 14.4904L128.838 2.19642C129.065 1.96678 129.351 1.80366 129.664 1.72474C129.977 1.64582 130.306 1.65412 130.614 1.74872C131.247 1.93349 131.716 2.45936 131.844 3.10603L135.113 19.4577L151.457 22.7266C152.097 22.8545 152.623 23.3235 152.807 23.956C152.901 24.2632 152.909 24.59 152.832 24.9016C152.754 25.2131 152.593 25.4979 152.367 25.7255L140.066 38.0194C139.447 38.6388 138.713 39.1302 137.905 39.4655C137.096 39.8009 136.23 39.9735 135.354 39.9736ZM45.515 90.9576C43.6368 86.6419 42.6579 81.9886 42.6381 77.2819C42.6388 72.3962 43.6727 67.5658 45.672 63.1079C47.6713 58.6499 50.5908 54.6652 54.2388 51.4151C57.8868 48.1651 62.1808 45.7233 66.8391 44.2499C71.4974 42.7765 76.4146 42.3049 81.268 42.866C81.971 42.9613 82.6859 42.9153 83.3708 42.7306C84.0557 42.546 84.6969 42.2265 85.2567 41.7909C85.8166 41.3553 86.2838 40.8123 86.6311 40.1937C86.9784 39.5752 87.1987 38.8935 87.2791 38.1887C87.3595 37.4839 87.2984 36.7702 87.0994 36.0893C86.9004 35.4084 86.5675 34.7741 86.1201 34.2236C85.6728 33.673 85.1201 33.2173 84.4943 32.8832C83.8686 32.549 83.1824 32.3431 82.4761 32.2776C73.1327 31.2026 63.6863 33.0618 55.4471 37.5973C47.2079 42.1328 40.5843 49.1198 36.4948 57.5892C32.4054 66.0586 31.0528 75.5908 32.6247 84.8635C34.1967 94.1363 38.6152 102.69 45.2674 109.339C51.9215 115.994 60.4838 120.412 69.7643 121.977C79.0447 123.542 88.5821 122.177 97.051 118.071C105.52 113.966 112.499 107.324 117.019 99.0688C121.539 90.8138 123.375 81.3556 122.272 72.0091C122.115 70.0619 120.914 68.3635 119.131 67.5676C118.257 67.1726 117.292 67.0214 116.34 67.1298C115.387 67.2383 114.481 67.6024 113.719 68.1836C112.956 68.7649 112.365 69.5416 112.008 70.4315C111.651 71.3214 111.541 72.2913 111.69 73.2384C112.22 77.9153 111.791 82.651 110.429 87.1564C109.067 91.6619 106.802 95.8425 103.77 99.4431C100.739 103.044 97.0056 105.989 92.7982 108.098C88.5907 110.208 83.9974 111.438 79.2987 111.713C74.6 111.988 69.8946 111.303 65.4696 109.699C61.0447 108.095 56.9931 105.605 53.5622 102.383C50.1314 99.161 47.3933 95.2733 45.515 90.9576Z" fill="white" fill-opacity="0.5"/>
</svg>
