<svg width="133" height="145" viewBox="0 0 133 145" fill="none" xmlns="http://www.w3.org/2000/svg">
<g clip-path="url(#clip0_2047_7217)">
<mask id="mask0_2047_7217" style="mask-type:alpha" maskUnits="userSpaceOnUse" x="-134" y="-4" width="281" height="387">
<rect x="-134" y="-4" width="281" height="387" rx="16" fill="#FEAF64"/>
</mask>
<g mask="url(#mask0_2047_7217)">
<path d="M60.1237 13.3334C68.8528 13.3334 76.7575 16.8869 82.4746 22.6147C88.1884 28.3456 91.7302 36.2696 91.7302 45.0168C91.7302 53.7672 88.1884 61.6912 82.4746 67.4221C76.7575 73.1499 68.8528 76.7003 60.1237 76.7003C51.3977 76.7003 43.4898 73.1499 37.7759 67.4221C32.062 61.6912 28.5171 53.7672 28.5171 45.0168C28.5171 36.2696 32.062 28.3456 37.7759 22.6147C43.4898 16.8869 51.3977 13.3334 60.1237 13.3334ZM110 87.5401L114.877 98.9736L127.233 100.083C127.788 100.127 128.182 100.607 128.139 101.164C128.114 101.431 127.998 101.66 127.8 101.833L118.45 110.011L121.215 122.146C121.337 122.689 120.999 123.214 120.463 123.339C120.19 123.396 119.908 123.339 119.698 123.198L109.069 116.829L98.4095 123.226C97.9393 123.512 97.3281 123.352 97.0461 122.887C96.9019 122.658 96.8799 122.387 96.9332 122.146L99.7008 110.011L90.3417 101.833C89.9343 101.475 89.8935 100.837 90.2446 100.422C90.442 100.212 90.7022 100.114 90.9529 100.102L103.286 98.9862L108.16 87.5401C108.37 87.0279 108.95 86.7985 109.464 87.0153C109.718 87.1127 109.903 87.3107 110 87.5401ZM109.076 68.9554C119.541 68.9554 129.029 73.2127 135.893 80.0905C142.754 86.9714 147.001 96.482 147.001 106.976C147.001 117.467 142.754 126.984 135.893 133.862L135.689 134.054C128.844 140.818 119.438 145 109.076 145C98.6195 145 89.1256 140.736 82.2646 133.862C75.3941 126.972 71.1408 117.455 71.1408 106.976C71.1408 96.4883 75.3941 86.9839 82.252 80.1062C89.1131 73.2127 98.6069 68.9554 109.076 68.9554ZM130.721 85.2778C125.183 79.726 117.523 76.2918 109.076 76.2918C100.625 76.2918 92.9589 79.726 87.4237 85.2778C81.8947 90.8203 78.4626 98.5055 78.4626 106.976C78.4626 115.45 81.8947 123.135 87.4174 128.684C92.9526 134.223 100.619 137.66 109.076 137.66C117.444 137.66 125.042 134.289 130.565 128.844L130.721 128.678C136.257 123.129 139.682 115.444 139.682 106.976C139.682 98.5055 136.257 90.8265 130.721 85.2778ZM61.9134 136.658C64.2861 135.15 66.5867 133.541 68.8152 131.857C70.0814 133.912 71.495 135.86 73.0496 137.692C70.1473 139.869 67.1352 141.93 64.0071 143.844C62.8474 144.702 61.2238 144.808 59.9325 143.992C45.8687 135.034 34.0492 124.222 24.7402 112.512C11.9271 96.3878 3.84367 78.5069 1.07919 61.2953C-1.72917 43.8418 0.903669 27.0386 9.56382 13.3774C12.9771 7.98892 17.3464 3.07805 22.6873 -1.18559C34.9049 -10.9476 48.8996 -16.1162 62.7784 -15.9968C76.1589 -15.8868 89.4108 -10.8817 100.854 -0.412665C104.866 3.26342 108.248 7.43279 111 11.9855C119.325 25.763 121.82 42.9652 119.322 60.6826C116.999 60.1705 114.63 59.8312 112.197 59.6678C114.476 43.5401 112.279 28.0094 104.854 15.7244C102.472 11.7875 99.5253 8.15544 96.0023 4.9318C85.9286 -4.28041 74.3504 -8.69171 62.7158 -8.78283C50.5013 -8.88337 38.1019 -4.26784 27.1662 4.46993C22.4992 8.19315 18.669 12.507 15.6632 17.2514C7.97785 29.3762 5.65844 44.4293 8.18785 60.1705C10.7549 76.1568 18.3399 92.8688 30.382 108.019C38.7758 118.576 49.3478 128.376 61.9134 136.658ZM77.375 27.7267C72.9681 23.3091 66.8593 20.5599 60.1237 20.5599C53.3911 20.5599 47.2823 23.3091 42.8755 27.7267C38.4686 32.1443 35.7261 38.2679 35.7261 45.0168C35.7261 51.7689 38.4686 57.8926 42.8755 62.3102C47.2823 66.7278 53.3911 69.4738 60.1237 69.4738C66.8593 69.4738 72.9681 66.7278 77.375 62.3102C81.7819 57.8926 84.5213 51.7689 84.5213 45.0168C84.5213 38.2679 81.7819 32.1443 77.375 27.7267Z" fill="#5798AC" fill-opacity="0.1"/>
</g>
</g>
<defs>
<clipPath id="clip0_2047_7217">
<rect width="147" height="161" fill="white" transform="translate(0 -16)"/>
</clipPath>
</defs>
</svg>
