<svg width="126" height="142" viewBox="0 0 126 142" fill="none" xmlns="http://www.w3.org/2000/svg">
<path d="M159.396 133.778L119.395 54.258C118.92 53.3147 118.191 52.5214 117.288 51.9669C116.386 51.4125 115.345 51.1188 114.284 51.1188C113.223 51.1188 112.183 51.4125 111.28 51.9669C110.378 52.5214 109.648 53.3147 109.174 54.258L93.6661 85.0932C81.5108 84.4138 69.8156 80.2404 60.0011 73.0801C71.5163 60.8572 78.4933 45.0963 79.7801 28.3999H97.1447C98.6603 28.3999 100.114 27.8015 101.185 26.7363C102.257 25.6711 102.859 24.2263 102.859 22.7199C102.859 21.2135 102.257 19.7688 101.185 18.7036C100.114 17.6384 98.6603 17.0399 97.1447 17.0399H57.1439V5.67998C57.1439 4.17356 56.5419 2.72883 55.4702 1.66363C54.3986 0.598425 52.9451 0 51.4296 0C49.914 0 48.4605 0.598425 47.3889 1.66363C46.3172 2.72883 45.7152 4.17356 45.7152 5.67998V17.0399H5.71439C4.19884 17.0399 2.74536 17.6384 1.67371 18.7036C0.60205 19.7688 0 21.2135 0 22.7199C0 24.2263 0.60205 25.6711 1.67371 26.7363C2.74536 27.8015 4.19884 28.3999 5.71439 28.3999H68.3084C67.0357 42.3205 61.0909 55.4114 51.4296 65.5683C45.4091 59.254 40.786 51.7564 37.8579 43.5584C37.6171 42.8431 37.2354 42.1826 36.7351 41.6156C36.2348 41.0485 35.6258 40.5861 34.9438 40.2555C34.2618 39.9248 33.5204 39.7325 32.7628 39.6897C32.0052 39.647 31.2466 39.7546 30.5313 40.0064C29.816 40.2582 29.1583 40.649 28.5966 41.1561C28.0349 41.6633 27.5805 42.2765 27.2598 42.9601C26.9391 43.6437 26.7586 44.3839 26.7288 45.1376C26.699 45.8912 26.8205 46.6433 27.0862 47.3497C30.4953 56.9338 35.8655 65.7116 42.858 73.1298C32.0918 80.9936 19.0748 85.2235 5.71439 85.1997C4.19884 85.1997 2.74536 85.7981 1.67371 86.8633C0.60205 87.9285 0 89.3733 0 90.8797C0 92.3861 0.60205 93.8309 1.67371 94.8961C2.74536 95.9613 4.19884 96.5597 5.71439 96.5597C22.2903 96.578 38.3912 91.0567 51.4296 80.8829C62.0696 89.1464 74.7711 94.3765 88.1731 96.013L69.1727 133.778C68.4945 135.125 68.3826 136.685 68.8615 138.114C69.3404 139.544 70.3709 140.725 71.7264 141.4C73.0818 142.074 74.6512 142.185 76.0892 141.709C77.5273 141.233 78.7162 140.209 79.3944 138.861L89.2446 119.28H139.324L149.174 138.861C149.649 139.805 150.379 140.598 151.283 141.153C152.186 141.707 153.227 142 154.289 142C155.263 141.999 156.22 141.751 157.071 141.279C157.921 140.807 158.636 140.127 159.148 139.304C159.66 138.48 159.951 137.54 159.994 136.573C160.038 135.606 159.832 134.643 159.396 133.778ZM94.959 107.92L114.288 69.5017L133.61 107.92H94.959Z" fill="#0F3F76" fill-opacity="0.1"/>
</svg>
