<svg width="117" height="48" viewBox="0 0 1328 545" fill="none" xmlns="http://www.w3.org/2000/svg">
<g clip-path="url(#clip0_6330_53977)">
<path d="M1104 122.23C1104.44 138.06 1103.64 153.85 1102.88 169.65C1102.71 173.24 1102.39 176.97 1097.71 176.9C1093.3 176.84 1093.33 173.24 1093.05 169.9C1091.81 153.931 1091.52 137.903 1092.18 121.9C1092.75 105.83 1076.94 92.96 1064.18 93.02C1047.43 93.1 1035 104.42 1034.32 121.02C1034.17 124.42 1034.32 127.84 1034.03 131.22C1033.32 138.43 1029.5 142.22 1022.36 142.41C1012.55 142.67 1002.73 142.48 992.909 142.64C988.719 142.71 986.909 140.8 986.149 136.74C978.399 93.19 990.249 56.12 1023.68 26.95C1043 10.16 1065.61 1.10999 1091.63 0.109987C1120.56 -1.01001 1146.26 6.57999 1168.81 24.66C1188.67 40.58 1201.81 60.84 1207.92 85.66C1213.23 107.39 1212.58 128.81 1205.27 150.06C1203.27 155.83 1200.27 158.61 1193.92 158.12C1187.75 157.64 1181.51 158.12 1175.3 157.96C1166.12 157.73 1162.03 153.81 1161.91 144.63C1161.68 128.2 1161.91 111.77 1161.67 95.34C1161.47 80.9 1150.9 69.26 1136.31 66.99C1123.31 64.99 1109.67 73.36 1105.15 86.31C1103.04 92.31 1104.28 98.63 1104.08 104.8C1103.89 110.6 1104 116.42 1104 122.23ZM1080 68C1079.92 63.5499 1078.13 59.3018 1074.99 56.1444C1071.86 52.9871 1067.62 51.1652 1063.17 51.06C1054.41 51.06 1045.72 59.22 1045.57 67.58C1045.58 72.2498 1047.4 76.7338 1050.65 80.0849C1053.9 83.4361 1058.33 85.3921 1063 85.54C1072 85.66 1079.93 77.48 1080 68ZM1131.85 59.2C1136.48 59.2536 1140.94 57.4751 1144.26 54.2528C1147.57 51.0304 1149.49 46.6257 1149.57 42C1149.57 33.32 1140.66 24.68 1131.95 24.86C1123.55 25.04 1115.15 33.68 1115.17 42.11C1115.2 51 1123.13 59.21 1131.82 59.22L1131.85 59.2Z" fill="#F26F21"/>
<path d="M1120.89 134.41C1120.89 122.41 1120.82 110.41 1120.89 98.3499C1120.97 89.2799 1124.51 84.8799 1131.63 84.5799C1138.93 84.2599 1142.98 88.2199 1144 96.8899C1145.91 113.07 1144.62 129.31 1144.9 145.52C1145.21 163.52 1156.27 174.74 1174.2 174.98C1178 175.028 1181.79 175.312 1185.56 175.83C1191.05 176.59 1191.3 177.58 1187.75 182.11C1173.13 200.76 1154.69 214.11 1132.08 221.22C1127.44 222.68 1126.29 224.7 1126.71 229.3C1127.3 236.933 1125.92 244.589 1122.71 251.54C1121.09 255.23 1118.96 255.17 1117.41 251.75C1110.35 236.12 1096.24 230.69 1081.25 226.75C1055.9 220.04 1032.25 210.3 1014.18 190.28C1007.63 183.232 1002.04 175.347 997.56 166.83C995.19 162.17 995.95 160.72 1001.22 160.56C1009.62 160.32 1018.01 160.45 1026.41 159.46C1040.03 157.87 1050.87 146.64 1051.14 133.03C1051.21 129.62 1051.08 126.21 1051.24 122.81C1051.59 115.38 1056.5 110.27 1063.12 110.24C1069.74 110.21 1074.9 115.39 1074.99 122.76C1075.2 138.58 1075.7 154.44 1074.99 170.24C1074.39 183.87 1086.17 195.38 1097.99 195.17C1110.75 194.94 1120.49 184.67 1120.69 170.5C1120.86 158.5 1120.69 146.5 1120.69 134.43L1120.89 134.41Z" fill="#F26F21"/>
<path d="M1283.46 422.65C1278.02 429.158 1271.51 434.688 1264.21 439C1257.21 443.14 1249.78 445.85 1241.48 445.69C1236.48 445.59 1231.48 445.45 1226.48 445.69C1200.11 447.12 1180.74 434.11 1168.4 412.88C1147.6 377.11 1147.45 339.88 1170.83 305.02C1190.9 275.02 1234.58 265.56 1266.72 285.11C1271.36 287.93 1275.89 290.8 1279.6 294.86C1280.6 295.93 1281.6 297.95 1283.4 297.02C1285.03 296.18 1284.4 294.13 1284.4 292.6C1284.44 271.933 1284.44 251.29 1284.4 230.67C1284.4 221.79 1284.4 221.78 1293.56 221.77C1301.78 221.77 1310 221.77 1318.21 221.77C1327.54 221.77 1327.75 221.98 1327.75 231.09C1327.75 253.757 1327.75 276.403 1327.75 299.03V434.35C1327.75 444.99 1327.33 445.35 1316.48 445.35C1308.06 445.35 1299.63 445.14 1291.23 445.43C1285.91 445.61 1284.13 443.43 1284.31 438.31C1284.45 433.65 1284.91 428.86 1283.46 422.65ZM1239.8 409.47C1252.47 409.65 1262.42 405.76 1270.61 397.47C1285.24 382.7 1288.87 357.26 1278.92 336.96C1271.5 321.81 1259.29 313.6 1242.23 313.19C1224.23 312.75 1211.23 320.79 1202.73 336.56C1197.22 346.78 1196.92 357.86 1198.11 368.81C1200.67 392.36 1218.87 410.21 1239.8 409.47Z" fill="#0F3F76"/>
<path d="M104.16 374.51C86.5199 374.51 68.8899 374.51 51.2499 374.51C44.6899 374.51 43.7899 375.75 45.1499 382.03C50.8499 408.44 83.0499 420.95 105.08 405.26C107.18 403.77 109.63 402.05 110.6 399.85C113.83 392.54 119.65 392 126.48 392.26C135.88 392.62 145.31 392.26 154.73 392.37C161.1 392.43 161.9 393.76 159.35 399.56C149.14 422.86 132.29 439.68 107.11 444.06C76.7999 449.32 46.7399 448.06 23.3099 423.54C8.6199 408.19 1.25991 389.26 0.179905 368.19C-1.25009 340.4 5.73991 315.36 26.6199 295.57C38.3999 284.41 52.9399 279 68.6199 276.31C89.7456 272.45 111.553 276.474 129.91 287.62C148.1 298.46 158.61 315.15 163.43 335.49C165.842 345.448 166.629 355.731 165.76 365.94C165.08 373.52 164.01 374.46 156.49 374.48C139.057 374.48 121.62 374.48 104.18 374.48L104.16 374.51ZM82.3399 345.51H112.4C121.72 345.51 122.97 343.69 119.83 334.88C113.98 318.49 98.4599 309.6 77.8299 310.81C62.9999 311.7 49.2999 323.79 45.4599 339C44.2599 343.76 45.3899 345.71 50.4599 345.63C61.0899 345.41 71.7099 345.53 82.3399 345.54V345.51Z" fill="#0F3F76"/>
<path d="M885.79 445.7C869.09 447.32 853.55 444.23 839.29 435.01C818.52 421.57 806.44 402.54 802.59 378.34C797.51 346.46 804.68 318.22 828.87 295.62C841.87 283.52 857.87 278.23 875.08 275.98C901.24 272.55 924.91 278.98 945.08 295.98C960.38 308.98 968.92 326.25 971.3 345.98C973.56 364.62 973 383.42 963.89 400.57C948.73 429.1 925.89 445.89 892.42 445.7H885.79ZM844.39 360.43C844.39 362.63 844.22 364.85 844.39 367.03C846.53 389.82 858.52 408.72 884.23 409.87C892.763 410.234 901.197 407.924 908.353 403.263C915.51 398.602 921.033 391.822 924.15 383.87C929.268 370.709 929.845 356.216 925.79 342.69C916.7 311.21 881.67 305.83 862.18 320.39C848.82 330.43 844.73 344.61 844.39 360.43Z" fill="#0F3F76"/>
<path d="M703.69 445.7C680.44 447.94 660.56 440.61 644.34 423.98C631.61 410.98 625.34 394.85 622.34 376.92C618.67 354.44 622.13 333.37 633.05 313.65C644.44 293.07 662.59 281.65 685.38 276.97C706.85 272.54 727.31 275.31 746.59 285.46C764.64 294.97 775.22 310.59 780.87 329.86C781.87 333.4 780.35 334.78 777.06 334.79C764.83 334.79 752.61 334.79 740.38 334.79C737.38 334.79 735.7 333.13 734.44 330.59C726.9 315.42 714.04 310.22 698.04 312.21C682.48 314.14 672.94 323.67 668.32 338.33C663.073 354.278 663.425 371.54 669.32 387.26C674.52 401.26 685 409.26 700.09 410.44C715.18 411.62 727.26 406.51 734.28 392.31C735.77 389.31 737.68 387.67 741.21 387.71C752.83 387.83 764.46 387.85 776.08 387.71C781.19 387.64 781.51 389.8 780.3 394.1C772.11 423.23 741.96 447.92 712.08 445.71C709.32 445.52 706.5 445.7 703.69 445.7Z" fill="#0F3F76"/>
<path d="M267.08 445.52C249.76 447.8 234 443.71 219.66 434C198.66 419.8 188.42 399.3 185.09 374.74C182.682 357.803 184.719 340.532 191 324.62C201.67 297.52 221.91 281.68 250.29 276.82C280.2 271.7 307.29 277.3 328.63 300.82C336.07 308.99 340.63 318.72 343.79 329.19C344.93 332.97 343.79 334.91 339.57 334.88C327.75 334.807 315.93 334.807 304.11 334.88C300.9 334.88 299.04 333.48 297.62 330.61C290.62 316.51 278.77 311.13 263.56 312.07C248.04 313.07 237.28 321.21 232.56 335.58C225.77 356.21 225.14 376.93 237.41 396.22C249.68 415.51 285.68 416.98 297.24 392.98C299.09 389.15 301.39 387.66 305.55 387.73C316.76 387.93 327.99 387.96 339.2 387.73C344.3 387.64 345 389.8 343.62 394.02C334.89 420.72 316.71 437.58 289.84 444.95C282.44 446.93 274.62 445.4 267.08 445.52Z" fill="#0F3F76"/>
<path d="M446.12 445.6C422.28 448 402.2 440.14 385.94 423C373.55 409.89 367.17 393.82 365 376C362.74 357.18 364.1 338.71 371.86 321.22C383.25 295.54 403.34 281.15 430.86 276.54C456.95 272.18 480.71 277.23 501.45 293.87C512.92 303.08 519.09 315.93 523.45 329.72C524.55 333.18 523.18 334.72 519.81 334.72C507.39 334.72 494.96 334.72 482.54 334.72C479.72 334.72 478.06 333.06 477.18 330.65C468.54 307.2 427.6 303.33 414.38 330.45C403.85 352.03 403.89 374.39 416.49 395.38C429.66 417.32 467.22 415.49 476.81 392.51C478.2 389.16 480.43 387.62 484.19 387.67C495.61 387.817 507.03 387.817 518.45 387.67C523.64 387.61 524.61 389.54 522.94 394.32C513.85 420.51 496.35 437.64 469.36 444.65C461.74 446.7 453.85 445.29 446.12 445.6Z" fill="#0F3F76"/>
<path d="M1123.41 361.71V435C1123.41 445.39 1123.41 445.39 1112.73 445.39H1091.1C1080.65 445.39 1080.1 444.89 1080.1 434.65C1080.1 393.19 1080.1 351.737 1080.1 310.29C1080.1 302.29 1080.1 294.29 1080.1 286.29C1080.1 278.95 1080.82 278.29 1087.91 278.2C1097.32 278.14 1106.74 278.42 1116.14 278.09C1121.68 277.9 1123.48 280.01 1123.44 285.44C1123.3 310.84 1123.41 336.27 1123.41 361.71Z" fill="#0F3F76"/>
<path d="M1021.71 445.7C1005.45 445.7 995.79 436.78 995.77 421.7C995.77 407 1006.08 397.26 1021.7 397.23C1037.13 397.23 1047.49 407.02 1047.63 421.75C1047.76 436.75 1038.07 445.69 1021.71 445.7Z" fill="#0F3F76"/>
<path d="M573.07 445.7C555.53 447.43 546.73 433.63 547 422C547.33 406.75 557.07 397.27 573.32 397.28C588.32 397.28 598.96 407.4 598.91 421.58C598.84 434.05 589.91 447.53 573.07 445.7Z" fill="#0F3F76"/>
<path d="M1058 524.87C1053.21 526.76 1049.17 528.87 1044.66 528.2C1037.78 527.2 1032.71 523.63 1030.3 516.99C1027.3 508.87 1027.96 500.99 1034.18 494.63C1039.25 489.44 1045.82 488.63 1052.56 491.01C1055.28 492.01 1057.26 492.59 1060.19 490.88C1063.53 488.93 1066.63 490.37 1066.65 494.88C1066.71 506.29 1066.93 517.71 1066.39 529.1C1066.05 536.22 1062.25 541.85 1055 543.72C1047.57 545.64 1040.15 545.37 1034.3 539.39C1032.3 537.34 1029.49 534.27 1032.13 531.66C1034.77 529.05 1037.92 530.81 1040.32 533.59C1043.49 537.26 1047.51 538.65 1052.17 536.59C1056.83 534.53 1058 530.45 1058 524.87ZM1058.07 508.56C1057.91 502.16 1053 497.2 1047.07 497.46C1041.54 497.7 1037.07 502.91 1037.07 508.97C1037.17 515.49 1041.93 520.59 1047.73 520.39C1053.53 520.19 1058.19 514.87 1058 508.56H1058.07Z" fill="#F26F21"/>
<path d="M812.79 524.8C807.86 526.8 803.79 528.8 799.3 528.2C792.08 527.2 787.06 523.27 784.98 516.2C782.62 508.27 782.98 500.49 789.25 494.4C794.43 489.4 800.97 488.4 807.68 491.08C810.26 492.08 811.98 492.44 814.73 490.91C818.47 488.82 821.4 490.52 821.41 495.25C821.41 506.47 821.67 517.69 821.26 528.9C820.97 536.65 816.47 542.19 809.44 543.76C801.73 545.48 794.15 545.2 788.51 538.46C786.78 536.4 784.3 533.52 787.23 531.2C789.5 529.41 792.49 530.5 794.59 533.06C797.82 537 801.88 538.67 806.84 536.52C811.6 534.5 812.61 530.41 812.79 524.8ZM802.79 497.44C796.79 497.3 792.03 502.11 791.79 508.44C791.55 514.77 796.5 520.44 802.5 520.39C808.16 520.39 812.65 515.55 812.78 509.39C812.9 503 808.35 497.58 802.76 497.44H802.79Z" fill="#F26F21"/>
<path d="M742.15 517.08C742.15 509.88 742 502.69 742.21 495.5C742.35 490.5 745.12 488.62 749.16 491.12C751.78 492.74 753.39 492 755.65 491.12C759.182 489.647 763.101 489.375 766.804 490.347C770.506 491.319 773.786 493.481 776.14 496.5C781.14 503.04 781.29 513.88 776.57 520.8C772.16 527.28 764.12 530.28 756.48 527C750.81 524.56 750.11 526.34 750.55 531.31C750.705 534.104 750.705 536.905 750.55 539.7C750.55 542.15 749.7 544 746.83 544.15C743.77 544.32 742.32 542.69 742.29 539.87C742.21 532.28 742.29 524.69 742.29 517.1L742.15 517.08ZM771.58 508.56C771.48 502.17 766.71 497.28 760.74 497.43C754.99 497.59 750.59 502.82 750.74 509.34C750.87 515.34 755.52 520.58 760.88 520.67C766.57 520.77 771.68 515 771.58 508.56Z" fill="#F26F21"/>
<path d="M932.06 503.62C932.06 509.81 932.22 516.01 932.06 522.19C931.9 527.38 929.06 529.19 924.67 526.46C922.41 525.06 921.16 525.75 919.35 526.46C911.08 529.8 903.22 527.96 898.35 521.64C893.13 514.89 893.03 503.3 898.14 496.29C902.59 490.18 910.58 487.96 918.56 491.39C923.14 493.39 923.78 491.62 923.56 487.77C923.49 486.18 923.56 484.58 923.56 482.98C923.56 480.26 924.51 478.26 927.62 478.16C931.12 478.05 932.02 480.3 932.03 483.22C932.07 490 932.06 496.83 932.06 503.62ZM913.06 497.44C907.19 497.44 902.37 502.56 902.38 508.81C902.39 515.06 907.19 520.45 912.8 520.65C918.41 520.85 923.36 515.41 923.36 509.13C923.41 502.69 918.78 497.44 913.1 497.44H913.06Z" fill="#F26F21"/>
<path d="M1091.65 517.16C1091.65 509.97 1091.55 502.77 1091.65 495.58C1091.74 490.28 1093.92 488.71 1098.32 491.32C1100.77 492.77 1102.32 492.01 1104.32 491.25C1112.6 488.2 1120.55 490.35 1125.25 496.8C1130.33 503.8 1130.41 514.35 1125.44 520.99C1120.32 527.84 1112.64 530.1 1104.1 526.56C1100.28 524.97 1099.1 525.41 1099.41 529.56C1099.61 532.56 1099.41 535.56 1099.41 538.56C1099.41 541.24 1099.29 543.99 1095.55 544.08C1091.81 544.17 1091.61 541.52 1091.61 538.76C1091.64 531.553 1091.66 524.353 1091.65 517.16ZM1120.56 508.66C1120.45 502.22 1115.66 497.23 1109.82 497.46C1103.98 497.69 1099.49 502.86 1099.58 509.28C1099.67 515.7 1104.58 520.73 1110.38 520.55C1116.18 520.37 1120.67 515.09 1120.56 508.66Z" fill="#F26F21"/>
<path d="M888.73 509.59C888.73 513.99 888.81 518.39 888.73 522.79C888.61 527.79 885.16 528.84 881.85 526.79C879.18 525.11 877.63 525.91 875.43 526.79C867.31 529.9 859.8 527.99 854.96 521.7C849.88 515.1 849.65 503.7 854.46 496.85C858.77 490.69 867.05 488.14 874.81 491.03C876.024 491.599 877.355 491.874 878.695 491.83C880.035 491.787 881.346 491.427 882.52 490.78C885.68 489.2 888.52 490.55 888.68 494.67C888.83 499.67 888.68 504.67 888.68 509.67L888.73 509.59ZM870 497.45C864 497.33 859.26 502.2 859.1 508.55C858.94 514.69 863.71 520.34 869.23 520.55C874.97 520.79 879.76 515.8 880.03 509.32C880.31 503 875.7 497.57 870 497.45Z" fill="#F26F21"/>
<path d="M1170.35 509C1170.35 513.39 1170.48 517.79 1170.35 522.17C1170.16 527.03 1167.26 529.23 1163.47 526.78C1160.85 525.09 1159.28 525.78 1157.06 526.7C1149.33 529.82 1141.77 528 1137.06 522.05C1131.46 514.95 1131.06 503.95 1136.24 496.85C1140.87 490.47 1148.67 488.1 1156.51 490.96C1159 491.86 1160.84 492.48 1163.65 490.91C1167.35 488.85 1170.27 490.5 1170.33 495.23C1170.39 499.96 1170.33 504.41 1170.33 509H1170.35ZM1161.7 508.81C1161.7 502.17 1157.28 497.34 1151.2 497.44C1145.3 497.52 1140.52 502.74 1140.62 508.98C1140.72 515.22 1145.84 520.64 1151.37 520.57C1157.2 520.51 1161.67 515.42 1161.7 508.82V508.81Z" fill="#F26F21"/>
<path d="M1178.28 508.81V494.39C1178.28 490.87 1180.69 489.14 1183.28 490.55C1188.9 493.55 1193.86 488.35 1199.36 490.09C1201.46 490.75 1202.3 487.94 1202.29 485.76C1202.29 483.12 1203.43 481.59 1206.29 481.65C1208.73 481.7 1210.04 483.03 1210.07 485.38C1210.13 488.65 1211.73 490.02 1214.91 490.1C1217.34 490.1 1219.3 491.05 1219.13 493.99C1218.98 496.55 1217.13 497.39 1214.98 497.33C1210.79 497.22 1209.98 499.67 1210.15 503.14C1210.27 506.14 1210.29 509.14 1210.15 512.14C1209.94 516.55 1210.43 520.21 1216.15 520.41C1218.25 520.49 1219.34 521.94 1219.15 524.11C1218.96 526.28 1217.72 527.11 1215.65 527.49C1207.7 528.91 1202.74 525.11 1202.41 517.03C1202.25 513.23 1202.59 509.4 1202.26 505.62C1201.99 502.49 1204.26 497.83 1198.26 497.4C1192.07 496.96 1187.26 500.01 1186.39 505.15C1186.14 507.14 1186.05 509.146 1186.12 511.15C1186.12 515.15 1186.12 519.15 1186.02 523.15C1186.02 525.66 1185.02 527.37 1182.13 527.4C1179.24 527.43 1178.27 525.8 1178.3 523.21C1178.3 522.81 1178.3 522.41 1178.3 522.01V508.81H1178.28Z" fill="#F26F21"/>
<path d="M1285.9 512.81C1283.1 512.81 1280.3 512.75 1277.51 512.81C1275.99 512.81 1273.98 512.48 1273.51 514.54C1273.13 516.28 1274.51 517.54 1275.8 518.47C1280.01 521.47 1284.3 521.68 1288.5 518.47C1289.43 517.75 1290.05 516.58 1291.01 515.93C1293.15 514.47 1295.82 514.06 1297.67 515.77C1299.52 517.48 1297.67 519.49 1296.67 521.11C1292.04 528.27 1280.67 530.38 1272.5 525.68C1265.37 521.6 1261.84 511.28 1264.57 502.46C1267.16 494.11 1274.31 489.3 1283.38 489.83C1291.93 490.33 1298.09 495.95 1299.68 504.68C1300.84 511.06 1299.6 512.6 1293.09 512.78C1290.7 512.84 1288.3 512.78 1285.9 512.78V512.81ZM1282.17 505.32C1282.96 505.405 1283.76 505.405 1284.55 505.32C1286.64 504.84 1290.17 506.72 1290.48 503.37C1290.75 500.46 1287.95 498.52 1285.09 497.76C1282.23 497 1279.5 496.96 1276.99 498.6C1275.17 499.8 1272.89 501.27 1273.44 503.65C1274.02 506.2 1276.74 505.1 1278.58 505.31C1279.78 505.383 1280.97 505.387 1282.17 505.32Z" fill="#F26F21"/>
<path d="M420.75 509.2C420.64 498.02 428.23 490.02 439.14 489.8C450.05 489.58 458.14 497.56 458.38 508.48C458.62 519.78 450.12 528.48 438.98 528.39C429 528.29 420.86 519.77 420.75 509.2ZM449.8 508.6C449.7 501.89 445.29 497.27 439.14 497.44C432.99 497.61 429.14 502.31 429.34 509.36C429.54 516.41 433.75 520.95 439.87 520.67C445.76 520.4 449.9 515.36 449.8 508.6Z" fill="#F26F21"/>
<path d="M735.94 509.12C735.94 513.32 735.94 517.53 735.94 521.73C735.94 526.46 733.639 528.73 729.159 527.04C726.559 526.04 724.61 526.72 722.31 527.38C711.7 530.44 702.72 524.17 702.21 513.22C701.94 507.22 702.12 501.22 702.13 495.22C702.13 492.55 702.92 490.45 706.13 490.3C709.64 490.14 710.6 492.35 710.65 495.3C710.74 500.9 710.74 506.51 710.83 512.11C710.92 517 713.12 520.18 718.27 520.54C723.42 520.9 726.329 517.8 726.909 513.22C727.609 507.69 727.369 502.05 727.49 496.45C727.549 493.25 727.79 490.13 732.12 490.33C736.21 490.51 735.909 493.76 735.979 496.54C736.069 500.74 735.979 504.94 735.979 509.15L735.94 509.12Z" fill="#F26F21"/>
<path d="M626.42 508.82C626.42 513.42 626.42 518.03 626.42 522.63C626.42 526.51 624.09 528.47 620.59 527.24C617.44 526.14 614.89 526.8 611.98 527.6C602.36 530.23 593.43 524.03 592.83 514.16C592.45 507.98 592.68 501.76 592.66 495.55C592.66 492.66 593.34 490.25 596.9 490.34C600.46 490.43 601.12 492.83 601.18 495.69C601.29 501.27 599.98 506.79 601.09 512.45C602.01 517.13 603.88 520.53 608.99 520.65C614.45 520.79 616.99 517.07 617.51 512.32C618.1 506.98 617.91 501.54 618 496.14C618 493.14 618.4 490.31 622.31 490.29C626.38 490.29 626.44 493.29 626.48 496.21C626.55 500.41 626.48 504.62 626.48 508.82H626.42Z" fill="#F26F21"/>
<path d="M989.7 508.76C989.7 504.16 989.7 499.55 989.7 494.95C989.7 490.95 992.28 489.29 995.65 490.56C998.83 491.75 1001.39 490.91 1004.31 490.22C1013.58 488.02 1021.12 493.08 1022.8 502.46C1024.04 509.46 1023.42 516.46 1023.33 523.46C1023.33 526.03 1022 527.55 1019.21 527.46C1016.42 527.37 1015.21 525.9 1015.12 523.33C1015.01 517.92 1015.12 512.51 1014.92 507.11C1014.69 500.65 1011.87 497.46 1006.68 497.42C1001.49 497.38 998.57 500.42 998.3 506.9C998.08 512.1 998.2 517.32 998.14 522.52C998.14 525.52 997.14 527.58 993.6 527.46C990.31 527.34 989.69 525.19 989.67 522.57C989.67 517.96 989.67 513.36 989.67 508.75L989.7 508.76Z" fill="#F26F21"/>
<path d="M402.34 515.48C405.28 508.04 407.65 502 410.06 495.98C410.526 494.453 411.217 493.004 412.11 491.68C413.7 489.74 416.04 489.68 418.11 490.68C420.18 491.68 419.36 493.43 418.77 494.9C412.556 510.3 406.3 525.69 400 541.07C398.66 544.34 395.8 544.86 393 543.73C389.93 542.5 391.37 539.68 392.41 538.1C398.32 529.16 395.74 520.7 391.7 512.05C389.33 506.98 387.48 501.66 385.48 496.43C384.68 494.34 382.62 491.74 386.28 490.48C389.19 489.48 391.83 490.2 393.13 493.48C395.183 498.693 397.263 503.9 399.37 509.1C400 510.73 400.83 512.28 402.34 515.48Z" fill="#F26F21"/>
<path d="M663.37 515.42C666.19 508.35 668.45 502.68 670.72 497.02C671.27 495.308 671.987 493.653 672.86 492.08C674.45 489.66 676.98 489.64 679.27 490.75C681.56 491.86 680.4 493.89 679.75 495.49C673.75 510.31 667.65 525.1 661.63 539.93C660.55 542.59 659.03 544.37 655.87 544.12C653.34 543.93 652.2 542.8 652.87 540.2C652.899 540.003 652.956 539.811 653.04 539.63C660.94 527.63 655.04 516.71 650.33 505.71C648.98 502.59 647.65 499.46 646.41 496.29C645.66 494.37 643.8 492 646.86 490.67C649.63 489.46 652.5 489.78 653.86 493.08C656.12 498.42 658.23 503.83 660.44 509.19C661.18 510.78 662 512.33 663.37 515.42Z" fill="#F26F21"/>
<path d="M497 509.24C497 513.64 496.92 518.04 497 522.44C497.08 526.84 494.72 528.44 490.95 527.08C488.4 526.14 486.439 526.62 484.109 527.33C474.109 530.33 465.59 525 463.82 514.65C462.865 508.113 462.714 501.484 463.37 494.91C463.56 492.32 464.48 490.16 467.69 490.3C470.9 490.44 471.55 492.62 471.59 495.3C471.68 500.7 471.59 506.1 471.9 511.48C472.2 516.56 474.35 520.61 480.14 520.64C485.93 520.67 488.37 516.81 488.82 511.76C489.3 506.4 489.12 500.98 489.19 495.59C489.19 492.67 489.95 490.31 493.46 490.37C496.97 490.43 496.98 492.98 496.99 495.49C497.036 500.057 497.04 504.64 497 509.24Z" fill="#F26F21"/>
<path d="M1225.1 509C1225.1 504.4 1225.15 499.8 1225.1 495.2C1225.04 491.25 1226.95 489.28 1230.65 490.65C1233.59 491.74 1235.99 491.05 1238.72 490.35C1249.24 487.68 1257.72 493.86 1258.19 504.68C1258.47 510.68 1258.29 516.68 1258.28 522.68C1258.28 525.34 1257.55 527.45 1254.28 527.47C1251.17 527.47 1249.98 525.6 1249.9 522.9C1249.74 517.71 1249.85 512.5 1249.69 507.31C1249.46 500.46 1247.01 497.47 1241.84 497.43C1236.67 497.39 1233.37 500.86 1233.07 507.43C1232.84 512.43 1232.98 517.43 1232.92 522.43C1232.92 524.98 1232.49 527.32 1229.15 527.43C1225.36 527.57 1225.15 524.99 1225.15 522.22L1225.1 509Z" fill="#F26F21"/>
<path d="M557.71 527.54C550.23 527.54 546.71 524.54 546.18 517.16C545.86 512.97 546.06 508.75 546 504.54C546.052 503.14 545.979 501.737 545.78 500.35C545.28 497.81 545.59 487.05 546.19 484.86C546.74 482.86 547.81 481.71 549.93 481.65C552.2 481.59 554.1 482.41 554.26 484.82C554.5 488.56 556.33 490.1 559.93 490.27C562.01 490.36 563.1 491.7 563.05 493.9C563.092 494.355 563.033 494.814 562.877 495.244C562.72 495.674 562.47 496.063 562.145 496.385C561.82 496.706 561.427 496.951 560.996 497.103C560.564 497.254 560.105 497.308 559.65 497.26C555.19 497.21 554.37 499.79 554.53 503.51C554.69 507.23 554.63 510.72 554.53 514.32C554.48 517.53 555.53 519.77 559.06 520.25C561.47 520.57 563.34 521.57 562.96 524.48C562.55 528 559.75 527.34 557.71 527.54Z" fill="#F26F21"/>
<path d="M632.68 502.63C632.68 496.22 632.68 489.81 632.68 483.41C632.68 480.56 633.37 478.12 636.95 478.2C640.53 478.28 641.08 480.75 641.09 483.58C641.09 496.387 641.09 509.2 641.09 522.02C641.09 524.77 640.75 527.33 637.09 527.47C632.97 527.62 632.7 524.8 632.68 521.85C632.68 515.44 632.68 509.03 632.68 502.63Z" fill="#F26F21"/>
<path d="M568.79 508.84C568.79 505.06 568.79 501.27 568.79 497.48C568.788 496.089 568.882 494.699 569.07 493.32C569.38 491.17 571.52 489.51 572.76 490.38C577.67 493.81 583.54 487.29 587.66 491.91C589.33 493.78 588.6 497.16 585.12 497.91C578.28 499.32 577.12 504.15 577.29 510.04C577.41 514.42 577.29 518.81 577.21 523.2C577.16 526.07 575.75 527.58 572.72 527.51C569.85 527.43 568.91 525.68 568.87 523.22C568.8 518.44 568.87 513.66 568.87 508.87L568.79 508.84Z" fill="#F26F21"/>
<path d="M505 508.36C505 504.57 505 500.78 505 496.99C504.984 495.594 505.115 494.199 505.39 492.83C505.81 491.02 507.83 489.65 508.91 490.38C513.82 493.73 519.68 487.43 523.91 491.82C525.63 493.63 524.91 497.01 521.41 497.76C514.66 499.2 513.27 503.89 513.56 509.89C513.74 513.67 513.62 517.46 513.56 521.25C513.56 524.33 513.56 527.53 509.11 527.46C504.96 527.39 505.11 524.35 505.05 521.52C504.93 517.13 505 512.74 505 508.36Z" fill="#F26F21"/>
<path d="M1309.43 490.34C1312.51 493.23 1315.98 491.1 1319.52 490.15C1321.4 489.65 1323.29 489.98 1323.82 492.22C1324.35 494.46 1324.34 497.02 1321.52 497.56C1312.81 499.23 1312.05 505.43 1312.43 512.56C1312.61 515.94 1312.43 519.35 1312.43 522.75C1312.43 525.45 1311.63 527.48 1308.36 527.41C1305.44 527.35 1304.66 525.53 1304.66 523.05C1304.66 513.65 1304.66 504.253 1304.66 494.86C1304.64 492 1305.85 490.29 1309.43 490.34Z" fill="#F26F21"/>
<path d="M829.389 508.49C829.389 503.89 829.389 499.29 829.389 494.68C829.389 490.88 831.729 489.18 834.779 490.68C837.829 492.18 839.929 491.47 842.569 490.49C844.689 489.69 847.139 489.4 847.879 492.49C848.489 495.04 848.059 497.4 844.879 498.03C838.359 499.34 837.019 503.95 837.169 509.7C837.279 514.1 837.169 518.5 837.119 522.91C837.119 525.65 836.119 527.58 832.899 527.48C829.899 527.39 829.369 525.39 829.359 522.98C829.389 518.1 829.399 513.3 829.389 508.49Z" fill="#F26F21"/>
<path d="M973.889 508.68C973.889 504.1 973.889 499.52 973.889 494.94C973.889 492.12 974.999 490.32 978.049 490.33C981.099 490.34 981.659 492.33 981.669 494.73C981.669 504.063 981.669 513.423 981.669 522.81C981.669 525.53 980.829 527.51 977.589 527.41C974.349 527.31 973.899 524.96 973.889 522.41C973.869 517.84 973.879 513.26 973.889 508.68Z" fill="#F26F21"/>
<path d="M952.25 506.87C949.25 506.87 946.25 506.92 943.25 506.87C940.85 506.82 938.94 506.14 938.82 503.2C938.7 500.26 940.65 499.52 943.06 499.51C949.24 499.51 955.42 499.51 961.59 499.57C964.02 499.57 965.93 500.49 965.82 503.42C965.72 506.01 963.96 506.77 961.82 506.83C958.63 506.92 955.45 506.83 952.26 506.83L952.25 506.87Z" fill="#F26F21"/>
</g>
<defs>
<clipPath id="clip0_6330_53977">
<rect width="1327.73" height="544.75" fill="white"/>
</clipPath>
</defs>
</svg>
