<svg width="564" height="1024" viewBox="0 0 564 1024" fill="none" xmlns="http://www.w3.org/2000/svg">
<g clip-path="url(#clip0_440_3153)">
<rect width="564" height="1024" fill="#5F77CD"/>
<path d="M175.558 953.144C176.501 953.144 177.341 953.359 178.078 953.788C178.815 954.208 179.385 954.796 179.786 955.552C180.197 956.299 180.402 957.153 180.402 958.114C180.402 959.075 180.197 959.934 179.786 960.69C179.385 961.437 178.815 962.025 178.078 962.454C177.341 962.874 176.501 963.084 175.558 963.084C174.606 963.084 173.761 962.874 173.024 962.454C172.287 962.025 171.713 961.437 171.302 960.69C170.891 959.934 170.686 959.075 170.686 958.114C170.686 957.153 170.891 956.299 171.302 955.552C171.713 954.796 172.287 954.208 173.024 953.788C173.761 953.359 174.606 953.144 175.558 953.144ZM175.558 953.704C174.69 953.704 173.934 953.891 173.29 954.264C172.646 954.628 172.151 955.141 171.806 955.804C171.461 956.467 171.288 957.237 171.288 958.114C171.288 958.982 171.461 959.752 171.806 960.424C172.151 961.087 172.646 961.605 173.29 961.978C173.934 962.351 174.69 962.538 175.558 962.538C176.417 962.538 177.163 962.351 177.798 961.978C178.442 961.605 178.937 961.087 179.282 960.424C179.627 959.752 179.8 958.982 179.8 958.114C179.8 957.237 179.627 956.467 179.282 955.804C178.937 955.141 178.442 954.628 177.798 954.264C177.163 953.891 176.417 953.704 175.558 953.704ZM175.53 954.866C174.97 954.866 174.457 954.997 173.99 955.258C173.533 955.519 173.169 955.897 172.898 956.392C172.627 956.877 172.492 957.447 172.492 958.1C172.492 958.753 172.627 959.327 172.898 959.822C173.169 960.307 173.533 960.685 173.99 960.956C174.457 961.217 174.97 961.348 175.53 961.348C176.23 961.348 176.837 961.161 177.35 960.788C177.863 960.405 178.213 959.897 178.4 959.262H177.224C176.944 960.037 176.379 960.424 175.53 960.424C174.97 960.424 174.513 960.223 174.158 959.822C173.803 959.421 173.626 958.851 173.626 958.114C173.626 957.367 173.803 956.793 174.158 956.392C174.513 955.991 174.97 955.79 175.53 955.79C175.941 955.79 176.295 955.893 176.594 956.098C176.893 956.294 177.103 956.579 177.224 956.952H178.4C178.223 956.289 177.877 955.776 177.364 955.412C176.851 955.048 176.239 954.866 175.53 954.866ZM185.534 961.978C186.72 961.026 187.648 960.247 188.32 959.64C188.992 959.024 189.557 958.385 190.014 957.722C190.481 957.05 190.714 956.392 190.714 955.748C190.714 955.141 190.565 954.665 190.266 954.32C189.977 953.965 189.506 953.788 188.852 953.788C188.218 953.788 187.723 953.989 187.368 954.39C187.023 954.782 186.836 955.309 186.808 955.972H185.576C185.614 954.927 185.931 954.119 186.528 953.55C187.126 952.981 187.896 952.696 188.838 952.696C189.8 952.696 190.56 952.962 191.12 953.494C191.69 954.026 191.974 954.759 191.974 955.692C191.974 956.467 191.741 957.223 191.274 957.96C190.817 958.688 190.294 959.332 189.706 959.892C189.118 960.443 188.367 961.087 187.452 961.824H192.268V962.888H185.534V961.978ZM193.741 957.834C193.741 956.229 194.002 954.978 194.525 954.082C195.048 953.177 195.962 952.724 197.269 952.724C198.566 952.724 199.476 953.177 199.999 954.082C200.522 954.978 200.783 956.229 200.783 957.834C200.783 959.467 200.522 960.737 199.999 961.642C199.476 962.547 198.566 963 197.269 963C195.962 963 195.048 962.547 194.525 961.642C194.002 960.737 193.741 959.467 193.741 957.834ZM199.523 957.834C199.523 957.022 199.467 956.336 199.355 955.776C199.252 955.207 199.033 954.749 198.697 954.404C198.37 954.059 197.894 953.886 197.269 953.886C196.634 953.886 196.149 954.059 195.813 954.404C195.486 954.749 195.267 955.207 195.155 955.776C195.052 956.336 195.001 957.022 195.001 957.834C195.001 958.674 195.052 959.379 195.155 959.948C195.267 960.517 195.486 960.975 195.813 961.32C196.149 961.665 196.634 961.838 197.269 961.838C197.894 961.838 198.37 961.665 198.697 961.32C199.033 960.975 199.252 960.517 199.355 959.948C199.467 959.379 199.523 958.674 199.523 957.834ZM202.378 961.978C203.563 961.026 204.492 960.247 205.164 959.64C205.836 959.024 206.401 958.385 206.858 957.722C207.325 957.05 207.558 956.392 207.558 955.748C207.558 955.141 207.409 954.665 207.11 954.32C206.821 953.965 206.349 953.788 205.696 953.788C205.061 953.788 204.567 953.989 204.212 954.39C203.867 954.782 203.68 955.309 203.652 955.972H202.42C202.457 954.927 202.775 954.119 203.372 953.55C203.969 952.981 204.739 952.696 205.682 952.696C206.643 952.696 207.404 952.962 207.964 953.494C208.533 954.026 208.818 954.759 208.818 955.692C208.818 956.467 208.585 957.223 208.118 957.96C207.661 958.688 207.138 959.332 206.55 959.892C205.962 960.443 205.211 961.087 204.296 961.824H209.112V962.888H202.378V961.978ZM210.557 955.426C210.622 954.567 210.953 953.895 211.551 953.41C212.148 952.925 212.923 952.682 213.875 952.682C214.509 952.682 215.055 952.799 215.513 953.032C215.979 953.256 216.329 953.564 216.563 953.956C216.805 954.348 216.927 954.791 216.927 955.286C216.927 955.865 216.759 956.364 216.423 956.784C216.096 957.204 215.667 957.475 215.135 957.596V957.666C215.741 957.815 216.222 958.109 216.577 958.548C216.931 958.987 217.109 959.561 217.109 960.27C217.109 960.802 216.987 961.283 216.745 961.712C216.502 962.132 216.138 962.463 215.653 962.706C215.167 962.949 214.584 963.07 213.903 963.07C212.913 963.07 212.101 962.813 211.467 962.3C210.832 961.777 210.477 961.04 210.403 960.088H211.635C211.7 960.648 211.929 961.105 212.321 961.46C212.713 961.815 213.235 961.992 213.889 961.992C214.542 961.992 215.037 961.824 215.373 961.488C215.718 961.143 215.891 960.699 215.891 960.158C215.891 959.458 215.657 958.954 215.191 958.646C214.724 958.338 214.019 958.184 213.077 958.184H212.755V957.12H213.091C213.949 957.111 214.598 956.971 215.037 956.7C215.475 956.42 215.695 955.991 215.695 955.412C215.695 954.917 215.531 954.521 215.205 954.222C214.887 953.923 214.43 953.774 213.833 953.774C213.254 953.774 212.787 953.923 212.433 954.222C212.078 954.521 211.868 954.922 211.803 955.426H210.557ZM219.445 963.084C219.202 963.084 218.997 963 218.829 962.832C218.661 962.664 218.577 962.459 218.577 962.216C218.577 961.973 218.661 961.768 218.829 961.6C218.997 961.432 219.202 961.348 219.445 961.348C219.678 961.348 219.874 961.432 220.033 961.6C220.201 961.768 220.285 961.973 220.285 962.216C220.285 962.459 220.201 962.664 220.033 962.832C219.874 963 219.678 963.084 219.445 963.084ZM226.985 954.278V957.54H230.541V958.59H226.985V961.95H230.961V963H225.711V953.228H230.961V954.278H226.985ZM232.413 958.114C232.413 957.162 232.627 956.308 233.057 955.552C233.486 954.787 234.069 954.189 234.807 953.76C235.553 953.331 236.379 953.116 237.285 953.116C238.349 953.116 239.277 953.373 240.071 953.886C240.864 954.399 241.443 955.127 241.807 956.07H240.281C240.01 955.482 239.618 955.029 239.105 954.712C238.601 954.395 237.994 954.236 237.285 954.236C236.603 954.236 235.992 954.395 235.451 954.712C234.909 955.029 234.485 955.482 234.177 956.07C233.869 956.649 233.715 957.33 233.715 958.114C233.715 958.889 233.869 959.57 234.177 960.158C234.485 960.737 234.909 961.185 235.451 961.502C235.992 961.819 236.603 961.978 237.285 961.978C237.994 961.978 238.601 961.824 239.105 961.516C239.618 961.199 240.01 960.746 240.281 960.158H241.807C241.443 961.091 240.864 961.815 240.071 962.328C239.277 962.832 238.349 963.084 237.285 963.084C236.379 963.084 235.553 962.874 234.807 962.454C234.069 962.025 233.486 961.432 233.057 960.676C232.627 959.92 232.413 959.066 232.413 958.114ZM243.227 958.114C243.227 957.162 243.442 956.308 243.871 955.552C244.3 954.787 244.884 954.189 245.621 953.76C246.368 953.331 247.194 953.116 248.099 953.116C249.163 953.116 250.092 953.373 250.885 953.886C251.678 954.399 252.257 955.127 252.621 956.07H251.095C250.824 955.482 250.432 955.029 249.919 954.712C249.415 954.395 248.808 954.236 248.099 954.236C247.418 954.236 246.806 954.395 246.265 954.712C245.724 955.029 245.299 955.482 244.991 956.07C244.683 956.649 244.529 957.33 244.529 958.114C244.529 958.889 244.683 959.57 244.991 960.158C245.299 960.737 245.724 961.185 246.265 961.502C246.806 961.819 247.418 961.978 248.099 961.978C248.808 961.978 249.415 961.824 249.919 961.516C250.432 961.199 250.824 960.746 251.095 960.158H252.621C252.257 961.091 251.678 961.815 250.885 962.328C250.092 962.832 249.163 963.084 248.099 963.084C247.194 963.084 246.368 962.874 245.621 962.454C244.884 962.025 244.3 961.432 243.871 960.676C243.442 959.92 243.227 959.066 243.227 958.114ZM254.923 963.084C254.681 963.084 254.475 963 254.307 962.832C254.139 962.664 254.055 962.459 254.055 962.216C254.055 961.973 254.139 961.768 254.307 961.6C254.475 961.432 254.681 961.348 254.923 961.348C255.157 961.348 255.353 961.432 255.511 961.6C255.679 961.768 255.763 961.973 255.763 962.216C255.763 962.459 255.679 962.664 255.511 962.832C255.353 963 255.157 963.084 254.923 963.084ZM266.957 960.83H262.701L261.917 963H260.573L264.101 953.298H265.571L269.085 963H267.741L266.957 960.83ZM266.593 959.794L264.829 954.866L263.065 959.794H266.593ZM271.897 952.64V963H270.623V952.64H271.897ZM275.342 952.64V963H274.068V952.64H275.342ZM286.384 963L284.06 959.01H282.52V963H281.246V953.242H284.396C285.133 953.242 285.754 953.368 286.258 953.62C286.771 953.872 287.154 954.213 287.406 954.642C287.658 955.071 287.784 955.561 287.784 956.112C287.784 956.784 287.588 957.377 287.196 957.89C286.813 958.403 286.235 958.744 285.46 958.912L287.91 963H286.384ZM282.52 957.988H284.396C285.087 957.988 285.605 957.82 285.95 957.484C286.295 957.139 286.468 956.681 286.468 956.112C286.468 955.533 286.295 955.085 285.95 954.768C285.614 954.451 285.096 954.292 284.396 954.292H282.52V957.988ZM290.422 954.082C290.179 954.082 289.974 953.998 289.806 953.83C289.638 953.662 289.554 953.457 289.554 953.214C289.554 952.971 289.638 952.766 289.806 952.598C289.974 952.43 290.179 952.346 290.422 952.346C290.655 952.346 290.851 952.43 291.01 952.598C291.178 952.766 291.262 952.971 291.262 953.214C291.262 953.457 291.178 953.662 291.01 953.83C290.851 953.998 290.655 954.082 290.422 954.082ZM291.038 955.328V963H289.764V955.328H291.038ZM296.373 955.202C297.036 955.202 297.614 955.347 298.109 955.636C298.613 955.925 298.986 956.289 299.229 956.728V955.328H300.517V963.168C300.517 963.868 300.368 964.489 300.069 965.03C299.77 965.581 299.341 966.01 298.781 966.318C298.23 966.626 297.586 966.78 296.849 966.78C295.841 966.78 295.001 966.542 294.329 966.066C293.657 965.59 293.26 964.941 293.139 964.12H294.399C294.539 964.587 294.828 964.96 295.267 965.24C295.706 965.529 296.233 965.674 296.849 965.674C297.549 965.674 298.118 965.455 298.557 965.016C299.005 964.577 299.229 963.961 299.229 963.168V961.558C298.977 962.006 298.604 962.379 298.109 962.678C297.614 962.977 297.036 963.126 296.373 963.126C295.692 963.126 295.071 962.958 294.511 962.622C293.96 962.286 293.526 961.815 293.209 961.208C292.892 960.601 292.733 959.911 292.733 959.136C292.733 958.352 292.892 957.666 293.209 957.078C293.526 956.481 293.96 956.019 294.511 955.692C295.071 955.365 295.692 955.202 296.373 955.202ZM299.229 959.15C299.229 958.571 299.112 958.067 298.879 957.638C298.646 957.209 298.328 956.882 297.927 956.658C297.535 956.425 297.101 956.308 296.625 956.308C296.149 956.308 295.715 956.42 295.323 956.644C294.931 956.868 294.618 957.195 294.385 957.624C294.152 958.053 294.035 958.557 294.035 959.136C294.035 959.724 294.152 960.237 294.385 960.676C294.618 961.105 294.931 961.437 295.323 961.67C295.715 961.894 296.149 962.006 296.625 962.006C297.101 962.006 297.535 961.894 297.927 961.67C298.328 961.437 298.646 961.105 298.879 960.676C299.112 960.237 299.229 959.729 299.229 959.15ZM306.478 955.188C307.056 955.188 307.579 955.314 308.046 955.566C308.512 955.809 308.876 956.177 309.138 956.672C309.408 957.167 309.544 957.769 309.544 958.478V963H308.284V958.66C308.284 957.895 308.092 957.311 307.71 956.91C307.327 956.499 306.804 956.294 306.142 956.294C305.47 956.294 304.933 956.504 304.532 956.924C304.14 957.344 303.944 957.955 303.944 958.758V963H302.67V952.64H303.944V956.42C304.196 956.028 304.541 955.725 304.98 955.51C305.428 955.295 305.927 955.188 306.478 955.188ZM313.179 956.378V960.9C313.179 961.273 313.258 961.539 313.417 961.698C313.576 961.847 313.851 961.922 314.243 961.922H315.181V963H314.033C313.324 963 312.792 962.837 312.437 962.51C312.082 962.183 311.905 961.647 311.905 960.9V956.378H310.911V955.328H311.905V953.396H313.179V955.328H315.181V956.378H313.179ZM319.44 963.126C318.852 963.126 318.325 963.028 317.858 962.832C317.392 962.627 317.023 962.347 316.752 961.992C316.482 961.628 316.332 961.213 316.304 960.746H317.62C317.658 961.129 317.835 961.441 318.152 961.684C318.479 961.927 318.904 962.048 319.426 962.048C319.912 962.048 320.294 961.941 320.574 961.726C320.854 961.511 320.994 961.241 320.994 960.914C320.994 960.578 320.845 960.331 320.546 960.172C320.248 960.004 319.786 959.841 319.16 959.682C318.591 959.533 318.124 959.383 317.76 959.234C317.406 959.075 317.098 958.847 316.836 958.548C316.584 958.24 316.458 957.839 316.458 957.344C316.458 956.952 316.575 956.593 316.808 956.266C317.042 955.939 317.373 955.683 317.802 955.496C318.232 955.3 318.722 955.202 319.272 955.202C320.122 955.202 320.808 955.417 321.33 955.846C321.853 956.275 322.133 956.863 322.17 957.61H320.896C320.868 957.209 320.705 956.887 320.406 956.644C320.117 956.401 319.725 956.28 319.23 956.28C318.773 956.28 318.409 956.378 318.138 956.574C317.868 956.77 317.732 957.027 317.732 957.344C317.732 957.596 317.812 957.806 317.97 957.974C318.138 958.133 318.344 958.263 318.586 958.366C318.838 958.459 319.184 958.567 319.622 958.688C320.173 958.837 320.621 958.987 320.966 959.136C321.312 959.276 321.606 959.491 321.848 959.78C322.1 960.069 322.231 960.447 322.24 960.914C322.24 961.334 322.124 961.712 321.89 962.048C321.657 962.384 321.326 962.65 320.896 962.846C320.476 963.033 319.991 963.126 319.44 963.126ZM332.909 963L330.585 959.01H329.045V963H327.771V953.242H330.921C331.659 953.242 332.279 953.368 332.783 953.62C333.297 953.872 333.679 954.213 333.931 954.642C334.183 955.071 334.309 955.561 334.309 956.112C334.309 956.784 334.113 957.377 333.721 957.89C333.339 958.403 332.76 958.744 331.985 958.912L334.435 963H332.909ZM329.045 957.988H330.921C331.612 957.988 332.13 957.82 332.475 957.484C332.821 957.139 332.993 956.681 332.993 956.112C332.993 955.533 332.821 955.085 332.475 954.768C332.139 954.451 331.621 954.292 330.921 954.292H329.045V957.988ZM343.289 958.87C343.289 959.113 343.275 959.369 343.247 959.64H337.115C337.162 960.396 337.418 960.989 337.885 961.418C338.361 961.838 338.935 962.048 339.607 962.048C340.158 962.048 340.615 961.922 340.979 961.67C341.352 961.409 341.614 961.063 341.763 960.634H343.135C342.93 961.371 342.519 961.973 341.903 962.44C341.287 962.897 340.522 963.126 339.607 963.126C338.879 963.126 338.226 962.963 337.647 962.636C337.078 962.309 336.63 961.847 336.303 961.25C335.976 960.643 335.813 959.943 335.813 959.15C335.813 958.357 335.972 957.661 336.289 957.064C336.606 956.467 337.05 956.009 337.619 955.692C338.198 955.365 338.86 955.202 339.607 955.202C340.335 955.202 340.979 955.361 341.539 955.678C342.099 955.995 342.528 956.434 342.827 956.994C343.135 957.545 343.289 958.17 343.289 958.87ZM341.973 958.604C341.973 958.119 341.866 957.703 341.651 957.358C341.436 957.003 341.142 956.737 340.769 956.56C340.405 956.373 339.999 956.28 339.551 956.28C338.907 956.28 338.356 956.485 337.899 956.896C337.451 957.307 337.194 957.876 337.129 958.604H341.973ZM347.687 963.126C347.099 963.126 346.571 963.028 346.105 962.832C345.638 962.627 345.269 962.347 344.999 961.992C344.728 961.628 344.579 961.213 344.551 960.746H345.867C345.904 961.129 346.081 961.441 346.399 961.684C346.725 961.927 347.15 962.048 347.673 962.048C348.158 962.048 348.541 961.941 348.821 961.726C349.101 961.511 349.241 961.241 349.241 960.914C349.241 960.578 349.091 960.331 348.793 960.172C348.494 960.004 348.032 959.841 347.407 959.682C346.837 959.533 346.371 959.383 346.007 959.234C345.652 959.075 345.344 958.847 345.083 958.548C344.831 958.24 344.705 957.839 344.705 957.344C344.705 956.952 344.821 956.593 345.055 956.266C345.288 955.939 345.619 955.683 346.049 955.496C346.478 955.3 346.968 955.202 347.519 955.202C348.368 955.202 349.054 955.417 349.577 955.846C350.099 956.275 350.379 956.863 350.417 957.61H349.143C349.115 957.209 348.951 956.887 348.653 956.644C348.363 956.401 347.971 956.28 347.477 956.28C347.019 956.28 346.655 956.378 346.385 956.574C346.114 956.77 345.979 957.027 345.979 957.344C345.979 957.596 346.058 957.806 346.217 957.974C346.385 958.133 346.59 958.263 346.833 958.366C347.085 958.459 347.43 958.567 347.869 958.688C348.419 958.837 348.867 958.987 349.213 959.136C349.558 959.276 349.852 959.491 350.095 959.78C350.347 960.069 350.477 960.447 350.487 960.914C350.487 961.334 350.37 961.712 350.137 962.048C349.903 962.384 349.572 962.65 349.143 962.846C348.723 963.033 348.237 963.126 347.687 963.126ZM359.285 958.87C359.285 959.113 359.271 959.369 359.243 959.64H353.111C353.158 960.396 353.414 960.989 353.881 961.418C354.357 961.838 354.931 962.048 355.603 962.048C356.154 962.048 356.611 961.922 356.975 961.67C357.348 961.409 357.61 961.063 357.759 960.634H359.131C358.926 961.371 358.515 961.973 357.899 962.44C357.283 962.897 356.518 963.126 355.603 963.126C354.875 963.126 354.222 962.963 353.643 962.636C353.074 962.309 352.626 961.847 352.299 961.25C351.972 960.643 351.809 959.943 351.809 959.15C351.809 958.357 351.968 957.661 352.285 957.064C352.602 956.467 353.046 956.009 353.615 955.692C354.194 955.365 354.856 955.202 355.603 955.202C356.331 955.202 356.975 955.361 357.535 955.678C358.095 955.995 358.524 956.434 358.823 956.994C359.131 957.545 359.285 958.17 359.285 958.87ZM357.969 958.604C357.969 958.119 357.862 957.703 357.647 957.358C357.432 957.003 357.138 956.737 356.765 956.56C356.401 956.373 355.995 956.28 355.547 956.28C354.903 956.28 354.352 956.485 353.895 956.896C353.447 957.307 353.19 957.876 353.125 958.604H357.969ZM362.241 956.574C362.465 956.135 362.782 955.795 363.193 955.552C363.613 955.309 364.121 955.188 364.719 955.188V956.504H364.383C362.955 956.504 362.241 957.279 362.241 958.828V963H360.967V955.328H362.241V956.574ZM369.045 961.824L371.425 955.328H372.783L369.773 963H368.289L365.279 955.328H366.651L369.045 961.824ZM381.037 958.87C381.037 959.113 381.023 959.369 380.995 959.64H374.863C374.91 960.396 375.166 960.989 375.633 961.418C376.109 961.838 376.683 962.048 377.355 962.048C377.906 962.048 378.363 961.922 378.727 961.67C379.1 961.409 379.362 961.063 379.511 960.634H380.883C380.678 961.371 380.267 961.973 379.651 962.44C379.035 962.897 378.27 963.126 377.355 963.126C376.627 963.126 375.974 962.963 375.395 962.636C374.826 962.309 374.378 961.847 374.051 961.25C373.724 960.643 373.561 959.943 373.561 959.15C373.561 958.357 373.72 957.661 374.037 957.064C374.354 956.467 374.798 956.009 375.367 955.692C375.946 955.365 376.608 955.202 377.355 955.202C378.083 955.202 378.727 955.361 379.287 955.678C379.847 955.995 380.276 956.434 380.575 956.994C380.883 957.545 381.037 958.17 381.037 958.87ZM379.721 958.604C379.721 958.119 379.614 957.703 379.399 957.358C379.184 957.003 378.89 956.737 378.517 956.56C378.153 956.373 377.747 956.28 377.299 956.28C376.655 956.28 376.104 956.485 375.647 956.896C375.199 957.307 374.942 957.876 374.877 958.604H379.721ZM382.243 959.136C382.243 958.352 382.401 957.666 382.719 957.078C383.036 956.481 383.47 956.019 384.021 955.692C384.581 955.365 385.206 955.202 385.897 955.202C386.494 955.202 387.049 955.342 387.563 955.622C388.076 955.893 388.468 956.252 388.739 956.7V952.64H390.027V963H388.739V961.558C388.487 962.015 388.113 962.393 387.619 962.692C387.124 962.981 386.545 963.126 385.883 963.126C385.201 963.126 384.581 962.958 384.021 962.622C383.47 962.286 383.036 961.815 382.719 961.208C382.401 960.601 382.243 959.911 382.243 959.136ZM388.739 959.15C388.739 958.571 388.622 958.067 388.389 957.638C388.155 957.209 387.838 956.882 387.437 956.658C387.045 956.425 386.611 956.308 386.135 956.308C385.659 956.308 385.225 956.42 384.833 956.644C384.441 956.868 384.128 957.195 383.895 957.624C383.661 958.053 383.545 958.557 383.545 959.136C383.545 959.724 383.661 960.237 383.895 960.676C384.128 961.105 384.441 961.437 384.833 961.67C385.225 961.894 385.659 962.006 386.135 962.006C386.611 962.006 387.045 961.894 387.437 961.67C387.838 961.437 388.155 961.105 388.389 960.676C388.622 960.237 388.739 959.729 388.739 959.15ZM392.586 963.084C392.343 963.084 392.138 963 391.97 962.832C391.802 962.664 391.718 962.459 391.718 962.216C391.718 961.973 391.802 961.768 391.97 961.6C392.138 961.432 392.343 961.348 392.586 961.348C392.819 961.348 393.015 961.432 393.174 961.6C393.342 961.768 393.426 961.973 393.426 962.216C393.426 962.459 393.342 962.664 393.174 962.832C393.015 963 392.819 963.084 392.586 963.084Z" fill="white"/>
<path d="M580.804 566.08C588.307 566.659 594.224 565.689 599 563.223C590.189 583.467 579.413 602.659 566.914 620.558C564.738 619.452 561.216 618.697 556.226 618.006C545.13 616.48 533.948 615.644 522.748 615.502C469.909 614.795 437.315 581.735 436.402 528.698C436.13 512.978 436.36 497.248 436.59 481.517C437.058 449.455 437.526 417.393 433.75 385.41C430.744 359.864 418.808 348.196 397.295 349.139C376.313 350.023 365.881 362.987 365.645 389.712C365.507 413.408 365.553 437.026 365.599 460.618C365.622 472.404 365.645 484.183 365.645 495.963L365.055 496.021C365.055 507.892 365.111 519.739 365.167 531.57C365.278 555.188 365.389 578.745 365.055 602.302C364.466 644.053 335.762 674.314 298.159 674.992C263.326 675.61 228.61 641.696 230.378 601.536C232.067 563.97 231.433 526.29 230.801 488.65C230.649 479.642 230.498 470.637 230.378 461.636C230.113 439.92 214.907 424.657 195.398 424.746C175.889 424.834 161.419 439.891 160.388 461.783C160.109 467.712 160.129 473.651 160.149 479.594C160.163 483.694 160.177 487.795 160.093 491.896C159.297 531.998 127.352 565.087 87.2142 569.772C68.6053 571.965 50.013 572.293 31.4124 572.621C25.2693 572.73 19.1253 572.838 12.9795 573.013C3.86001 573.29 -0.676781 574.878 -1.45425 578.921C-11.2882 559.226 -19.2172 538.415 -25 516.727C-21.8777 519.325 -17.5897 520.548 -11.7137 520.45C0.950033 520.244 13.6138 520.235 26.2751 520.226H26.2755C42.5548 520.215 58.8301 520.203 75.0961 519.772C96.1427 519.212 107.403 508.04 109.496 486.787C110.004 480.863 110.054 474.897 110.103 468.927V468.926C110.137 464.856 110.171 460.784 110.35 456.721C112.355 407.79 148.995 374.422 198.369 374.186C235.982 374.009 282.585 411.946 280.905 459.315C278.948 506.487 279.805 553.734 283.469 600.804C283.523 601.448 283.573 602.096 283.623 602.744C284.339 611.994 285.057 621.272 297.205 621.438C311 621.644 311.944 610.649 312.445 600.067C312.516 598.597 312.586 597.128 312.657 595.658C314.83 550.556 317.002 505.477 315.746 460.288C315.746 455.693 315.723 451.096 315.7 446.498V446.496C315.636 433.959 315.572 421.419 315.982 408.91C316.159 403.444 315.953 397.938 315.747 392.429V392.429C315.267 379.609 314.786 366.778 319.136 354.407C332.46 316.235 372.667 291.563 410.987 297.458C453.994 304.149 485.151 338.46 485.74 381.025C486.098 405.5 486.102 429.976 486.105 454.452C486.109 478.406 486.112 502.361 486.448 526.316C486.802 553.376 498.858 564.93 525.918 565.608C533.241 565.797 540.579 565.684 547.913 565.571C558.908 565.401 569.893 565.231 580.804 566.08Z" fill="white" fill-opacity="0.1"/>
<path d="M291.119 100.024C292.515 100.009 293.908 100.001 295.299 100L295.108 100C293.777 100 292.447 100.008 291.119 100.024Z" fill="white" fill-opacity="0.1"/>
<path d="M245.002 300.435C244.777 287.318 239.488 274.796 230.241 265.489C220.995 256.182 208.508 250.811 195.392 250.501C169.57 250.501 143.954 274.554 143.512 299.197C143.536 312.962 148.908 326.179 158.495 336.058C168.082 345.936 181.132 351.702 194.891 352.137C221.42 352.491 244.795 328.379 245.002 300.435Z" fill="white" fill-opacity="0.1"/>
<path d="M397.84 274.495C411.476 274.653 424.622 269.411 434.408 259.913C444.194 250.414 449.825 237.431 450.073 223.795C450.073 198.21 423.809 172.742 398.134 173.272C373.374 173.803 348.613 199.271 348.672 224.12C348.761 250.324 372.136 274.525 397.751 274.554L397.84 274.495Z" fill="white" fill-opacity="0.1"/>
</g>
<defs>
<clipPath id="clip0_440_3153">
<rect width="564" height="1024" fill="white"/>
</clipPath>
</defs>
</svg>
