<svg width="171" height="183" viewBox="0 0 171 183" fill="none" xmlns="http://www.w3.org/2000/svg">
<path d="M19.2335 45.0155C20.5289 45.9489 21.5598 46.6417 22.5335 47.4069C23.6556 48.2899 24.1596 49.4882 23.5049 50.8385C22.8075 52.2748 21.5102 52.2876 20.1971 51.8525C19.1403 51.5028 18.1069 51.0816 16.3321 50.4198C17.3678 52.6049 18.0965 54.0685 18.7559 55.5651C19.1197 56.3878 19.4517 57.2449 19.6492 58.1218C19.9949 59.661 19.7227 61.0469 18.0497 61.5905C16.5489 62.0784 15.6932 61.1191 15.0065 59.9058C12.9769 56.3213 10.9471 52.7388 8.88069 49.1781C6.84314 45.6687 7.45831 43.8611 11.0848 42.1636C15.2513 40.2132 19.3455 38.1026 23.4676 36.0551C24.1541 35.7149 24.7981 35.2686 25.508 34.9972C27.0552 34.4035 28.3036 34.9063 29.0301 36.3829C29.6986 37.7389 29.2345 39.0383 28.0813 39.811C26.1665 41.0927 24.1153 42.1598 22.1226 43.3212C21.2692 43.8177 20.4201 44.3196 19.2335 45.0155Z" fill="#07134F"/>
<path d="M118.296 159.062C119.822 158.242 120.81 157.682 121.824 157.173C123.242 156.458 124.578 156.486 125.558 157.906C126.394 159.12 125.902 160.722 124.314 161.886C122.987 162.855 121.577 163.704 120.113 164.668C120.714 166.928 121.254 168.919 121.771 170.916C122.162 172.419 122.127 173.82 120.481 174.545C119.127 175.143 117.779 174.333 116.995 172.378C116.387 170.857 115.944 169.263 115.331 167.41C113.83 168.221 112.727 168.84 111.604 169.415C110.808 169.824 110.012 170.275 109.167 170.531C107.756 170.96 106.389 170.478 106.092 169.062C105.906 168.179 106.458 166.681 107.174 166.133C109.09 164.664 111.276 163.559 113.615 162.15C112.661 159.434 111.746 156.897 110.88 154.342C109.917 151.504 110.276 149.89 111.942 149.279C113.621 148.665 114.927 149.634 115.98 152.414C116.754 154.455 117.421 156.539 118.296 159.062Z" fill="#07134F"/>
<path d="M74.5729 36.723C75.0284 36.5804 75.8952 36.0044 76.6601 36.1199C79.7852 36.593 82.895 37.2081 85.9806 37.9139C87.4668 38.2539 88.4748 39.2668 88.203 40.9991C87.9724 42.4807 86.5733 43.1205 84.566 42.7573C81.6946 42.237 78.7963 41.8264 75.9681 41.1294C73.7329 40.5773 72.9981 38.5302 74.5729 36.723Z" fill="#07134F"/>
<path d="M90.7917 99.9954C89.7099 101.086 88.7657 102.41 87.4972 103.177C86.7066 103.657 85.1884 103.695 84.4232 103.22C83.2166 102.47 83.1748 100.95 84.1256 99.8207C85.8589 97.7665 87.6418 95.7331 89.591 93.9C90.6763 92.8785 92.2212 92.6816 93.3472 93.9691C94.4963 95.2849 93.9654 96.58 92.878 97.7306C92.1745 98.4763 91.5155 99.2656 90.8356 100.034C90.8219 100.021 90.8063 100.009 90.7917 99.9954Z" fill="#07134F"/>
<path d="M78.4794 107.458C80.1924 105.611 81.9188 105.187 82.9707 106.1C84.3065 107.259 83.9417 108.567 83.1518 109.911C82.1076 111.684 81.129 113.495 80.1278 115.294C79.3477 116.693 78.2454 117.504 76.6929 116.761C75.111 116.004 75.0369 114.511 75.6562 113.106C76.5878 110.992 77.7169 108.966 78.4794 107.458Z" fill="#07134F"/>
<path d="M42.0151 50.1259C40.7939 49.0114 40.7912 47.1869 42.1782 46.2197C44.3712 44.6911 46.7216 43.3539 49.1371 42.2307C49.7968 41.9243 51.2956 42.3939 51.7302 43.009C52.1832 43.649 52.2204 45.304 51.7353 45.8074C49.3919 48.2312 46.5635 49.9534 43.1883 50.4692C42.7466 50.5372 42.2487 50.1991 42.0151 50.1259Z" fill="#07134F"/>
<path d="M96.9506 88.1272C96.9117 87.6085 96.5925 86.5819 96.8178 85.7008C97.3333 83.6991 98.0618 81.7476 98.8119 79.8182C99.3571 78.4224 100.219 77.2398 101.962 77.6795C103.727 78.1263 104.034 79.6134 103.635 81.0591C103.019 83.2929 102.273 85.5327 101.244 87.5947C100.386 89.319 98.5707 89.5808 96.9506 88.1272Z" fill="#07134F"/>
<path d="M66.3617 35.5739C67.7211 36.6709 67.676 38.7111 65.9951 39.4126C63.532 40.4414 60.9175 41.139 58.314 41.7184C57.7119 41.8524 56.5621 41.0981 56.2584 40.4588C55.9432 39.7941 56.0958 38.6204 56.4907 37.9369C57.4996 36.1831 63.8914 34.3798 65.7085 35.1718C65.9395 35.2731 66.1458 35.4377 66.3617 35.5739Z" fill="#07134F"/>
<path d="M35.3708 49.5301C36.5738 50.7338 36.2923 53.039 34.6241 53.285C31.9129 53.6827 29.0622 53.6856 26.3538 53.2856C24.6 53.0267 24.3715 50.3751 25.7823 49.2364C27.0731 48.1957 34.2573 48.4166 35.3708 49.5301Z" fill="#07134F"/>
<path d="M79.3074 135.38C78.3163 136.591 76.7663 136.523 75.708 135.22C74.4035 133.617 74.1925 127.657 75.3746 125.829C76.4916 124.103 78.8646 124.024 79.2486 125.918C79.8222 128.764 79.6111 131.781 79.7024 134.728C79.7084 134.94 79.4452 135.164 79.3074 135.38Z" fill="#07134F"/>
<path d="M100.498 61.9921C101.844 60.6757 103.421 60.8009 104.326 62.3285C105.882 64.9508 106.547 67.8862 105.825 70.9081C105.646 71.6521 104.431 72.5786 103.656 72.6168C102.913 72.6548 101.654 71.7955 101.439 71.0755C100.743 68.7351 100.35 66.2875 100.004 63.8573C99.9078 63.1807 100.374 62.418 100.498 61.9921Z" fill="#07134F"/>
<path d="M94.6028 157.493C94.4841 156.258 93.9856 154.946 94.3517 153.966C94.8788 152.552 96.3306 152.495 97.6153 153.107C99.4514 153.983 101.363 154.773 103.006 155.945C103.745 156.472 104.349 157.889 104.235 158.805C104.042 160.368 102.53 160.769 101.255 160.337C99.1137 159.609 97.0741 158.57 94.6028 157.493Z" fill="#07134F"/>
<path d="M80.7019 142.184C81.979 141.057 83.3075 140.91 84.2034 142.075C85.6743 143.986 86.9681 146.065 88.0928 148.207C88.3945 148.784 88.0663 150.09 87.5714 150.615C87.0875 151.126 85.9528 151.37 85.2257 151.199C83.1191 150.7 80.0014 145.665 80.2972 143.482C80.3626 142.991 80.5932 142.523 80.7019 142.184Z" fill="#07134F"/>
<path d="M98.3727 47.1579C98.8849 47.9378 99.9258 49.2476 100.659 50.7187C101.291 51.9907 101.016 53.4974 99.6167 53.9583C98.7676 54.2371 97.3726 53.8641 96.6626 53.2537C95.4322 52.1949 94.4885 50.7659 93.5267 49.4149C92.6437 48.1743 92.2945 46.7893 93.6122 45.5986C94.9784 44.3649 96.1696 45.0896 97.2633 46.1387C97.4478 46.3144 97.6379 46.4836 98.3727 47.1579Z" fill="#07134F"/>
</svg>
