<svg width="120" height="120" viewBox="0 0 120 120" fill="none" xmlns="http://www.w3.org/2000/svg">
<path d="M55.0082 0.0889626C44.5485 0.868305 34.7576 3.89216 26.2013 8.97348C24.1779 10.1581 22.1717 11.4985 22.1717 11.6388C22.1717 11.7168 22.6861 12.3714 23.3034 13.104C23.9378 13.8366 24.418 14.4601 24.3837 14.4912C24.3494 14.5068 23.8693 14.8653 23.3377 15.2706L22.3603 16.0187L21.5201 15.3485C21.0572 14.99 20.6285 14.6939 20.577 14.6783C20.4399 14.6471 15.4844 19.4323 15.4844 19.5881C15.4844 19.7596 24.5723 26.4619 24.7266 26.3996C24.8123 26.3684 25.3096 25.9008 25.8755 25.3397C28.1732 23.0328 31.2082 20.6948 34.5347 18.6841L36.198 17.6709L35.3577 16.4084C34.3804 14.8965 34.226 15.1147 37.2611 13.7742C42.268 11.5609 47.2406 10.2204 53.2078 9.48784C56.4314 9.09817 63.3245 9.09817 66.5824 9.48784C72.2238 10.1893 77.0078 11.4518 81.9976 13.6028C83.0779 14.0548 83.9866 14.4601 84.0209 14.4912C84.0552 14.5224 83.7123 15.1303 83.2665 15.8473L82.4434 17.1566L84.9297 18.6529C88.1019 20.5389 90.3996 22.2379 92.5087 24.2018L94.1548 25.7605L98.6816 22.2847C101.151 20.3675 103.208 18.7464 103.226 18.6841C103.26 18.6062 102.077 17.4683 100.619 16.1434L97.9614 13.7275L97.1384 14.4756L96.2982 15.2238L95.3723 14.5692C94.8578 14.2107 94.3777 13.8678 94.292 13.7898C94.2063 13.7275 94.6521 13.0416 95.2694 12.2623L96.4182 10.8439L95.5094 10.236C93.8805 9.11376 90.2281 7.11864 87.6218 5.91845C81.0888 2.91018 74.6758 1.14887 67.0968 0.307178C64.5248 0.0266151 57.6317 -0.0980797 55.0082 0.0889626ZM63.9761 1.03976C70.6634 1.46061 77.025 2.81666 82.8206 5.01441C86.1129 6.26136 91.1026 8.72409 94.1034 10.5789L94.6864 10.9374L92.4573 13.821C91.2227 15.3953 90.1939 16.7046 90.1767 16.7357C90.1424 16.7513 89.1993 16.2525 88.0848 15.6291C77.3679 9.58136 66.8225 7.30568 54.4081 8.36559C46.0403 9.067 38.2899 11.6388 30.3508 16.3305C29.3392 16.9384 28.4818 17.406 28.4475 17.3748C28.4132 17.3436 27.3501 16.0499 26.0812 14.5068L23.7664 11.6856L25.8412 10.4231C33.8488 5.55995 42.0108 2.6608 51.013 1.49178C55.5912 0.883892 59.6208 0.74361 63.9761 1.03976ZM94.5663 15.3329L95.3551 15.9408L93.3318 18.2632C92.2001 19.5414 91.2913 20.6325 91.2741 20.6792C91.2741 20.7571 94.4463 23.3446 95.0293 23.7342C95.0807 23.7654 94.9607 23.9213 94.7721 24.0927C94.4463 24.3889 94.4292 24.3733 92.9031 23.1264C91.1198 21.6612 87.7247 19.1673 86.1643 18.1853C85.5813 17.8112 85.1355 17.4683 85.1698 17.4371C85.2041 17.3904 86.4901 17.4527 88.0162 17.5618C89.8166 17.6865 90.8283 17.7021 90.8969 17.593C91.2227 17.1566 93.5547 14.7406 93.6576 14.7406C93.709 14.7406 94.1205 15.0056 94.5663 15.3329ZM99.8819 16.876L101.717 18.5594L99.0074 20.726C97.4985 21.9106 96.2125 22.877 96.1267 22.8614C96.0581 22.8614 95.2694 22.3158 94.412 21.6456C92.8345 20.461 92.8174 20.4454 93.1431 20.1337C93.3146 19.9466 94.4292 18.7776 95.6295 17.4995C96.8298 16.237 97.8757 15.2082 97.9272 15.2082C97.9957 15.2082 98.8702 15.9564 99.8819 16.876ZM28.6018 18.3412C28.9791 18.31 30.2136 18.2009 31.3454 18.0918C32.4771 17.9827 33.4373 17.9203 33.4716 17.9515C33.5059 17.9827 33.3173 18.1697 33.0429 18.3568C30.0936 20.4454 28.4304 21.7235 25.9612 23.8122C25.1724 24.4824 24.4694 25.0279 24.418 25.0279C24.3494 25.0279 24.1608 24.9344 23.9893 24.8253C23.7149 24.6383 23.8521 24.4824 25.5668 23.064C26.6128 22.2223 27.4701 21.4741 27.4701 21.4274C27.4873 21.3806 26.5613 20.3207 25.4296 19.1049C24.2979 17.8736 23.372 16.8137 23.372 16.7513C23.372 16.689 23.7321 16.3617 24.1608 16.0032L24.9495 15.3797L26.4242 16.8916C27.8817 18.3879 27.916 18.4035 28.6018 18.3412ZM23.2691 18.5126C24.6409 19.8999 25.7726 21.0845 25.7726 21.1468C25.7726 21.2092 25.0695 21.8326 24.1951 22.5185C22.6518 23.781 22.6347 23.781 22.2746 23.5004C22.0688 23.3446 20.92 22.4561 19.6854 21.5209C18.468 20.5857 17.3534 19.744 17.2162 19.6349C17.0105 19.4634 17.2677 19.1517 18.7423 17.7177C19.7025 16.7669 20.5599 15.9876 20.6285 15.9876C20.6971 15.9876 21.8802 17.1254 23.2691 18.5126Z" fill="#E0E0E0"/>
<path d="M60.7594 2.49805C60.6949 2.54314 60.6465 3.35475 60.6465 4.30163V6H61.2916H61.9368V4.2866C61.9368 2.64834 61.9207 2.57319 61.582 2.48302C61.0981 2.36278 60.8884 2.37781 60.7594 2.49805Z" fill="#E0E0E0"/>
<path d="M55.4844 4.2V6H56.1774H56.8874L56.786 5.1C56.7184 4.605 56.7014 4.2 56.7353 4.2C56.7691 4.2 57.0902 4.605 57.4452 5.1C58.0707 5.955 58.1383 6 58.6961 5.97C59.2708 5.925 59.2877 5.91 59.3384 5.25C59.3722 4.875 59.3553 4.08 59.2877 3.48L59.1694 2.4H58.6116H58.0368L57.9861 3.255L57.9354 4.125L57.3438 3.27C56.8029 2.475 56.7014 2.415 56.1267 2.4H55.4844V4.2Z" fill="#E0E0E0"/>
<path d="M62.0705 3.5088C61.8672 6.0144 61.8203 5.784 62.4613 5.8272C63.0084 5.8704 63.0396 5.856 63.1491 5.3232C63.321 4.488 63.3835 4.4736 63.8681 5.2656C64.3058 5.9712 64.3527 6 65.0093 6H65.6815L65.0405 4.8624L64.3996 3.7248L65.1031 3.1344L65.8065 2.5584L64.9936 2.544C64.2746 2.544 64.1495 2.5872 63.8525 2.976C63.4148 3.5376 63.2741 3.5232 63.3523 2.904C63.4148 2.4 63.4148 2.4 62.7895 2.4H62.1642L62.0705 3.5088Z" fill="#E0E0E0"/>
<path d="M52.8678 4.02924C52.5569 4.26463 52.3043 4.51386 52.3043 4.58309C52.3043 4.65232 52.2266 4.7077 52.11 4.7077C52.0128 4.7077 51.9157 4.51386 51.9157 4.29232C51.9157 3.90463 51.8768 3.87694 51.119 3.87694H50.3223L50.4389 4.38924C50.4972 4.68001 50.5943 5.26155 50.6526 5.67694C50.8664 7.06155 50.9246 7.20001 51.4299 7.20001C52.2654 7.20001 52.4209 7.08924 52.3432 6.52155C52.246 5.77386 52.5375 5.73232 53.1981 6.36924C53.6839 6.85386 53.8588 6.92309 54.5584 6.92309C54.9859 6.92309 55.4134 6.88155 55.4717 6.82617C55.5494 6.78463 55.2385 6.42463 54.7721 6.03694C53.3342 4.80463 53.3925 4.95694 54.1503 4.23694L54.8498 3.60001H54.1309C53.6062 3.60001 53.2953 3.69694 52.8678 4.02924Z" fill="#E0E0E0"/>
<path d="M68.5781 4.33763C68.4235 5.40435 68.3462 6.36441 68.4081 6.47108C68.4544 6.57775 68.7018 6.66665 68.9337 6.66665C69.3975 6.66665 69.5676 6.34663 69.5676 5.47547C69.5676 4.71098 69.8459 4.90655 70.186 5.93772C70.4797 6.84444 70.588 7.00445 70.9899 7.09334C71.2528 7.14668 71.5156 7.20001 71.5774 7.20001C71.6547 7.20001 72.1185 4.51541 72.2577 3.21756C72.2577 3.11089 72.0103 2.98644 71.7011 2.9331L71.1291 2.80865L71.0209 3.7687C70.9745 4.28429 70.8817 4.71098 70.8199 4.71098C70.7735 4.71098 70.5725 4.23095 70.3715 3.66203C70.1242 2.91532 69.9232 2.57752 69.6758 2.50641C68.8719 2.2575 68.8564 2.29306 68.5781 4.33763Z" fill="#E0E0E0"/>
<path d="M47.7238 3.93264C47.0638 4.11185 46.4864 4.29107 46.4534 4.32691C46.4039 4.3986 47.2123 8.26961 47.3113 8.39506C47.3608 8.44883 49.0602 8.05456 50.0666 7.74989C50.2811 7.69613 50.3471 7.53484 50.3141 7.19433C50.2646 6.67461 50.2976 6.69253 48.9117 6.90759C48.3507 6.9972 48.2022 6.97927 48.2022 6.76422C48.2022 6.585 48.4497 6.44163 48.8952 6.3341C49.6047 6.17281 49.8191 5.85023 49.5387 5.38427C49.4232 5.18714 49.2582 5.16922 48.7137 5.31259C48.2517 5.43804 48.0043 5.45596 47.9383 5.33051C47.7898 5.07961 48.1692 4.86455 48.9942 4.72118C49.6212 4.61365 49.7036 4.55989 49.6212 4.21938C49.5717 4.02225 49.5222 3.78927 49.5222 3.69966C49.5222 3.52045 49.1097 3.57421 47.7238 3.93264Z" fill="#E0E0E0"/>
<path d="M45.8375 3.66531C45.7489 3.70162 44.97 3.95583 44.1202 4.21003L42.5801 4.68212L42.7571 5.20868C42.9164 5.66261 43.005 5.71708 43.5183 5.6263L44.1025 5.53551L44.5097 7.00625C44.8107 8.132 44.9877 8.47699 45.1647 8.38621C45.3064 8.33173 45.625 8.24095 45.8552 8.18648C46.0853 8.132 46.28 8.05938 46.28 8.04122C46.28 8.04122 46.0853 7.3694 45.8375 6.57048C45.3949 5.08158 45.4303 4.86369 46.1561 4.84553C46.4748 4.84553 46.5279 4.6458 46.3508 3.97398C46.2446 3.57452 46.1738 3.53821 45.8375 3.66531Z" fill="#E0E0E0"/>
<path d="M74.3855 5.04531C73.9453 6.72616 73.5051 8.65214 73.5523 8.70466C73.6309 8.80972 76.3822 9.65014 76.4293 9.59762C76.4451 9.58011 76.5079 9.35249 76.5708 9.08986C76.6652 8.65214 76.6337 8.61712 75.7848 8.33698C74.8572 8.03933 74.6528 7.5841 75.4861 7.68915C76.5551 7.82922 76.5708 7.82922 76.5708 7.37399C76.5708 7.0063 76.4608 6.90125 75.9891 6.77869C75.659 6.69114 75.3917 6.51606 75.3917 6.37598C75.3917 6.07833 75.6747 6.09584 76.4608 6.39349L77.1054 6.65613L77.2626 6.14837L77.4198 5.6231L76.3665 5.29044C74.5428 4.69513 74.4799 4.67763 74.3855 5.04531Z" fill="#E0E0E0"/>
<path d="M41.7346 6.04611C41.4828 6.07752 41.2891 6.20313 41.2891 6.31305C41.2891 6.40726 41.5796 7.20805 41.9477 8.05595C42.5676 9.56332 42.6063 9.62613 43.1293 9.59473C44.0592 9.53192 44.0785 9.3592 43.3812 7.632C42.7032 5.99901 42.6063 5.9048 41.7346 6.04611Z" fill="#E0E0E0"/>
<path d="M78.5607 5.00835C77.9145 5.35764 77.5268 6.09115 77.446 7.10409C77.3814 7.99478 77.3976 8.04717 77.963 8.58857C78.383 8.99025 78.7223 9.14743 79.11 9.14743C79.4008 9.14743 79.6754 9.21729 79.7077 9.30462C79.74 9.37447 79.9177 9.49672 80.1116 9.56658C80.4185 9.67137 80.4993 9.56658 80.7901 8.71082C80.9839 8.16942 81.1293 7.69788 81.1293 7.64549C81.1293 7.57563 79.74 6.87705 79.5946 6.87705C79.4331 6.87705 79.4008 7.68042 79.5462 7.88999C79.7077 8.0821 79.6592 8.11703 79.2715 8.06464C78.593 7.97731 78.4315 7.57563 78.803 6.77227C79.1746 5.95143 79.9177 5.7244 80.1277 6.35312C80.2085 6.56269 80.4993 6.84212 80.7739 6.98184L81.2909 7.20888V6.65001C81.2909 5.30525 79.7239 4.36217 78.5607 5.00835Z" fill="#E0E0E0"/>
<path d="M37.8156 7.41713C37.2463 7.64844 37.2309 7.54724 38.1695 9.45552L38.8158 10.8L40.0313 10.2795C40.6929 9.99042 41.2469 9.74465 41.2776 9.71574C41.37 9.64346 40.9545 8.92062 40.816 8.92062C40.7391 8.92062 40.416 9.05073 40.0929 9.20976L39.4928 9.48443L38.9542 8.34236C38.6465 7.70626 38.3696 7.18583 38.3542 7.20028C38.3234 7.20028 38.0926 7.30148 37.8156 7.41713Z" fill="#E0E0E0"/>
<path d="M83.0344 7.56173C82.9375 7.75903 82.5114 8.58114 82.0659 9.37037L81.291 10.8173L81.969 11.0639C82.337 11.1954 83.1119 11.475 83.693 11.7052C84.7197 12.0833 84.7584 12.0833 84.9521 11.7874C85.2621 11.2941 85.204 11.2119 84.1773 10.8008C83.6543 10.5871 83.2087 10.3569 83.2087 10.2911C83.2087 10.0116 83.6155 9.97873 84.3129 10.2254C84.9909 10.472 85.0684 10.472 85.2814 10.2089C85.6495 9.78142 85.6107 9.73209 84.7584 9.40325C84.3323 9.23883 83.9836 9.00864 83.9836 8.8771C83.9836 8.61403 84.4485 8.69624 85.417 9.10729C85.9401 9.33748 86.0175 9.33748 86.25 9.05796C86.3856 8.89354 86.4824 8.67979 86.4437 8.59758C86.405 8.49893 85.6689 8.15365 84.7778 7.80836L83.1894 7.2L83.0344 7.56173Z" fill="#E0E0E0"/>
<path d="M34.7165 8.60384C33.6194 9.07099 33.2486 10.0194 33.8048 10.9962C34.3147 11.888 35.1645 12.2136 36.1689 11.8597C37.5749 11.3784 37.853 9.86372 36.7096 8.85865C36.1225 8.34904 35.5045 8.2641 34.7165 8.60384ZM35.8135 9.55229C36.3543 10.0477 36.3388 10.9254 35.7826 10.9962C35.0255 11.0953 34.3302 9.90618 34.9173 9.50982C35.2727 9.26917 35.5199 9.28333 35.8135 9.55229Z" fill="#E0E0E0"/>
<path d="M85.3512 9.76877C84.9256 10.5188 84.4261 11.4 84.2226 11.7375L83.8711 12.3375L84.4631 12.6563C85.0551 12.9563 85.0736 12.9563 85.3882 12.5625C85.5732 12.3375 85.7397 12.0563 85.7767 11.9438C85.8877 11.6438 86.4612 11.8875 86.6092 12.2813C86.6647 12.45 86.6277 12.75 86.5167 12.9375C86.1652 13.5 86.2577 13.7625 86.9237 14.0813L87.5527 14.4L87.7747 13.575C87.9043 13.1063 87.9598 12.6188 87.9043 12.4688C87.8302 12.2813 87.9228 12.1688 88.2003 12.1313C88.7368 12.0563 89.1623 11.25 88.9958 10.6125C88.8848 10.125 88.6813 9.97502 86.8127 8.83127L86.1282 8.40002L85.3512 9.76877ZM87.6637 10.95C87.5342 11.2875 87.2012 11.3063 86.7757 10.9875C86.5907 10.8375 86.4982 10.6313 86.5722 10.425C86.6832 10.1438 86.7572 10.1438 87.2382 10.3875C87.5712 10.575 87.7192 10.7625 87.6637 10.95Z" fill="#E0E0E0"/>
<path d="M30.5638 9.69599C30.0614 9.88347 28.3867 10.9743 28.3867 11.1107C28.3867 11.2811 30.0111 13.9912 30.2958 14.298C30.4465 14.4684 30.5973 14.4343 30.9657 14.1275L31.4513 13.7355L31.1332 13.2412C30.8317 12.764 30.8317 12.764 31.2336 12.4913C32.3891 11.7243 32.5734 10.9061 31.7528 10.071C31.2671 9.57668 31.0494 9.5085 30.5638 9.69599ZM31.0327 11.1448C31.0662 11.2982 30.9154 11.5197 30.7145 11.622C30.4298 11.7924 30.3126 11.7754 30.0949 11.5538C29.8437 11.3152 29.8604 11.2641 30.1451 11.0254C30.5638 10.7187 30.9657 10.7698 31.0327 11.1448Z" fill="#E0E0E0"/>
<path d="M89.277 10.9671C89.0733 11.2405 87.7422 13.6557 87.7422 13.7317C87.7422 13.762 87.9323 13.9291 88.1768 14.0962L88.6115 14.4L89.4671 12.8658L90.3228 11.3317L89.9425 11.0582C89.5079 10.7393 89.44 10.7241 89.277 10.9671Z" fill="#E0E0E0"/>
<path d="M56.4614 12.0872C49.3004 12.7896 42.7904 14.9287 37.0513 18.4725C30.7126 22.3835 25.8815 27.364 22.4381 33.5098C21.3931 35.3934 21.3417 35.4413 21.3417 34.8347C21.3417 33.1426 20.4851 31.4027 18.7891 29.5669C17.3671 28.0344 16.6476 26.917 16.0994 25.4165C15.3799 23.4211 15.3456 20.4998 15.9795 17.4668C16.0651 17.0837 16.0137 17.0358 15.6369 17.0358C15.0201 17.0358 11.748 20.2604 10.2233 22.3675C7.60214 26.039 6.3344 29.4871 6.16309 33.4779C5.95751 37.7879 7.15672 41.5872 9.77785 45.0671C11.3026 47.0625 14.2492 49.2974 16.5791 50.2232L17.3671 50.5265L17.4699 50.1913C17.6755 49.457 17.5385 49.0419 16.6305 47.5254C14.2492 43.5825 13.444 40.2941 14.2321 37.8198L14.5062 36.9898L14.9516 37.4687C16.3392 39.0171 18.9432 38.9692 20.2966 37.3729C20.7592 36.8142 20.7592 36.878 20.1425 38.4264C18.8062 41.7787 17.9496 45.9132 17.7954 49.5687L17.6926 52.0111L17.2472 51.9153C16.3392 51.7078 13.8723 50.4627 12.6217 49.6007C9.33243 47.3179 7.01967 44.2211 5.59774 40.2622C4.63838 37.5964 4.34714 35.7287 4.33001 32.4403C4.33001 30.9397 4.3814 29.4871 4.46706 29.1838L4.58698 28.641L3.98738 29.072C3.66188 29.3115 3.25072 29.8063 3.09653 30.1735C1.96585 32.7595 0.903691 36.5428 0.321217 40.0228C-0.107072 42.6567 -0.107072 48.2438 0.321217 50.6223C0.937954 53.9905 2.23995 57.231 3.79893 59.1945C4.91248 60.6152 7.99617 62.451 10.703 63.313C13.3241 64.1591 16.7161 64.3666 19.6456 63.8877C22.6951 63.3928 26.8409 62.0519 30.233 60.4556C32.5629 59.3701 33.882 59.0987 36.7601 59.1147C39.0043 59.1147 39.3812 59.1626 40.7004 59.5617C44.7263 60.8068 47.6558 63.0257 49.9514 66.6014L50.3797 67.2399L49.3518 66.4258C48.0327 65.3882 47.4673 65.0211 46.2339 64.4624C43.4928 63.1853 40.8203 63.1693 37.9593 64.3985C36.3318 65.0849 34.7043 66.2502 32.6485 68.2297C28.6397 72.0449 24.3568 73.9604 19.1317 74.2797C13.8894 74.599 8.06469 72.5876 3.91885 69.0119C2.94235 68.1658 2.66824 68.0062 2.51406 68.1818C2.29135 68.4212 2.85669 69.7781 4.0559 71.8852C7.34517 77.616 11.748 81.1758 16.9731 82.3092C22.9349 83.5862 27.8345 82.8519 31.3465 80.1541C33.5051 78.494 35.0983 75.9399 36.0748 72.5876C37.925 66.2183 41.4542 64.2389 46.1311 66.9366C47.3303 67.6231 49.4032 69.4269 50.1741 70.4166L50.551 70.9115L50.0028 70.5443C48.8721 69.794 46.8335 69.0119 45.857 68.948C43.39 68.8043 42.5163 70.7518 42.9275 75.5089C43.1844 78.4301 43.0645 80.1541 42.4992 82.2293C41.8996 84.4802 40.7004 86.4436 39.1928 87.7207C35.9378 90.4504 31.5864 91.6795 24.4596 91.8551L20.9819 91.9509L21.7186 92.6533C22.9863 93.8825 25.7445 95.7023 27.5604 96.5323C30.0959 97.6657 31.7234 98.0329 34.3617 98.0329C37.8051 98.0169 40.529 97.2826 42.7219 95.7342C49.7116 90.8175 50.945 84.2726 46.508 75.6206C45.343 73.3379 45.2402 72.6355 46.0454 72.3641C46.7478 72.1247 48.0841 72.843 50.0371 74.5351C52.6411 76.7699 54.0459 78.5259 54.063 79.5795C54.063 79.8987 53.9945 79.9307 53.6861 79.8349C52.5212 79.4996 51.4933 80.0424 51.4933 81.0002C51.4933 81.6706 51.853 82.4688 52.3156 82.8679C52.8124 83.2829 54.0116 83.3787 54.7997 83.0754C55.502 82.7881 55.5192 82.804 55.6905 83.698C55.7933 84.3046 55.7419 84.4482 55.1937 85.1027C53.806 86.7948 54.3371 89.0137 56.3415 89.9396C56.8554 90.179 57.1467 90.4184 57.1467 90.61C57.1467 91.0091 58.1917 94.0102 59.1511 96.3887L59.9734 98.4L60.71 96.6281C61.5838 94.4891 62.8001 91.0091 62.8001 90.61C62.8001 90.4184 63.0913 90.195 63.6224 89.9396C65.2842 89.1733 66.0037 87.2897 65.1985 85.7732C64.9929 85.3581 64.6503 84.9112 64.4447 84.7515C64.1021 84.528 64.0678 84.4163 64.2049 83.8416C64.4447 82.7721 64.4276 82.7881 65.1471 83.0594C65.9352 83.3787 67.1344 83.2829 67.6312 82.8679C68.0938 82.4688 68.4535 81.6706 68.4535 81.0002C68.4535 80.0424 67.4256 79.4996 66.2607 79.8349C65.9523 79.9307 65.8838 79.8987 65.8838 79.5795C65.9009 78.494 67.5627 76.4347 70.1667 74.3276C72.4452 72.4439 73.5587 71.9491 74.1755 72.5237C74.638 72.9548 74.4838 73.6412 73.4388 75.6525C71.64 79.1006 70.8519 81.8941 70.8519 84.8154C70.8519 88.2953 72.034 90.9931 74.7751 93.7069C77.9102 96.8037 81.0281 98.0329 85.6708 98.0169C88.4461 98.0009 89.8851 97.6817 92.5234 96.4525C94.5621 95.5107 96.1724 94.4412 97.9027 92.9247L99.0163 91.9509L95.5043 91.8551C90.3991 91.7274 87.0756 91.1368 84.1289 89.8278C80.5998 88.2634 78.407 85.7572 77.4305 82.2134C76.8823 80.1541 76.7623 78.2705 77.0193 75.4929C77.5675 69.6344 75.9229 67.7827 71.8113 69.6025C71.0747 69.9218 70.2352 70.3528 69.944 70.5443L69.3958 70.9115L69.8241 70.3528C70.5778 69.363 72.3595 67.8146 73.6615 67.0165C78.3556 64.175 82.0046 66.1704 83.8719 72.5876C84.5058 74.7746 85.568 76.9136 86.6987 78.3024C89.4911 81.7345 94.2708 83.3947 99.7187 82.82C106.057 82.1495 110.46 79.6593 114.006 74.7586C115.908 72.1406 117.775 68.5649 117.433 68.1818C117.279 68.0062 117.022 68.1498 116.028 69.0119C114.486 70.3368 112.465 71.5819 110.409 72.4918C104.67 75.03 98.3481 74.9023 92.7632 72.1726C90.7246 71.1669 89.4568 70.2251 86.9556 67.9264C85.7736 66.8409 84.3688 65.6756 83.8206 65.3403C79.3321 62.5947 75.0321 62.9139 70.7149 66.33L69.5842 67.224L69.9954 66.5855C71.3659 64.4624 72.9934 62.7862 74.8436 61.6049C76.4368 60.5833 77.4476 60.1204 79.2464 59.5617C80.5484 59.1626 80.9596 59.1307 83.1867 59.1147C86.0648 59.0987 87.3668 59.3701 89.7138 60.4556C93.1059 62.0519 97.2517 63.3928 100.301 63.8877C103.282 64.3825 107 64.1112 109.518 63.2332C112.173 62.3073 115.103 60.5195 116.165 59.1786C117.536 57.4386 118.786 54.5333 119.403 51.6759C120.722 45.5301 119.814 37.3729 117.09 30.7641C116.73 29.8862 116.439 29.4392 115.977 29.104L115.36 28.641L115.48 29.1838C115.737 30.2054 115.617 35.0742 115.326 36.7503C115 38.5701 113.972 41.5712 113.15 43.0717C111.231 46.6634 107.736 49.872 104.156 51.3726C102.939 51.8674 102.819 51.8195 102.922 50.8777C102.974 50.4307 103.076 50.335 103.933 49.9997C106.229 49.1377 109.107 46.871 110.649 44.684C116.302 36.7822 114.709 26.7095 106.606 18.8556C105.201 17.4828 104.635 17.0358 104.31 17.0358C103.933 17.0358 103.882 17.0837 103.967 17.4668C104.601 20.4998 104.567 23.4211 103.847 25.4165C103.299 26.917 102.665 27.9227 101.449 29.1997C99.8215 30.9238 99.3246 31.7858 98.6565 33.9408C98.6222 34.0685 98.0569 33.2703 97.3888 32.1849C95.1959 28.641 93.1573 26.1827 89.9194 23.2455C83.358 17.2593 75.5631 13.6836 66.1408 12.3267C64.0678 12.0394 58.4829 11.8957 56.4614 12.0872ZM63.1427 13.5239C70.2695 14.0347 77.0536 16.1898 82.7584 19.7176C85.3624 21.3139 86.7329 22.3675 89.08 24.5066C92.472 27.6034 94.8704 30.6843 97.0461 34.7549C99.6159 39.5598 101.021 44.5882 101.295 49.9518C101.398 52.0749 101.312 52.474 100.661 52.474C100.404 52.474 100.353 52.2186 100.25 50.3988C100.044 46.5038 99.4274 43.4229 98.1597 39.8631C96.2752 34.5793 93.2087 29.9181 88.9258 25.8315C82.6727 19.8613 75.5803 16.3973 66.4834 14.8648C64.0507 14.4498 56.6327 14.4498 54.1487 14.8489C40.4776 17.0677 29.5991 24.8578 23.8429 36.5109C21.7871 40.6613 20.6221 45.3704 20.3652 50.3988C20.2795 52.2984 20.211 52.6337 19.9883 52.6337C19.2687 52.6177 19.2174 52.4581 19.3373 49.888C19.6799 42.2895 22.5066 34.9465 27.4919 28.7687C29.3079 26.5339 30.5242 25.2728 32.5115 23.5967C37.6852 19.2228 43.5442 16.2217 49.8658 14.7212C54.7483 13.5559 58.6885 13.2047 63.1427 13.5239ZM66.432 17.3232C67.4428 17.4828 68.3165 17.6584 68.3679 17.6903C68.4193 17.7382 68.2137 18.7758 67.9396 19.989C67.6483 21.2022 67.4428 22.2079 67.4599 22.2079C67.4942 22.2238 68.3336 22.4633 69.3444 22.7506C71.4002 23.3253 74.3468 24.4427 75.94 25.2728L77.0022 25.8156L78.407 23.9C79.2464 22.7506 79.8803 22.0323 80.0002 22.0961C82.0217 23.1976 84.3688 24.9695 86.7843 27.2363C88.7031 29.0241 91.4099 32.0891 91.4099 32.4722C91.4099 32.536 90.519 33.2065 89.4397 33.9248L87.4696 35.2498L87.915 35.9202C88.8572 37.341 90.3306 40.358 90.9816 42.1778C91.3413 43.2314 91.6668 44.1093 91.684 44.1413C91.7011 44.1732 92.8146 43.9816 94.1338 43.7262L96.5493 43.2473L96.7378 43.8858C97.2689 45.7695 97.9541 52.043 97.6971 52.6975C97.6286 52.8412 97.4402 52.9529 97.2689 52.9529C96.9605 52.9529 96.9262 52.7773 96.8406 50.4307C96.772 48.0522 96.3266 44.7798 96.0354 44.3328C95.9326 44.1732 95.47 44.2211 93.7911 44.5563C92.6262 44.7957 91.5469 45.0192 91.3927 45.0671C91.17 45.115 91.0844 45.0033 90.9987 44.5723C90.5875 42.5769 88.96 38.9373 87.4353 36.5747L86.4931 35.1221L88.429 33.6854L90.382 32.2327L89.3198 30.8918C87.3668 28.4654 82.4843 24.2352 80.3771 23.1497C80.0345 22.9741 80.0002 23.022 77.6532 26.0869L77.1392 26.7414L76.5054 26.3743C74.4838 25.177 71.0233 23.8202 68.3507 23.1816C67.4256 22.9582 66.6376 22.7506 66.6033 22.7187C66.5691 22.6708 66.7404 21.729 66.9802 20.6116C67.2201 19.4941 67.4256 18.4885 67.4256 18.3767C67.4256 17.9138 62.6117 17.4349 59.1168 17.5626C57.1467 17.6424 53.2578 18.0575 53.0694 18.2331C53.0522 18.249 53.2578 19.2707 53.5319 20.4839C53.806 21.6971 54.0116 22.7187 53.9945 22.7506C53.9602 22.7666 53.3092 22.9422 52.5383 23.1018C50.0542 23.6605 46.1825 25.1611 44.0924 26.3902L43.4414 26.7733L42.1394 24.9057C41.4199 23.868 40.8032 23.006 40.786 22.9741C40.6661 22.8464 39.6382 23.469 38.1135 24.5545C36.1091 25.9911 32.717 29.1519 31.3294 30.8599L30.2844 32.137L32.2202 33.5736L34.1561 35.0103L33.5736 35.8883C32.5457 37.3888 31.3294 39.8631 30.5242 42.1139C30.0959 43.2952 29.7361 44.3967 29.7361 44.5563C29.7361 44.7479 29.6334 44.8117 29.4449 44.7479C28.9824 44.6202 24.6138 44.269 24.5281 44.3488C24.3054 44.5723 23.86 47.9884 23.7572 50.2392C23.6544 52.8092 23.6544 52.8731 23.2775 52.921C22.9006 52.9689 22.8835 52.937 22.8835 51.628C22.8835 49.8082 23.1747 47.1264 23.5859 45.2108C23.7744 44.3328 23.9628 43.5825 23.9971 43.5506C24.0656 43.4868 27.2521 43.7901 28.1943 43.9337C28.6055 44.0136 28.6569 43.9337 29.1879 42.3693C29.8218 40.5017 31.1923 37.772 32.3059 36.1437C32.717 35.5212 32.974 34.9944 32.8884 34.9146C32.8027 34.8507 31.9461 34.2441 30.9696 33.5736L29.2051 32.3445L29.582 31.8337C30.7126 30.3331 32.4943 28.4016 34.2931 26.7733C36.4003 24.8578 37.4625 24.0596 39.7067 22.6549L41.0259 21.8248L41.6083 22.6549C41.9167 23.1178 42.5163 24.0117 42.9275 24.6183L43.6984 25.7517L45.4115 24.9216C47.6558 23.8202 49.2833 23.2295 51.4933 22.6868C52.4869 22.4473 53.3092 22.2398 53.3435 22.2238C53.3606 22.2079 53.1208 21.2022 52.8124 19.973C52.4012 18.4246 52.2813 17.7222 52.4184 17.6424C52.5212 17.5945 53.4977 17.4349 54.5769 17.2912C55.6562 17.1476 56.7355 17.0039 56.9754 16.972C58.0718 16.7964 64.6846 17.0358 66.432 17.3232ZM64.8559 18.4885C65.7467 18.5842 66.5177 18.68 66.5519 18.712C66.5862 18.7439 66.4491 19.7017 66.2264 20.8191C66.0208 21.9365 65.8495 22.9901 65.8324 23.1497C65.7981 23.3892 66.1579 23.5328 68.0252 23.9798C71.1774 24.7301 74.4838 26.071 77.105 27.6673C77.4305 27.8588 77.5504 27.7471 78.8867 25.8954L80.3086 23.9L80.8397 24.2512C81.148 24.4427 82.0389 25.0813 82.8441 25.6719C85.3624 27.5236 89.6282 31.8656 89.2513 32.1849C89.1656 32.2647 88.2919 32.9032 87.2983 33.6375C86.3046 34.3558 85.4652 34.9784 85.4309 35.0103C85.3967 35.0423 85.7564 35.6169 86.219 36.3033C87.8979 38.7457 89.2513 41.6191 90.0564 44.4446C90.4333 45.7535 90.4505 45.8014 90.8788 45.7216C92.2664 45.4662 95.3844 45.115 95.47 45.1948C95.7099 45.4183 96.0354 47.9245 96.1553 50.3509L96.2581 52.9529H93.2258C91.564 52.9529 89.4568 53.0327 88.5317 53.1285C85.7393 53.3999 82.2787 54.214 80.0345 55.1079C79.7432 55.2357 79.709 55.1878 79.8289 54.6929C81.405 47.3818 77.8759 39.5918 71.0918 35.4413C67.34 33.1586 62.5774 32.0572 58.2431 32.5041C53.4463 33.0149 49.6088 34.723 46.1653 37.9316C42.7219 41.1242 40.8545 44.8117 40.3577 49.3931C40.1693 51.0533 40.3406 53.6872 40.7004 54.8685C40.9059 55.523 40.8374 55.6028 40.3235 55.2835C39.7067 54.9164 36.486 53.9426 34.6872 53.6074C32.2716 53.1445 30.0445 52.9529 27.0808 52.9529H24.4254V51.1331C24.4254 49.2974 24.8536 45.4822 25.0935 45.2427C25.1963 45.1469 27.6632 45.3864 29.6676 45.6897C30.1816 45.7695 30.2158 45.7376 30.3358 45.1789C30.7812 42.9281 32.58 38.9532 34.2931 36.4151C34.8071 35.6489 35.2183 35.0103 35.2183 34.9944C35.2183 34.9624 34.3274 34.276 33.2481 33.4619C32.0318 32.552 31.3465 31.9135 31.4322 31.8177C33.2139 29.5669 36.5031 26.502 38.8501 24.8737C39.6039 24.331 40.3063 23.9 40.3749 23.9C40.4776 23.9 41.6255 25.3686 43.2872 27.6034C43.3386 27.6832 43.8868 27.4598 44.4864 27.1245C47.039 25.6719 49.9343 24.5545 52.8295 23.884C53.9088 23.6446 54.8339 23.4051 54.8853 23.3572C54.9367 23.3093 54.7654 22.3196 54.5084 21.1543C54.2686 19.989 54.063 18.9514 54.063 18.8556C54.063 18.6481 55.0909 18.5044 57.7463 18.3129C59.665 18.1692 62.4061 18.249 64.8559 18.4885ZM99.4446 36.1756C100.061 37.5165 100.078 37.5804 99.7015 37.2931C99.2732 36.9738 98.7764 35.9362 98.7764 35.3775C98.7764 34.723 98.7936 34.7549 99.4446 36.1756ZM62.1148 35.7287C64.2049 35.9681 65.4212 36.2874 67.2029 37.0696C69.2244 37.9635 70.6806 38.9213 72.1711 40.3899C73.6787 41.8745 74.2954 42.7046 75.2205 44.5403C76.5225 47.1104 77.0364 49.888 76.6938 52.5858C76.2484 56.1136 75.7516 57.1033 73.5245 58.9551C72.5822 59.7373 71.2117 61.0622 70.4751 61.8923C67.1515 65.6117 66.9288 65.7873 65.3698 65.7873C64.6503 65.7873 64.222 65.6915 63.5196 65.3244L62.6117 64.8614L63.9822 64.5102C69.2758 63.1693 73.2161 59.434 74.7408 54.3258C75.1691 52.921 75.1691 48.9462 74.7408 47.5254C73.9356 44.8117 72.6679 42.8004 70.5093 40.8209C68.1623 38.6659 65.3356 37.3888 62.0463 36.9738C57.575 36.4311 52.6068 38.1231 49.4717 41.2679C46.4908 44.269 44.9319 48.6588 45.4801 52.5698C46.2853 58.1729 50.4996 62.866 56.0674 64.3666L57.3865 64.7178L56.4443 65.2286C55.2965 65.8352 54.6112 65.9629 53.8232 65.7234C52.9152 65.4521 52.4698 65.053 50.6709 62.9459C49.763 61.8923 48.1355 60.1842 47.0733 59.1786C44.949 57.1832 44.6578 56.7362 44.1095 54.6291C43.2016 51.1172 43.6813 47.3977 45.4629 44.0934C46.3024 42.529 46.9191 41.7149 48.3068 40.374C50.8937 37.8677 54.063 36.3193 57.6435 35.7925C59.5108 35.5212 60.316 35.5052 62.1148 35.7287ZM106.006 39.0171C106.331 40.9965 105.526 43.7581 103.796 46.6794L102.802 48.3396L102.597 46.7911C102.22 43.9976 101.295 40.3899 100.37 38.171C100.301 37.9954 100.438 38.0274 100.901 38.2828C102.134 38.9532 104.019 38.602 104.961 37.5006L105.372 37.0217L105.612 37.5325C105.732 37.8039 105.903 38.4743 106.006 39.0171ZM60.83 42.8482C61.5324 44.5882 62.5603 47.9565 62.7316 49.0898L62.8344 49.8401H64.6503C65.7639 49.8561 66.689 49.9359 66.9973 50.0636L67.5113 50.2711L66.9973 50.5106C66.0037 50.9735 64.6674 51.8994 64.2734 52.3782C64.0507 52.6496 63.6395 53.3041 63.3483 53.8309C62.8172 54.8366 61.8407 55.7944 60.6929 56.4489L60.0419 56.816L59.0997 56.2254C57.9005 55.4591 57.2666 54.7727 56.6841 53.6393C56.1188 52.506 54.971 51.4364 53.6347 50.766L52.6068 50.2551L53.1208 50.0636C53.4291 49.9359 54.3714 49.8561 55.4849 49.8401C57.0782 49.8401 57.318 49.8082 57.318 49.5687C57.318 48.579 59.7164 41.2998 60.0591 41.2998C60.1276 41.2998 60.4702 42.0022 60.83 42.8482ZM50.9964 52.8252C51.8702 53.4797 52.7267 53.8947 54.3542 54.4694C56.8041 55.3314 58.6885 56.4967 59.5622 57.694L60.0933 58.3964L60.71 57.5822C61.618 56.369 63.6053 55.2197 66.5691 54.1821C68.2822 53.5914 69.5671 52.6815 70.5436 51.3566L70.8348 50.9575V51.6759C70.8519 53.2403 69.6185 54.645 67.4428 55.6028C63.4682 57.3268 62.5089 57.9494 61.3953 59.5617C61.0355 60.0725 60.6244 60.8866 60.4531 61.3495C60.1961 62.1477 59.8877 62.3712 59.8877 61.7646C59.8877 61.0782 58.8084 59.418 57.6949 58.3804C56.7698 57.5184 56.2216 57.1672 54.8339 56.5606C51.7331 55.2037 51.2877 54.9643 50.4825 54.1342C49.643 53.2722 49.2662 52.4421 49.2662 51.4205V50.8139L49.763 51.5322C50.0199 51.9313 50.5853 52.506 50.9964 52.8252ZM52.6925 57.3587C52.6925 58.4762 52.7267 58.6039 53.1893 59.0349C53.8745 59.6574 54.457 59.6415 55.1937 58.9551C55.5192 58.6518 55.7762 58.2527 55.7762 58.0771C55.7762 57.7578 55.8104 57.7419 56.2558 57.9654C57.4208 58.5241 59.3567 61.1739 58.9112 61.589C58.7742 61.7167 58.5515 61.4453 58.0889 60.6312C57.7292 59.9927 57.2666 59.3541 57.0439 59.1945C56.6327 58.8912 56.6327 58.9072 55.8789 59.5936C55.2108 60.2321 55.0566 60.296 54.32 60.296C53.3435 60.296 52.6239 59.9288 52.1271 59.1786C51.8359 58.7475 51.7502 58.3006 51.6988 57.1353L51.6303 55.6347L52.1614 55.8901C52.6925 56.1455 52.6925 56.1775 52.6925 57.3587ZM68.1109 59.0189C67.6483 59.8809 66.8774 60.296 65.8153 60.296C65.0443 60.296 64.9073 60.2321 64.2392 59.5936L63.5025 58.8753L62.8858 59.5138C62.5603 59.865 62.0806 60.5514 61.8407 61.0462C61.5495 61.6848 61.361 61.8923 61.2411 61.7805C60.7957 61.3655 62.2176 59.1626 63.4854 58.2367L64.2392 57.7099L64.4276 58.2208C64.6503 58.8593 65.4212 59.4978 65.9352 59.4978C66.9288 59.4978 67.5969 58.4921 67.5969 56.9756C67.5969 56.1615 67.6483 56.0178 67.991 55.8742C68.3679 55.7145 68.3679 55.7305 68.4193 57.0395C68.4535 58.125 68.4021 58.4921 68.1109 59.0189ZM57.4722 60.711C57.7463 61.0462 57.8319 61.3655 57.8319 62.1158L57.8148 63.0895L57.2152 62.004C56.8897 61.4134 56.4785 60.8387 56.2901 60.7429C55.7933 60.4396 55.8789 60.296 56.5299 60.296C56.9582 60.296 57.2152 60.4077 57.4722 60.711ZM64.222 60.4077C64.2906 60.4556 64.1706 60.6152 63.9822 60.7429C63.7766 60.8706 63.3483 61.4932 63.0228 62.1158L62.4403 63.2492L62.4917 62.036C62.526 61.3176 62.6459 60.711 62.783 60.5514C63.0057 60.296 63.9993 60.2002 64.222 60.4077ZM60.4873 68.5489C60.9328 69.3152 62.0292 70.0335 62.9543 70.1452C63.3483 70.1931 63.6395 70.2729 63.6224 70.3368C63.5882 70.3847 63.3141 70.9115 62.9886 71.5021C62.5431 72.3322 62.4061 72.7792 62.4232 73.4177V74.2637H60.6929C59.7336 74.2637 58.7057 74.3276 58.4144 74.3914L57.8833 74.5191L57.7634 73.6412C57.6435 72.6355 57.4379 72.1406 56.7698 71.1988C56.5128 70.8317 56.2901 70.4964 56.2901 70.4645C56.2901 70.4326 56.6499 70.3528 57.0782 70.3049C58.0204 70.2091 58.9455 69.5706 59.5108 68.6287C59.7336 68.2616 59.9734 67.9583 60.0248 67.9583C60.0933 67.9583 60.2989 68.2297 60.4873 68.5489Z" fill="#E0E0E0"/>
<path d="M59.7855 46.0079C59.3847 46.6878 58.7989 48.2515 58.3672 49.7983C57.9972 51.1411 57.9663 51.6 58.2747 51.6C58.3364 51.6 58.7526 50.6481 59.2151 49.4753C59.6622 48.3025 60.0631 47.3847 60.0939 47.4187C60.1401 47.4527 60.4947 48.4215 60.8956 49.5603C61.5431 51.379 61.651 51.583 61.836 51.345C62.021 51.0901 61.9748 50.8011 61.466 49.1524C61.1577 48.0986 60.6951 46.8748 60.4485 46.4328L60.0168 45.6L59.7855 46.0079Z" fill="#E0E0E0"/>
<path d="M58.6359 51L58.0645 51.5846L58.6912 52.2L59.3179 52.8L59.9815 52.2461L60.6451 51.6923L59.9262 51.0461L59.2073 50.4L58.6359 51Z" fill="#E0E0E0"/>
<path d="M59.7587 70.3859C59.4212 70.8889 59.1174 71.1718 58.898 71.1718C57.936 71.1718 57.7841 71.5648 58.5604 72.0992C59.0499 72.445 59.0667 72.5079 58.9655 73.1995C58.8811 73.7968 58.9148 74.0168 59.1342 74.2212C59.4043 74.457 59.4549 74.457 59.7081 74.2369C60.0625 73.954 61.5814 73.9068 61.8683 74.174C62.2058 74.4884 62.3746 74.1897 62.2902 73.341C62.2227 72.5708 62.2733 72.4607 62.7628 71.9892C63.0497 71.7063 63.2691 71.3919 63.2184 71.2819C63.1847 71.1876 62.8303 71.0461 62.4084 70.9832C61.8345 70.8889 61.5308 70.7317 61.0751 70.2288C60.7375 69.883 60.4338 69.6 60.3831 69.6C60.3325 69.6 60.0456 69.9458 59.7587 70.3859ZM60.8219 71.0147C60.8219 71.219 60.7207 71.4076 60.6194 71.4391C60.3494 71.5334 60.1637 71.109 60.2987 70.7632C60.4506 70.4017 60.8219 70.5903 60.8219 71.0147ZM59.8768 71.6905C60.1131 71.9578 59.9443 72.1149 59.438 72.1149C58.8473 72.1149 58.9655 71.5648 59.573 71.5019C59.6406 71.4862 59.7756 71.5805 59.8768 71.6905ZM61.9189 71.8006C61.9189 72.0049 61.8008 72.1149 61.5814 72.1149C61.2607 72.1149 61.1257 71.8006 61.362 71.5962C61.5814 71.3762 61.9189 71.5019 61.9189 71.8006ZM60.3663 73.0737C60.4338 73.3724 60.0456 73.561 59.7249 73.3724C59.4212 73.1995 59.6574 72.7122 60.0118 72.7751C60.1806 72.8065 60.3325 72.9323 60.3663 73.0737ZM61.632 72.9637C61.767 73.2624 61.3789 73.5453 61.092 73.3724C60.8051 73.2152 60.9738 72.7437 61.3114 72.7437C61.4295 72.7437 61.5814 72.838 61.632 72.9637Z" fill="#E0E0E0"/>
<path d="M0.208157 58.8935C-0.0831132 58.987 -0.0659796 59.8442 0.242424 61.5273C1.2533 66.8883 3.97754 70.2234 9.13474 72.4208C12.4758 73.8546 15.0115 74.4 18.2327 74.4C20.7684 74.4 22.3276 74.1663 24.5378 73.4338C26.5424 72.7637 28.2386 71.7351 30.4489 69.8182C32.8818 67.7143 34.6637 66.5299 36.7369 65.6416C40.0265 64.2234 42.6137 64.052 45.4065 65.0805L46.4516 65.4702L45.9719 64.987C45.3208 64.3637 43.6417 63.2883 42.5623 62.7896C40.7633 61.9792 39.3069 61.6831 37.0796 61.6831C34.0983 61.6987 31.6825 62.3689 27.9988 64.2234C24.9147 65.7818 22.2076 66.5611 18.7124 66.9039C14.4804 67.3091 9.76868 66.452 6.3077 64.6286C4.33734 63.5844 2.19565 61.6208 1.27044 60C0.893499 59.3299 0.550828 58.8 0.499428 58.8C0.448027 58.8 0.310959 58.8468 0.208157 58.8935Z" fill="#E0E0E0"/>
<path d="M118.721 60.0106C117.763 61.6713 115.505 63.7199 113.503 64.7287C108.985 66.9947 103.253 67.5689 97.7949 66.3118C95.5534 65.7996 94.2529 65.334 92.0285 64.2321C88.247 62.3386 85.9371 61.7023 82.9598 61.6868C80.7354 61.6868 79.281 61.9817 77.4843 62.7887C76.4063 63.2853 74.7295 64.3718 74.0622 64.9926L73.5488 65.4892L74.5413 65.1012C76.3379 64.3718 78.5452 64.2476 80.8209 64.7287C82.1042 64.9926 84.9275 66.2963 86.4162 67.3051C87.1862 67.8172 88.6235 68.9502 89.5988 69.7883C91.7205 71.6197 92.9867 72.4422 94.8176 73.1406C99.198 74.8478 104.057 74.8168 109.139 73.063C115.436 70.8747 118.636 67.4292 119.731 61.6092C120.09 59.7312 120.09 59.0173 119.731 58.8931C119.577 58.8466 119.457 58.8 119.44 58.8C119.423 58.8 119.098 59.3432 118.721 60.0106Z" fill="#E0E0E0"/>
<path d="M42.083 67.4568C41.2123 67.8123 40.3242 68.5233 39.8192 69.2342C39.6451 69.4815 39.2968 70.3934 39.053 71.2434C37.8515 75.4319 36.3191 78.1366 33.829 80.424C30.8165 83.1905 27.5428 84.3652 22.9283 84.3497C19.3759 84.3497 16.2938 83.6851 12.9156 82.2323C12.2539 81.9386 11.6792 81.7223 11.6444 81.7377C11.4529 81.9077 12.1494 82.7578 13.6295 84.1488C17.5824 87.8581 19.7939 89.1409 23.4681 89.8055C25.3487 90.1455 29.7369 90.0219 32.0877 89.5737C34.4385 89.1409 37.2595 87.8426 38.8963 86.4517C40.4461 85.1534 41.2994 83.6542 41.9611 81.1504C42.2745 79.9294 42.3268 79.203 42.3442 75.6483C42.379 71.8308 42.3964 71.4907 42.7621 70.6716C43.2671 69.5279 44.0333 68.9251 45.3219 68.6933C45.8617 68.5851 46.6453 68.5542 47.0284 68.6006L47.7423 68.6933L47.307 68.3687C45.9139 67.3023 43.476 66.885 42.083 67.4568Z" fill="#E0E0E0"/>
<path d="M75.9766 67.4035C75.172 67.6197 73.7377 68.3146 73.5628 68.5616C73.4929 68.6697 73.6853 68.6851 74.14 68.6234C74.5073 68.5771 75.2769 68.6079 75.8192 68.716C77.1135 68.9476 77.8831 69.5499 78.3903 70.6925C78.7576 71.5109 78.7751 71.8506 78.8101 75.6647C78.8451 80.1581 79.0025 81.1772 79.9645 83.3854C80.944 85.6244 82.5881 87.0913 85.6665 88.4656C88.0453 89.5156 89.7594 89.8553 93.5025 89.9788C99.6243 90.1796 102.493 89.006 107.653 84.1574C109.139 82.7677 109.839 81.9184 109.647 81.7486C109.612 81.7331 109.034 81.9493 108.37 82.2427C102.598 84.7133 96.2486 85.0993 91.7184 83.2309C87.0658 81.3316 83.8475 77.3169 82.1159 71.2947C81.6261 69.5962 81.3288 69.0557 80.4368 68.2991C79.2299 67.28 77.6032 66.9403 75.9766 67.4035Z" fill="#E0E0E0"/>
<path d="M11.8113 89.1522C11.8113 89.4724 12.7035 93.4749 13.5099 96.8049L13.8016 98.0217L8.32835 97.0291L2.85513 96.0525L2.6664 96.4367C2.56345 96.6608 2.5463 96.869 2.64924 96.949C2.73503 97.0131 3.57574 97.7175 4.5194 98.502C5.46306 99.2865 7.52195 101 9.11759 102.296C10.6961 103.609 11.9829 104.698 11.9829 104.746C11.9829 104.778 11.7084 105.162 11.3824 105.594L10.7819 106.363L12.6349 107.58C15.3801 109.373 17.1473 110.413 19.6179 111.694C21.7455 112.815 25.6059 114.576 25.8976 114.576C25.9662 114.576 26.2407 114.256 26.4809 113.871L26.927 113.167L29.5349 114.288C39.1259 118.386 49.7635 120.259 61.6536 119.971C63.8326 119.907 66.6636 119.763 67.9847 119.619C76.1345 118.802 84.147 116.705 90.4266 113.759L91.7649 113.135L92.2453 113.855C92.5027 114.256 92.7944 114.576 92.8801 114.576C93.1718 114.576 98.0445 112.302 99.9147 111.294C101.682 110.349 106.572 107.355 107.43 106.699L107.91 106.331L107.275 105.546L106.623 104.746L107.395 104.121C107.807 103.769 109.952 102.008 112.148 100.215C114.327 98.4059 116.128 96.853 116.128 96.7569C116.128 96.6448 116.06 96.4527 115.957 96.3246C115.837 96.1325 115.013 96.2446 110.398 97.0611C107.412 97.5894 104.976 97.9897 104.976 97.9576C104.976 97.8936 106.503 91.2175 106.846 89.7446C107.104 88.6399 106.812 88.72 105.216 90.1608C103.398 91.8259 100.447 94.2754 98.5421 95.7003C97.4783 96.5007 94.3557 98.7741 94.0297 98.9823C93.9954 98.9983 94.3557 99.5906 94.8189 100.263L95.6768 101.512L94.6302 102.12C94.0469 102.44 93.4807 102.713 93.3777 102.729C93.2748 102.729 92.8287 102.168 92.3997 101.464L91.6105 100.215L89.2428 101.336C81.2131 105.146 73.0633 107.355 64.5189 108.028C61.4649 108.268 54.7049 108.14 51.8224 107.788C43.7241 106.795 36.3979 104.682 29.3634 101.288L27.0986 100.199L26.2922 101.464C25.8632 102.152 25.4343 102.729 25.3657 102.729C25.1598 102.729 23.1352 101.592 23.1352 101.48C23.1352 101.432 23.4955 100.855 23.9416 100.183L24.748 98.9823L24.2504 98.6621C21.2136 96.5968 15.4144 91.97 13.0981 89.7766C12.5319 89.2323 12.0172 88.8 11.9486 88.8C11.8799 88.8 11.8113 88.9601 11.8113 89.1522ZM19.3606 96.4687C20.5444 97.4133 21.8827 98.4219 22.3288 98.7261C22.8435 99.0623 23.0837 99.3185 22.9808 99.4305C22.9122 99.5266 21.5567 101.208 19.9782 103.177L17.113 106.747L16.6497 106.475C15.9119 106.043 12.4633 103.593 11.0049 102.456C9.11759 101 5.63463 98.0537 5.63463 97.9096C5.63463 97.8456 6.23514 97.9416 6.97291 98.1017C13.7158 99.6227 14.9683 99.8468 15.2085 99.6227C15.3972 99.4466 15.2771 98.8062 14.3163 95.4121C13.6986 93.2187 13.1839 91.3616 13.1839 91.2975C13.1839 91.2175 14.0932 91.986 15.2085 92.9786C16.3066 93.9552 18.1767 95.5402 19.3606 96.4687ZM104.444 95.316C103.466 98.7101 103.312 99.4786 103.483 99.6547C103.672 99.8308 104.513 99.6867 108.253 98.8862C110.741 98.3579 112.903 97.8776 113.04 97.8456C113.4 97.7335 111.307 99.6067 108.837 101.592C106.881 103.161 101.922 106.731 101.699 106.731C101.63 106.731 100.241 105.066 98.6107 103.017L95.6425 99.3185L96.3116 98.8222C98.7995 96.981 101.322 94.9318 103.209 93.2187C104.41 92.114 105.457 91.2175 105.508 91.2015C105.559 91.2015 105.079 93.0586 104.444 95.316ZM29.5864 102.649C37.9249 106.923 49.0601 109.485 59.5089 109.501C69.4259 109.517 79.463 107.259 88.4192 102.985C89.7403 102.36 90.8727 101.832 90.9414 101.8C90.9928 101.768 92.211 103.561 93.6522 105.786C95.5739 108.78 96.1744 109.869 96.02 109.965C95.8999 110.029 94.0983 110.878 92.0223 111.838C84.0784 115.536 77.2154 117.49 68.6882 118.53C65.2395 118.947 53.8813 118.947 50.2439 118.53C44.033 117.81 37.067 116.129 31.7139 114.016C28.0422 112.575 22.6205 110.013 22.6205 109.725C22.6205 109.533 27.6305 101.768 27.7677 101.768C27.8363 101.768 28.6427 102.168 29.5864 102.649ZM23.4612 103.209C24.1647 103.641 24.4906 103.913 24.4049 104.057C24.3362 104.153 23.4269 105.498 22.3974 107.035L20.5444 109.805L21.4538 110.573C21.9513 110.99 22.3117 111.39 22.2602 111.438C22.1915 111.502 20.4415 110.589 18.3483 109.437C16.2551 108.284 14.5737 107.291 14.6251 107.259C14.6766 107.211 15.3457 107.371 16.1178 107.612C16.9585 107.884 17.559 107.996 17.6277 107.9C17.9537 107.419 22.2087 102.568 22.2945 102.568C22.346 102.568 22.8778 102.857 23.4612 103.209ZM98.7995 105.21C100.052 106.667 101.133 107.9 101.236 107.948C101.322 107.996 101.974 107.852 102.677 107.612C103.981 107.163 104.479 107.147 103.741 107.58C102.025 108.604 96.3288 111.678 96.2602 111.63C96.2258 111.582 96.6376 111.166 97.1867 110.685L98.1818 109.821L97.0494 108.156C96.4317 107.243 95.5396 105.899 95.0591 105.178L94.1841 103.865L95.2479 103.225C95.8312 102.873 96.3631 102.584 96.4146 102.584C96.4832 102.568 97.547 103.753 98.7995 105.21Z" fill="#E0E0E0"/>
<path d="M29.2331 105.917C28.7629 106.817 28.3867 107.802 28.3867 108.108C28.3867 109.143 30.0606 110.383 31.4523 110.4C32.5244 110.4 32.9757 110.009 33.9537 108.176C34.4615 107.225 34.8565 106.41 34.8377 106.342C34.8001 106.291 34.4427 106.104 34.029 105.951L33.2579 105.645L32.4115 107.259C31.6968 108.651 31.5088 108.872 31.1326 108.872C30.5496 108.872 30.0606 108.447 30.211 108.057C30.2675 107.904 30.6436 107.14 31.0386 106.359L31.7533 104.949L31.2831 104.796C31.0198 104.695 30.6436 104.542 30.4367 104.457C30.117 104.287 30.0042 104.423 29.2331 105.917Z" fill="#E0E0E0"/>
<path d="M88.1921 104.648C86.5356 105.381 86.0216 106.866 86.8212 108.596C87.3734 109.78 88.1921 110.4 89.2012 110.4C89.9818 110.4 91.067 109.93 91.4098 109.423C91.543 109.235 91.7334 109.084 91.8286 109.103C92.1333 109.159 92.5712 109.084 92.8187 108.934C92.99 108.802 92.9139 108.464 92.4569 107.43C92.1142 106.678 91.7525 106.077 91.6382 106.077C91.524 106.077 90.9718 106.284 90.4197 106.547L89.4106 106.998L89.7152 107.581C89.9627 108.069 90.077 108.126 90.3816 107.957C90.6863 107.806 90.7624 107.806 90.7624 108.032C90.7624 108.408 89.9247 108.953 89.4868 108.859C88.649 108.708 87.9446 106.678 88.5157 106.114C88.8013 105.833 89.5439 105.814 89.7152 106.077C89.8485 106.284 91.3336 105.607 91.3336 105.344C91.3336 105.25 91.1051 104.987 90.8386 104.78C90.2483 104.329 89.0679 104.272 88.1921 104.648Z" fill="#E0E0E0"/>
<path d="M84.9778 108.151C84.3741 108.35 84.3741 108.317 84.8314 109.527C85.0326 110.058 85.1607 110.522 85.1058 110.572C85.0692 110.605 84.6302 110.356 84.1545 110.008C82.6362 108.88 82.7459 108.93 82.069 109.129C81.7215 109.245 81.3739 109.378 81.3007 109.444C81.1544 109.56 82.7093 113.673 83.002 113.971C83.0752 114.038 83.4594 113.988 83.8618 113.839L84.6119 113.573L84.0997 112.346L83.5874 111.102L84.4472 111.716C84.9046 112.048 85.5083 112.495 85.7644 112.711C86.2217 113.092 86.2583 113.092 86.9535 112.827C87.3376 112.678 87.7035 112.528 87.7401 112.495C87.7767 112.462 87.4108 111.434 86.9169 110.19C85.9839 107.852 85.9473 107.819 84.9778 108.151Z" fill="#E0E0E0"/>
<path d="M35.5374 108.721C34.7208 110.835 34.4545 111.372 34.206 111.372C34.0463 111.372 33.9575 111.187 33.9397 110.801C33.9397 110.298 33.8687 110.197 33.2829 110.013C32.6439 109.795 32.6084 109.811 32.4486 110.214C32.0225 111.254 32.3066 111.976 33.3362 112.462C34.5611 113.049 35.5907 112.865 36.0877 111.959C36.354 111.456 37.4191 108.738 37.4191 108.536C37.4191 108.436 37.0286 108.268 36.2297 108.033C35.9102 107.933 35.8214 108.033 35.5374 108.721Z" fill="#E0E0E0"/>
<path d="M38.5209 108.072C38.4621 108.143 38.1877 108.873 37.9133 109.692C37.3253 111.401 37.2665 112.327 37.7173 112.914C38.1877 113.502 39.5009 114 40.6572 114C41.99 114 42.382 113.608 43.2052 111.294C43.5775 110.279 43.8715 109.443 43.8715 109.425C43.8715 109.354 42.5976 109.016 42.3232 109.016C42.088 109.016 41.8136 109.496 41.3432 110.796C40.7356 112.487 40.6768 112.576 40.1673 112.576C39.1481 112.576 39.0893 112.255 39.7361 110.297C40.0693 109.318 40.3436 108.481 40.3436 108.446C40.3436 108.392 40.1085 108.303 39.8145 108.25C39.5009 108.197 39.1285 108.108 38.9521 108.036C38.7561 107.983 38.5797 107.983 38.5209 108.072Z" fill="#E0E0E0"/>
<path d="M78.4996 108.214C77.7497 108.409 77.7863 108.285 77.4936 112.323C77.3656 114.013 77.3839 114.085 77.7131 113.96C77.896 113.889 78.2801 113.782 78.5728 113.729C78.9203 113.658 79.0666 113.515 79.0666 113.248C79.0666 112.946 79.2312 112.821 79.8531 112.643C80.5298 112.466 80.6395 112.483 80.859 112.768C81.0785 113.07 81.17 113.07 81.865 112.875C82.3039 112.732 82.6149 112.554 82.5783 112.412C82.4686 111.985 79.5421 107.982 79.3592 108C79.2495 108.018 78.8654 108.107 78.4996 108.214ZM79.6702 110.669C80.0725 111.38 80.0725 111.487 79.5238 111.576C79.0849 111.665 79.0666 111.629 79.0666 110.9C79.0666 109.975 79.2312 109.921 79.6702 110.669Z" fill="#E0E0E0"/>
<path d="M43.0775 111.704C42.7621 113.084 42.5453 114.25 42.5847 114.304C42.6438 114.339 43.0381 114.447 43.4914 114.537L44.3193 114.716L44.5559 113.479C44.6939 112.798 44.8516 112.242 44.9304 112.242C44.9895 112.242 45.2458 112.78 45.4823 113.443C46.054 115.075 46.1131 115.128 47.0987 115.164L47.9463 115.2L48.5179 112.708C48.8333 111.345 49.0502 110.198 49.0304 110.162C48.991 110.144 48.5968 110.036 48.1434 109.947L47.3155 109.768L47.0987 110.79C46.7242 112.547 46.6453 112.564 46.0343 110.915C45.5218 109.534 45.4232 109.409 44.891 109.301C43.6294 109.068 43.6886 109.015 43.0775 111.704Z" fill="#E0E0E0"/>
<path d="M72.3083 109.464C71.5613 109.648 70.9502 109.869 70.9671 109.961C70.9841 110.053 71.2048 111.266 71.4764 112.663L71.9688 115.2L72.4781 115.09C75.5169 114.428 76.1281 113.932 76.1281 112.13C76.1281 110.586 75.3302 109.354 74.2437 109.207C73.9211 109.17 73.0553 109.281 72.3083 109.464ZM74.3625 111.413C74.702 112.295 74.6681 112.718 74.2267 113.049C73.5306 113.582 73.3099 113.435 73.0892 112.295C72.8176 110.788 72.8176 110.77 73.5137 110.77C74.0399 110.77 74.1418 110.843 74.3625 111.413Z" fill="#E0E0E0"/>
<path d="M69.7193 110.431C69.4043 110.468 69.0893 110.56 69.0229 110.634C68.9566 110.708 68.9566 111.317 69.0229 112C69.1058 112.683 69.1224 113.237 69.0727 113.237C69.0229 113.218 68.6085 112.683 68.1608 112.037C67.3485 110.837 67.1993 110.744 66.2874 110.948L65.8066 111.058L66.0885 113.662C66.2543 115.102 66.3869 116.302 66.3869 116.32C66.4366 116.505 67.7629 116.339 67.8127 116.135C67.8624 116.006 67.8458 115.397 67.7629 114.751C67.6801 114.123 67.6635 113.606 67.7132 113.606C67.7629 113.625 68.194 114.16 68.6416 114.825C69.4706 116.025 69.4706 116.043 70.1835 115.951C70.5814 115.895 70.9295 115.84 70.9627 115.803C71.029 115.711 70.4487 110.468 70.3492 110.412C70.3327 110.394 70.0343 110.394 69.7193 110.431Z" fill="#E0E0E0"/>
<path d="M50.4383 110.687C48.8604 111.493 48.5345 114.323 49.8551 115.635C50.3697 116.141 51.3988 116.366 52.102 116.123C52.4622 115.991 52.7195 115.973 52.7881 116.085C52.8395 116.198 53.0968 116.31 53.3541 116.366C53.7829 116.46 53.8172 116.404 53.9029 115.598C53.9715 115.129 54.0573 114.417 54.1087 114.042L54.1945 113.367L53.2512 113.236C52.7195 113.161 52.1878 113.143 52.0334 113.218C51.6389 113.386 51.7075 114.211 52.1363 114.323C52.668 114.473 52.3593 114.829 51.6904 114.829C51.0215 114.829 50.747 114.455 50.747 113.517C50.747 112.074 51.6904 111.343 52.445 112.224C52.6165 112.43 53.0796 112.655 53.4741 112.711C54.2803 112.824 54.366 112.599 53.9201 111.643C53.3884 110.519 51.6904 110.05 50.4383 110.687Z" fill="#E0E0E0"/>
<path d="M56.794 113.92C56.737 116.448 56.718 116.4 57.8776 116.4C58.4669 116.4 58.5049 116.368 58.619 115.68L58.7521 114.96H59.5885C60.6721 114.96 61.3564 114.688 61.6986 114.144C62.2499 113.216 61.7937 112.064 60.7671 111.76C60.444 111.68 59.4364 111.6 58.5239 111.6H56.851L56.794 113.92ZM60.1398 113.04C60.482 113.328 60.0828 113.68 59.3984 113.68C58.7711 113.68 58.733 113.648 58.733 113.184C58.733 112.704 58.7521 112.688 59.3414 112.784C59.6836 112.832 60.0257 112.944 60.1398 113.04Z" fill="#E0E0E0"/>
<path d="M61.4379 113.896C61.0078 115.172 60.6465 116.241 60.6465 116.304C60.6465 116.352 61.0078 116.4 61.4379 116.4C62.0744 116.4 62.2465 116.336 62.3153 116.081C62.3841 115.826 62.5562 115.762 63.2271 115.762C63.7949 115.762 64.0873 115.842 64.1562 116.001C64.225 116.161 64.5002 116.241 65.0336 116.241C65.4637 116.241 65.8078 116.193 65.8078 116.113C65.8078 116.049 65.3949 115.029 64.8959 113.849L63.9669 111.696L63.0895 111.648L62.2121 111.6L61.4379 113.896ZM63.554 114.439C63.5712 114.55 63.382 114.646 63.1239 114.646C62.797 114.646 62.711 114.582 62.7798 114.359C62.8314 114.215 62.9175 113.88 62.9863 113.609L63.1067 113.131L63.3304 113.689C63.4508 113.992 63.554 114.343 63.554 114.439Z" fill="#E0E0E0"/>
<path d="M51.3536 90.1252C50.9051 90.2033 50.5231 90.2813 50.4898 90.3126C50.4732 90.3438 49.6427 91.4835 48.6627 92.8575C47.6661 94.2314 46.7692 95.4648 46.6363 95.6053C46.3207 95.9488 46.3705 96.0737 47.0848 96.6514L47.7326 97.1822L49.0281 96.5733C50.2573 96.0113 50.3736 95.98 51.9681 95.98C53.4797 95.98 53.7454 96.0269 54.5926 96.4172C55.1241 96.667 55.9546 97.2134 56.4529 97.635C56.9512 98.0565 57.3831 98.4 57.4163 98.4C57.4661 98.4 57.6322 97.9629 57.7817 97.4164L58.0641 96.4328L57.2003 94.1689C56.4031 92.1081 56.2536 91.8582 55.4729 91.1244C54.3268 90.0628 53.3302 89.813 51.3536 90.1252ZM54.36 94.7778C55.2237 95.0433 57.0841 96.0425 57.3 96.3547C57.3332 96.4172 57.3166 96.667 57.2502 96.8856L57.1339 97.3071L56.2203 96.7138C53.762 95.0901 51.0712 94.8715 48.5797 96.0581C48.2143 96.2298 47.9153 96.3391 47.9153 96.3079C47.9153 96.2767 47.8654 96.1205 47.8156 95.9956C47.7326 95.8083 47.9319 95.6522 48.5963 95.3555C50.6559 94.4812 52.6326 94.2782 54.36 94.7778Z" fill="#E0E0E0"/>
<path d="M66.4046 90.0573C65.2084 90.2934 64.2448 91.0173 63.6634 92.1032C63.5138 92.3864 63.0653 93.488 62.6665 94.5581L61.9355 96.4938L62.2014 97.4223C62.3509 97.9258 62.5004 98.3665 62.517 98.398C62.5502 98.4294 62.9822 98.0989 63.4972 97.6583C63.9956 97.2177 64.8429 96.6669 65.3746 96.4151C66.2219 96.0217 66.5043 95.9745 67.9829 95.9745C69.5612 95.9745 69.7107 96.0059 70.9401 96.5567L72.2526 97.1547L72.9005 96.6511C73.2494 96.3836 73.5484 96.1004 73.5484 96.0217C73.5484 95.7384 69.5446 90.3091 69.2621 90.2147C68.7471 90.0259 67.0027 89.9315 66.4046 90.0573ZM69.5113 94.6998C69.9931 94.8257 70.8404 95.1247 71.3887 95.3764C72.1529 95.7069 72.3523 95.8643 72.236 96.0374C72.1031 96.2262 71.8871 96.179 70.857 95.8328C68.1989 94.8886 65.7234 95.2506 63.5305 96.8872C63.1816 97.139 62.8659 97.3278 62.8493 97.2964C62.8161 97.2649 62.7496 97.0446 62.733 96.8243C62.6832 96.5252 62.7995 96.3049 63.165 96.0217C64.8595 94.684 67.3682 94.1647 69.5113 94.6998Z" fill="#E0E0E0"/>
<path d="M57.1863 98.5488C56.6699 98.6275 55.8437 98.8478 55.3445 99.0682C54.4838 99.4145 54.4322 99.4774 54.4322 100.013V100.579L52.2462 100.532L50.0429 100.485V99.8079V99.1469H46.738H43.4159V100.8V102.452H41.6773C40.1282 102.452 39.956 102.484 40.0077 102.72C40.0421 102.94 40.3691 103.05 41.4364 103.192C42.1937 103.302 46.1699 103.884 50.2667 104.498C57.4789 105.568 57.806 105.6 60.7666 105.6C63.7617 105.6 63.951 105.584 72.1617 104.341C81.8354 102.877 81.2846 102.987 81.2846 102.688C81.2846 102.499 80.9747 102.452 79.5633 102.452H77.842V100.8V99.1469H74.5715H71.301V99.8552V100.563H69.1494H66.9977V100.013C66.9977 99.5404 66.9117 99.4302 66.292 99.1312C65.8961 98.958 65.0699 98.7062 64.433 98.596C63.1592 98.3599 58.6838 98.3285 57.1863 98.5488Z" fill="#E0E0E0"/>
</svg>
