<svg width="32" height="32" viewBox="0 0 32 32" fill="none" xmlns="http://www.w3.org/2000/svg">
<circle cx="16" cy="16" r="16" fill="#F4F4F4"/>
<path d="M13.7185 15.7847H10.9827C11.0293 13.0605 11.566 12.6113 13.2402 11.6197C13.4327 11.503 13.4968 11.258 13.3802 11.0597C13.2693 10.8672 13.0185 10.803 12.826 10.9197C10.8543 12.0863 10.166 12.798 10.166 16.1872V19.3313C10.166 20.3288 10.9768 21.1338 11.9685 21.1338H13.7185C14.7452 21.1338 15.521 20.358 15.521 19.3313V17.5813C15.521 16.5605 14.7452 15.7847 13.7185 15.7847Z" fill="#5798AC"/>
<path d="M20.031 15.7847H17.2952C17.3418 13.0605 17.8785 12.6113 19.5527 11.6197C19.7452 11.503 19.8093 11.258 19.6927 11.0597C19.576 10.8672 19.331 10.803 19.1327 10.9197C17.161 12.0863 16.4727 12.798 16.4727 16.193V19.3372C16.4727 20.3347 17.2835 21.1397 18.2752 21.1397H20.0252C21.0518 21.1397 21.8277 20.3638 21.8277 19.3372V17.5872C21.8335 16.5605 21.0577 15.7847 20.031 15.7847Z" fill="#5798AC"/>
</svg>
