<svg width="324" height="277" viewBox="0 0 324 277" fill="none" xmlns="http://www.w3.org/2000/svg">
<path d="M31.762 25.7027C33.3172 25.351 34.9274 25.3171 36.4961 25.6031C38.0647 25.8891 39.5594 26.4891 40.8904 27.3671C43.5491 29.1372 45.7641 31.4964 47.3631 34.2615C50.6031 39.4915 51.6979 46.4894 51.8015 52.6366C44.9737 52.2964 39.2259 46.8741 36.4297 43.9447C32.0505 39.2991 27.0202 28.2548 31.762 25.7027Z" fill="#F5F5F5"/>
<path d="M62.7346 56.8603C61.3754 55.7056 60.346 54.2118 59.7509 52.5306C59.1559 50.8494 59.0164 49.0406 59.3466 47.288C59.708 45.5446 60.412 43.8903 61.4177 42.4211C62.4234 40.9519 63.7109 39.697 65.2053 38.7293C66.5739 37.8194 68.2531 37.0944 69.8287 37.5753C70.5498 37.8446 71.1862 38.3011 71.6724 38.8979C72.1586 39.4946 72.4772 40.21 72.5953 40.9707C72.8019 42.5012 72.6055 44.0591 72.0257 45.4905C70.2504 50.4467 67.6317 54.9221 62.7346 56.8603Z" fill="#F5F5F5"/>
<path d="M66.698 71.7369C65.9351 70.6118 65.2882 69.4122 64.7673 68.1565C64.1452 66.8059 63.6882 65.3852 63.4062 63.9252C62.9956 62.1662 62.7015 60.382 62.5259 58.5843C62.2374 55.2696 62.7657 51.9347 64.0646 48.8715C64.4703 47.9614 64.9659 47.0941 65.5441 46.2824C65.9879 45.7276 66.2838 45.4465 66.2838 45.4761C66.2838 45.5057 65.3961 46.7633 64.4714 49.0639C63.34 52.0843 62.8952 55.3188 63.1695 58.5325C63.3327 60.3063 63.5945 62.0696 63.9536 63.8143C64.202 65.2399 64.5987 66.6358 65.1372 67.979C66.1654 70.2648 66.8016 71.6925 66.698 71.7369Z" fill="#E0E0E0"/>
<path d="M36.3633 33.7661C36.885 34.2153 37.3653 34.7105 37.7984 35.2456C38.6787 36.2294 39.9436 37.6719 41.4971 39.4621C44.5818 43.0498 48.7909 48.0505 53.3329 53.6799C57.8749 59.3093 61.7881 64.5393 64.5252 68.3711C65.9085 70.2944 67.0107 71.8553 67.7504 72.9501C68.1669 73.4996 68.5356 74.0836 68.8526 74.6959C68.3701 74.2061 67.9296 73.6765 67.5359 73.1129L64.1331 68.6744C61.2629 64.9165 57.2683 59.7532 52.7559 54.1237L41.1124 39.7728L37.5913 35.4231C37.1386 34.9043 36.728 34.3502 36.3633 33.7661Z" fill="#E0E0E0"/>
<path d="M58.0905 63.5109C54.9868 61.3882 51.4221 60.0354 47.6915 59.5646C43.961 59.0938 40.1719 59.5184 36.6381 60.8034C34.8479 61.4692 32.9394 62.7193 32.8506 64.6279C32.7619 66.5364 34.6704 67.8975 36.4384 68.6372C40.1479 70.1024 44.2081 70.4367 48.1073 69.5982C52.0065 68.7596 55.5702 66.7857 58.3495 63.9251" fill="#F5F5F5"/>
<path d="M41.4219 63.7628C41.7437 63.5907 42.0907 63.4709 42.4501 63.4077C43.1159 63.2227 44.0997 63.0082 45.3203 62.7789C48.5308 62.1594 51.8275 62.1319 55.0479 62.6975C56.8228 63.0644 58.5265 63.7164 60.0929 64.6282C62.2137 65.8977 64.0155 67.6361 65.3598 69.7103C65.5845 69.9957 65.7619 70.3154 65.8851 70.6571C65.7741 70.7385 64.9308 69.444 63.185 67.6982C60.9072 65.4717 58.0313 63.9554 54.9073 63.3337C51.7622 62.7926 48.5511 62.7552 45.3943 63.2227C42.9531 63.5408 41.4441 63.8367 41.4219 63.7628Z" fill="#E0E0E0"/>
<path d="M68.0979 213.685C90.157 202.974 98.7601 177.949 101.653 154.684C102.141 150.8 103.213 146.798 101.911 143.114C100.609 139.43 96.6963 136.457 92.9754 137.514C89.8981 138.402 88.1153 141.546 86.0736 144.046C83.3419 147.384 79.7242 149.884 75.6359 151.259C72.9728 152.139 69.8067 152.435 67.5875 150.711C64.5472 148.344 64.8875 143.676 65.5237 139.837L69.0744 118.385C69.7106 114.545 70.3468 110.625 69.7328 106.786C69.1188 102.946 67.0179 99.1441 63.5264 97.5388C60.0348 95.9336 55.1821 97.3243 53.8136 100.956C53.2366 102.473 53.3032 104.145 52.9407 105.728C52.5782 107.311 51.5574 108.946 49.9817 109.153C48.4061 109.36 47.0228 108.028 46.0463 106.719C42.7027 102.207 40.8016 96.7843 39.078 91.4138C37.3544 86.0433 35.7269 80.5692 32.7976 75.7683C29.8682 70.9674 25.4002 66.8175 19.9779 65.6265C14.5556 64.4355 8.14207 66.9062 5.87847 72.0844C3.61486 77.2626 5.87847 83.2767 8.64509 88.2107C12.7117 95.5246 17.8144 102.212 23.795 108.065C24.8676 109.123 26.0142 110.285 26.2657 111.764C26.6947 114.457 23.8615 116.617 21.1985 117.053C18.1877 117.549 15.1252 116.757 12.0701 116.639C9.01496 116.521 5.56778 117.319 3.98474 119.968C1.76552 123.666 4.41378 128.282 7.2174 131.493C12.8259 137.92 19.4998 143.333 26.9462 147.493C29.6019 148.973 32.4351 150.356 34.3954 152.709C36.3557 155.061 37.1842 158.73 35.3793 161.216C33.5743 163.701 29.8978 164.004 27.0276 162.984C24.1574 161.963 21.7607 159.928 19.105 158.449C14.1488 155.616 7.26918 154.891 3.16362 158.915C0.463575 161.563 -0.394523 165.706 0.160281 169.464C0.715086 173.222 2.50526 176.654 4.47296 179.879C11.3525 191.153 20.91 200.873 32.4869 207.065C44.0638 213.256 55.2191 216.223 68.0979 213.722" fill="#EBEBEB"/>
<path d="M64.9673 214.913C65.5887 205.614 66.003 210.438 64.4347 198.225C62.8665 186.011 60.0776 172.755 56.6674 159.018L54.1006 148.832C53.2499 145.496 52.4139 142.174 51.3857 138.994C49.4104 132.875 47.0964 126.872 44.4543 121.011C41.9762 115.396 39.4167 110.159 36.983 105.284C34.5492 100.409 32.1969 95.8816 29.8593 91.8722C26.2188 85.5232 22.0805 79.4729 17.4835 73.7782C15.8634 71.7661 14.5245 70.2496 13.6516 69.2288L12.616 68.0748C12.5061 67.9365 12.3822 67.8101 12.2461 67.6975C12.3383 67.8503 12.4448 67.9939 12.5642 68.1265C12.8083 68.4224 13.1338 68.8145 13.5406 69.3249C14.4061 70.368 15.6785 71.9214 17.2393 73.9557C21.7378 79.7029 25.8004 85.7783 29.3933 92.1311C31.6864 96.1479 34.0092 100.653 36.4282 105.528C38.8471 110.403 41.3622 115.655 43.8256 121.262C46.4425 127.116 48.7342 133.109 50.6904 139.215C51.7038 142.389 52.5323 145.673 53.383 149.024C54.2337 152.375 55.077 155.763 55.9425 159.196C59.3527 172.948 62.1711 186.167 63.7542 198.343C65.3372 210.519 64.9895 205.644 64.4347 214.913" fill="#E0E0E0"/>
<path d="M51.1953 138.911C51.4609 138.407 51.6741 137.876 51.8315 137.328C52.2014 136.3 52.6896 134.798 53.2592 132.927C54.4132 129.184 55.8261 123.969 57.3647 118.213C58.9034 112.458 60.3903 107.265 61.596 103.559C62.1878 101.702 62.6909 100.201 63.0755 99.1725C63.2957 98.647 63.457 98.0988 63.5564 97.5377C63.257 98.0209 63.009 98.5341 62.8166 99.069C62.3802 100.075 61.8032 101.547 61.1448 103.396C59.8133 107.095 58.245 112.273 56.7064 118.021C55.1677 123.769 53.8436 128.851 52.8005 132.816C52.3271 134.584 51.9203 136.078 51.5948 137.254C51.3953 137.789 51.2612 138.345 51.1953 138.911Z" fill="#E0E0E0"/>
<path d="M3.26562 121.816C3.89247 122.063 4.54147 122.248 5.20374 122.371C6.4465 122.682 8.25887 123.111 10.4781 123.747C14.9165 124.96 21.0046 126.839 27.6252 129.214C34.2459 131.588 40.1416 134.014 44.3582 135.871C46.4738 136.796 48.1678 137.587 49.3366 138.09C49.9284 138.412 50.5503 138.675 51.1933 138.875C50.65 138.476 50.0704 138.129 49.4623 137.839C48.3231 137.225 46.6587 136.359 44.5653 135.376C40.3931 133.386 34.5048 130.885 27.8694 128.496C22.2082 126.442 16.4454 124.679 10.6038 123.214C8.38462 122.659 6.52788 122.282 5.25553 122.053C4.6006 121.915 3.93465 121.836 3.26562 121.816Z" fill="#E0E0E0"/>
<path d="M64.0078 197.219C64.0078 197.219 64.1779 197.049 64.4443 196.671L65.5761 195.022C66.5451 193.579 67.8988 191.463 69.5411 188.823C72.8255 183.541 77.1308 176.106 81.7689 167.836C86.4071 159.566 90.6458 152.102 93.8119 146.761C95.3654 144.172 96.6377 142.034 97.5846 140.451C97.9914 139.763 98.3243 139.194 98.6054 138.727C98.7369 138.533 98.8414 138.321 98.9161 138.099C98.9161 138.099 98.746 138.269 98.4797 138.646L97.2961 140.296C96.3196 141.738 94.9659 143.854 93.3237 146.495C90.0614 151.791 85.7562 159.189 81.118 167.481C76.4798 175.774 72.2411 183.215 69.075 188.556C67.5216 191.145 66.2492 193.283 65.3024 194.866L64.2889 196.59C64.1667 196.786 64.0721 196.997 64.0078 197.219Z" fill="#E0E0E0"/>
<path d="M1.70703 165.624C1.89154 165.775 2.0956 165.899 2.31362 165.994L4.08899 166.934L10.7466 170.329C16.3761 173.199 24.1063 177.253 32.6355 181.743C41.1647 186.233 48.9098 190.213 54.6354 192.972C57.476 194.348 59.8136 195.436 61.404 196.161L63.2681 196.982C63.4787 197.09 63.7026 197.169 63.9339 197.219C63.7494 197.068 63.5453 196.944 63.3273 196.849L61.5224 195.909L54.8647 192.514C49.2353 189.644 41.505 185.59 32.9758 181.1C24.4466 176.609 16.7015 172.622 10.9834 169.87C8.13537 168.495 5.80519 167.407 4.20735 166.682L2.3728 165.846C2.16148 165.744 1.93766 165.669 1.70703 165.624Z" fill="#E0E0E0"/>
<path d="M316.525 276.807C316.525 276.911 246.494 276.999 160.129 276.999C73.7647 276.999 3.71875 276.918 3.71875 276.807C3.71875 276.696 73.7351 276.615 160.129 276.615C246.523 276.615 316.525 276.704 316.525 276.807Z" fill="#263238"/>
<path d="M20.9009 154.3C20.9009 154.3 26.0051 150.853 32.3816 163.08C38.7582 175.308 41.1993 182.373 41.1993 182.373C41.1993 182.373 42.8785 184.932 44.6317 183.231C46.3849 181.53 48.7595 176.736 51.7776 177.572C54.7957 178.408 55.9645 181.899 55.4171 187.018C54.8697 192.137 54.0856 203.396 54.019 204.41C53.9524 205.423 54.5368 206.873 55.9127 205.889C57.2886 204.905 65.1965 195.954 69.228 199.971C73.2596 203.988 69.3982 217.984 69.0061 219.523C68.6141 221.061 68.9174 221.742 69.6497 222.089C70.382 222.437 72.7566 219.197 75.109 216.741C77.4613 214.285 80.62 211.837 82.7505 214.344C84.8809 216.852 85.6577 227.327 75.8413 244.444L70.7741 252.079L61.5791 251.657C41.9538 249.549 33.9277 242.78 33.1584 239.577C32.389 236.374 36.2061 235.257 39.5793 234.798C42.9525 234.34 46.9767 234.332 47.1172 233.518C47.2578 232.705 46.8953 232.076 45.4158 231.492C43.9364 230.907 30.3325 225.81 29.4597 220.196C28.5868 214.581 40.4818 213.449 42.0796 212.895C43.6774 212.34 42.8193 211.016 41.976 210.483C41.1327 209.95 31.5383 203.966 27.0777 201.399C22.6171 198.832 20.42 195.947 21.5666 192.907C22.6614 189.948 27.9358 190.872 30.3473 190.451C32.7589 190.029 31.6641 187.166 31.6641 187.166C31.6641 187.166 27.3736 181.049 21.2264 168.673C15.0791 156.297 21.0118 154.196 21.0118 154.196" fill="#FF725E"/>
<path d="M26.6328 165.241C26.6787 165.31 26.7207 165.382 26.7586 165.456L27.1062 166.114L28.4008 168.636L33.1351 177.942C37.1667 185.798 42.7517 196.621 48.8546 208.582C54.9574 220.544 60.5573 231.389 64.4927 239.274C66.4456 243.21 68.0212 246.405 69.1234 248.632L70.3588 251.184L70.6769 251.857C70.7435 252.005 70.7731 252.086 70.7731 252.086C70.7731 252.086 70.7213 252.02 70.6399 251.872L70.2996 251.221C69.9889 250.622 69.5599 249.741 69.0051 248.691C67.8733 246.472 66.2607 243.306 64.2708 239.385C60.3057 231.529 54.7059 220.699 48.5439 208.752C42.3819 196.806 36.8486 185.939 32.9354 178.053L28.275 168.696C27.7498 167.601 27.3356 166.743 27.0397 166.144C26.9065 165.862 26.803 165.64 26.729 165.47C26.6861 165.399 26.6537 165.322 26.6328 165.241Z" fill="#263238"/>
<path d="M48.7232 184.415C48.6076 185.229 48.4371 186.035 48.2128 186.826C47.8577 188.402 47.3991 190.399 46.8887 192.619C46.3783 194.838 45.8974 196.916 45.5128 198.396C45.313 199.136 45.1429 199.72 45.0097 200.127C44.9595 200.343 44.8772 200.55 44.7656 200.741C44.8913 199.929 45.0592 199.124 45.2686 198.329L46.5484 192.53C47.0662 190.266 47.5692 188.224 47.9761 186.752C48.1832 186.013 48.3608 185.428 48.4939 185.029C48.5401 184.814 48.6173 184.607 48.7232 184.415Z" fill="#263238"/>
<path d="M43.9203 200.926C43.9203 201.014 39.689 199.934 34.5257 198.499C29.3623 197.064 25.2049 195.836 25.2345 195.74C25.2641 195.644 29.4584 196.731 34.6218 198.159C39.7852 199.587 43.9425 200.829 43.9203 200.926Z" fill="#263238"/>
<path d="M55.7882 221.506C55.5691 221.568 55.3427 221.6 55.115 221.602C54.686 221.646 54.0572 221.691 53.2805 221.728C51.727 221.802 49.5818 221.853 47.1998 221.787C44.8179 221.72 42.6874 221.55 41.1414 221.387C40.4016 221.306 39.7433 221.225 39.3068 221.158C39.0819 221.142 38.8603 221.095 38.6484 221.018C39.486 221.005 40.3235 221.044 41.1562 221.136C42.7096 221.239 44.8549 221.365 47.2146 221.432C49.5744 221.498 51.7196 221.491 53.2731 221.476C54.1112 221.432 54.9513 221.442 55.7882 221.506Z" fill="#263238"/>
<path d="M63.4227 207.524C63.1341 208.245 62.7903 208.942 62.3944 209.61C61.7139 210.875 60.7596 212.614 59.687 214.522C58.6144 216.431 57.6231 218.154 56.8908 219.39C56.5261 220.075 56.1081 220.73 55.6406 221.35C55.9292 220.629 56.273 219.932 56.6689 219.264C57.3494 217.999 58.3037 216.261 59.3763 214.352C60.4489 212.444 61.4402 210.72 62.1725 209.492C62.5385 208.805 62.9564 208.147 63.4227 207.524Z" fill="#263238"/>
<path d="M76.2047 224.36C76.1254 224.62 76.0136 224.868 75.8719 225.1L74.8288 227.016C73.9411 228.621 72.691 230.833 71.2929 233.267C69.8948 235.7 68.6076 237.897 67.6608 239.473C67.2169 240.213 66.8322 240.827 66.529 241.337C66.4031 241.572 66.2491 241.791 66.0703 241.988C66.1518 241.729 66.2636 241.481 66.4032 241.248L67.4462 239.333C68.3339 237.72 69.5841 235.508 70.9822 233.074C72.3803 230.641 73.6674 228.451 74.6143 226.875L75.7461 225.011C75.8771 224.78 76.0307 224.562 76.2047 224.36Z" fill="#263238"/>
<path d="M66.2261 241.492C65.9468 241.552 65.661 241.577 65.3754 241.566C64.8206 241.566 64.0217 241.603 63.0379 241.61C61.0702 241.61 58.3405 241.61 55.3372 241.411C52.3338 241.211 49.6116 240.989 47.6587 240.76C46.6748 240.649 45.8833 240.538 45.3433 240.456C45.0565 240.433 44.7735 240.376 44.5 240.286C44.7854 240.26 45.0727 240.26 45.3581 240.286L47.6809 240.479C49.6412 240.649 52.356 240.863 55.352 241.026C58.3479 241.189 61.0702 241.277 63.0379 241.329L65.3754 241.396C65.6615 241.4 65.9464 241.432 66.2261 241.492Z" fill="#263238"/>
<path d="M306.729 150.23L281.97 174.339L259.156 217.872L233.502 267.102L201.982 252.307L167.909 234.864L189.702 193.232L203.246 146.628C193.674 152.975 175.876 161.622 154.646 157.11C131.61 152.228 142.669 65.3824 142.669 65.3824L167.983 64.7314L170.528 125.96L199.119 113.325L199.163 113.428C200.887 112.689 202.396 111.949 203.195 111.542C219.018 102.909 229.404 101.866 246.381 107.925L270.873 116.062C277.169 119.021 300.374 130.45 306.729 150.23Z" fill="#FF725E"/>
<path d="M220.091 106.105C220.091 106.105 219.521 106.431 218.56 107.119C217.211 108.099 216.015 109.273 215.009 110.603C213.532 112.587 212.355 114.778 211.517 117.105C210.498 119.966 209.627 122.877 208.906 125.827L204.557 141.827C203.987 143.832 203.528 145.474 203.188 146.658C203.033 147.198 202.9 147.634 202.803 147.967C202.767 148.124 202.713 148.275 202.641 148.418C202.65 148.26 202.68 148.103 202.729 147.952C202.811 147.605 202.914 147.168 203.047 146.621C203.351 145.422 203.787 143.773 204.29 141.753C205.385 137.611 206.879 131.967 208.536 125.723C209.261 122.763 210.145 119.844 211.185 116.98C212.05 114.629 213.267 112.425 214.795 110.44C215.837 109.102 217.085 107.939 218.493 106.993C218.873 106.736 219.268 106.504 219.677 106.298C219.81 106.224 219.949 106.159 220.091 106.105Z" fill="#263238"/>
<g opacity="0.3">
<path d="M210.849 118.377C203.77 137.543 191.039 148.255 173.012 157.857C183.655 156.678 193.855 152.942 202.742 146.968" fill="black"/>
</g>
<g opacity="0.3">
<path d="M233.406 104.737C236.405 152.761 239.403 200.783 242.401 248.802L233.525 267.103L233.406 104.737Z" fill="black"/>
</g>
<path d="M261.281 154.559C261.177 154.603 260.275 152.34 259.01 149.61C257.745 146.88 256.621 144.713 256.717 144.661C257.065 145.069 257.361 145.518 257.597 146C258.093 146.858 258.729 148.071 259.358 149.447C259.986 150.823 260.504 152.088 260.837 153.02C261.055 153.51 261.204 154.028 261.281 154.559Z" fill="#FAFAFA"/>
<path d="M281.429 144.431C279.904 145.617 278.297 146.695 276.621 147.656C275.016 148.734 273.34 149.702 271.605 150.556C273.14 149.379 274.749 148.302 276.421 147.331C278.025 146.255 279.698 145.286 281.429 144.431Z" fill="#FAFAFA"/>
<path d="M272.688 137.138C272.432 135.844 272.298 134.529 272.289 133.21C272.164 131.894 272.164 130.568 272.289 129.252C272.554 130.547 272.688 131.866 272.688 133.188C272.817 134.501 272.817 135.824 272.688 137.138Z" fill="#FAFAFA"/>
<path d="M292.799 135.733C290.317 134.501 287.955 133.043 285.742 131.375C287.012 131.933 288.228 132.607 289.374 133.388C290.587 134.061 291.733 134.846 292.799 135.733Z" fill="#FAFAFA"/>
<path d="M262.047 175.634C262.593 173.883 263.261 172.173 264.044 170.515C264.714 168.808 265.5 167.15 266.397 165.551C265.853 167.302 265.185 169.013 264.399 170.67C263.731 172.377 262.945 174.035 262.047 175.634Z" fill="#FAFAFA"/>
<path d="M253.089 184.703C252.378 183.708 251.774 182.642 251.284 181.522C250.677 180.456 250.181 179.331 249.805 178.164C250.516 179.159 251.124 180.225 251.617 181.344C252.225 182.408 252.719 183.534 253.089 184.703Z" fill="#FAFAFA"/>
<path d="M260.582 196.917C259.374 197.44 258.091 197.767 256.78 197.886C255.488 198.136 254.164 198.176 252.859 198.004C252.859 197.893 254.598 197.812 256.728 197.509C258.859 197.205 260.553 196.798 260.582 196.917Z" fill="#FAFAFA"/>
<path d="M270.191 183.556C270.513 182.32 270.954 181.118 271.508 179.968C271.945 178.768 272.503 177.616 273.173 176.528C272.856 177.765 272.417 178.966 271.863 180.116C271.429 181.318 270.869 182.471 270.191 183.556Z" fill="#FAFAFA"/>
<path d="M246.824 211.77C246.728 211.829 245.641 210.327 244.146 208.604C242.652 206.88 241.321 205.586 241.402 205.504C243.623 207.195 245.47 209.329 246.824 211.77Z" fill="#FAFAFA"/>
<path d="M242.585 181.432C242.061 182.724 241.414 183.963 240.654 185.131C240.007 186.373 239.247 187.551 238.383 188.652C238.917 187.364 239.566 186.126 240.321 184.954C240.966 183.713 241.724 182.534 242.585 181.432Z" fill="#FAFAFA"/>
<path d="M245.604 171.024C244.202 170.855 242.819 170.563 241.469 170.151C240.087 169.86 238.736 169.444 237.43 168.909C238.832 169.073 240.216 169.365 241.565 169.781C242.947 170.07 244.299 170.486 245.604 171.024Z" fill="#FAFAFA"/>
<path d="M245.426 149.573C246.239 150.523 246.981 151.532 247.645 152.591C248.407 153.574 249.094 154.613 249.701 155.698C248.791 154.84 247.995 153.868 247.334 152.806C246.557 151.818 245.915 150.731 245.426 149.573Z" fill="#FAFAFA"/>
<path d="M238.585 148.501C236.97 150.25 235.17 151.817 233.215 153.176C233.974 152.256 234.833 151.422 235.774 150.69C236.631 149.863 237.573 149.129 238.585 148.501Z" fill="#FAFAFA"/>
<path d="M243.992 137.278C241.494 135.308 239.412 132.862 237.867 130.081C237.963 130.021 239.177 131.752 240.871 133.735C242.565 135.717 244.074 137.197 243.992 137.278Z" fill="#FAFAFA"/>
<path d="M262.915 133.824C261.578 134.438 260.189 134.933 258.765 135.303C257.38 135.794 255.954 136.161 254.504 136.398C255.843 135.79 257.232 135.295 258.654 134.919C260.039 134.429 261.465 134.063 262.915 133.824Z" fill="#FAFAFA"/>
<path d="M236.276 115.804C236.165 115.804 236.216 114.11 235.95 112.053C235.684 109.997 235.21 108.355 235.343 108.355C236.347 110.709 236.67 113.297 236.276 115.826V115.804Z" fill="#FAFAFA"/>
<path d="M219.439 169.442C218.894 169.915 218.312 170.345 217.701 170.729C216.606 171.469 215.111 172.571 213.514 173.828C211.916 175.086 210.51 176.277 209.504 177.15C208.984 177.653 208.427 178.118 207.84 178.54C208.275 177.959 208.771 177.426 209.319 176.95C210.578 175.74 211.899 174.597 213.277 173.525C214.648 172.446 216.073 171.436 217.545 170.499C218.142 170.088 218.776 169.734 219.439 169.442Z" fill="#FAFAFA"/>
<path d="M218.47 163.509C218.374 163.56 217.131 161.63 215.407 159.374C213.684 157.117 212.16 155.401 212.241 155.32C212.662 155.606 213.039 155.952 213.358 156.348C214.192 157.237 214.979 158.168 215.718 159.137C216.576 160.276 217.294 161.356 217.775 162.155C218.068 162.572 218.303 163.027 218.47 163.509Z" fill="#FAFAFA"/>
<path d="M222.976 140.127C220.689 141.682 218.262 143.022 215.727 144.129C216.836 143.3 218.02 142.574 219.263 141.961C220.44 141.234 221.683 140.62 222.976 140.127Z" fill="#FAFAFA"/>
<path d="M218.513 129.917C218.047 129.644 217.622 129.308 217.248 128.918C216.29 128.043 215.397 127.099 214.578 126.093C213.75 125.088 212.996 124.025 212.322 122.912C212.01 122.47 211.761 121.987 211.582 121.477C211.686 121.417 212.951 123.518 214.866 125.848C216.782 128.179 218.61 129.828 218.513 129.917Z" fill="#FAFAFA"/>
<path d="M226.195 129.704C226.532 128.581 226.988 127.497 227.556 126.471C228.013 125.389 228.586 124.36 229.265 123.401C228.932 124.526 228.476 125.61 227.904 126.634C227.451 127.718 226.878 128.748 226.195 129.704Z" fill="#FAFAFA"/>
<path d="M224.145 118.023C224.027 118.023 224.145 115.722 223.716 112.948C223.287 110.174 222.466 108.029 222.577 107.985C222.856 108.408 223.068 108.872 223.205 109.361C223.614 110.506 223.913 111.687 224.1 112.889C224.285 114.091 224.361 115.306 224.33 116.521C224.349 117.028 224.287 117.536 224.145 118.023Z" fill="#FAFAFA"/>
<path d="M226.007 176.942C225.958 176.221 225.958 175.497 226.007 174.775C226.059 173.444 226.096 171.602 226.044 169.597C225.992 167.592 225.859 165.728 225.748 164.419C225.648 163.703 225.603 162.981 225.615 162.259C225.82 162.954 225.956 163.667 226.022 164.389C226.252 166.121 226.388 167.865 226.429 169.612C226.476 171.356 226.426 173.102 226.281 174.842C226.263 175.55 226.171 176.254 226.007 176.942Z" fill="#FAFAFA"/>
<path d="M224.913 195.356C223.88 194.405 222.785 193.522 221.636 192.715C220.423 192.013 219.165 191.39 217.871 190.851C219.289 191.091 220.644 191.614 221.856 192.388C223.069 193.162 224.113 194.171 224.928 195.356H224.913Z" fill="#FAFAFA"/>
<path d="M234.146 206.746C232.517 207.807 230.82 208.759 229.064 209.594C227.37 210.546 225.613 211.381 223.805 212.094C225.436 211.039 227.134 210.091 228.887 209.254C230.582 208.302 232.339 207.464 234.146 206.746Z" fill="#FAFAFA"/>
<path d="M208.121 211.798C206.771 210.296 205.521 208.707 204.378 207.042C203.129 205.452 201.982 203.784 200.945 202.049C202.292 203.557 203.542 205.148 204.688 206.813C205.934 208.402 207.08 210.067 208.121 211.798Z" fill="#FAFAFA"/>
<path d="M200.118 190.761C199.99 190.266 199.933 189.756 199.948 189.245C199.911 188.305 199.896 187.025 199.948 185.546C199.999 184.066 200.147 182.816 200.273 181.847C200.308 181.343 200.41 180.845 200.576 180.368C200.687 180.368 200.465 182.69 200.332 185.546C200.199 188.401 200.192 190.761 200.118 190.761Z" fill="#FAFAFA"/>
<path d="M191.404 226.676C189.889 225.662 188.445 224.545 187.084 223.332C185.642 222.216 184.28 221 183.008 219.693C184.524 220.706 185.967 221.823 187.328 223.036C188.77 224.153 190.132 225.369 191.404 226.676Z" fill="#FAFAFA"/>
<path d="M196.611 225.573C196.372 223.649 196.261 221.712 196.279 219.773C196.172 217.839 196.191 215.899 196.338 213.966C196.577 215.89 196.688 217.828 196.671 219.766C196.777 221.701 196.758 223.641 196.611 225.573Z" fill="#FAFAFA"/>
<path d="M206.893 247.847C206.893 247.906 205.968 247.544 204.482 247.063C200.609 245.817 196.548 245.263 192.483 245.428C190.922 245.487 189.961 245.598 189.953 245.532C190.166 245.448 190.391 245.396 190.619 245.376C191.048 245.295 191.684 245.221 192.468 245.154C196.569 244.845 200.689 245.409 204.556 246.812C205.144 247.024 205.72 247.271 206.279 247.551C206.498 247.618 206.705 247.717 206.893 247.847Z" fill="#FAFAFA"/>
<path d="M215.363 251.916C215.964 252.23 216.526 252.615 217.035 253.063C219.594 255.089 221.91 257.405 223.937 259.964C224.384 260.474 224.769 261.035 225.083 261.636C224.594 261.177 224.139 260.682 223.722 260.157C222.909 259.217 221.755 257.937 220.416 256.599C219.077 255.26 217.797 254.113 216.858 253.292C216.326 252.871 215.827 252.411 215.363 251.916Z" fill="#FAFAFA"/>
<path d="M219.055 213.375C218.304 211.991 217.663 210.549 217.139 209.063C216.5 207.628 215.978 206.143 215.578 204.624C216.329 206.009 216.97 207.451 217.494 208.937C218.133 210.372 218.655 211.856 219.055 213.375Z" fill="#FAFAFA"/>
<path d="M189.34 138.403C189.025 138.868 188.644 139.284 188.208 139.638C187.222 140.556 186.163 141.392 185.042 142.139C183.92 142.891 182.737 143.549 181.506 144.107C181.01 144.37 180.48 144.562 179.93 144.676C179.886 144.565 182.231 143.559 184.827 141.821C187.424 140.082 189.258 138.314 189.34 138.403Z" fill="#FAFAFA"/>
<path d="M191.24 130.562C191.087 128.363 191.191 126.153 191.551 123.978C191.704 126.177 191.6 128.387 191.24 130.562Z" fill="#FAFAFA"/>
<path d="M176.483 137.145C175.158 136.751 173.873 136.233 172.644 135.599C171.355 135.08 170.117 134.444 168.945 133.698C170.269 134.096 171.554 134.614 172.785 135.244C174.073 135.762 175.311 136.399 176.483 137.145Z" fill="#FAFAFA"/>
<path d="M202.809 127.114C202.723 125.749 202.765 124.38 202.935 123.023C202.97 121.656 203.138 120.296 203.438 118.962C203.524 120.326 203.484 121.696 203.319 123.053C203.278 124.419 203.107 125.779 202.809 127.114Z" fill="#FAFAFA"/>
<path d="M168.642 152.827C167.144 152.449 165.719 151.824 164.426 150.978C163.066 150.24 161.842 149.274 160.809 148.122C160.883 148.034 162.458 149.358 164.618 150.652C166.778 151.947 168.687 152.716 168.642 152.827Z" fill="#FAFAFA"/>
<path d="M157.67 137.773C156.717 139.086 155.663 140.323 154.518 141.472C153.465 142.717 152.318 143.879 151.086 144.949C153.089 142.376 155.29 139.965 157.67 137.736V137.773Z" fill="#FAFAFA"/>
<path d="M156.73 124.288C155.47 123.862 154.299 123.207 153.275 122.357C152.179 121.609 151.225 120.673 150.457 119.591C150.538 119.509 151.781 120.759 153.512 122.046C155.243 123.334 156.782 124.192 156.73 124.288Z" fill="#FAFAFA"/>
<path d="M149.814 127.113C149.395 127.905 148.865 128.633 148.239 129.273C147.707 129.996 147.077 130.641 146.367 131.189C147.315 129.672 148.476 128.3 149.814 127.113Z" fill="#FAFAFA"/>
<path d="M164.612 102.081C163.751 103.433 162.784 104.714 161.72 105.913C160.757 107.197 159.691 108.399 158.531 109.508C159.393 108.154 160.36 106.871 161.424 105.669C162.39 104.39 163.456 103.19 164.612 102.081Z" fill="#FAFAFA"/>
<path d="M151.94 104.929C150.8 103.917 149.745 102.811 148.789 101.623C147.74 100.521 146.785 99.3328 145.934 98.0721C147.076 99.0806 148.13 100.184 149.085 101.371C150.134 102.476 151.089 103.666 151.94 104.929Z" fill="#FAFAFA"/>
<path d="M158.286 88.8625C157.438 87.7662 156.695 86.5922 156.067 85.3561C155.334 84.1815 154.708 82.9437 154.195 81.6574C155.043 82.7571 155.786 83.9334 156.415 85.1712C157.148 86.3428 157.775 87.5782 158.286 88.8625Z" fill="#FAFAFA"/>
<path d="M157.954 78.4988C157.865 78.4248 158.975 77.0193 159.855 75.0294C160.736 73.0395 161.054 71.2863 161.172 71.3307C160.988 74.0337 159.847 76.5828 157.954 78.521V78.4988Z" fill="#FAFAFA"/>
<path d="M145.754 77.8843C145.639 76.3205 145.953 74.755 146.664 73.3571C147.123 72.3539 147.731 71.426 148.468 70.6052C148.751 70.2438 149.1 69.9399 149.497 69.7101C148.536 70.8864 147.703 72.1609 147.011 73.5124C146.436 74.9204 146.015 76.3861 145.754 77.8843Z" fill="#FAFAFA"/>
<path d="M252.411 60.2855C252.071 57.2193 252.034 54.1271 252.3 51.0536C252.576 47.9614 253.76 45.0198 255.703 42.5983C257.723 40.2608 260.829 38.7591 263.885 39.1512C265.778 39.3953 267.583 40.3273 269.47 40.2756C271.689 40.209 273.59 38.8479 275.595 37.938C278.755 36.5033 282.295 36.1322 285.685 36.8802C287.471 37.2169 289.125 38.053 290.456 39.2917C291.112 39.9167 291.597 40.6981 291.868 41.5626C292.138 42.427 292.184 43.346 292.002 44.2332C294.237 44.135 296.476 44.3315 298.66 44.8176C300.847 45.3103 302.755 46.6374 303.978 48.5163C305.081 50.447 305.007 53.1322 303.424 54.6931C304.466 54.5534 305.523 54.804 306.391 55.3967C307.26 55.9894 307.878 56.8822 308.128 57.9035C308.325 58.9371 308.22 60.0054 307.827 60.9811C307.433 61.9569 306.768 62.799 305.909 63.4072C303.841 64.6738 301.39 65.1665 298.993 64.7979C296.936 64.4059 294.554 63.8289 292.905 62.5787" fill="#263238"/>
<path d="M250.805 129.969C254.886 131.018 259.216 130.41 262.851 128.279C266.485 126.147 269.13 122.665 270.208 118.592C271.458 113.85 272.479 109.878 272.479 109.878C272.479 109.878 284.84 112.001 288.931 100.261C293.022 88.5218 300.027 60.9 300.027 60.9C294.311 55.7881 287.334 52.2943 279.816 50.7794C272.299 49.2644 264.513 49.7831 257.263 52.282L255.044 53.0217L239.339 110.226C238.77 112.275 238.617 114.418 238.888 116.527C239.159 118.637 239.849 120.671 240.917 122.511C241.985 124.35 243.41 125.957 245.108 127.238C246.806 128.519 248.743 129.448 250.805 129.969Z" fill="#F8A58D"/>
<path d="M272.555 109.716C267.097 107.996 262.274 104.693 258.699 100.225C258.699 100.225 259.483 109.893 271.563 112.801L272.555 109.716Z" fill="#AA6550"/>
<path d="M252.446 65.7303C252.275 65.5749 245.174 60.6335 242.74 68.7558C240.307 76.8782 248.954 77.6327 249.035 77.4182C249.117 77.2036 252.446 65.7303 252.446 65.7303Z" fill="#B78876"/>
<path d="M247.46 73.5943C247.46 73.5943 247.29 73.6535 247.016 73.6904C246.644 73.7212 246.274 73.6103 245.981 73.3797C245.241 72.8101 244.908 71.2271 245.308 69.755C245.493 69.052 245.834 68.3997 246.306 67.8465C246.462 67.6211 246.67 67.4363 246.912 67.3076C247.154 67.1789 247.423 67.1101 247.697 67.1068C247.876 67.105 248.05 67.1686 248.187 67.2856C248.323 67.4026 248.412 67.5652 248.437 67.7429C248.481 68.0018 248.378 68.1498 248.437 68.1794C248.496 68.209 248.651 68.0906 248.681 67.7355C248.697 67.5231 248.639 67.3116 248.518 67.1363C248.431 67.0164 248.321 66.9153 248.193 66.839C248.066 66.7628 247.925 66.713 247.778 66.6925C247.425 66.6569 247.068 66.7131 246.743 66.8557C246.418 66.9982 246.135 67.2223 245.922 67.5062C245.363 68.1042 244.962 68.831 244.753 69.6219C244.309 71.2715 244.686 73.0543 245.759 73.7496C245.959 73.8777 246.185 73.9595 246.42 73.989C246.656 74.0184 246.895 73.9948 247.12 73.9198C247.408 73.7866 247.505 73.6239 247.46 73.5943Z" fill="#AA6550"/>
<path d="M290.079 77.8549C289.935 78.2998 289.621 78.6698 289.205 78.8845C288.79 79.0992 288.306 79.1413 287.86 79.0015C287.641 78.9465 287.435 78.8483 287.254 78.7127C287.074 78.5771 286.922 78.4068 286.809 78.2117C286.695 78.0167 286.621 77.8009 286.592 77.577C286.563 77.3531 286.579 77.1257 286.639 76.908C286.782 76.4702 287.09 76.105 287.497 75.8897C287.904 75.6744 288.379 75.6257 288.821 75.7541C289.044 75.8058 289.254 75.9018 289.438 76.0364C289.623 76.171 289.779 76.3414 289.896 76.5375C290.014 76.7335 290.09 76.9512 290.122 77.1776C290.153 77.4039 290.138 77.6343 290.079 77.8549Z" fill="#263238"/>
<path d="M292.267 76.7164C291.986 76.8644 291.031 75.5033 289.226 74.8967C287.421 74.2901 285.787 74.7561 285.668 74.4676C285.602 74.3419 285.949 74.0164 286.667 73.7871C287.637 73.501 288.672 73.5269 289.626 73.8611C290.566 74.1724 291.383 74.7763 291.956 75.5846C292.348 76.1986 292.4 76.6573 292.267 76.7164Z" fill="#263238"/>
<path d="M272.323 71.8989C272.18 72.3368 271.873 72.7019 271.465 72.9173C271.058 73.1326 270.583 73.1812 270.141 73.0529C269.922 72.9979 269.716 72.8998 269.536 72.7641C269.355 72.6285 269.204 72.4582 269.09 72.2631C268.976 72.0681 268.903 71.8523 268.874 71.6284C268.844 71.4045 268.86 71.1771 268.92 70.9594C269.062 70.5205 269.369 70.1541 269.777 69.9385C270.184 69.7229 270.66 69.6752 271.103 69.8055C271.322 69.8604 271.527 69.9586 271.708 70.0942C271.888 70.2299 272.04 70.4002 272.154 70.5952C272.267 70.7903 272.341 71.0061 272.37 71.23C272.399 71.4538 272.383 71.6813 272.323 71.8989Z" fill="#263238"/>
<path d="M274.409 71.0934C274.128 71.2487 273.167 69.8802 271.362 69.2736C269.557 68.667 267.929 69.133 267.803 68.8445C267.744 68.7188 268.085 68.3933 268.809 68.1714C269.779 67.8849 270.813 67.9082 271.768 68.238C272.71 68.5516 273.528 69.1549 274.106 69.9616C274.483 70.5755 274.542 71.0342 274.409 71.0934Z" fill="#263238"/>
<path d="M276.465 86.6942C276.465 86.5906 277.679 86.7682 279.572 87.1454C280.053 87.2564 280.519 87.3082 280.704 87.0197C280.902 86.5528 280.953 86.037 280.852 85.5402C280.793 84.2752 280.734 82.9511 280.667 81.5678C280.453 75.9384 280.46 71.3668 280.667 71.3594C280.874 71.352 281.252 75.9162 281.466 81.5456C281.51 82.9289 281.547 84.253 281.584 85.518C281.691 86.1699 281.562 86.8383 281.222 87.4043C281.101 87.5447 280.949 87.6557 280.779 87.7288C280.608 87.8018 280.423 87.8351 280.238 87.826C279.959 87.812 279.682 87.7597 279.417 87.6706C277.575 87.1602 276.436 86.7903 276.465 86.6942Z" fill="#263238"/>
<path d="M270.735 86.1553C271.031 86.2366 270.38 88.197 271.593 90.1499C272.806 92.1028 274.959 92.591 274.885 92.8647C274.885 92.9979 274.286 93.094 273.405 92.8203C272.252 92.4514 271.267 91.6862 270.624 90.6603C270.001 89.6782 269.788 88.4908 270.032 87.3537C270.224 86.5103 270.602 86.0961 270.735 86.1553Z" fill="#263238"/>
<path d="M292.667 73.3198C292.216 73.623 291.114 72.7797 289.627 72.2545C288.14 71.7293 286.772 71.6036 286.624 71.0783C286.565 70.8268 286.905 70.4792 287.585 70.2794C288.485 70.063 289.429 70.1191 290.297 70.4405C291.165 70.7619 291.918 71.3341 292.46 72.0844C292.845 72.6836 292.875 73.1644 292.667 73.3198Z" fill="#263238"/>
<path d="M274.248 63.7625C273.975 63.9105 273.509 63.6663 272.984 63.3483C272.303 62.9423 271.591 62.5934 270.853 62.3052C270.105 62.036 269.336 61.8331 268.553 61.6986C267.924 61.5729 267.436 61.4767 267.325 61.1808C267.214 60.8849 267.569 60.4411 268.368 60.1452C269.431 59.8093 270.576 59.838 271.621 60.2266C272.666 60.6152 273.552 61.3415 274.138 62.2904C274.544 63.0671 274.507 63.6441 274.248 63.7625Z" fill="#263238"/>
<path d="M299.412 64.7401C293.234 64.3806 287.331 62.0615 282.56 58.1194C277.249 53.7698 270.599 50.722 268.786 51.5801C266.974 52.4382 265.251 58.5337 258.904 58.9775C258.904 58.9775 256.64 70.8503 252.039 69.3339C247.438 67.8174 254.517 50.2708 254.517 50.2708L267.277 47.2675L280.349 47.7483L292.088 50.4113L302.245 56.2479L299.412 64.7401Z" fill="#263238"/>
<path d="M233.504 18.1719H67.4102V276.814H233.504V18.1719Z" fill="#FAFAFA"/>
<path d="M233.502 276.808C233.502 275.217 233.428 170.174 233.325 18.1652L233.502 18.3428H67.4306L67.6303 18.1504C67.6303 116.003 67.6303 206.103 67.586 276.793L67.4306 276.638L233.524 276.793L67.4306 276.941H67.2827V276.808C67.2827 206.118 67.2827 116.018 67.2383 18.1652V17.9729H67.4528H233.524H233.702V18.1504C233.576 170.182 233.502 275.225 233.502 276.808Z" fill="#263238"/>
<path d="M111.927 75.7681H90.6748C89.9698 75.7681 89.2935 75.4886 88.7943 74.9907C88.2951 74.4929 88.0137 73.8175 88.0117 73.1124V43.693C88.0137 42.988 88.2951 42.3126 88.7943 41.8147C89.2935 41.3169 89.9698 41.0374 90.6748 41.0374H104.153L114.583 51.7858V73.1124C114.583 73.8168 114.303 74.4923 113.805 74.9903C113.307 75.4883 112.632 75.7681 111.927 75.7681Z" fill="#FF725E"/>
<path d="M104.152 41.0374V49.315C104.154 49.9697 104.415 50.597 104.878 51.06C105.341 51.5229 105.968 51.7838 106.623 51.7858H114.583L104.152 41.0374Z" fill="#FF725E"/>
<g opacity="0.2">
<path d="M104.262 50.041C104.265 50.6675 104.482 51.274 104.878 51.7598C105.274 52.2456 105.824 52.5814 106.437 52.7114L106.703 52.7706C107.738 52.9555 114.581 54.1687 114.581 54.0134V51.7941H106.621C106.621 51.7941 104.639 51.7202 104.262 50.041Z" fill="black"/>
</g>
<g opacity="0.3">
<path d="M104.152 41.0365V49.3142C104.154 49.9689 104.415 50.5962 104.878 51.0591C105.341 51.522 105.968 51.783 106.623 51.7849H114.583L104.152 41.0365Z" fill="white"/>
</g>
<path d="M102.37 48.9673C100.738 49.1574 99.0932 49.2217 97.4509 49.1596C95.8111 49.2219 94.169 49.1576 92.5391 48.9673C94.169 48.777 95.8111 48.7127 97.4509 48.775C99.0932 48.7128 100.738 48.7771 102.37 48.9673Z" fill="#FAFAFA"/>
<path d="M108.717 53.6588C108.717 53.7624 105.1 53.8512 100.632 53.8512C96.1638 53.8512 92.5391 53.7624 92.5391 53.6588C92.5391 53.5553 96.1638 53.4665 100.632 53.4665C105.1 53.4665 108.717 53.5479 108.717 53.6588Z" fill="#FAFAFA"/>
<path d="M110.174 57.5635C110.174 57.6745 106.232 57.7559 101.357 57.7559C96.4819 57.7559 92.5391 57.6745 92.5391 57.5635C92.5391 57.4526 96.4893 57.3712 101.357 57.3712C106.224 57.3712 110.174 57.46 110.174 57.5635Z" fill="#FAFAFA"/>
<path d="M110.174 61.2553C110.174 61.3588 106.232 61.4476 101.357 61.4476C96.4819 61.4476 92.5391 61.3588 92.5391 61.2553C92.5391 61.1517 96.4893 61.0629 101.357 61.0629C106.224 61.0629 110.174 61.1443 110.174 61.2553Z" fill="#FAFAFA"/>
<path d="M110.174 64.9392C110.174 65.0502 106.232 65.1316 101.357 65.1316C96.4819 65.1316 92.5391 65.0502 92.5391 64.9392C92.5391 64.8283 96.4893 64.7469 101.357 64.7469C106.224 64.7469 110.174 64.8357 110.174 64.9392Z" fill="#FAFAFA"/>
<path d="M110.174 68.631C110.174 68.7346 106.232 68.8233 101.357 68.8233C96.4819 68.8233 92.5391 68.7346 92.5391 68.631C92.5391 68.5274 96.4893 68.4387 101.357 68.4387C106.224 68.4387 110.174 68.52 110.174 68.631Z" fill="#FAFAFA"/>
<path d="M122.016 56.1502H119.797V55.3365H125.204V56.1502H122.985V61.8758H122.06L122.016 56.1502Z" fill="#263238"/>
<path d="M130.945 61.0621V61.8758H126.203V55.3365H130.812V56.1502H127.113V58.1549H130.39V58.9538H127.113V61.0621H130.945Z" fill="#263238"/>
<path d="M136.825 61.8762L135.412 59.8641C135.277 59.8719 135.141 59.8719 135.005 59.8641H133.393V61.854H132.453V55.3147H135.02C136.721 55.3147 137.742 56.1728 137.742 57.5931C137.765 58.0474 137.636 58.4964 137.377 58.8698C137.117 59.2433 136.741 59.5201 136.307 59.657L137.861 61.8762H136.825ZM136.825 57.6153C136.825 56.6832 136.204 56.1358 135.005 56.1358H133.393V59.0948H134.976C136.174 59.0948 136.795 58.5843 136.795 57.6153H136.825Z" fill="#263238"/>
<path d="M145.305 61.8769V57.1056L142.938 61.0706H142.509L140.149 57.1352V61.8696H139.254V55.3303H139.994L142.716 59.924L145.401 55.3303H146.141V61.8696L145.305 61.8769Z" fill="#263238"/>
<path d="M147.598 61.1303L147.938 60.3906C148.549 60.8824 149.314 61.1442 150.098 61.1303C151.23 61.1303 151.711 60.6865 151.711 60.1169C151.711 58.5191 147.753 59.5325 147.753 57.1062C147.753 56.0927 148.537 55.2346 150.253 55.2346C150.996 55.2201 151.726 55.4233 152.354 55.819L152.051 56.5587C151.513 56.2179 150.89 56.0358 150.253 56.0335C149.144 56.0335 148.67 56.4996 148.67 57.0692C148.67 58.6596 152.628 57.661 152.628 60.0281C152.628 61.0268 151.822 61.8849 150.098 61.8849C149.203 61.9289 148.319 61.6624 147.598 61.1303Z" fill="#263238"/>
<path d="M155.94 58.5842C155.914 57.8915 156.095 57.2067 156.46 56.6177C156.826 56.0287 157.359 55.5625 157.991 55.2788C158.624 54.9951 159.327 54.907 160.01 55.0257C160.693 55.1444 161.325 55.4646 161.824 55.9451C162.324 56.4256 162.669 57.0445 162.814 57.7223C162.959 58.4001 162.898 59.1059 162.64 59.749C162.381 60.3921 161.936 60.9431 161.362 61.3314C160.787 61.7196 160.11 61.9274 159.417 61.9279C158.966 61.949 158.515 61.878 158.093 61.7191C157.67 61.5603 157.284 61.317 156.959 61.0041C156.634 60.6911 156.376 60.3152 156.2 59.8991C156.025 59.4831 155.937 59.0357 155.94 58.5842ZM161.947 58.5842C161.951 58.0812 161.806 57.5881 161.529 57.1678C161.253 56.7475 160.858 56.4188 160.394 56.2236C159.931 56.0284 159.419 55.9754 158.925 56.0714C158.432 56.1673 157.977 56.408 157.621 56.7627C157.264 57.1173 157.021 57.5701 156.922 58.0634C156.823 58.5566 156.873 59.0682 157.065 59.533C157.258 59.9978 157.584 60.3948 158.003 60.6737C158.422 60.9527 158.914 61.1008 159.417 61.0993C159.751 61.1106 160.084 61.0533 160.395 60.9311C160.706 60.8089 160.988 60.6243 161.225 60.3886C161.462 60.153 161.649 59.8714 161.773 59.5611C161.897 59.2507 161.956 58.9183 161.947 58.5842Z" fill="#263238"/>
<path d="M165.245 56.1502V58.4286H168.522V59.2349H165.245V61.8758H164.312V55.3365H168.921V56.1502H165.245Z" fill="#263238"/>
<path d="M172.156 61.1302L172.504 60.3905C173.113 60.8812 173.875 61.143 174.657 61.1302C175.788 61.1302 176.277 60.6864 176.277 60.1168C176.277 58.5189 172.319 59.5324 172.319 57.106C172.319 56.0926 173.103 55.2345 174.819 55.2345C175.561 55.2213 176.291 55.4243 176.92 55.8189L176.609 56.5586C176.074 56.2187 175.454 56.0367 174.819 56.0334C173.71 56.0334 173.229 56.4994 173.229 57.069C173.229 58.6595 177.186 57.6608 177.186 60.028C177.186 61.0266 176.388 61.8848 174.657 61.8848C173.761 61.9276 172.878 61.6612 172.156 61.1302Z" fill="#263238"/>
<path d="M183.296 61.0621V61.8758H178.555V55.3365H183.163V56.1502H179.465V58.1549H182.742V58.9538H179.465V61.0621H183.296Z" fill="#263238"/>
<path d="M189.177 61.8762L187.771 59.8641C187.633 59.8716 187.495 59.8716 187.357 59.8641H185.745V61.854H184.812V55.3147H187.357C189.059 55.3147 190.087 56.1728 190.087 57.5931C190.109 58.0483 189.979 58.498 189.718 58.8716C189.457 59.2452 189.079 59.5214 188.644 59.657L190.198 61.8762H189.177ZM189.177 57.6153C189.177 56.6832 188.556 56.1358 187.357 56.1358H185.774V59.0948H187.357C188.526 59.0948 189.147 58.5843 189.147 57.6153H189.177Z" fill="#263238"/>
<path d="M197.269 55.3365L194.406 61.8758H193.46L190.582 55.3365H191.595L193.948 60.707L196.315 55.3365H197.269Z" fill="#263238"/>
<path d="M198.105 55.3365H199.038V61.8758H198.105V55.3365Z" fill="#263238"/>
<path d="M200.466 58.5843C200.46 58.1336 200.547 57.6865 200.72 57.2705C200.894 56.8545 201.151 56.4783 201.475 56.1652C201.799 55.852 202.184 55.6085 202.606 55.4495C203.027 55.2905 203.477 55.2195 203.928 55.2407C204.391 55.2221 204.853 55.3038 205.282 55.4799C205.711 55.6561 206.097 55.9227 206.413 56.2615L205.807 56.8459C205.57 56.599 205.283 56.4053 204.965 56.2777C204.648 56.1502 204.306 56.0917 203.965 56.1062C203.548 56.1079 203.139 56.2129 202.773 56.4119C202.407 56.6109 202.096 56.8976 201.869 57.2463C201.641 57.595 201.504 57.9947 201.469 58.4097C201.434 58.8246 201.502 59.2417 201.668 59.6237C201.834 60.0056 202.092 60.3403 202.419 60.5978C202.747 60.8553 203.133 61.0275 203.543 61.099C203.953 61.1705 204.375 61.139 204.77 61.0074C205.165 60.8758 205.521 60.6481 205.807 60.3449L206.413 60.9293C206.096 61.2696 205.709 61.5376 205.279 61.7151C204.848 61.8925 204.385 61.9752 203.92 61.9575C203.468 61.9778 203.016 61.9052 202.593 61.7439C202.171 61.5827 201.785 61.3363 201.461 61.02C201.138 60.7038 200.882 60.3245 200.711 59.9055C200.539 59.4865 200.456 59.0368 200.466 58.5843Z" fill="#263238"/>
<path d="M212.492 61.0621V61.8758H207.75V55.3365H212.359V56.1502H208.66V58.1549H211.952V58.9538H208.675V61.0621H212.492Z" fill="#263238"/>
<path d="M127.884 68.5863L126.138 73.7645H125.361L123.926 69.6367L122.499 73.7941H121.707L119.969 68.6159H120.708L122.114 72.8546L123.593 68.6159H124.281L125.717 72.8768L127.152 68.6159L127.884 68.5863Z" fill="#E0E0E0"/>
<path d="M131.934 72.0622H128.731C128.779 72.4008 128.954 72.7086 129.221 72.9229C129.487 73.1372 129.825 73.2421 130.167 73.2162C130.378 73.2228 130.589 73.184 130.784 73.1023C130.979 73.0206 131.155 72.898 131.298 72.7427L131.698 73.2014C131.5 73.4148 131.257 73.5823 130.988 73.6922C130.718 73.8021 130.428 73.8517 130.137 73.8375C129.863 73.8583 129.587 73.8213 129.328 73.729C129.069 73.6366 128.832 73.4909 128.632 73.3013C128.433 73.1117 128.276 72.8824 128.17 72.6282C128.065 72.374 128.014 72.1005 128.021 71.8255C128.01 71.5614 128.053 71.2978 128.148 71.0511C128.243 70.8043 128.387 70.5797 128.572 70.391C128.758 70.2024 128.98 70.0538 129.224 69.9544C129.469 69.8551 129.732 69.807 129.996 69.8134C130.262 69.8066 130.525 69.8553 130.771 69.9562C131.016 70.0571 131.238 70.2081 131.422 70.3996C131.606 70.591 131.747 70.8186 131.838 71.068C131.929 71.3173 131.967 71.5829 131.949 71.8476C131.949 71.8994 131.942 71.9956 131.934 72.0622ZM128.731 71.5518H131.261C131.228 71.2399 131.08 70.9514 130.846 70.7419C130.613 70.5323 130.31 70.4164 129.996 70.4164C129.683 70.4164 129.38 70.5323 129.147 70.7419C128.913 70.9514 128.765 71.2399 128.731 71.5518Z" fill="#E0E0E0"/>
<path d="M132.941 68.2755H133.681V73.7939H132.941V68.2755Z" fill="#E0E0E0"/>
<path d="M134.649 71.8265C134.643 71.5544 134.694 71.2841 134.798 71.0326C134.902 70.781 135.056 70.5537 135.252 70.3647C135.448 70.1758 135.681 70.0294 135.936 69.9347C136.191 69.84 136.463 69.799 136.735 69.8144C137.054 69.7969 137.371 69.8661 137.654 70.0146C137.936 70.163 138.174 70.3853 138.34 70.6577L137.793 71.0053C137.679 70.8275 137.521 70.6822 137.334 70.5837C137.148 70.4852 136.939 70.4367 136.728 70.4431C136.377 70.4687 136.049 70.626 135.81 70.8833C135.571 71.1406 135.438 71.4789 135.438 71.8302C135.438 72.1814 135.571 72.5197 135.81 72.777C136.049 73.0343 136.377 73.1916 136.728 73.2172C136.939 73.2236 137.148 73.1752 137.334 73.0766C137.521 72.9781 137.679 72.8328 137.793 72.655L138.34 72.9952C138.174 73.2676 137.936 73.4899 137.654 73.6384C137.371 73.7868 137.054 73.856 136.735 73.8385C136.463 73.8539 136.191 73.8129 135.936 73.7182C135.681 73.6235 135.448 73.4771 135.252 73.2882C135.056 73.0993 134.902 72.8719 134.798 72.6203C134.694 72.3688 134.643 72.0985 134.649 71.8265Z" fill="#E0E0E0"/>
<path d="M138.836 71.8257C138.829 71.4193 138.943 71.0198 139.163 70.6782C139.384 70.3366 139.7 70.0682 140.074 69.9072C140.447 69.7462 140.86 69.6999 141.259 69.7741C141.659 69.8484 142.028 70.0398 142.318 70.3241C142.609 70.6084 142.808 70.9727 142.891 71.3707C142.974 71.7687 142.937 72.1823 142.784 72.559C142.631 72.9357 142.37 73.2584 142.033 73.4862C141.696 73.7139 141.299 73.8363 140.893 73.8378C140.623 73.8501 140.354 73.8068 140.102 73.7106C139.85 73.6144 139.62 73.4673 139.428 73.2786C139.235 73.0899 139.083 72.8636 138.981 72.6136C138.879 72.3637 138.83 72.0955 138.836 71.8257ZM142.217 71.8257C142.205 71.5649 142.117 71.3132 141.964 71.102C141.81 70.8909 141.598 70.7294 141.354 70.6379C141.109 70.5464 140.843 70.5288 140.589 70.5872C140.334 70.6457 140.103 70.7777 139.923 70.9668C139.743 71.1559 139.622 71.3937 139.576 71.6507C139.53 71.9077 139.561 72.1726 139.664 72.4123C139.768 72.6521 139.939 72.8561 140.158 72.9991C140.376 73.142 140.632 73.2176 140.893 73.2164C141.074 73.2211 141.254 73.1878 141.421 73.1186C141.588 73.0495 141.739 72.946 141.864 72.815C141.988 72.684 142.084 72.5282 142.145 72.3578C142.206 72.1874 142.231 72.0062 142.217 71.8257Z" fill="#E0E0E0"/>
<path d="M150.472 71.5301V73.7937H149.732V71.6115C149.732 70.8348 149.355 70.4575 148.711 70.4575C148.068 70.4575 147.528 70.9087 147.528 71.7668V73.7937H146.788V71.6115C146.788 70.8348 146.411 70.4575 145.767 70.4575C145.124 70.4575 144.583 70.9087 144.583 71.7668V73.7937H143.844V69.8509H144.635V70.4427C144.794 70.235 145.001 70.0692 145.238 69.9596C145.475 69.8501 145.735 69.8 145.996 69.8139C146.271 69.798 146.544 69.8587 146.786 69.9894C147.027 70.1201 147.228 70.3154 147.365 70.5537C147.537 70.3147 147.765 70.1221 148.03 69.993C148.295 69.8639 148.587 69.8024 148.881 69.8139C149.106 69.7939 149.333 69.8257 149.544 69.9068C149.755 69.988 149.944 70.1163 150.098 70.282C150.251 70.4476 150.365 70.6463 150.429 70.8626C150.494 71.079 150.509 71.3073 150.472 71.5301Z" fill="#E0E0E0"/>
<path d="M155.363 72.0622H152.167C152.211 72.401 152.384 72.7097 152.65 72.9245C152.916 73.1394 153.254 73.2438 153.595 73.2162C153.807 73.2239 154.019 73.1856 154.216 73.1039C154.413 73.0222 154.589 72.899 154.734 72.7428L155.126 73.2014C154.835 73.5029 154.463 73.713 154.054 73.8059C153.645 73.8989 153.219 73.8705 152.826 73.7245C152.433 73.5784 152.092 73.3209 151.843 72.9836C151.595 72.6463 151.45 72.2438 151.427 71.8255C151.417 71.561 151.461 71.2973 151.557 71.0505C151.652 70.8038 151.798 70.5792 151.983 70.3907C152.169 70.2022 152.391 70.0537 152.637 69.9544C152.882 69.8551 153.145 69.8071 153.41 69.8134C153.675 69.8065 153.938 69.8552 154.183 69.9562C154.428 70.0572 154.65 70.2083 154.833 70.3999C155.016 70.5915 155.157 70.8192 155.247 71.0685C155.337 71.3179 155.374 71.5833 155.355 71.8477C155.377 71.8994 155.37 71.9956 155.363 72.0622ZM152.167 71.5518H154.697C154.663 71.2399 154.515 70.9514 154.282 70.7419C154.048 70.5323 153.746 70.4164 153.432 70.4164C153.118 70.4164 152.816 70.5323 152.582 70.7419C152.349 70.9514 152.201 71.2399 152.167 71.5518Z" fill="#E0E0E0"/>
<path d="M156.207 73.3791C156.207 73.3156 156.22 73.2528 156.244 73.1944C156.269 73.136 156.305 73.0831 156.351 73.039C156.396 72.9948 156.45 72.9602 156.51 72.9373C156.569 72.9144 156.632 72.9036 156.695 72.9056C156.821 72.9056 156.941 72.9555 157.03 73.0443C157.119 73.1331 157.169 73.2535 157.169 73.3791C157.169 73.5046 157.119 73.625 157.03 73.7138C156.941 73.8026 156.821 73.8525 156.695 73.8525C156.632 73.8545 156.569 73.8437 156.51 73.8208C156.45 73.7979 156.396 73.7633 156.351 73.7192C156.305 73.675 156.269 73.6222 156.244 73.5637C156.22 73.5053 156.207 73.4425 156.207 73.3791ZM156.274 68.6003H157.117L156.976 72.1659H156.407L156.274 68.6003Z" fill="#E0E0E0"/>
<path d="M222.841 34.0922H221.968C221.425 34.0922 220.984 34.5327 220.984 35.0761V250.274C220.984 250.817 221.425 251.258 221.968 251.258H222.841C223.384 251.258 223.825 250.817 223.825 250.274V35.0761C223.825 34.5327 223.384 34.0922 222.841 34.0922Z" fill="#E0E0E0"/>
<path d="M222.841 34.0922H221.968C221.425 34.0922 220.984 34.5327 220.984 35.0761V145.068C220.984 145.611 221.425 146.052 221.968 146.052H222.841C223.384 146.052 223.825 145.611 223.825 145.068V35.0761C223.825 34.5327 223.384 34.0922 222.841 34.0922Z" fill="#FF725E"/>
<path d="M93.412 98.9146V104.093H92.6723V99.5655H91.4961V98.9146H93.412Z" fill="#263238"/>
<path d="M94.5354 103.657C94.5368 103.558 94.5676 103.461 94.6237 103.379C94.6799 103.298 94.7589 103.234 94.851 103.197C94.943 103.161 95.0439 103.152 95.141 103.172C95.2381 103.192 95.327 103.241 95.3966 103.311C95.4662 103.382 95.5134 103.471 95.5322 103.569C95.551 103.666 95.5407 103.767 95.5024 103.858C95.4641 103.95 95.3996 104.028 95.3171 104.083C95.2345 104.138 95.1376 104.167 95.0384 104.167C94.9714 104.168 94.9049 104.156 94.843 104.13C94.781 104.105 94.7248 104.067 94.6778 104.02C94.6308 103.972 94.5939 103.915 94.5694 103.853C94.5449 103.79 94.5334 103.724 94.5354 103.657Z" fill="#263238"/>
<path d="M99.6964 99.5655H97.9062V98.9146H102.219V99.5655H100.429V104.122H99.689L99.6964 99.5655Z" fill="#263238"/>
<path d="M106.066 102.392H102.863C102.909 102.73 103.082 103.038 103.348 103.252C103.613 103.467 103.95 103.572 104.29 103.546C104.504 103.553 104.716 103.513 104.913 103.43C105.109 103.347 105.286 103.223 105.429 103.065L105.822 103.531C105.532 103.836 105.159 104.049 104.75 104.144C104.34 104.239 103.912 104.211 103.518 104.065C103.124 103.918 102.781 103.659 102.533 103.32C102.285 102.98 102.143 102.575 102.123 102.155C102.112 101.891 102.155 101.628 102.25 101.381C102.344 101.134 102.489 100.91 102.674 100.721C102.859 100.532 103.081 100.384 103.326 100.284C103.571 100.185 103.834 100.137 104.098 100.143C104.363 100.136 104.627 100.185 104.872 100.286C105.118 100.387 105.34 100.538 105.523 100.729C105.707 100.921 105.849 101.148 105.94 101.398C106.031 101.647 106.068 101.913 106.051 102.177C106.08 102.229 106.073 102.325 106.066 102.392ZM102.863 101.874H105.429C105.396 101.562 105.248 101.274 105.014 101.064C104.781 100.855 104.478 100.739 104.165 100.739C103.851 100.739 103.548 100.855 103.315 101.064C103.081 101.274 102.933 101.562 102.9 101.874H102.863Z" fill="#263238"/>
<path d="M109.188 100.143V100.838H109.025C108.852 100.827 108.677 100.854 108.515 100.918C108.353 100.982 108.207 101.082 108.088 101.209C107.969 101.337 107.88 101.489 107.827 101.655C107.775 101.821 107.759 101.997 107.783 102.17V104.13H107.043V100.187H107.724V100.853C107.872 100.604 108.089 100.405 108.349 100.278C108.61 100.152 108.901 100.105 109.188 100.143Z" fill="#263238"/>
<path d="M116.617 101.852V104.123H115.877V101.904C115.877 101.164 115.507 100.757 114.856 100.757C114.205 100.757 113.68 101.209 113.68 102.067V104.094H112.94V101.875C112.94 101.135 112.57 100.728 111.919 100.728C111.751 100.721 111.583 100.751 111.428 100.816C111.272 100.881 111.133 100.98 111.02 101.105C110.907 101.23 110.823 101.378 110.774 101.539C110.725 101.7 110.712 101.87 110.736 102.037V104.064H109.996V100.121H110.677V100.713C110.835 100.505 111.042 100.339 111.279 100.229C111.516 100.12 111.777 100.07 112.038 100.084C112.312 100.068 112.585 100.129 112.827 100.26C113.069 100.39 113.269 100.586 113.406 100.824C113.579 100.584 113.809 100.391 114.075 100.262C114.341 100.133 114.635 100.072 114.93 100.084C115.168 100.045 115.411 100.065 115.64 100.141C115.868 100.218 116.074 100.349 116.24 100.523C116.406 100.697 116.528 100.909 116.593 101.141C116.659 101.373 116.667 101.617 116.617 101.852Z" fill="#263238"/>
<path d="M95.4504 184.281V184.924H91.7517V184.421L93.8674 182.372C94.4222 181.84 94.5258 181.514 94.5258 181.181C94.5258 180.649 94.1411 180.323 93.4162 180.323C93.166 180.308 92.9158 180.352 92.6849 180.449C92.454 180.546 92.2486 180.696 92.0846 180.885L91.5742 180.449C91.8135 180.183 92.109 179.974 92.4391 179.838C92.7693 179.701 93.1258 179.639 93.4827 179.657C94.5702 179.657 95.2655 180.22 95.2655 181.137C95.2573 181.456 95.1764 181.769 95.029 182.052C94.8816 182.336 94.6715 182.582 94.4148 182.772L92.817 184.31L95.4504 184.281Z" fill="#263238"/>
<path d="M96.1252 184.46C96.1232 184.393 96.1348 184.326 96.1593 184.264C96.1838 184.201 96.2206 184.144 96.2676 184.097C96.3146 184.049 96.3708 184.011 96.4328 183.986C96.4948 183.961 96.5613 183.948 96.6283 183.949C96.7636 183.949 96.8934 184.003 96.9892 184.099C97.0849 184.194 97.1387 184.324 97.1387 184.46C97.1387 184.595 97.0849 184.725 96.9892 184.82C96.8934 184.916 96.7636 184.97 96.6283 184.97C96.5616 184.97 96.4955 184.957 96.434 184.931C96.3725 184.905 96.3167 184.867 96.2699 184.82C96.2231 184.772 96.1862 184.716 96.1614 184.654C96.1365 184.592 96.1242 184.526 96.1252 184.46Z" fill="#263238"/>
<path d="M100.254 179.716H100.994V184.281H103.812V184.924H100.254V179.716Z" fill="#263238"/>
<path d="M104.445 179.761C104.445 179.699 104.458 179.637 104.482 179.58C104.506 179.522 104.542 179.47 104.587 179.427C104.632 179.383 104.685 179.349 104.743 179.326C104.802 179.304 104.864 179.293 104.926 179.295C105.018 179.298 105.106 179.328 105.181 179.381C105.256 179.434 105.313 179.508 105.346 179.593C105.379 179.678 105.386 179.772 105.367 179.861C105.347 179.95 105.301 180.032 105.236 180.096C105.17 180.159 105.087 180.202 104.997 180.219C104.907 180.236 104.814 180.226 104.73 180.19C104.645 180.155 104.574 180.095 104.523 180.019C104.472 179.942 104.445 179.853 104.445 179.761ZM104.571 180.982H105.311V184.925H104.571V180.982Z" fill="#263238"/>
<path d="M106.282 182.957C106.276 182.685 106.327 182.416 106.43 182.165C106.534 181.914 106.688 181.687 106.883 181.498C107.078 181.309 107.31 181.162 107.564 181.067C107.818 180.972 108.089 180.93 108.36 180.945C108.68 180.925 109 180.993 109.284 181.142C109.568 181.29 109.806 181.514 109.973 181.788L109.426 182.136C109.312 181.958 109.154 181.812 108.967 181.714C108.78 181.615 108.571 181.567 108.36 181.573C108.01 181.599 107.682 181.756 107.443 182.014C107.204 182.271 107.071 182.609 107.071 182.96C107.071 183.312 107.204 183.65 107.443 183.907C107.682 184.165 108.01 184.322 108.36 184.347C108.572 184.352 108.781 184.302 108.968 184.203C109.154 184.103 109.312 183.956 109.426 183.778L109.973 184.118C109.807 184.393 109.569 184.617 109.285 184.767C109.001 184.917 108.681 184.987 108.36 184.969C108.089 184.983 107.818 184.941 107.564 184.846C107.31 184.751 107.078 184.604 106.883 184.416C106.688 184.227 106.534 184 106.43 183.749C106.327 183.498 106.276 183.228 106.282 182.957Z" fill="#263238"/>
<path d="M114.382 183.194H111.186C111.233 183.532 111.406 183.839 111.671 184.054C111.937 184.268 112.274 184.374 112.614 184.348C112.828 184.355 113.04 184.315 113.236 184.232C113.433 184.149 113.609 184.025 113.753 183.867L114.145 184.333C113.855 184.635 113.482 184.845 113.074 184.938C112.665 185.03 112.238 185.002 111.846 184.856C111.453 184.71 111.111 184.453 110.863 184.115C110.614 183.778 110.47 183.375 110.447 182.957C110.437 182.693 110.481 182.429 110.576 182.182C110.672 181.935 110.817 181.711 111.003 181.522C111.189 181.334 111.411 181.185 111.656 181.086C111.902 180.987 112.165 180.939 112.429 180.945C112.694 180.938 112.958 180.987 113.203 181.088C113.448 181.189 113.669 181.34 113.852 181.531C114.035 181.723 114.177 181.951 114.267 182.2C114.357 182.449 114.393 182.715 114.375 182.979C114.397 183.038 114.39 183.127 114.382 183.194ZM111.186 182.676H113.716C113.683 182.364 113.535 182.076 113.301 181.866C113.068 181.657 112.765 181.541 112.451 181.541C112.138 181.541 111.835 181.657 111.602 181.866C111.368 182.076 111.22 182.364 111.186 182.676Z" fill="#263238"/>
<path d="M119.131 182.654V184.925H118.391V182.705C118.391 181.966 118.007 181.559 117.334 181.559C117.161 181.545 116.987 181.571 116.826 181.633C116.664 181.695 116.518 181.792 116.398 181.917C116.278 182.042 116.188 182.193 116.134 182.357C116.079 182.522 116.062 182.696 116.083 182.868V184.895H115.344V180.952H116.032V181.544C116.201 181.333 116.418 181.166 116.665 181.056C116.912 180.947 117.182 180.899 117.452 180.915C117.684 180.889 117.919 180.916 118.139 180.995C118.359 181.074 118.558 181.203 118.72 181.371C118.882 181.539 119.004 181.742 119.075 181.964C119.146 182.187 119.166 182.423 119.131 182.654Z" fill="#263238"/>
<path d="M120.114 182.957C120.107 182.685 120.157 182.415 120.26 182.163C120.363 181.912 120.517 181.684 120.712 181.495C120.908 181.306 121.14 181.16 121.395 181.065C121.65 180.97 121.921 180.929 122.193 180.945C122.513 180.925 122.832 180.993 123.116 181.142C123.4 181.29 123.639 181.514 123.805 181.788L123.258 182.136C123.143 181.957 122.984 181.812 122.796 181.713C122.608 181.615 122.397 181.566 122.185 181.573C121.835 181.599 121.507 181.756 121.268 182.014C121.029 182.271 120.896 182.609 120.896 182.96C120.896 183.312 121.029 183.65 121.268 183.907C121.507 184.165 121.835 184.322 122.185 184.347C122.398 184.353 122.608 184.303 122.796 184.204C122.984 184.104 123.143 183.957 123.258 183.778L123.805 184.118C123.639 184.393 123.401 184.617 123.117 184.767C122.833 184.917 122.513 184.987 122.193 184.969C121.921 184.983 121.65 184.941 121.396 184.846C121.142 184.751 120.91 184.604 120.715 184.416C120.52 184.227 120.366 184 120.262 183.749C120.159 183.498 120.108 183.228 120.114 182.957Z" fill="#263238"/>
<path d="M128.214 183.194H125.019C125.065 183.532 125.238 183.839 125.503 184.054C125.769 184.268 126.106 184.374 126.446 184.348C126.66 184.355 126.872 184.315 127.068 184.232C127.265 184.149 127.441 184.025 127.585 183.867L127.977 184.333C127.687 184.635 127.314 184.845 126.906 184.938C126.497 185.03 126.07 185.002 125.678 184.856C125.285 184.71 124.943 184.453 124.695 184.115C124.446 183.778 124.302 183.375 124.279 182.957C124.269 182.693 124.313 182.429 124.408 182.182C124.504 181.935 124.649 181.711 124.835 181.522C125.021 181.334 125.243 181.185 125.488 181.086C125.734 180.987 125.997 180.939 126.261 180.945C126.526 180.938 126.79 180.987 127.035 181.088C127.28 181.189 127.501 181.34 127.684 181.531C127.868 181.723 128.009 181.951 128.099 182.2C128.189 182.449 128.225 182.715 128.207 182.979C128.229 183.038 128.222 183.127 128.214 183.194ZM125.019 182.676H127.548C127.515 182.364 127.367 182.076 127.133 181.866C126.9 181.657 126.597 181.541 126.283 181.541C125.97 181.541 125.667 181.657 125.434 181.866C125.2 182.076 125.052 182.364 125.019 182.676Z" fill="#263238"/>
<path d="M205.464 115.832C205.464 115.943 179.936 116.025 148.453 116.025C116.969 116.025 91.4336 115.943 91.4336 115.832C91.4336 115.722 116.962 115.64 148.453 115.64C179.943 115.64 205.464 115.729 205.464 115.832Z" fill="#263238"/>
<path d="M205.464 124.466C205.464 124.569 179.936 124.658 148.453 124.658C116.969 124.658 91.4336 124.569 91.4336 124.466C91.4336 124.362 116.962 124.273 148.453 124.273C179.943 124.273 205.464 124.355 205.464 124.466Z" fill="#263238"/>
<path d="M205.464 133.091C205.464 133.202 179.936 133.283 148.453 133.283C116.969 133.283 91.4336 133.202 91.4336 133.091C91.4336 132.98 116.962 132.899 148.453 132.899C179.943 132.899 205.464 132.988 205.464 133.091Z" fill="#263238"/>
<path d="M205.464 141.724C205.464 141.828 179.936 141.917 148.453 141.917C116.969 141.917 91.4336 141.828 91.4336 141.724C91.4336 141.621 116.962 141.532 148.453 141.532C179.943 141.532 205.464 141.613 205.464 141.724Z" fill="#263238"/>
<path d="M205.464 150.35C205.464 150.461 179.936 150.542 148.453 150.542C116.969 150.542 91.4336 150.461 91.4336 150.35C91.4336 150.239 116.962 150.158 148.453 150.158C179.943 150.158 205.464 150.246 205.464 150.35Z" fill="#263238"/>
<path d="M205.464 158.982C205.464 159.085 179.936 159.174 148.453 159.174C116.969 159.174 91.4336 159.085 91.4336 158.982C91.4336 158.878 116.962 158.789 148.453 158.789C179.943 158.789 205.464 158.871 205.464 158.982Z" fill="#263238"/>
<path d="M205.464 191.738C205.464 191.841 179.936 191.93 148.453 191.93C116.969 191.93 91.4336 191.841 91.4336 191.738C91.4336 191.634 116.962 191.545 148.453 191.545C179.943 191.545 205.464 191.649 205.464 191.738Z" fill="#263238"/>
<path d="M205.464 199.135C205.464 199.246 179.936 199.328 148.453 199.328C116.969 199.328 91.4336 199.246 91.4336 199.135C91.4336 199.024 116.962 198.943 148.453 198.943C179.943 198.943 205.464 199.032 205.464 199.135Z" fill="#E0E0E0"/>
<path d="M205.464 206.533C205.464 206.636 179.936 206.725 148.453 206.725C116.969 206.725 91.4336 206.636 91.4336 206.533C91.4336 206.429 116.962 206.34 148.453 206.34C179.943 206.34 205.464 206.414 205.464 206.533Z" fill="#EBEBEB"/>
<path d="M213.787 228.6H153.469V251.073H213.787V228.6Z" fill="#FF725E"/>
<path d="M173.562 240.997H170.603L169.989 242.395H169.168L171.698 236.81H172.482L175.019 242.395H174.183L173.562 240.997ZM173.281 240.361L172.075 237.624L170.877 240.361H173.281Z" fill="white"/>
<path d="M175.301 240.28C175.296 239.99 175.35 239.702 175.46 239.434C175.571 239.166 175.735 238.923 175.943 238.722C176.151 238.52 176.399 238.363 176.67 238.26C176.941 238.158 177.231 238.113 177.52 238.127C177.863 238.107 178.204 238.18 178.507 238.339C178.811 238.498 179.066 238.737 179.244 239.029L178.66 239.399C178.537 239.208 178.367 239.051 178.166 238.945C177.965 238.839 177.74 238.786 177.513 238.793C177.121 238.793 176.744 238.949 176.467 239.226C176.189 239.504 176.033 239.88 176.033 240.272C176.033 240.665 176.189 241.041 176.467 241.318C176.744 241.596 177.121 241.752 177.513 241.752C177.74 241.758 177.965 241.706 178.166 241.599C178.367 241.493 178.537 241.337 178.66 241.145L179.244 241.508C179.066 241.801 178.812 242.041 178.508 242.201C178.205 242.362 177.863 242.436 177.52 242.417C177.232 242.432 176.944 242.387 176.674 242.285C176.403 242.184 176.157 242.028 175.949 241.828C175.741 241.628 175.576 241.387 175.465 241.121C175.353 240.855 175.298 240.568 175.301 240.28Z" fill="white"/>
<path d="M179.789 240.28C179.784 239.99 179.838 239.702 179.949 239.434C180.059 239.166 180.224 238.924 180.432 238.722C180.64 238.52 180.887 238.363 181.158 238.261C181.43 238.158 181.719 238.113 182.009 238.127C182.351 238.106 182.693 238.179 182.996 238.338C183.3 238.497 183.555 238.736 183.732 239.03L183.148 239.4C183.025 239.208 182.855 239.052 182.654 238.945C182.454 238.839 182.228 238.787 182.001 238.793C181.609 238.793 181.233 238.949 180.955 239.226C180.678 239.504 180.522 239.88 180.522 240.272C180.522 240.665 180.678 241.041 180.955 241.319C181.233 241.596 181.609 241.752 182.001 241.752C182.228 241.758 182.454 241.706 182.654 241.6C182.855 241.493 183.025 241.337 183.148 241.145L183.732 241.508C183.555 241.802 183.301 242.042 182.997 242.203C182.693 242.363 182.352 242.437 182.009 242.418C181.72 242.432 181.432 242.387 181.162 242.286C180.892 242.184 180.645 242.029 180.437 241.828C180.229 241.628 180.065 241.387 179.953 241.121C179.842 240.855 179.786 240.569 179.789 240.28Z" fill="white"/>
<path d="M188.481 240.56H185.048C185.098 240.922 185.284 241.251 185.569 241.481C185.853 241.711 186.215 241.823 186.58 241.795C186.808 241.803 187.035 241.761 187.246 241.673C187.456 241.585 187.646 241.453 187.8 241.284L188.222 241.78C188.01 242.009 187.75 242.188 187.461 242.305C187.172 242.423 186.861 242.476 186.55 242.461C186.256 242.482 185.96 242.442 185.682 242.343C185.404 242.244 185.15 242.087 184.936 241.884C184.722 241.68 184.553 241.434 184.44 241.162C184.327 240.889 184.272 240.596 184.279 240.301C184.268 240.017 184.315 239.735 184.417 239.471C184.519 239.206 184.675 238.966 184.874 238.764C185.073 238.562 185.311 238.404 185.574 238.298C185.837 238.192 186.119 238.141 186.402 238.148C186.686 238.139 186.969 238.19 187.233 238.297C187.496 238.404 187.734 238.566 187.932 238.77C188.129 238.975 188.281 239.219 188.378 239.487C188.475 239.754 188.515 240.039 188.495 240.323C188.495 240.367 188.488 240.463 188.481 240.56ZM185.048 240.005H187.756C187.721 239.67 187.563 239.36 187.313 239.135C187.063 238.91 186.738 238.785 186.402 238.785C186.066 238.785 185.741 238.91 185.491 239.135C185.241 239.36 185.083 239.67 185.048 240.005Z" fill="white"/>
<path d="M193.935 240.28C193.951 240.566 193.907 240.852 193.805 241.12C193.704 241.387 193.547 241.631 193.346 241.834C193.144 242.038 192.902 242.197 192.636 242.301C192.369 242.406 192.083 242.453 191.797 242.44C191.515 242.449 191.234 242.393 190.977 242.274C190.72 242.156 190.495 241.98 190.318 241.759V243.942H189.578V238.164H190.318V238.838C190.487 238.604 190.709 238.415 190.967 238.286C191.225 238.158 191.509 238.093 191.797 238.098C192.085 238.085 192.373 238.132 192.641 238.238C192.91 238.344 193.153 238.505 193.354 238.711C193.556 238.917 193.712 239.163 193.812 239.433C193.912 239.704 193.954 239.992 193.935 240.28ZM193.158 240.28C193.148 240 193.056 239.729 192.893 239.501C192.73 239.274 192.504 239.099 192.242 238.998C191.981 238.898 191.695 238.877 191.422 238.938C191.148 238.999 190.899 239.139 190.704 239.34C190.51 239.542 190.379 239.796 190.328 240.072C190.277 240.347 190.308 240.632 190.417 240.889C190.527 241.147 190.71 241.367 190.943 241.522C191.177 241.677 191.451 241.759 191.731 241.759C191.924 241.764 192.116 241.728 192.295 241.655C192.473 241.581 192.635 241.472 192.769 241.333C192.903 241.194 193.007 241.028 193.074 240.847C193.141 240.666 193.17 240.473 193.158 240.28Z" fill="white"/>
<path d="M197.374 242.144C197.106 242.345 196.777 242.449 196.442 242.44C196.262 242.461 196.08 242.441 195.909 242.382C195.738 242.323 195.583 242.226 195.454 242.099C195.326 241.972 195.227 241.818 195.167 241.647C195.106 241.477 195.084 241.295 195.103 241.115V238.793H194.363V238.164H195.103V237.239H195.843V238.164H197.056V238.793H195.843V241.086C195.824 241.18 195.828 241.277 195.853 241.37C195.878 241.462 195.924 241.548 195.988 241.619C196.052 241.691 196.131 241.747 196.22 241.783C196.309 241.818 196.405 241.833 196.501 241.826C196.718 241.829 196.929 241.759 197.1 241.626L197.374 242.144Z" fill="white"/>
<path d="M88.6169 251.25C88.6169 251.25 88.5651 251.25 88.469 251.154L88.0399 250.821L86.2424 249.437L86.1758 249.386L86.2572 249.349C93.5362 246.56 117.274 237.653 146.531 226.75L146.635 226.713L146.716 226.779L149.054 228.658L149.128 228.717V251.472H148.935L105.808 251.398L93.1663 251.346H89.7783H88.9054C88.8093 251.351 88.713 251.351 88.6169 251.346H88.9202H89.8005H93.2107L105.868 251.294L148.935 251.22L148.75 251.405C148.75 246.19 148.75 240.731 148.75 235.131V228.932L148.824 229.08L146.487 227.193H146.672C117.408 238.082 93.6324 246.885 86.3015 249.534V249.452L88.0473 250.895L88.4764 251.25H88.6169Z" fill="#FF725E"/>
<path d="M146.592 226.898H86.2734V249.371H146.592V226.898Z" fill="white"/>
<path d="M146.596 249.372C146.596 249.372 146.596 249.231 146.596 248.965C146.596 248.699 146.596 248.307 146.596 247.804C146.596 246.775 146.596 245.274 146.596 243.365C146.596 239.496 146.552 233.896 146.522 226.921L146.656 227.054L86.3373 227.113L86.5296 226.921C86.5296 234.762 86.5296 242.352 86.5296 249.394L86.3447 249.209L129.523 249.298L142.099 249.35H145.479H146.36H146.663H146.382H145.524H142.188L129.649 249.401L86.3373 249.49H86.1523V249.305C86.1523 242.263 86.1523 234.673 86.1523 226.832V226.64H86.3521L146.67 226.699H146.804V226.832C146.804 233.837 146.744 239.467 146.73 243.358C146.73 245.274 146.73 246.761 146.73 247.796C146.73 248.284 146.73 248.662 146.73 248.935C146.73 249.209 146.596 249.372 146.596 249.372Z" fill="#FF725E"/>
<path d="M102.805 236.544H105.157C105.541 236.516 105.927 236.568 106.291 236.695C106.654 236.823 106.988 237.025 107.27 237.287C107.552 237.549 107.777 237.867 107.931 238.22C108.085 238.574 108.164 238.955 108.164 239.34C108.164 239.725 108.085 240.107 107.931 240.46C107.777 240.813 107.552 241.131 107.27 241.393C106.988 241.656 106.654 241.857 106.291 241.985C105.927 242.113 105.541 242.164 105.157 242.136H102.805V236.544ZM105.113 241.441C105.403 241.465 105.696 241.429 105.972 241.335C106.248 241.24 106.501 241.09 106.716 240.892C106.931 240.695 107.102 240.455 107.22 240.188C107.337 239.92 107.397 239.632 107.397 239.34C107.397 239.048 107.337 238.76 107.22 238.493C107.102 238.226 106.931 237.986 106.716 237.788C106.501 237.591 106.248 237.44 105.972 237.346C105.696 237.251 105.403 237.215 105.113 237.239H103.633V241.441H105.113Z" fill="#FF725E"/>
<path d="M113.087 240.273H109.655C109.704 240.636 109.892 240.967 110.178 241.197C110.464 241.427 110.827 241.538 111.193 241.508C111.422 241.518 111.649 241.477 111.86 241.389C112.071 241.301 112.26 241.167 112.414 240.998L112.835 241.493C112.522 241.81 112.124 242.028 111.689 242.124C111.255 242.219 110.802 242.186 110.385 242.03C109.969 241.873 109.606 241.6 109.341 241.242C109.076 240.885 108.921 240.458 108.893 240.014C108.88 239.73 108.927 239.447 109.028 239.182C109.13 238.917 109.286 238.675 109.485 238.473C109.684 238.27 109.922 238.111 110.186 238.004C110.449 237.898 110.732 237.847 111.016 237.854C111.3 237.846 111.584 237.898 111.847 238.006C112.111 238.114 112.348 238.276 112.546 238.481C112.743 238.687 112.895 238.931 112.992 239.199C113.089 239.467 113.129 239.752 113.109 240.036C113.109 240.11 113.094 240.199 113.087 240.273ZM109.655 239.725H112.369C112.327 239.395 112.166 239.092 111.916 238.872C111.666 238.652 111.345 238.531 111.012 238.531C110.679 238.531 110.358 238.652 110.108 238.872C109.858 239.092 109.697 239.395 109.655 239.725Z" fill="#FF725E"/>
<path d="M113.774 240.021C113.768 239.731 113.821 239.442 113.931 239.173C114.041 238.904 114.205 238.661 114.413 238.458C114.622 238.256 114.869 238.098 115.141 237.995C115.413 237.893 115.703 237.847 115.993 237.861C116.335 237.841 116.677 237.914 116.98 238.073C117.284 238.232 117.539 238.471 117.717 238.764L117.132 239.141C117.009 238.95 116.839 238.794 116.638 238.688C116.438 238.581 116.213 238.529 115.986 238.534C115.593 238.534 115.217 238.69 114.94 238.968C114.662 239.245 114.506 239.621 114.506 240.014C114.506 240.406 114.662 240.783 114.94 241.06C115.217 241.337 115.593 241.493 115.986 241.493C116.213 241.499 116.438 241.446 116.638 241.34C116.839 241.234 117.009 241.078 117.132 240.887L117.717 241.257C117.539 241.55 117.285 241.79 116.981 241.95C116.677 242.111 116.336 242.185 115.993 242.166C115.704 242.181 115.415 242.135 115.145 242.034C114.874 241.932 114.627 241.776 114.419 241.574C114.211 241.373 114.046 241.132 113.935 240.865C113.825 240.598 113.77 240.31 113.774 240.021Z" fill="#FF725E"/>
<path d="M118.664 236.21H119.404V242.128H118.664V236.21Z" fill="#FF725E"/>
<path d="M120.75 236.595C120.751 236.528 120.765 236.462 120.792 236.4C120.818 236.339 120.857 236.283 120.905 236.236C120.953 236.19 121.01 236.153 121.072 236.128C121.134 236.103 121.201 236.091 121.268 236.092C121.367 236.095 121.462 236.127 121.543 236.184C121.624 236.241 121.686 236.321 121.722 236.413C121.758 236.505 121.766 236.605 121.745 236.702C121.723 236.799 121.674 236.887 121.604 236.956C121.533 237.025 121.443 237.071 121.346 237.089C121.249 237.108 121.148 237.097 121.057 237.058C120.966 237.02 120.889 236.955 120.834 236.873C120.779 236.791 120.75 236.694 120.75 236.595ZM120.891 237.904H121.63V242.136H120.891V237.904Z" fill="#FF725E"/>
<path d="M127.129 239.702V242.135H126.389V239.82C126.389 238.991 125.968 238.585 125.243 238.585C125.058 238.571 124.872 238.599 124.699 238.666C124.526 238.733 124.37 238.837 124.242 238.972C124.114 239.106 124.017 239.267 123.959 239.443C123.9 239.619 123.881 239.806 123.904 239.99V242.172H123.164V237.941H123.904V238.577C124.085 238.35 124.318 238.17 124.583 238.051C124.848 237.933 125.138 237.88 125.428 237.897C125.663 237.887 125.897 237.928 126.115 238.017C126.333 238.105 126.529 238.24 126.69 238.411C126.851 238.582 126.974 238.786 127.05 239.009C127.126 239.231 127.153 239.468 127.129 239.702Z" fill="#FF725E"/>
<path d="M132.379 240.273H128.947C128.997 240.635 129.183 240.965 129.468 241.194C129.752 241.424 130.114 241.536 130.478 241.508C130.707 241.518 130.934 241.477 131.145 241.389C131.356 241.301 131.545 241.167 131.699 240.998L132.121 241.493C131.807 241.81 131.409 242.028 130.975 242.124C130.54 242.219 130.087 242.186 129.67 242.03C129.254 241.873 128.891 241.6 128.626 241.242C128.361 240.885 128.206 240.458 128.178 240.014C128.165 239.73 128.212 239.447 128.314 239.182C128.415 238.917 128.571 238.675 128.77 238.473C128.969 238.27 129.208 238.111 129.471 238.004C129.734 237.898 130.017 237.847 130.301 237.854C130.585 237.846 130.869 237.898 131.132 238.006C131.396 238.114 131.634 238.276 131.831 238.481C132.028 238.687 132.18 238.931 132.277 239.199C132.374 239.467 132.414 239.752 132.394 240.036C132.394 240.11 132.387 240.199 132.379 240.273ZM128.947 239.725H131.654C131.619 239.391 131.462 239.081 131.212 238.856C130.962 238.631 130.637 238.506 130.301 238.506C129.964 238.506 129.64 238.631 129.39 238.856C129.14 239.081 128.982 239.391 128.947 239.725Z" fill="#FF725E"/>
<path d="M148.935 251.25C148.861 251.332 148.277 250.888 147.633 250.267C146.99 249.645 146.524 249.083 146.598 249.002C146.672 248.92 147.256 249.371 147.9 249.993C148.543 250.614 149.009 251.176 148.935 251.25Z" fill="#FF725E"/>
<path d="M235.108 245.634L243.719 241.492L238.985 227.496L228.584 225.092C227.615 224.87 226.535 224.611 225.337 224.278C223.927 223.885 222.594 223.257 221.394 222.421C219.864 221.449 218.475 220.272 217.266 218.922C216.282 217.583 214.196 218.086 214.196 219.573C214.196 221.06 216.822 224.811 221.49 227.466C226.158 230.122 217.902 231.402 214.914 231.905C211.925 232.408 202.737 234.472 202.19 235.515C201.391 237.038 202.93 238.207 205.889 237.623C208.848 237.038 217.939 235.884 218.176 237.467V237.512C217.446 238.653 217.092 239.994 217.162 241.347C217.232 242.7 217.724 243.998 218.568 245.057C220.24 247.151 222.747 249.777 224.589 249.377C228.051 248.645 235.108 245.634 235.108 245.634Z" fill="#B78876"/>
<path d="M234.582 221.01L242.653 248.299L305.316 229.258C308.515 228.281 311.486 226.675 314.057 224.535C316.628 222.396 318.746 219.765 320.287 216.797C321.829 213.829 322.763 210.583 323.035 207.249C323.307 203.916 322.911 200.561 321.871 197.382L306.507 149.573L273.137 157.858L291.453 202.095L234.582 221.01Z" fill="#FF725E"/>
<path d="M306.728 228.777L306.425 228.888L305.522 229.176L302.016 230.264L288.886 234.288L243.273 248.129L243.103 248.173L243.044 248.01C240.255 239.666 237.548 230.493 234.419 221.069L234.359 220.891L234.544 220.825L236.12 220.307L291.423 201.939L291.334 202.139C286.896 191.413 283.301 182.625 280.785 176.5C279.543 173.452 278.566 171.07 277.9 169.435C277.582 168.629 277.331 168.007 277.161 167.578C276.991 167.149 276.924 166.942 276.924 166.942C276.924 166.942 277.028 167.149 277.205 167.564L277.989 169.398C278.67 171.025 279.668 173.4 280.948 176.433C283.493 182.543 287.147 191.317 291.615 202.028L291.674 202.176L291.519 202.228L236.216 220.669L234.64 221.195L234.759 220.95C237.895 230.382 240.588 239.555 243.369 247.892L243.147 247.773L288.797 234.073L301.979 230.145L305.5 229.117L306.417 228.858L306.728 228.777Z" fill="#263238"/>
<path d="M303.036 210.045C302.977 210.045 302.562 209.357 301.727 208.314C299.532 205.589 296.547 203.609 293.183 202.648C291.895 202.278 291.067 202.174 291.074 202.108C291.27 202.073 291.47 202.073 291.666 202.108C292.2 202.158 292.729 202.247 293.249 202.374C294.977 202.793 296.619 203.509 298.102 204.49C299.586 205.471 300.885 206.705 301.941 208.137C302.261 208.568 302.548 209.023 302.799 209.498C302.911 209.664 302.991 209.85 303.036 210.045Z" fill="#263238"/>
<path d="M287.85 160.181C287.656 158.841 287.592 157.486 287.658 156.135C287.592 154.783 287.656 153.428 287.85 152.088C288.107 154.78 288.107 157.489 287.85 160.181Z" fill="#FAFAFA"/>
<path d="M300.434 160.824C299.859 159.578 299.403 158.28 299.073 156.947C298.618 155.652 298.286 154.317 298.082 152.96C299.111 155.502 299.899 158.134 300.434 160.824Z" fill="#FAFAFA"/>
<path d="M292.629 172.18C290.038 172.16 287.504 171.417 285.312 170.034C285.364 169.931 286.91 170.663 288.93 171.248C290.949 171.832 292.636 172.069 292.629 172.18Z" fill="#FAFAFA"/>
<path d="M306.863 178.422C306.893 177.122 307.051 175.829 307.337 174.56C307.495 173.268 307.78 171.995 308.187 170.758C308.154 172.06 307.995 173.356 307.714 174.627C307.558 175.917 307.273 177.188 306.863 178.422Z" fill="#FAFAFA"/>
<path d="M301.775 188.616C300.433 186.309 299.32 183.876 298.453 181.352C299.79 183.661 300.903 186.094 301.775 188.616Z" fill="#FAFAFA"/>
<path d="M299.686 197.538C298.467 197.165 297.29 196.669 296.172 196.058C295 195.564 293.882 194.949 292.836 194.224C294.049 194.605 295.223 195.1 296.342 195.703C297.516 196.199 298.637 196.814 299.686 197.538Z" fill="#FAFAFA"/>
<path d="M315.693 195.163C315.294 196.323 314.822 197.457 314.28 198.558C313.858 199.707 313.363 200.829 312.801 201.916C313.328 199.502 314.309 197.21 315.693 195.163Z" fill="#FAFAFA"/>
<path d="M311.243 216.653C310.709 213.916 310.434 211.134 310.422 208.346C310.744 209.704 310.944 211.087 311.021 212.481C311.222 213.862 311.296 215.258 311.243 216.653Z" fill="#FAFAFA"/>
<path d="M299.938 223.436C298.87 222.726 297.879 221.907 296.979 220.994C295.998 220.178 295.101 219.266 294.301 218.272C295.368 218.982 296.36 219.8 297.26 220.713C298.241 221.529 299.138 222.441 299.938 223.436Z" fill="#FAFAFA"/>
<path d="M280.408 225.38C279.009 227.729 277.389 229.938 275.57 231.979C276.213 230.772 276.971 229.63 277.834 228.569C278.59 227.428 279.452 226.36 280.408 225.38Z" fill="#FAFAFA"/>
<path d="M286.6 216.23C285.477 215.504 284.467 214.617 283.604 213.596C282.648 212.664 281.84 211.591 281.207 210.415C281.296 210.349 282.398 211.739 283.885 213.337C285.372 214.935 286.666 216.148 286.6 216.23Z" fill="#FAFAFA"/>
<path d="M271.872 218.309C270.934 218.687 269.914 218.812 268.913 218.671C267.905 218.659 266.917 218.389 266.043 217.887C266.087 217.776 267.338 218.176 268.935 218.287C270.533 218.398 271.872 218.198 271.872 218.309Z" fill="#FAFAFA"/>
<path d="M262.544 234.495C262.175 233.467 261.927 232.399 261.804 231.314C261.554 230.25 261.433 229.16 261.442 228.067C262.06 230.159 262.43 232.316 262.544 234.495Z" fill="#FAFAFA"/>
<path d="M251.538 240.073C248.986 238.768 246.557 237.236 244.281 235.494C245.587 236.091 246.837 236.804 248.017 237.624C249.26 238.336 250.438 239.155 251.538 240.073Z" fill="#FAFAFA"/>
<path d="M255.466 220.38C255.548 220.454 254.475 221.726 253.284 223.383C252.093 225.04 251.206 226.453 251.109 226.401C251.556 225.229 252.182 224.134 252.966 223.154C253.648 222.103 254.491 221.166 255.466 220.38Z" fill="#FAFAFA"/>
<path d="M246.959 224.116C246.194 223.947 245.462 223.655 244.791 223.25C244.067 222.959 243.397 222.549 242.809 222.037C244.298 222.494 245.7 223.197 246.959 224.116Z" fill="#FAFAFA"/>
<g opacity="0.2">
<path d="M290.93 200.963C294.273 201.303 297.624 201.651 300.961 202.073C302.124 202.157 303.27 202.406 304.363 202.812C304.907 203.024 305.402 203.344 305.819 203.752C306.236 204.16 306.566 204.648 306.79 205.187C306.998 205.733 307.021 206.333 306.854 206.894C306.686 207.454 306.339 207.944 305.865 208.286C305.391 208.529 304.863 208.644 304.331 208.621C303.799 208.598 303.283 208.436 302.832 208.153C301.936 207.583 301.099 206.927 300.332 206.193C298.827 204.948 297.078 204.034 295.198 203.508C294.341 203.345 293.514 203.056 292.742 202.65C292.357 202.435 292.047 202.107 291.856 201.709C291.666 201.312 291.603 200.865 291.677 200.43" fill="black"/>
</g>
</svg>
