<svg width="40" height="40" viewBox="0 0 40 40" fill="none" xmlns="http://www.w3.org/2000/svg">
<circle cx="20" cy="20" r="20" fill="white" fill-opacity="0.25"/>
<path d="M29.1931 16.0675L26.8572 18.4035C26.3853 23.8738 21.772 28.1254 16.251 28.1254C15.1166 28.1254 14.1814 27.9457 13.4713 27.591C12.8986 27.3043 12.6642 26.9972 12.6056 26.9097C12.5534 26.8314 12.5195 26.7422 12.5066 26.6489C12.4936 26.5557 12.5019 26.4607 12.5308 26.371C12.5598 26.2814 12.6086 26.1995 12.6736 26.1314C12.7386 26.0633 12.8182 26.0107 12.9064 25.9777C12.9267 25.9699 14.8002 25.2504 15.99 23.8808C15.3302 23.3383 14.7541 22.7012 14.2806 21.9902C13.3119 20.5519 12.2275 18.0535 12.5619 14.3199C12.5725 14.2012 12.6168 14.0881 12.6895 13.9938C12.7623 13.8995 12.8604 13.8279 12.9725 13.7875C13.0845 13.7471 13.2058 13.7396 13.322 13.7658C13.4382 13.792 13.5444 13.8509 13.6283 13.9355C13.6556 13.9629 16.2283 16.5214 19.3736 17.3511V16.8754C19.3724 16.3764 19.4711 15.8823 19.6637 15.4221C19.8564 14.9619 20.1392 14.5449 20.4955 14.1957C20.8415 13.8501 21.2532 13.5774 21.7063 13.3936C22.1595 13.2098 22.6448 13.1186 23.1338 13.1254C23.7897 13.1318 24.4327 13.3079 25.0005 13.6365C25.5682 13.965 26.0412 14.4349 26.3736 15.0004H28.751C28.8746 15.0003 28.9956 15.0369 29.0984 15.1055C29.2013 15.1742 29.2815 15.2718 29.3288 15.3861C29.3762 15.5004 29.3886 15.6261 29.3644 15.7474C29.3403 15.8687 29.2806 15.9801 29.1931 16.0675Z" fill="white"/>
</svg>
