<svg width="20" height="21" viewBox="0 0 20 21" fill="none" xmlns="http://www.w3.org/2000/svg">
<path d="M19.3991 4.91281L18.9622 4.66063C19.0134 4.38927 19.0134 4.11073 18.9622 3.83938L19.3991 3.58719C19.5714 3.48773 19.6971 3.3239 19.7486 3.13173C19.8001 2.93957 19.7732 2.73481 19.6738 2.5625C19.5743 2.39019 19.4105 2.26445 19.2183 2.21294C19.0261 2.16142 18.8214 2.18836 18.6491 2.28781L18.2113 2.54094C18.0017 2.36118 17.7608 2.22165 17.5006 2.12938V1.625C17.5006 1.42609 17.4216 1.23532 17.281 1.09467C17.1403 0.954018 16.9495 0.875 16.7506 0.875C16.5517 0.875 16.361 0.954018 16.2203 1.09467C16.0797 1.23532 16.0006 1.42609 16.0006 1.625V2.12938C15.7404 2.22165 15.4995 2.36118 15.29 2.54094L14.8522 2.28781C14.7669 2.23857 14.6727 2.20661 14.575 2.19376C14.4774 2.18091 14.3781 2.18743 14.283 2.21294C14.1878 2.23844 14.0986 2.28244 14.0205 2.34242C13.9423 2.4024 13.8768 2.47718 13.8275 2.5625C13.7783 2.64782 13.7463 2.742 13.7335 2.83967C13.7206 2.93734 13.7271 3.03658 13.7526 3.13173C13.7781 3.22688 13.8221 3.31608 13.8821 3.39423C13.9421 3.47237 14.0169 3.53794 14.1022 3.58719L14.5391 3.83938C14.4878 4.11073 14.4878 4.38927 14.5391 4.66063L14.1022 4.91281C13.9591 4.99533 13.8473 5.12275 13.7841 5.27532C13.7208 5.42789 13.7097 5.59706 13.7525 5.75659C13.7952 5.91612 13.8894 6.05708 14.0204 6.1576C14.1515 6.25811 14.312 6.31256 14.4772 6.3125C14.6089 6.31291 14.7383 6.27829 14.8522 6.21219L15.29 5.95906C15.4995 6.13882 15.7404 6.27835 16.0006 6.37063V6.875C16.0006 7.07391 16.0797 7.26468 16.2203 7.40533C16.361 7.54598 16.5517 7.625 16.7506 7.625C16.9495 7.625 17.1403 7.54598 17.281 7.40533C17.4216 7.26468 17.5006 7.07391 17.5006 6.875V6.37063C17.7608 6.27835 18.0017 6.13882 18.2113 5.95906L18.6491 6.21219C18.763 6.27829 18.8924 6.31291 19.0241 6.3125C19.1892 6.31256 19.3498 6.25811 19.4808 6.1576C19.6119 6.05708 19.7061 5.91612 19.7488 5.75659C19.7916 5.59706 19.7804 5.42789 19.7172 5.27532C19.654 5.12275 19.5421 4.99533 19.3991 4.91281ZM16.7506 5C16.6023 5 16.4573 4.95601 16.334 4.8736C16.2106 4.79119 16.1145 4.67406 16.0577 4.53701C16.001 4.39997 15.9861 4.24917 16.015 4.10368C16.044 3.9582 16.1154 3.82456 16.2203 3.71967C16.3252 3.61478 16.4588 3.54335 16.6043 3.51441C16.7498 3.48547 16.9006 3.50032 17.0376 3.55709C17.1747 3.61386 17.2918 3.70999 17.3742 3.83332C17.4566 3.95666 17.5006 4.10166 17.5006 4.25C17.5006 4.44891 17.4216 4.63968 17.281 4.78033C17.1403 4.92098 16.9495 5 16.7506 5ZM10.0006 6.125C10.8165 6.125 11.614 6.36693 12.2924 6.82019C12.9707 7.27345 13.4994 7.91769 13.8116 8.67143C14.1238 9.42518 14.2055 10.2546 14.0464 11.0547C13.8872 11.8549 13.4943 12.5899 12.9174 13.1668C12.3406 13.7437 11.6056 14.1366 10.8054 14.2957C10.0052 14.4549 9.17581 14.3732 8.42207 14.061C7.66832 13.7488 7.02408 13.2201 6.57082 12.5417C6.11756 11.8634 5.87563 11.0658 5.87563 10.25C5.87563 9.15598 6.31023 8.10677 7.08382 7.33318C7.85741 6.5596 8.90662 6.125 10.0006 6.125ZM19.6156 9.37625C19.9583 11.413 19.6448 13.506 18.7203 15.353C17.7959 17.1999 16.3085 18.7053 14.4727 19.6518C12.6369 20.5983 10.5479 20.9369 8.50714 20.6187C6.46641 20.3005 4.5796 19.3419 3.11915 17.8815C1.65869 16.421 0.700165 14.5342 0.381957 12.4935C0.0637484 10.4528 0.402327 8.3637 1.34881 6.52793C2.29529 4.69217 3.80069 3.2047 5.64767 2.28029C7.49464 1.35588 9.58761 1.04236 11.6244 1.385C11.8191 1.41943 11.9923 1.52934 12.1064 1.69082C12.2204 1.85231 12.2661 2.0523 12.2335 2.2473C12.2009 2.44229 12.0926 2.61652 11.9322 2.73208C11.7717 2.84764 11.5722 2.89519 11.3769 2.86438C10.1939 2.66537 8.98173 2.72654 7.82477 3.04363C6.66781 3.36072 5.59385 3.92612 4.67762 4.70047C3.76139 5.47482 3.02491 6.43953 2.51942 7.52745C2.01393 8.61537 1.75158 9.80038 1.75064 11C1.74886 13.0196 2.49112 14.969 3.83563 16.4759C4.38091 15.6851 5.07355 15.0068 5.87563 14.4781C5.94402 14.433 6.02532 14.4114 6.10709 14.4169C6.18887 14.4223 6.26662 14.4543 6.32845 14.5081C7.34744 15.3898 8.64986 15.8751 9.99735 15.8751C11.3448 15.8751 12.6473 15.3898 13.6663 14.5081C13.7282 14.4541 13.8061 14.4219 13.8881 14.4165C13.97 14.4111 14.0515 14.4327 14.12 14.4781C14.9229 15.0067 15.6165 15.685 16.1628 16.4759C17.5084 14.9694 18.2516 13.0199 18.2506 11C18.2507 10.5389 18.2124 10.0785 18.1363 9.62375C18.119 9.52619 18.1213 9.42617 18.1429 9.32948C18.1645 9.2328 18.2051 9.14135 18.2622 9.06043C18.3194 8.9795 18.392 8.91071 18.4759 8.85801C18.5598 8.80532 18.6533 8.76977 18.751 8.75342C18.8488 8.73708 18.9488 8.74025 19.0452 8.76277C19.1417 8.78528 19.2328 8.82669 19.3132 8.8846C19.3936 8.94251 19.4617 9.01578 19.5136 9.10016C19.5655 9.18455 19.6002 9.27839 19.6156 9.37625Z" fill="#5798AC"/>
</svg>
