<svg width="194" height="180" viewBox="0 0 194 180" fill="none" xmlns="http://www.w3.org/2000/svg">
<g clip-path="url(#clip0_2172_24684)">
<path d="M100.326 1.09823C97.872 -0.0175438 95.1434 -0.143478 93.4085 0.110909C91.7835 0.348925 89.4312 0.945868 87.4526 2.43819C86.2239 3.36506 85.3092 4.51987 84.7336 5.86946C84.0517 7.4684 83.8437 9.35406 84.1158 11.4731C84.1563 11.7909 84.3255 12.073 84.591 12.2669C84.8583 12.4617 85.1879 12.5423 85.5189 12.494L89.7796 11.8698C90.3809 11.7816 90.8295 11.2741 90.823 10.689C90.8086 9.37504 91.2594 7.09313 94.4393 6.57302C96.8631 6.17801 98.1314 7.72362 98.5653 8.40661C99.2707 9.51818 99.3619 10.9459 98.809 12.2254C97.9596 14.1912 95.9178 14.7722 94.7759 14.9434C93.463 15.1407 92.5566 16.3237 92.7554 17.5813L93.453 21.9953C93.5546 22.6397 94.1825 23.0846 94.8517 22.9864L99.003 22.3782C99.6727 22.2799 100.134 21.6759 100.032 21.0315L99.8859 20.1042L99.9151 20.0496C100.805 19.5942 102.506 18.5598 103.9 16.7476C105.679 14.4342 106.332 11.6893 105.842 8.58881C105.141 4.15131 102.456 2.06625 100.326 1.09823Z" fill="#E7E8E5"/>
<path d="M96.1906 24.0283L95.813 24.0714C94.0085 24.2771 92.7633 25.5433 93.038 26.8944C93.3127 28.2455 95.0044 29.1772 96.8094 28.9716L97.187 28.9288C98.9915 28.7232 100.237 27.4569 99.962 26.1059C99.6873 24.7548 97.9956 23.8231 96.1906 24.0283Z" fill="#E7E8E5"/>
<path d="M17.6315 72.0954C16.5259 70.6799 14.9648 69.8008 13.8726 69.4498C12.8496 69.1213 11.2937 68.8027 9.68995 69.1517C8.69393 69.3682 7.81414 69.8188 7.07486 70.4907C6.19922 71.2866 5.51596 72.3999 5.04408 73.8001C4.97321 74.0098 4.98818 74.2351 5.08623 74.434C5.18459 74.6337 5.35379 74.7805 5.56225 74.8478L8.24434 75.7093C8.62278 75.831 9.03679 75.6465 9.2072 75.2804C9.59006 74.4576 10.5338 73.1682 12.552 73.7777C14.0896 74.2431 14.3724 75.5781 14.423 76.1307C14.5053 77.0303 14.1336 77.9463 13.4287 78.5814C12.3455 79.5562 10.9761 79.3189 10.2562 79.0904C9.42832 78.8279 8.54474 79.2989 8.2868 80.1405L7.38074 83.0946C7.24852 83.526 7.48367 83.9874 7.90515 84.1226L10.5184 84.9622C10.9399 85.0978 11.3904 84.8569 11.5228 84.4255L11.7131 83.8049L11.7462 83.7793C12.4035 83.7569 13.7085 83.612 15.0644 82.8921C16.7956 81.9733 17.996 80.4554 18.6324 78.3801C19.543 75.4104 18.5907 73.3235 17.6315 72.0954Z" fill="#E7E8E5"/>
<path d="M10.34 84.1582L10.0792 84.0905C8.83282 83.7657 7.50034 84.3428 7.10893 85.3773C6.71775 86.4113 7.41362 87.5171 8.66004 87.8416L8.92075 87.9097C10.1672 88.2341 11.4997 87.657 11.8911 86.6225C12.2822 85.5885 11.5864 84.4831 10.34 84.1582Z" fill="#E7E8E5"/>
<path d="M140 169C150.183 168.529 163.1 165.07 171 158C160.096 158.3 149.07 162.213 140 169Z" fill="#E7E8E5"/>
<path d="M147 157C157.183 156.529 170.1 153.07 178 146C167.097 146.3 156.07 150.213 147 157Z" fill="#E7E8E5"/>
<path d="M154 146C164.183 145.529 177.1 142.07 185 135C174.097 135.3 163.07 139.213 154 146Z" fill="#E7E8E5"/>
<path d="M163 135C172.917 133.309 185.141 128.515 192 121C181.356 122.622 171.041 127.602 163 135Z" fill="#E7E8E5"/>
<path d="M171 126C179.698 120.897 189.391 112.19 193 103C183.591 108.305 175.766 116.486 171 126Z" fill="#E7E8E5"/>
<path d="M167.671 130C170.418 120.297 171.271 107.251 167.24 98C164.111 108.338 164.265 119.72 167.671 130Z" fill="#E7E8E5"/>
<path d="M160.038 139C161.745 128.467 161.442 114.528 156.982 105C154.978 116.237 156.065 128.33 160.038 139Z" fill="#E7E8E5"/>
<path d="M151.038 151C152.745 140.468 152.442 126.528 147.982 117C145.978 128.237 147.065 140.33 151.038 151Z" fill="#E7E8E5"/>
<path d="M142.038 166C143.745 155.468 143.442 141.528 138.982 132C136.978 143.237 138.065 155.33 142.038 166Z" fill="#E7E8E5"/>
<path d="M139.581 171.205C138.099 173.888 136.937 176.079 136.169 177.61C135.796 178.353 135.501 178.942 135.285 179.373C135.196 179.56 135.124 179.711 135.064 179.836C135.017 179.942 134.995 179.997 135.001 180C135.007 180.003 135.04 179.953 135.1 179.854C135.169 179.734 135.252 179.587 135.355 179.408C135.587 178.985 135.903 178.407 136.303 177.678C137.112 176.169 138.31 173.999 139.822 171.335C141.326 168.667 143.185 165.527 145.3 162.071C147.434 158.626 149.84 154.874 152.466 150.999C157.727 143.258 162.876 136.509 166.719 131.717C168.641 129.32 170.217 127.395 171.322 126.078C171.852 125.434 172.272 124.924 172.581 124.55C172.709 124.388 172.814 124.255 172.901 124.146C172.971 124.054 173.005 124.004 173 124C172.994 123.996 172.951 124.037 172.87 124.121C172.776 124.223 172.661 124.348 172.521 124.5C172.199 124.863 171.76 125.358 171.206 125.983C170.065 127.272 168.455 129.172 166.504 131.549C162.602 136.303 157.412 143.037 152.143 150.788" fill="#DADBD8"/>
<path d="M122.852 103C126.257 93.9875 128.398 81.4888 125.939 72C122.139 81.5747 121.041 92.6009 122.852 103Z" fill="#E7E8E5"/>
<path d="M113.852 92C117.257 82.9874 119.398 70.4885 116.939 61C113.139 70.5744 112.041 81.6008 113.852 92Z" fill="#E7E8E5"/>
<path d="M106.852 79C110.257 69.9875 112.398 57.4888 109.939 48C106.139 57.5747 105.041 68.6009 106.852 79Z" fill="#E7E8E5"/>
<path d="M101.667 68C104.416 58.6144 105.273 45.9824 101.244 37C98.1126 46.998 98.2629 58.0244 101.667 68Z" fill="#E7E8E5"/>
<path d="M95 58C94.106 48.1327 90.4952 35.9268 84 29C84.7801 39.5877 88.6926 49.9026 95 58Z" fill="#E7E8E5"/>
<path d="M99 63C91.3527 56.505 79.9404 50.2925 70 50C78.0669 57.0992 88.3818 61.7233 99 63Z" fill="#E7E8E5"/>
<path d="M103 72C94.59 65.8859 82.307 60.4223 72 61.0492C80.8898 67.7596 91.9163 71.6549 103 72Z" fill="#E7E8E5"/>
<path d="M110 85C101.59 78.8859 89.307 73.4223 79 74.0492C87.8902 80.7596 98.9163 84.6549 110 85Z" fill="#E7E8E5"/>
<path d="M119 99C110.59 92.8861 98.307 87.4227 88 88.0491C96.8898 94.7598 107.916 98.6549 119 99Z" fill="#E7E8E5"/>
<path d="M123.119 104.418C124.879 106.805 126.337 108.712 127.372 110.007C127.874 110.634 128.272 111.132 128.564 111.496C128.692 111.65 128.796 111.775 128.882 111.878C128.954 111.962 128.995 112.004 128.999 112C129.004 111.996 128.974 111.946 128.91 111.854C128.833 111.745 128.738 111.612 128.622 111.449C128.343 111.074 127.963 110.563 127.483 109.917C126.483 108.595 125.058 106.665 123.325 104.26C121.586 101.86 119.574 98.9574 117.386 95.7024C115.215 92.4353 112.883 88.8048 110.528 84.9334C105.833 77.1845 101.957 69.9388 99.2781 64.6291C97.938 61.9743 96.875 59.8141 96.158 58.3122C95.8034 57.5864 95.5228 57.0116 95.3166 56.5899C95.2255 56.4114 95.1507 56.2659 95.0897 56.1461C95.0364 56.0471 95.0067 55.9976 95.001 56.0001C94.9953 56.003 95.014 56.0579 95.0559 56.1623C95.1084 56.2862 95.1722 56.4372 95.2503 56.6219C95.441 57.0511 95.7013 57.6363 96.0299 58.375C96.7082 59.8964 97.7367 62.0762 99.0487 64.7489C101.671 70.0939 105.517 77.3704 110.219 85.1297L123.119 104.418Z" fill="#DADBD8"/>
<path d="M191.703 67.2124C189.918 65.2199 187.44 64.014 185.717 63.55C184.103 63.1154 181.654 62.7148 179.157 63.2746C177.605 63.6224 176.245 64.3017 175.113 65.294C173.772 66.4693 172.745 68.0934 172.059 70.1214C171.956 70.4255 171.988 70.7484 172.149 71.0303C172.311 71.3139 172.581 71.5185 172.91 71.6073L177.143 72.7469C177.74 72.9077 178.381 72.6274 178.634 72.0955C179.202 70.8994 180.631 69.0133 183.814 69.8149C186.239 70.4267 186.733 72.3336 186.833 73.1263C186.996 74.4153 186.449 75.7448 185.37 76.6823C183.711 78.1223 181.557 77.8314 180.422 77.5298C179.115 77.1832 177.75 77.8919 177.378 79.1101L176.072 83.3864C175.881 84.0112 176.267 84.6647 176.932 84.844L181.056 85.9541C181.721 86.1334 182.417 85.7712 182.608 85.1464L182.882 84.2482L182.934 84.2105C183.962 84.154 185.999 83.8979 188.095 82.8147C190.771 81.4316 192.592 79.2067 193.51 76.2027C194.823 71.904 193.252 68.9409 191.703 67.2124Z" fill="#E7E8E5"/>
<path d="M180.598 87.174L180.23 87.0956C178.473 86.7216 176.633 87.4785 176.129 88.7826C175.625 90.0869 176.644 91.4519 178.402 91.826L178.77 91.9044C180.527 92.2784 182.367 91.5215 182.871 90.2174C183.375 88.9131 182.355 87.5477 180.598 87.174Z" fill="#E7E8E5"/>
<path d="M61.4703 101.225C59.4862 99.7224 57.0697 99.0997 55.4696 99.0184C53.9709 98.9417 51.7537 99.0686 49.7011 100.107C48.4261 100.752 47.3889 101.669 46.6183 102.832C45.7055 104.21 45.162 105.945 45.0035 107.989C44.9799 108.296 45.0775 108.592 45.2785 108.824C45.4804 109.057 45.7597 109.193 46.0655 109.209L49.9947 109.409C50.5491 109.437 51.0467 109.043 51.1518 108.491C51.3878 107.253 52.2236 105.189 55.1667 105.287C57.4096 105.364 58.2512 107.052 58.5095 107.775C58.9297 108.951 58.7409 110.31 58.0039 111.412C56.8716 113.104 54.935 113.273 53.8813 113.224C52.6695 113.166 51.6343 114.112 51.5737 115.332L51.3609 119.612C51.3297 120.238 51.8072 120.772 52.4242 120.804L56.2528 120.999C56.8703 121.03 57.3978 120.547 57.4289 119.922L57.4735 119.022L57.5101 118.976C58.3926 118.712 60.1104 118.054 61.7004 116.606C63.73 114.759 64.835 112.298 64.9843 109.291C65.198 104.987 63.1911 102.529 61.4703 101.225Z" fill="#E7E8E5"/>
<path d="M52.7549 123.018L52.4827 123.003C51.1811 122.934 50.0687 123.995 50.003 125.368C49.9377 126.74 50.9435 127.913 52.245 127.982L52.5173 127.997C53.8192 128.066 54.9313 127.005 54.997 125.632C55.0623 124.26 54.0565 123.087 52.7549 123.018Z" fill="#E7E8E5"/>
<path d="M40 175H43.007C44.7765 167.442 45.628 159.031 44.4692 152C41.7549 159.049 40.2342 166.989 40 175Z" fill="#E7E8E5"/>
<path d="M38.4727 142C34.8009 151.316 33.3208 162.236 34.2894 172.752C34.3227 172.834 34.3565 172.917 34.39 173C37.7105 164.113 40.1091 151.703 38.4727 142Z" fill="#E7E8E5"/>
<path d="M30.1903 126C26.7052 135.828 26.06 146.814 28.3308 157.052C28.4708 157.362 28.6147 157.68 28.7603 158C31.907 148.4 33.4444 135.485 30.1903 126Z" fill="#E7E8E5"/>
<path d="M24.1286 147.29C24.0937 147.179 24.0788 147.122 24.0845 147.119C24.0901 147.117 24.1165 147.17 24.1622 147.276C24.2146 147.403 24.2789 147.559 24.3572 147.75C24.4201 147.911 24.4944 148.1 24.5737 148.303C24.7166 148.535 24.8539 148.772 25 149C24.7055 138.635 21.9072 125.653 16 118C16.1368 128.668 19.1003 139.253 24.3427 147.925C24.3257 147.877 24.3067 147.823 24.2909 147.778C24.2257 147.582 24.1723 147.422 24.1286 147.29Z" fill="#E7E8E5"/>
<path d="M27 153C26.9699 152.928 26.9403 152.857 26.9106 152.786C19.9177 146.259 9.43504 139.848 0 139C7.31704 146.168 16.9141 151.14 27 153Z" fill="#E7E8E5"/>
<path d="M31.1168 164C31.0784 163.967 31.0385 163.935 31 163.902L31.0396 163.991L31.1168 164Z" fill="#E7E8E5"/>
<path d="M2.32812 151.683C10.3876 158.847 20.5977 163.401 31.081 164.529C31.0059 164.357 30.9339 164.19 30.8602 164.02C23.1312 157.594 11.9939 151.706 2.32812 151.683Z" fill="#E7E8E5"/>
<path d="M8.15137 164.582C13.43 169.275 19.6333 172.842 26.2292 175.068H34.3411C26.8064 169.406 16.879 164.603 8.15137 164.582Z" fill="#E7E8E5"/>
<path d="M27.5844 156.134C28.4995 158.447 29.5995 161.113 30.86 164.019C30.9337 164.189 31.0057 164.357 31.0807 164.529C32.5057 167.796 34.1338 171.359 35.9345 175.067H36.3289C35.8219 174.027 35.3281 172.999 34.8481 171.986C34.8083 171.902 34.7682 171.818 34.7286 171.735C33.5493 169.238 32.4531 166.835 31.4506 164.573L31.411 164.484C30.5445 162.526 29.7496 160.678 29.0289 158.964C28.8953 158.647 28.7634 158.332 28.635 158.024C28.3475 157.333 28.0718 156.665 27.8112 156.027C26.6769 153.248 25.7802 150.989 25.1777 149.419C24.9861 148.933 24.8229 148.518 24.6826 148.162C24.6042 147.963 24.5309 147.777 24.4688 147.619C24.3915 147.432 24.328 147.279 24.2762 147.154C24.231 147.05 24.205 146.998 24.1994 147C24.1938 147.003 24.2085 147.059 24.243 147.168C24.2862 147.298 24.3389 147.455 24.4033 147.647C24.4189 147.691 24.4377 147.744 24.4545 147.791C24.6078 148.224 24.8053 148.781 25.0515 149.475C25.4349 150.554 25.9591 151.958 26.6011 153.62C26.6304 153.696 26.6596 153.771 26.6894 153.848C26.9673 154.566 27.2644 155.325 27.5844 156.134Z" fill="#DADBD8"/>
<path d="M186.186 174.907C186.186 174.968 145.686 175.019 95.7374 175.019C45.7712 175.019 5.2793 174.968 5.2793 174.907C5.2793 174.845 45.7712 174.794 95.7374 174.794C145.686 174.794 186.186 174.845 186.186 174.907Z" fill="#17282F"/>
<path d="M35.0505 31.1006C35.0505 38.406 29.1322 44.3281 21.832 44.3281C14.5315 44.3281 8.61328 38.406 8.61328 31.1006C8.61328 23.7953 14.5315 17.8727 21.832 17.8727C29.1322 17.8727 35.0505 23.7953 35.0505 31.1006Z" fill="white"/>
<path d="M35.0499 31.0997C35.0499 31.0997 35.0406 31.027 35.0307 30.8853C35.0212 30.7383 35.0079 30.5296 34.9906 30.2577C34.9824 30.1193 34.9733 29.9649 34.9632 29.7952C34.9454 29.626 34.9093 29.4424 34.8797 29.2428C34.8481 29.0432 34.8139 28.8284 34.7776 28.5988C34.7501 28.3676 34.6644 28.1327 34.605 27.8776C34.3724 26.8562 33.8948 25.6487 33.1414 24.3689C32.3818 23.094 31.2859 21.7625 29.7933 20.6322C29.6059 20.4925 29.4163 20.3513 29.2243 20.2079C29.0244 20.0769 28.8139 19.957 28.6056 19.8288C28.3932 19.7077 28.192 19.5606 27.964 19.4576C27.7388 19.3491 27.5111 19.2399 27.281 19.1298C27.1659 19.0752 27.0501 19.0201 26.9337 18.9647C26.8127 18.9207 26.691 18.8764 26.5689 18.832C26.3245 18.7429 26.0778 18.653 25.8288 18.5622C25.5774 18.4792 25.3143 18.4254 25.054 18.3548C24.791 18.2952 24.5324 18.2024 24.2582 18.1745C23.7146 18.0973 23.1651 17.9851 22.5957 17.9823C22.3122 17.9724 22.0267 17.9445 21.7387 17.949C21.4509 17.9638 21.1609 17.979 20.8688 17.9942C20.7231 18.004 20.5755 18.0032 20.4297 18.0225L19.9913 18.0899C19.6989 18.1387 19.4013 18.1728 19.1071 18.2336C18.5271 18.3917 17.9262 18.5096 17.3548 18.7487C16.7652 18.9372 16.2109 19.2288 15.6411 19.5019C15.3635 19.6526 15.0976 19.828 14.8227 19.9911C14.6884 20.0773 14.5449 20.1508 14.4168 20.2478L14.0301 20.5381C13.4959 20.9049 13.0287 21.3637 12.5395 21.8056C12.3181 22.0496 12.0954 22.2952 11.8718 22.5416L11.7038 22.7264L11.5529 22.9264L11.2523 23.3294L10.9501 23.7335L10.6855 24.1664L10.4215 24.6018L10.2889 24.8198L10.1767 25.0498C10.0285 25.3575 9.87991 25.6667 9.73064 25.9772C9.61231 26.3005 9.49353 26.6245 9.37422 26.9506C8.94585 28.2699 8.71514 29.6712 8.69622 31.0976C8.71498 32.5244 8.94503 33.9262 9.37327 35.2463C9.49254 35.572 9.61137 35.8968 9.72965 36.2201C9.87893 36.5301 10.0277 36.8394 10.1759 37.1475L10.2879 37.3775L10.4205 37.596L10.6847 38.0313L10.9491 38.4642L11.2513 38.8688L11.5521 39.2717L11.703 39.4717L11.871 39.6569C12.0947 39.9033 12.3173 40.1486 12.5389 40.3929C13.0281 40.8349 13.4953 41.294 14.0294 41.6608L14.4163 41.9508C14.5443 42.0481 14.6879 42.1216 14.8224 42.2079C15.0972 42.3709 15.3632 42.5463 15.6407 42.697C16.2107 42.9706 16.7652 43.2618 17.3548 43.4507C17.9262 43.6897 18.5272 43.8076 19.1075 43.9653C19.4017 44.0265 19.6992 44.0606 19.9918 44.1091L20.4301 44.1768C20.576 44.1957 20.7235 44.1949 20.8693 44.2052C21.1614 44.2204 21.4514 44.2352 21.7394 44.2499C22.0272 44.2545 22.3128 44.2269 22.5963 44.2171C23.1658 44.2138 23.7152 44.1017 24.2589 44.0245C24.5332 43.9965 24.7918 43.9037 25.0547 43.8442C25.3151 43.7735 25.5782 43.7201 25.8296 43.6368C26.0786 43.546 26.3253 43.456 26.5696 43.3669C26.692 43.3221 26.8137 43.2778 26.9347 43.2338C27.051 43.1788 27.1667 43.1238 27.282 43.0691C27.5119 42.9587 27.7396 42.8494 27.965 42.7414C28.1928 42.6379 28.394 42.4909 28.6066 42.3701C28.8147 42.2416 29.0254 42.1216 29.2252 41.9906C29.4169 41.8473 29.6067 41.706 29.7941 41.5663C31.2868 40.436 32.3824 39.1041 33.1417 37.8301C33.8951 36.5499 34.3727 35.3428 34.6052 34.3209C34.6645 34.0659 34.7503 33.8313 34.7777 33.5997C34.8139 33.3705 34.8481 33.1557 34.8797 32.9561C34.9093 32.7565 34.9456 32.5729 34.9632 32.4037C34.9733 32.2341 34.9824 32.0801 34.9906 31.9412C35.0079 31.6693 35.0212 31.4607 35.0307 31.3137C35.0406 31.172 35.0499 31.0997 35.0499 31.0997C35.0499 31.0997 35.052 31.172 35.0477 31.3141C35.0421 31.4615 35.0344 31.6706 35.0241 31.9433C35.0184 32.0825 35.012 32.2374 35.0047 32.4078C34.9897 32.5778 34.956 32.7622 34.9289 32.9631C34.8994 33.1639 34.8678 33.38 34.834 33.6104C34.809 33.8437 34.7253 34.0798 34.6681 34.3365C34.4441 35.3658 33.973 36.584 33.2219 37.8777C32.4648 39.1657 31.3669 40.5137 29.8656 41.6604C29.6769 41.8021 29.4862 41.9454 29.2931 42.0904C29.0921 42.2235 28.8799 42.3455 28.6703 42.4757C28.4564 42.5989 28.2534 42.7476 28.0238 42.8531C27.7968 42.9628 27.5672 43.0741 27.3354 43.1862C27.2192 43.2416 27.1024 43.2975 26.9851 43.3538C26.8631 43.3989 26.7404 43.4441 26.6171 43.4893C26.3705 43.5801 26.1215 43.6717 25.8701 43.7641C25.6165 43.8491 25.3509 43.9041 25.0881 43.9764C24.8226 44.0372 24.5613 44.1313 24.2844 44.1608C23.7353 44.2405 23.18 44.3547 22.6046 44.3596C22.3181 44.3703 22.0292 44.3986 21.7382 44.3949C21.4473 44.3806 21.154 44.3662 20.8587 44.3514C20.7112 44.3415 20.5621 44.3428 20.4146 44.3235L19.9711 44.2565C19.6752 44.2081 19.3741 44.174 19.0764 44.1128C18.4891 43.9546 17.881 43.836 17.3023 43.5953C16.7054 43.4051 16.1438 43.1114 15.5668 42.835C15.2858 42.6831 15.0161 42.5061 14.7379 42.3414C14.6017 42.2543 14.4563 42.1799 14.3265 42.0818L13.9346 41.7889C13.3936 41.4181 12.92 40.9544 12.4246 40.5071C12.2 40.2603 11.9744 40.0122 11.7477 39.7629L11.5774 39.5756L11.4245 39.3731L11.1197 38.9657L10.8135 38.5562L10.5453 38.1184L10.2775 37.6773L10.1432 37.4563L10.0293 37.2234C9.87926 36.9117 9.72854 36.5987 9.57722 36.2845C9.45712 35.9572 9.3367 35.6286 9.21583 35.2984C8.78134 33.962 8.54805 32.5421 8.5293 31.0976C8.54822 29.6535 8.78212 28.2341 9.21661 26.8981C9.33769 26.5683 9.45807 26.2397 9.57816 25.9123C9.72953 25.5981 9.8802 25.2856 10.0303 24.9739L10.1443 24.741L10.2785 24.52L10.5462 24.0793L10.8144 23.6419L11.1205 23.2324L11.4254 22.825L11.5784 22.6225L11.7485 22.4352C11.9752 22.1859 12.2008 21.9383 12.4252 21.691C12.9207 21.2442 13.3943 20.7805 13.9352 20.4096L14.327 20.1172C14.4569 20.019 14.6021 19.9447 14.7383 19.8576C15.0166 19.6929 15.2861 19.5159 15.5671 19.3639C16.144 19.0875 16.7056 18.7938 17.3023 18.6037C17.881 18.3634 18.4889 18.2447 19.0762 18.0866C19.3738 18.0254 19.6747 17.9909 19.9708 17.9428L20.4141 17.8755C20.5616 17.8566 20.7107 17.8574 20.8582 17.8475C21.1535 17.8332 21.4468 17.8184 21.7378 17.804C22.0288 17.8003 22.3175 17.8286 22.6038 17.8393C23.1794 17.8443 23.7345 17.9584 24.2836 18.0385C24.5604 18.0677 24.8218 18.1617 25.0873 18.2225C25.35 18.2948 25.6156 18.3498 25.8694 18.4345C26.1208 18.5273 26.3697 18.6189 26.6161 18.7096C26.7396 18.7548 26.8621 18.8 26.9843 18.8452C27.1016 18.901 27.2183 18.9569 27.3346 19.0123C27.5664 19.1249 27.7958 19.2358 28.023 19.3458C28.2526 19.451 28.4556 19.6001 28.6694 19.7229C28.8792 19.8531 29.0911 19.975 29.2923 20.1081C29.4853 20.2531 29.6763 20.3964 29.8648 20.5381C31.3663 21.6849 32.4642 23.0328 33.2216 24.3208C33.9727 25.6146 34.4439 26.8328 34.6681 27.862C34.7253 28.1187 34.8088 28.3553 34.834 28.5882C34.8678 28.819 34.8994 29.035 34.9287 29.2358C34.956 29.4367 34.9897 29.6211 35.0047 29.7911C35.012 29.9616 35.0184 30.1164 35.0241 30.2557C35.0344 30.5284 35.0421 30.7378 35.0477 30.8853C35.052 31.027 35.0499 31.0997 35.0499 31.0997Z" fill="#17282F"/>
<path d="M17.1294 28.8332H19.6405C19.6405 28.8332 19.6405 26.7234 21.832 26.6856C22.97 26.6659 23.56 27.4118 23.7999 27.9835C24.0782 28.6472 23.9939 29.4033 23.621 30.0186C23.195 30.7213 22.2616 31.3604 20.5691 31.0618V34.75H23.0523V33.409C23.0523 33.409 26.5352 32.5083 26.5352 28.6673C26.5352 24.9926 23.2418 24.1392 21.8322 24.1392C20.7542 24.1392 17.0819 24.4 17.1294 28.8332Z" fill="#FF863F"/>
<path d="M23.0827 38.0615H20.5625V35.7061H23.0827V38.0615Z" fill="#FF863F"/>
<path d="M35.6493 43.4766C35.6493 44.5917 34.7457 45.4961 33.6313 45.4961C32.5167 45.4961 31.6133 44.5917 31.6133 43.4766C31.6133 42.3611 32.5167 41.4571 33.6313 41.4571C34.7457 41.4571 35.6493 42.3611 35.6493 43.4766Z" fill="white"/>
<path d="M35.6498 43.4742C35.632 43.475 35.6385 43.2943 35.5552 42.9892C35.4729 42.6893 35.2681 42.2519 34.8169 41.9159C34.381 41.5788 33.6639 41.3911 32.9707 41.6498C32.6291 41.7738 32.3037 42.0071 32.0725 42.3287C31.8349 42.6466 31.7013 43.0536 31.6972 43.4738C31.7012 43.894 31.8347 44.3014 32.0725 44.6193C32.3035 44.9413 32.6291 45.1746 32.9707 45.2982C33.664 45.5574 34.3812 45.3692 34.8171 45.032C35.2683 44.6961 35.4729 44.2587 35.5552 43.9593C35.6385 43.6541 35.632 43.473 35.6498 43.4742C35.6556 43.4742 35.659 43.5186 35.6601 43.604C35.6628 43.689 35.653 43.8159 35.6183 43.9749C35.5527 44.2887 35.3572 44.7573 34.8886 45.1261C34.4362 45.4957 33.6703 45.7142 32.9182 45.4432C32.5479 45.3134 32.1932 45.0637 31.9407 44.7158C31.6813 44.3728 31.534 43.9297 31.5303 43.4738C31.5341 43.0179 31.6815 42.5747 31.9409 42.2318C32.1934 41.8843 32.5479 41.635 32.9182 41.5052C33.6703 41.2338 34.436 41.4527 34.8884 41.8219C35.3571 42.1907 35.5527 42.6593 35.6183 42.9731C35.653 43.1321 35.6628 43.259 35.6601 43.3444C35.659 43.4298 35.6556 43.4742 35.6498 43.4742Z" fill="#17282F"/>
<path d="M182.65 22.8855C182.65 30.5626 176.431 36.7861 168.758 36.7861C161.086 36.7861 154.867 30.5626 154.867 22.8855C154.867 15.2084 161.086 8.98483 168.758 8.98483C176.431 8.98483 182.65 15.2084 182.65 22.8855Z" fill="white"/>
<path d="M182.651 22.8853C182.651 22.8853 182.642 22.8089 182.631 22.6603C182.621 22.5058 182.607 22.2861 182.589 22.0007C182.58 21.8548 182.571 21.693 182.56 21.5148C182.541 21.3365 182.504 21.1439 182.472 20.934C182.439 20.7242 182.403 20.4987 182.365 20.2576C182.336 20.0144 182.246 19.7676 182.183 19.4998C181.939 18.4258 181.437 17.1571 180.646 15.812C179.847 14.4727 178.696 13.0729 177.127 11.8856C176.93 11.7385 176.731 11.5899 176.529 11.4395C176.319 11.3019 176.098 11.1759 175.879 11.0407C175.656 10.9138 175.444 10.7594 175.205 10.6509C174.968 10.5372 174.729 10.4222 174.487 10.3064C174.366 10.2489 174.244 10.1914 174.122 10.1334C173.995 10.087 173.867 10.0402 173.739 9.9934C173.482 9.90017 173.222 9.80528 172.961 9.71C172.697 9.62251 172.42 9.56626 172.147 9.49192C171.87 9.42949 171.598 9.33173 171.31 9.30257C170.739 9.22166 170.162 9.1038 169.563 9.1001C169.265 9.09024 168.965 9.06107 168.663 9.06559C168.36 9.08119 168.056 9.09723 167.749 9.11283C167.595 9.12351 167.44 9.12269 167.287 9.14281L166.826 9.21387C166.519 9.2648 166.207 9.30094 165.897 9.3646C165.288 9.53094 164.656 9.65456 164.056 9.90551C163.436 10.1039 162.854 10.4103 162.255 10.6978C161.963 10.8559 161.684 11.0403 161.395 11.2116C161.254 11.3023 161.103 11.3796 160.968 11.4814L160.562 11.7862C160 12.1718 159.509 12.654 158.996 13.1185C158.763 13.3748 158.529 13.6327 158.294 13.8919L158.117 14.0862L157.959 14.2965L157.643 14.7195L157.325 15.1446L157.047 15.5992L156.769 16.0568L156.63 16.286L156.512 16.5279C156.357 16.8511 156.201 17.176 156.044 17.5021C155.919 17.8418 155.794 18.1826 155.669 18.5252C155.219 19.9118 154.977 21.3846 154.957 22.8833C154.976 24.3824 155.218 25.8556 155.668 27.243C155.793 27.5851 155.918 27.9265 156.043 28.2665C156.199 28.5926 156.356 28.9175 156.511 29.2407L156.629 29.4826L156.769 29.7122L157.046 30.1698L157.324 30.6244L157.642 31.0499L157.958 31.473L158.116 31.6833L158.293 31.8779C158.528 32.1367 158.762 32.395 158.995 32.6517C159.509 33.1158 160 33.5984 160.561 33.9841L160.968 34.2888C161.102 34.3911 161.253 34.4679 161.395 34.5587C161.683 34.7299 161.963 34.9144 162.254 35.0725C162.853 35.36 163.436 35.6664 164.056 35.8648C164.656 36.1161 165.288 36.2397 165.897 36.4061C166.207 36.4697 166.519 36.5059 166.827 36.5568L167.288 36.6279C167.441 36.648 167.596 36.6472 167.749 36.6578C168.056 36.6734 168.361 36.6895 168.663 36.7051C168.966 36.7096 169.266 36.6804 169.564 36.6702C170.162 36.6669 170.74 36.549 171.311 36.4681C171.599 36.4385 171.871 36.3412 172.148 36.2783C172.421 36.204 172.698 36.1477 172.962 36.0603C173.223 35.965 173.483 35.8705 173.74 35.7769C173.868 35.73 173.996 35.6836 174.123 35.6372C174.245 35.5789 174.367 35.5214 174.488 35.4639C174.73 35.3477 174.969 35.2331 175.206 35.1193C175.445 35.0105 175.657 34.8564 175.88 34.7291C176.099 34.5944 176.32 34.4683 176.53 34.3303C176.732 34.18 176.931 34.0313 177.128 33.8847C178.696 32.6965 179.848 31.2972 180.646 29.9578C181.438 28.6128 181.94 27.3441 182.184 26.2704C182.246 26.0027 182.336 25.7558 182.365 25.5127C182.403 25.2716 182.439 25.0461 182.472 24.8362C182.504 24.6264 182.541 24.4337 182.56 24.2559C182.571 24.0772 182.58 23.9154 182.589 23.77C182.607 23.4842 182.621 23.2648 182.631 23.1104C182.642 22.9617 182.651 22.8853 182.651 22.8853C182.651 22.8853 182.653 22.9617 182.649 23.1104C182.643 23.2657 182.635 23.4854 182.624 23.7721C182.618 23.9183 182.611 24.0809 182.604 24.26C182.588 24.4387 182.552 24.6325 182.524 24.8436C182.493 25.0547 182.46 25.2814 182.424 25.5242C182.398 25.769 182.31 26.017 182.25 26.2873C182.014 27.3687 181.519 28.6489 180.73 30.0084C179.935 31.3617 178.781 32.7786 177.203 33.9833C177.005 34.1324 176.804 34.2827 176.602 34.4355C176.39 34.5755 176.167 34.7037 175.947 34.8404C175.722 34.9694 175.509 35.1259 175.268 35.2368C175.029 35.3522 174.788 35.4692 174.544 35.5871C174.422 35.6454 174.299 35.7042 174.176 35.7629C174.048 35.8105 173.919 35.8578 173.789 35.9054C173.53 36.0007 173.268 36.0972 173.005 36.1941C172.738 36.2837 172.459 36.3412 172.182 36.4172C171.903 36.4812 171.629 36.5802 171.338 36.611C170.761 36.6948 170.177 36.8151 169.572 36.8201C169.272 36.8312 168.968 36.8611 168.662 36.857C168.356 36.8423 168.048 36.8271 167.738 36.8114C167.583 36.8012 167.426 36.8024 167.271 36.7823L166.805 36.7116C166.494 36.6607 166.178 36.6246 165.865 36.5605C165.248 36.3942 164.609 36.2697 164 36.0171C163.373 35.8171 162.783 35.5083 162.177 35.2179C161.881 35.0581 161.598 34.8725 161.306 34.6991C161.163 34.6076 161.01 34.5299 160.873 34.4264L160.462 34.1188C159.893 33.729 159.395 33.2419 158.875 32.7717C158.639 32.5121 158.401 32.2513 158.163 31.9892L157.984 31.7925L157.824 31.5802L157.503 31.1518L157.181 30.7214L156.9 30.2614L156.618 29.7977L156.477 29.5656L156.358 29.3208C156.2 28.9935 156.041 28.6645 155.882 28.3343C155.756 27.9901 155.63 27.6447 155.502 27.2981C155.046 25.8934 154.801 24.4013 154.781 22.8833C154.801 21.3657 155.047 19.874 155.504 18.4701C155.63 18.1235 155.757 17.7781 155.883 17.4343C156.043 17.1041 156.201 16.7751 156.359 16.4478L156.478 16.203L156.619 15.9709L156.901 15.5081L157.183 15.0481L157.504 14.6176L157.825 14.1897L157.986 13.9773L158.164 13.7802C158.403 13.5181 158.639 13.2578 158.875 12.9982C159.396 12.5283 159.894 12.0412 160.462 11.6514L160.874 11.3438C161.01 11.2407 161.163 11.1627 161.306 11.0711C161.599 10.8982 161.882 10.7122 162.177 10.5524C162.783 10.262 163.374 9.95355 164 9.75353C164.609 9.50094 165.248 9.3765 165.865 9.21016C166.177 9.14568 166.494 9.10996 166.805 9.05903L167.271 8.98837C167.426 8.96825 167.582 8.96948 167.737 8.95922C168.048 8.94361 168.356 8.92842 168.662 8.91363C168.968 8.90952 169.271 8.9395 169.572 8.95059C170.177 8.95552 170.76 9.07586 171.337 9.15924C171.628 9.19004 171.903 9.28901 172.182 9.35309C172.458 9.42907 172.737 9.48699 173.004 9.57611C173.268 9.67304 173.529 9.76955 173.788 9.86484C173.918 9.91248 174.047 9.96013 174.175 10.0074C174.299 10.0661 174.421 10.1248 174.543 10.1831C174.787 10.301 175.028 10.4181 175.267 10.5335C175.508 10.644 175.721 10.8005 175.946 10.9298C176.167 11.0666 176.389 11.1947 176.601 11.3348C176.804 11.4872 177.004 11.6379 177.202 11.7866C178.78 12.9916 179.934 14.4078 180.73 15.7615C181.519 17.121 182.014 18.4011 182.25 19.483C182.31 19.7528 182.398 20.0013 182.424 20.2461C182.46 20.4884 182.493 20.7155 182.524 20.9266C182.552 21.1377 182.588 21.3316 182.604 21.5103C182.611 21.6893 182.618 21.852 182.624 21.9982C182.635 22.2849 182.643 22.505 182.649 22.6599C182.653 22.8089 182.651 22.8853 182.651 22.8853Z" fill="#17282F"/>
<path d="M163.818 20.5031H166.457C166.457 20.5031 166.457 18.2857 168.759 18.2458C169.955 18.2253 170.576 19.0093 170.828 19.6098C171.12 20.3072 171.032 21.1019 170.64 21.7488C170.192 22.4873 169.211 23.1584 167.433 22.845V26.7205H170.042V25.3114C170.042 25.3114 173.702 24.3647 173.702 20.3286C173.702 16.4666 170.241 15.57 168.76 15.57C167.627 15.57 163.768 15.844 163.818 20.5031Z" fill="#FF863F"/>
<path d="M170.073 30.201H167.425V27.7256H170.073V30.201Z" fill="#FF863F"/>
<path d="M155.834 34.8639C155.834 36.0357 154.885 36.9861 153.713 36.9861C152.542 36.9861 151.593 36.0357 151.593 34.8639C151.593 33.6917 152.542 32.7418 153.713 32.7418C154.885 32.7418 155.834 33.6917 155.834 34.8639Z" fill="white"/>
<path d="M155.833 34.8632C155.814 34.864 155.821 34.6742 155.734 34.3535C155.647 34.0384 155.432 33.5784 154.958 33.2256C154.5 32.8716 153.746 32.674 153.018 32.9459C152.659 33.0761 152.317 33.3213 152.074 33.6598C151.824 33.9937 151.684 34.4212 151.68 34.8627C151.684 35.3043 151.824 35.7322 152.074 36.0661C152.317 36.405 152.659 36.6498 153.018 36.7804C153.746 37.0523 154.5 36.8547 154.958 36.5003C155.432 36.1475 155.647 35.6875 155.734 35.3729C155.821 35.0521 155.814 34.8619 155.833 34.8632C155.839 34.8632 155.843 34.9096 155.844 34.9995C155.847 35.089 155.836 35.2221 155.8 35.3893C155.731 35.7191 155.526 36.2115 155.033 36.5992C154.558 36.9874 153.753 37.2174 152.963 36.9323C152.573 36.796 152.201 36.5335 151.935 36.168C151.663 35.8078 151.508 35.342 151.504 34.8627C151.508 34.3838 151.663 33.9181 151.935 33.5579C152.201 33.1924 152.573 32.9303 152.963 32.794C153.753 32.5089 154.558 32.7385 155.033 33.1271C155.526 33.5144 155.731 34.0068 155.8 34.3366C155.836 34.5038 155.847 34.6373 155.844 34.7268C155.843 34.8163 155.839 34.8632 155.833 34.8632Z" fill="#17282F"/>
<path d="M78.6253 136.949C74.1955 125.843 70.8714 118.13 70.8714 118.13L30.364 124.291C30.364 124.291 23.0832 142.969 23.7135 151.444C24.3435 159.919 27.3081 174.843 27.3081 174.843H76.3253C76.3253 174.843 83.0552 148.054 78.6253 136.949Z" fill="#17282F"/>
<path d="M64.0044 44.3261C64.3221 41.1222 64.8019 37.9005 65.9737 34.9019C67.1455 31.9028 69.0655 29.1169 71.7768 27.3837L72.4733 28.0318C72.9539 26.6551 74.2337 25.591 75.6747 25.3696C77.1153 25.149 78.6549 25.7807 79.5254 26.9508C81.0793 26.5319 82.8614 27.1669 83.8009 28.4742C84.74 29.7815 84.7745 31.6741 83.8826 33.015C85.338 33.1995 86.6235 34.3462 86.9732 35.7718C87.3228 37.1978 86.7146 38.8094 85.51 39.6477C87.1143 41.0351 87.7538 43.4373 87.0511 45.4396C86.3485 47.4414 84.3488 48.9163 82.2298 48.9956C82.7026 50.8388 81.743 52.9487 80.043 53.8026C78.3434 54.656 76.0794 54.1656 74.8846 52.685C75.0332 54.6026 73.5011 56.418 71.634 56.8743C69.7665 57.3306 67.7324 56.5757 66.3702 55.2191C65.0075 53.8625 64.2597 51.9814 63.97 50.0802C63.6798 48.179 63.8144 46.2401 64.0044 44.3261Z" fill="#17282F"/>
<path d="M72.6243 30.1292C74.4872 30.7329 74.8685 32.2423 75.2556 33.5008C76.0887 36.2086 75.1517 40.2159 73.6376 42.61C72.1227 45.0041 70.4625 46.221 67.6601 46.626C67.569 42.327 67.4778 38.0285 67.3867 33.7299L72.6243 30.1292Z" fill="#FF863F"/>
<path d="M73.678 37.5341C74.9504 35.8805 74.7702 33.284 73.2819 31.8218C74.0975 30.7967 73.8048 29.215 72.9758 28.2001C72.1471 27.1857 70.9154 26.6033 69.7268 26.0537C69.0742 23.0535 65.7082 20.9428 62.7256 21.664C61.1717 19.378 57.8615 19.0194 55.2093 19.7932C54.5612 19.9817 53.914 20.2261 53.2392 20.2232C52.7442 20.2212 52.2607 20.0861 51.7698 20.0199C49.0716 19.6564 46.3936 21.5572 45.3416 24.0704C45.1733 24.4721 45.035 24.8955 44.7682 25.2397C44.4186 25.6915 43.8875 25.9568 43.4352 26.3059C42.4571 27.06 41.8361 28.2597 41.7844 29.4943C41.7405 30.5429 42.0737 31.6555 41.6325 32.6075C41.4113 33.0852 41.0119 33.4704 40.8396 33.9674C40.3406 35.4082 41.9362 36.8806 41.6407 38.3764C41.5804 38.6816 41.4429 38.9658 41.3584 39.2652C41.1856 39.8772 41.2443 40.552 41.5201 41.1249C41.7331 41.5673 42.0766 41.9722 42.1053 42.4626C42.1275 42.8343 41.9621 43.1884 41.8874 43.5535C41.7052 44.4464 43.6305 47.889 44.4013 48.3745L67.4402 48.5811C69.1838 48.2254 70.6039 46.6445 70.7717 44.8719C70.7996 44.577 70.8041 44.257 70.9864 44.0238C71.1419 43.825 71.3931 43.7342 71.6152 43.6147C73.0989 42.8179 73.2778 40.7795 73.1215 39.1022C73.0997 38.8672 73.0755 38.6266 73.1346 38.3982C73.2204 38.0659 73.4691 37.8059 73.678 37.5341Z" fill="#17282F"/>
<path d="M67.0776 37.5645C67.1458 33.4841 64.5884 28.7958 60.5382 26.8005C57.9849 25.5429 55.993 25.5347 54.6509 25.3778C51.6437 25.027 49.2172 26.5183 49.2172 26.5183C47.9473 26.8165 43.2938 31.0806 43.0521 35.7077C42.7836 40.8478 42.6584 47.1342 43.3078 50.9604C44.6133 58.6539 50.5265 59.5715 50.5265 59.5715L49.9761 72.3607L61.3406 81.6807L64.8129 66.3782L67.0776 37.5645Z" fill="#F9A78D"/>
<path d="M50.5255 59.5723C50.5255 59.5723 55.745 59.8524 60.8451 56.71C60.8451 56.71 58.1576 62.1717 50.4414 61.533L50.5255 59.5723Z" fill="#F57F62"/>
<path d="M65.9142 44.8835C65.9097 44.3094 66.5577 42.9491 67.1233 42.8546C68.6337 42.6024 71.3611 42.6948 71.4276 46.5383C71.5183 51.7926 66.364 50.6192 66.2163 50.6496C65.379 50.8212 65.9306 46.8652 65.9142 44.8835Z" fill="#F9A78D"/>
<path d="M67.6315 48.7063C67.6545 48.689 67.7242 48.7687 67.8798 48.8369C68.0321 48.903 68.2923 48.9466 68.564 48.8394C69.1152 48.6258 69.5671 47.7366 69.5761 46.7891C69.581 46.3102 69.4735 45.8567 69.2974 45.4826C69.1304 45.101 68.8775 44.8369 68.5972 44.7922C68.3185 44.7326 68.1236 44.9035 68.0616 45.0522C67.9939 45.2004 68.0292 45.3047 68.0013 45.3142C67.9869 45.3277 67.8872 45.2284 67.9258 45.0107C67.9455 44.9059 68.005 44.7807 68.1269 44.6776C68.2508 44.5728 68.4351 44.5174 68.6301 44.5351C69.036 44.5564 69.4066 44.9228 69.5999 45.3331C69.8154 45.7455 69.948 46.2551 69.9422 46.7924C69.927 47.8516 69.4025 48.8517 68.6469 49.0846C68.2795 49.1872 67.9693 49.0813 67.808 48.9597C67.643 48.8332 67.6138 48.7161 67.6315 48.7063Z" fill="#F57F62"/>
<path d="M41.9255 34.9312C42.0925 33.0226 42.8526 31.2129 43.7724 29.5327C44.4094 28.37 45.142 27.2352 46.1443 26.3682C46.9824 25.6437 47.9798 25.1315 48.98 24.6567C51.6109 23.4081 54.5451 22.3485 57.3853 22.9892C58.9096 23.333 60.2825 24.1437 61.6177 24.9565C62.6413 25.5792 63.6686 26.2174 64.526 27.0549C65.2779 27.7896 65.8825 28.6624 66.4161 29.5684C67.6872 31.7288 68.5848 34.1434 68.7568 36.6442C68.9288 39.1451 70.82 41.3564 69.3544 43.3898C69.2407 43.5471 66.6311 44.0876 66.4506 44.1595C66.0266 44.3287 65.5603 43.8679 65.5636 43.4112C65.5669 42.9545 65.8813 42.5606 66.2195 42.2538C65.5693 42.232 65.124 41.5079 65.1651 40.8586C65.2057 40.2092 65.5899 39.6375 65.9757 39.1139C66.0262 39.0453 66.0783 38.973 66.089 38.8888C66.116 38.667 65.8653 38.5307 65.6732 38.4173C64.7378 37.8632 64.6336 36.3222 65.486 35.6479C64.2334 35.3571 63.422 33.8501 63.8681 32.6435C63.9387 32.4525 64.0347 32.2389 63.9432 32.057C63.8558 31.8824 63.6391 31.8278 63.4515 31.7723C62.0659 31.3612 61.1346 29.7943 61.435 28.3794C60.7065 28.4176 59.9653 28.455 59.2565 28.2825C58.5472 28.11 57.8614 27.6948 57.5371 27.0405C57.0721 27.8784 56.1593 28.4497 55.203 28.501C54.2467 28.5523 53.2781 28.0821 52.7264 27.2988C51.5034 27.4159 50.2523 27.222 49.122 26.7403C48.8446 27.8808 47.9457 28.8493 46.8297 29.2099C46.613 29.2801 46.3639 29.3483 46.2596 29.5508C46.1932 29.6798 46.2038 29.8329 46.2112 29.9779C46.2502 30.7115 45.7503 31.024 45.346 31.6372C44.9421 32.2504 44.237 33.1643 43.5315 32.9618C43.6099 34.2112 42.9421 35.1205 41.8877 35.7949L41.9255 34.9312Z" fill="#17282F"/>
<path d="M40.8398 33.9659C40.8398 33.9659 40.8903 33.7486 41.1177 33.3995C41.2273 33.2237 41.3828 33.0188 41.529 32.7568C41.6718 32.4943 41.7851 32.1616 41.8146 31.7727C41.8528 31.3846 41.8175 30.9488 41.7801 30.4728C41.7424 29.9984 41.7026 29.469 41.8072 28.9125C41.907 28.358 42.1257 27.7822 42.4832 27.2511C42.6614 26.9858 42.8748 26.7316 43.1223 26.5016C43.3685 26.2683 43.6575 26.0724 43.9464 25.8769C44.2333 25.6789 44.5235 25.467 44.7381 25.1807C44.9536 24.8944 45.085 24.5433 45.227 24.1872C45.5122 23.4693 45.9284 22.7657 46.4845 22.1447C47.0374 21.5237 47.7101 20.9602 48.5059 20.5602C48.8963 20.3462 49.3268 20.2016 49.7656 20.0739C50.2113 19.9733 50.6726 19.894 51.1442 19.9055C51.3794 19.9022 51.6158 19.933 51.8522 19.9556C52.0874 19.9901 52.3193 20.0377 52.552 20.0768C53.0166 20.1651 53.4866 20.1745 53.9553 20.0661C54.4244 19.9696 54.8841 19.7958 55.3684 19.6706C55.8494 19.5338 56.3489 19.4521 56.8546 19.395C57.3606 19.3383 57.8762 19.3379 58.3933 19.367C58.9104 19.4056 59.4276 19.4968 59.9361 19.6377C60.9425 19.9359 61.9239 20.492 62.5945 21.3606C62.6606 21.4469 62.7263 21.5327 62.7915 21.6178L62.7074 21.5853C64.2929 21.2054 65.9535 21.6202 67.2365 22.461C68.5282 23.2992 69.4894 24.5996 69.8005 26.0362L69.7586 25.9837C70.396 26.279 71.0261 26.5759 71.6076 26.9402C72.1876 27.3033 72.7203 27.7382 73.1217 28.273C73.519 28.8098 73.7628 29.4419 73.8203 30.081C73.8806 30.7176 73.7238 31.3759 73.3335 31.8614L73.3282 31.7735C74.0842 32.5194 74.4708 33.5158 74.5599 34.4612C74.6498 35.4112 74.4585 36.3382 74.0358 37.0771C73.9397 37.2672 73.8088 37.4328 73.6914 37.6003C73.5646 37.7605 73.4353 37.9108 73.3335 38.0722C73.2317 38.2337 73.1644 38.407 73.1513 38.5889C73.1349 38.7709 73.1558 38.9532 73.1706 39.1343C73.2317 39.8588 73.2219 40.5316 73.1312 41.1292C73.0401 41.7255 72.8718 42.2488 72.6272 42.6513C72.3883 43.0575 72.0874 43.336 71.8178 43.5109C71.5481 43.6925 71.3088 43.7635 71.1767 43.8621C71.0392 43.9524 70.9912 44.0268 70.9867 44.0223C70.9867 44.0223 71.0285 43.9434 71.1648 43.8457C71.2965 43.7397 71.5358 43.6608 71.7956 43.4781C72.0579 43.3006 72.3477 43.0234 72.5771 42.6221C72.8119 42.2246 72.9719 41.7079 73.0565 41.1185C73.1402 40.5275 73.1451 39.8609 73.0791 39.1426C73.0635 38.9631 73.0401 38.7758 73.0557 38.5807C73.0684 38.3848 73.1431 38.1889 73.2494 38.0197C73.3553 37.8484 73.4866 37.6952 73.6101 37.5367C73.7238 37.372 73.8503 37.211 73.9426 37.0249C74.3502 36.3045 74.5324 35.3989 74.4405 34.4731C74.3502 33.5515 73.9689 32.5851 73.2362 31.8676L73.194 31.8261L73.2309 31.7797C73.595 31.323 73.7427 30.7024 73.6836 30.0929C73.627 29.4817 73.3906 28.8722 73.0076 28.3584C72.6198 27.8442 72.1006 27.4203 71.5297 27.0651C70.9575 26.7082 70.3328 26.4145 69.6954 26.1204L69.6614 26.1048L69.6532 26.0683C69.3494 24.6759 68.4128 23.4093 67.1511 22.592C65.8981 21.7718 64.2793 21.3709 62.7443 21.7393L62.6947 21.7512L62.6606 21.7069C62.5974 21.6251 62.5338 21.5422 62.4701 21.4588C61.8237 20.6205 60.8748 20.0809 59.8918 19.7893C59.3956 19.6513 58.8895 19.5613 58.3822 19.5235C57.8745 19.4944 57.368 19.4944 56.8702 19.549C56.3731 19.6048 55.8814 19.6845 55.4082 19.8188C54.9325 19.9404 54.4695 20.115 53.9861 20.2143C53.7447 20.2649 53.4989 20.2965 53.2518 20.2965C53.0047 20.2965 52.763 20.2636 52.527 20.2234C52.2914 20.1831 52.0603 20.1355 51.8309 20.1014C51.6006 20.0792 51.3716 20.0484 51.143 20.0513C50.6849 20.039 50.2359 20.1154 49.8009 20.2119C49.3728 20.3363 48.9517 20.4756 48.5691 20.6842C47.7897 21.0732 47.1277 21.6239 46.583 22.2318C46.0347 22.84 45.6239 23.5276 45.3407 24.2332C45.1974 24.586 45.0616 24.9478 44.8317 25.2514C44.6015 25.5549 44.299 25.7713 44.0096 25.9693C43.717 26.1652 43.4354 26.3541 43.1945 26.5796C42.9519 26.8026 42.7426 27.0491 42.5665 27.3074C42.214 27.8245 41.996 28.3868 41.8947 28.9285C41.7875 29.4719 41.822 29.9918 41.8553 30.4674C41.8881 30.9435 41.9197 31.3837 41.8758 31.7784C41.8413 32.174 41.7198 32.5153 41.57 32.7798C41.4169 33.0439 41.2577 33.2451 41.1444 33.4172C41.028 33.5876 40.9527 33.7256 40.9072 33.8209C40.8613 33.9158 40.8438 33.9676 40.8398 33.9659Z" fill="#0F3F76"/>
<path d="M60.2496 20.5279C60.2418 20.5398 60.1105 20.4494 59.8544 20.3262C59.5987 20.205 59.21 20.0543 58.7068 20.0013C58.2077 19.9451 57.5892 19.9923 56.9826 20.2662C56.3805 20.5389 55.796 21.0326 55.4233 21.7025C55.3162 21.8947 55.2247 22.0997 55.1668 22.2993C55.1118 22.4981 55.1052 22.7092 55.2095 22.8525L55.3392 23.0299L55.1266 22.972C54.5434 22.8118 53.9445 22.9277 53.5045 23.1782C53.0568 23.4283 52.7752 23.8132 52.6217 24.1578C52.4662 24.506 52.4304 24.8161 52.4235 25.0252C52.4177 25.2355 52.4354 25.3513 52.4235 25.3525C52.419 25.3533 52.4107 25.3254 52.3988 25.2704C52.3865 25.2158 52.375 25.1332 52.3701 25.0256C52.3607 24.8116 52.3812 24.4884 52.531 24.1192C52.6775 23.7544 52.9656 23.3376 53.4381 23.0628C53.9014 22.788 54.5364 22.655 55.1676 22.8233L55.0847 22.9429C54.9374 22.7383 54.9567 22.4746 55.0154 22.2582C55.0786 22.0364 55.1721 21.8294 55.285 21.6253C55.6762 20.923 56.2906 20.4104 56.9235 20.1332C57.5621 19.8535 58.2073 19.8181 58.7203 19.89C59.2383 19.9598 59.6307 20.1311 59.8827 20.2716C60.0087 20.3426 60.1027 20.4042 60.1622 20.4511C60.2229 20.4975 60.2529 20.5233 60.2496 20.5279Z" fill="#0F3F76"/>
<path d="M68.8188 26.4928C68.8249 26.4994 68.7633 26.5692 68.6365 26.6822C68.5093 26.793 68.316 26.9491 68.0459 27.0994C67.7767 27.2477 67.4233 27.3943 67.0005 27.4223C66.5852 27.4506 66.0906 27.3598 65.6937 27.0382L65.8099 27.0198C65.7602 27.0904 65.7093 27.1627 65.6576 27.2366C65.6022 27.3073 65.5398 27.3746 65.4803 27.4449C65.0965 27.8478 64.629 28.1246 64.1747 28.272C63.7203 28.4244 63.284 28.4647 62.9245 28.4392C62.5637 28.4141 62.2826 28.3279 62.0958 28.2573C61.9116 28.1768 61.8163 28.1213 61.8204 28.1127C61.8315 28.0798 62.2288 28.3024 62.9298 28.3275C63.2771 28.3378 63.6945 28.2876 64.1267 28.134C64.5597 27.9858 65.0017 27.7176 65.3645 27.3364C65.4208 27.2703 65.4799 27.2066 65.5328 27.1401C65.5817 27.0707 65.6301 27.0021 65.6773 26.936L65.7282 26.8637L65.7934 26.9171C66.1477 27.2079 66.6024 27.3015 66.9931 27.2834C67.3884 27.2658 67.7303 27.138 67.9971 27.007C68.5306 26.7318 68.8015 26.4698 68.8188 26.4928Z" fill="#0F3F76"/>
<path d="M71.6319 31.3441C71.6373 31.3453 71.6332 31.3782 71.6196 31.441C71.602 31.5018 71.5724 31.5934 71.5051 31.6961C71.377 31.9031 71.0922 32.1557 70.6633 32.2657C70.2319 32.3816 69.6963 32.299 69.1619 32.1146C68.8939 32.021 68.6156 31.9273 68.3304 31.7938C68.0533 31.6603 67.7509 31.4677 67.6002 31.1383L67.5666 31.0541L67.6909 31.0907C67.1882 31.4903 66.6698 31.8386 66.1407 32.039C65.615 32.2468 65.0855 32.2834 64.6673 32.2029C64.2453 32.1269 63.9342 31.9503 63.7553 31.7967C63.6638 31.7211 63.6014 31.653 63.5636 31.6037C63.5258 31.5544 63.5082 31.5273 63.5123 31.524C63.523 31.5141 63.6063 31.6148 63.7926 31.7482C63.9765 31.8821 64.2802 32.0345 64.6849 32.0932C65.0884 32.1557 65.5854 32.1109 66.0878 31.9039C66.593 31.7039 67.0954 31.3626 67.5924 30.9666L67.6757 30.9005L67.7168 31.0032L67.7447 31.0738C67.8678 31.3461 68.133 31.5252 68.3981 31.6542C68.6665 31.7823 68.9477 31.8813 69.2091 31.9766C69.7304 32.1647 70.2348 32.251 70.637 32.1569C71.0417 32.0674 71.3188 31.8452 71.4542 31.6608C71.595 31.4751 71.6159 31.3383 71.6319 31.3441Z" fill="#0F3F76"/>
<path d="M54.6759 42.0151C54.6414 42.5277 55.0465 42.9795 55.5805 43.0255C56.114 43.0715 56.575 42.6945 56.6098 42.1819C56.6443 41.6693 56.2392 41.2167 55.7061 41.1707C55.1717 41.1247 54.7104 41.5026 54.6759 42.0151Z" fill="#17282F"/>
<path d="M45.2658 41.7573C45.2309 42.2699 45.6364 42.7217 46.1704 42.7677C46.7035 42.8137 47.1648 42.4367 47.1997 41.9241C47.2342 41.4115 46.8287 40.9589 46.296 40.9133C45.7616 40.8669 45.3002 41.2448 45.2658 41.7573Z" fill="#17282F"/>
<path d="M44.8823 38.5327C44.9984 38.6634 45.7516 38.1426 46.7965 38.1787C47.8407 38.2001 48.5905 38.7627 48.7075 38.6383C48.7654 38.5833 48.6496 38.3508 48.3237 38.0966C48.0032 37.844 47.4499 37.5906 46.799 37.5717C46.148 37.5548 45.5927 37.777 45.2701 38.012C44.9409 38.2485 44.8248 38.474 44.8823 38.5327Z" fill="#17282F"/>
<path d="M55.2744 39.052C55.4037 39.1699 56.1002 38.5739 57.1427 38.5033C58.1832 38.417 58.9868 38.8992 59.0906 38.7637C59.1419 38.7029 59.0049 38.4836 58.6531 38.2642C58.3079 38.0457 57.7321 37.8502 57.0828 37.8991C56.4335 37.9488 55.904 38.2269 55.6069 38.4942C55.3048 38.7629 55.2116 38.9994 55.2744 39.052Z" fill="#17282F"/>
<path d="M51.3755 46.9033C51.3825 46.8441 50.7365 46.711 49.6882 46.5422C49.4227 46.5061 49.1715 46.4449 49.1325 46.2613C49.0759 46.0662 49.1965 45.7824 49.3361 45.4756C49.6078 44.8378 49.8918 44.1687 50.1906 43.468C51.3792 40.609 52.2489 38.254 52.1336 38.2072C52.0179 38.1604 50.9606 40.4398 49.772 43.2992C49.4855 44.0044 49.2109 44.6768 48.9503 45.3199C48.8395 45.6202 48.6548 45.959 48.7783 46.3636C48.8436 46.5656 49.0348 46.7164 49.2043 46.7681C49.3738 46.826 49.5236 46.8334 49.6554 46.8458C50.7127 46.9369 51.3698 46.9628 51.3755 46.9033Z" fill="#17282F"/>
<path d="M52.994 48.4572C53.3855 48.5122 53.7767 48.7147 54.0053 49.0424C54.2335 49.3702 54.3985 50.1374 54.1715 50.4356C53.9782 50.6902 53.1151 50.6894 52.5216 50.6147C52.247 50.5798 52.0172 50.3892 51.9264 50.1272L51.6917 49.4523C51.5583 49.0679 51.7582 48.6367 52.146 48.5151C52.4095 48.4325 52.7034 48.4161 52.994 48.4572Z" fill="#F57F62"/>
<path d="M54.7966 35.2367C54.9522 35.4958 55.9512 35.164 57.1829 35.0744C58.4138 34.9603 59.453 35.1237 59.5642 34.842C59.6118 34.7085 59.3918 34.4789 58.9465 34.285C58.5049 34.0908 57.8342 33.9552 57.0959 34.0156C56.3575 34.0776 55.7185 34.3212 55.3146 34.5853C54.9074 34.8498 54.7277 35.1126 54.7966 35.2367Z" fill="#17282F"/>
<path d="M45.1403 36.8163C45.3595 37.0475 46.1865 36.7789 47.1888 36.7403C48.1894 36.6713 49.0448 36.85 49.2332 36.5962C49.3161 36.4733 49.1753 36.2388 48.7985 36.024C48.4271 35.81 47.8106 35.6433 47.1219 35.6799C46.4336 35.7172 45.8426 35.9489 45.5007 36.2015C45.153 36.4549 45.043 36.7029 45.1403 36.8163Z" fill="#17282F"/>
<path d="M81.1479 80.2387L71.2888 116.023L74.7471 126.281C61.7281 132.022 42.9089 133.847 28.0742 126.654C28.0742 126.654 33.1133 111.858 33.2846 108.978C33.456 106.097 32.2174 89.2728 33.5888 83.6304C34.9599 77.9875 38.8858 65.894 38.8858 65.894L50.4334 64.0594C55.728 66.9052 59.1182 67.3291 64.8117 64.031L75.5684 66.3787L81.1479 80.2387Z" fill="#0F3F76"/>
<path d="M39.0627 65.8744C39.0627 65.8744 32.8613 66.5311 30.3644 71.6351C27.8978 76.6774 21.0504 98.9936 20.6778 102.721C20.3052 106.449 23.3277 111.467 25.9623 112.161L33.9523 104.191L40.5812 104.781L49.3093 64.0303L39.0627 65.8744Z" fill="#0F3F76"/>
<path d="M34.3387 100.621C33.5631 99.3939 32.1093 98.7281 30.6683 98.5597C30.3513 98.5227 30.0339 98.5067 29.7163 98.5067C28.5897 98.5067 27.4608 98.7104 26.3477 98.9142C26.8981 97.8184 28.1614 97.229 29.3843 97.1489C29.5056 97.1411 29.6267 97.1374 29.7475 97.1374C30.8461 97.1374 31.9302 97.4467 32.9908 97.7535C31.2068 96.7879 29.6441 95.4161 28.4547 93.772C29.9099 94.3158 31.3651 94.8596 32.8204 95.4038C31.9063 90.1179 32.4514 84.5872 34.3797 79.5818L33.1121 86.4075C32.8481 91.1714 33.2625 95.9726 34.3387 100.621Z" fill="#20353D"/>
<path d="M32.259 113.453C32.0693 112.455 32.2995 111.291 32.5677 110.273L33.0645 110.323C32.882 111.166 32.5991 112.248 32.259 113.453Z" fill="#A7A9A8"/>
<path d="M52.4285 118.13C50.3562 118.13 48.2318 117.824 46.1952 117.504C42.6397 116.944 39.0841 116.384 35.5283 115.825C34.6312 115.684 33.6753 115.515 33.0139 114.892C32.5942 114.496 32.3639 114 32.2598 113.452C32.6003 112.248 32.8836 111.165 33.0664 110.322L45.9129 111.595L46.1575 115.331C46.1575 115.331 51.2748 116.331 54.115 116.331C54.328 116.331 54.5287 116.325 54.7126 116.313C56.6002 116.189 59.0533 114.778 60.2998 113.982C60.3015 113.984 60.3031 113.985 60.3047 113.987C60.5206 114.196 61.2323 114.358 62.061 114.496C61.0054 115.149 59.999 115.993 58.9302 116.611C56.9544 117.755 54.7232 118.13 52.4285 118.13Z" fill="#20353D"/>
<path d="M57.4223 107.595L62.8716 102.329C63.4007 101.819 64.1243 101.564 64.8561 101.633C66.4116 101.78 69.0474 102.054 69.5896 102.265C70.369 102.568 71.1049 103.002 71.3217 103.392C71.538 103.782 72.2743 106.122 72.3174 106.468C72.3383 106.637 72.2878 107.122 72.2304 107.577C72.1622 108.115 71.5712 108.432 71.1 108.166C70.8878 108.046 70.6953 107.888 70.5853 107.681C70.2389 107.031 70.2824 106.771 70.2824 106.771C70.2824 106.771 70.4556 109.111 68.5504 109.154C68.5504 109.154 69.4279 111.147 66.9756 111.971C66.9756 111.971 67.0663 113.271 65.0153 113.444C62.9644 113.618 61.1027 113.444 61.1027 113.444C61.1027 113.444 57.3538 116.139 54.7122 116.312C52.0711 116.486 46.1571 115.33 46.1571 115.33L45.4434 104.43L57.4223 107.595Z" fill="#F9A78D"/>
<path d="M64.8048 104.255C64.7982 104.274 65.1311 104.415 65.6778 104.621C66.2249 104.826 66.9862 105.099 67.851 105.329C68.2787 105.45 68.7105 105.519 69.0692 105.618C69.4337 105.715 69.6532 105.988 69.8117 106.227C69.9701 106.469 70.0957 106.674 70.2049 106.799C70.312 106.926 70.3879 106.979 70.3933 106.973C70.4015 106.965 70.3407 106.898 70.2504 106.764C70.1573 106.632 70.0493 106.425 69.8987 106.171C69.8215 106.046 69.7296 105.908 69.6015 105.781C69.4755 105.653 69.3007 105.55 69.1107 105.489C68.7269 105.376 68.3181 105.31 67.8884 105.188C67.031 104.959 66.2672 104.703 65.7118 104.523C65.1574 104.342 64.8118 104.236 64.8048 104.255Z" fill="#F57F62"/>
<path d="M64.1027 107.597C64.0957 107.615 64.3268 107.723 64.7093 107.877C65.0914 108.031 65.6246 108.229 66.2205 108.429C66.8169 108.629 67.3624 108.791 67.7601 108.899C68.1578 109.006 68.4073 109.059 68.4127 109.04C68.4184 109.02 68.1791 108.932 67.79 108.8C67.348 108.652 66.8345 108.48 66.2669 108.29C65.6997 108.1 65.1862 107.928 64.7446 107.78C64.3539 107.651 64.1101 107.578 64.1027 107.597Z" fill="#F57F62"/>
<path d="M62.7559 110.704C62.751 110.749 63.7044 110.846 64.8384 111.156C65.9745 111.459 66.8475 111.854 66.8664 111.813C66.8742 111.796 66.6657 111.676 66.3102 111.518C65.9552 111.359 65.4504 111.17 64.8766 111.014C64.3028 110.86 63.7713 110.77 63.3851 110.729C62.998 110.686 62.7571 110.686 62.7559 110.704Z" fill="#F57F62"/>
<path d="M50.1353 116.022L25.9609 112.161C25.9609 112.161 28.8659 100.027 33.1044 100.027C33.7254 100.027 55.1984 107.008 55.1984 107.008L50.1353 116.022Z" fill="#0F3F76"/>
<path d="M54.3641 110.739C54.3792 110.753 54.5914 110.551 54.9313 110.22C55.3044 109.853 55.7546 109.411 56.2521 108.922C56.7651 108.411 57.2227 107.941 57.5441 107.591C57.8659 107.242 58.0514 107.013 58.037 107C58.0218 106.986 57.8101 107.189 57.4698 107.519C57.0967 107.886 56.6465 108.329 56.149 108.818C55.636 109.329 55.1784 109.798 54.857 110.148C54.5356 110.498 54.3497 110.726 54.3641 110.739Z" fill="#F57F62"/>
<path d="M55.1993 107.009C55.1961 107.02 55.0902 107 54.8919 106.951C54.6555 106.888 54.3715 106.812 54.0304 106.721C53.2325 106.491 52.1695 106.185 50.8804 105.815C48.2253 105.034 44.5638 103.934 40.5265 102.698C38.2911 102.007 36.1732 101.353 34.2931 100.771L34.244 100.756L34.2074 100.707C33.4667 99.7097 32.3747 99.1023 31.3898 98.8021C30.3883 98.4961 29.4512 98.4591 28.6951 98.5273C27.9345 98.5893 27.3483 98.7565 26.9538 98.8756C26.56 99.0021 26.3561 99.0924 26.3479 99.0768C26.3397 99.062 26.5312 98.9401 26.9201 98.7815C27.3099 98.6308 27.8984 98.4312 28.6755 98.3404C29.4477 98.2435 30.4165 98.2546 31.4639 98.5515C32.5022 98.8534 33.638 99.4407 34.4702 100.535L34.3849 100.471C36.2679 101.043 38.389 101.686 40.628 102.365C44.6656 103.601 48.3151 104.739 50.9522 105.58C52.2282 105.994 53.2802 106.335 54.0698 106.592C54.4035 106.708 54.6814 106.804 54.9125 106.884C55.1041 106.954 55.203 106.997 55.1993 107.009Z" fill="#17282F"/>
<path d="M48.7949 68.2236C48.9968 67.5508 50.1325 61.3347 50.5942 59.8894C51.2456 57.8497 56.5406 54.2034 56.5406 54.2034C56.5406 54.2034 55.7103 52.2891 53.4558 53.2838C50.7867 54.4622 49.4676 56.4451 48.7949 56.0414C48.1226 55.6376 43.93 51.367 42.787 51.5013C41.6439 51.636 41.3927 52.8099 41.7962 53.2805C42.1996 53.7516 42.6523 54.5295 42.6523 54.5295C42.6523 54.5295 40.2317 53.8005 40.7024 56.4529C40.7024 56.4529 37.9455 54.7312 38.2144 58.3648C38.2144 58.3648 36.3988 57.6247 35.9954 58.9032C35.592 60.1818 36.7886 61.662 37.3936 62.6711C37.9989 63.6807 39.9627 69.5346 39.9627 69.5346L39.9858 74.696L49.6256 72.7135L48.7949 68.2236Z" fill="#F9A78D"/>
<path d="M48.7936 68.2242C48.801 68.2246 48.8268 68.3252 48.8699 68.5207C48.9151 68.7363 48.975 69.0226 49.0509 69.3861C49.2048 70.1681 49.424 71.2803 49.7035 72.6993L49.7187 72.7765L49.6403 72.793C47.2598 73.2961 43.9677 73.9918 40.0114 74.8276L39.8519 74.8613L39.8506 74.697C39.8386 73.1076 39.8256 71.369 39.8118 69.536L39.8195 69.5828C39.1315 67.5974 38.4166 65.4621 37.5187 63.3046C37.0797 62.2655 36.1644 61.3599 35.8344 60.099C35.7538 59.7873 35.7163 59.4501 35.7708 59.1137C35.8213 58.7909 35.9741 58.4179 36.2926 58.2142C36.6024 58.0089 36.9697 57.9641 37.3016 57.9875C37.6395 58.0121 37.9568 58.0857 38.2778 58.2064L38.042 58.3781C38.0285 58.0232 38.0145 57.6626 38.0654 57.2905C38.1317 56.9279 38.2134 56.5233 38.5263 56.2173C38.8295 55.8974 39.3069 55.8288 39.6912 55.8974C40.0882 55.9623 40.4469 56.104 40.7928 56.306L40.5302 56.4835C40.4658 55.9959 40.3824 55.4016 40.7106 54.8673C40.9148 54.5313 41.2966 54.3395 41.6512 54.2894C42.0136 54.2373 42.3559 54.2746 42.7011 54.3638L42.5012 54.6172C42.2595 54.2126 42.0001 53.8085 41.7119 53.452C41.5256 53.2655 41.4275 52.9427 41.4431 52.6811C41.4571 52.4088 41.549 52.1463 41.7054 51.9266C41.8605 51.7068 42.0842 51.5364 42.3296 51.4403C42.4536 51.3955 42.5792 51.359 42.7068 51.3417C42.8304 51.3249 43.004 51.3438 43.1242 51.3775C43.6192 51.538 43.9976 51.8149 44.3818 52.0822C45.8852 53.1813 47.174 54.443 48.4743 55.5815C48.629 55.708 48.8207 55.8879 48.9339 55.92C49.0505 55.9582 49.2438 55.8678 49.4109 55.768C49.7544 55.5548 50.0819 55.2801 50.4127 55.0234C51.0711 54.5005 51.7503 54.0114 52.4633 53.6105C53.1721 53.2364 53.9195 52.8215 54.7621 52.856C55.6068 52.8741 56.3328 53.4368 56.6698 54.1473L56.7191 54.2508L56.6201 54.3211C54.5569 55.7885 52.7021 57.2334 51.39 58.788C51.0637 59.179 50.8088 59.5913 50.6635 60.0304C50.5285 60.4834 50.4238 60.9344 50.3233 61.3652C50.1336 62.229 49.9592 63.0225 49.8016 63.7408C49.4995 65.1578 49.2611 66.2757 49.0928 67.0643C49.0082 67.4463 48.9393 67.7375 48.8876 67.9326C48.8371 68.1276 48.7936 68.2242 48.7936 68.2242C48.7845 68.2246 48.8083 68.1215 48.8449 67.9231C48.8863 67.7042 48.9405 67.4142 49.0095 67.0471C49.1597 66.2548 49.3727 65.1319 49.6424 63.7084C49.7901 62.9867 49.9531 62.1895 50.1304 61.3217C50.2264 60.8872 50.3249 60.4362 50.4587 59.9684C50.6081 59.4936 50.8823 59.0447 51.2106 58.6442C52.5421 57.0371 54.3857 55.5824 56.4588 54.0869L56.4092 54.2603C56.1124 53.6536 55.4754 53.1583 54.7502 53.1534C54.0221 53.1209 53.3104 53.5058 52.6151 53.8799C51.9227 54.2734 51.2632 54.7519 50.6102 55.2743C50.2793 55.5322 49.9588 55.8066 49.5775 56.0461C49.3842 56.1496 49.1667 56.3019 48.8523 56.2358C48.5559 56.1266 48.4451 55.9668 48.2604 55.8304C46.9458 54.6854 45.6579 53.4327 44.184 52.3599C43.8179 52.102 43.4276 51.8329 43.0307 51.7077C42.9305 51.6855 42.8624 51.6723 42.7581 51.6814C42.6535 51.6953 42.555 51.7253 42.4577 51.7594C42.2668 51.8346 42.1019 51.9623 41.9853 52.1278C41.7534 52.4535 41.6951 52.9443 41.9787 53.2322C42.2898 53.6171 42.5488 54.0216 42.8008 54.4426L43.02 54.8082L42.6009 54.696C42.0395 54.5461 41.3003 54.5621 41.0032 55.0546C40.758 55.4333 40.8061 55.9725 40.8719 56.4231L40.9249 56.7862L40.6091 56.6005C40.3142 56.4272 39.9708 56.2925 39.6407 56.2403C39.3084 56.1849 38.9775 56.242 38.769 56.4633C38.3426 56.9246 38.3548 57.7016 38.3843 58.3526L38.3963 58.6151L38.1483 58.5243C37.6049 58.3263 36.9259 58.2089 36.4844 58.4956C36.2651 58.6344 36.1524 58.889 36.1048 59.1691C36.0595 59.4464 36.0887 59.7355 36.1609 60.016C36.3071 60.5799 36.6035 61.1057 36.9158 61.61C37.2222 62.1107 37.5937 62.6089 37.8183 63.1736C38.7216 65.3635 39.4228 67.491 40.1034 69.4875L40.1111 69.5105V69.5348C40.1137 71.3678 40.1161 73.1068 40.1182 74.6958L39.9575 74.5656C43.9225 73.7721 47.2224 73.1121 49.6079 72.6348L49.5451 72.7285C49.2972 71.2971 49.103 70.1755 48.9664 69.3865C48.9081 69.0222 48.8617 68.7351 48.8268 68.5191C48.7977 68.3236 48.7866 68.2238 48.7936 68.2242Z" fill="#F57F62"/>
<path d="M42.6601 54.5991C42.6342 54.6319 43.1784 55.0977 43.8302 55.6916C44.4828 56.2847 44.9975 56.7824 45.0279 56.7537C45.0562 56.727 44.5858 56.1807 43.9283 55.5836C43.272 54.9852 42.6839 54.5683 42.6601 54.5991Z" fill="#F57F62"/>
<path d="M40.5047 56.3088C40.4701 56.3236 40.6768 56.8452 41.0986 57.3865C41.518 57.9307 41.9716 58.2605 41.9941 58.2305C42.0225 58.1981 41.6219 57.8264 41.2143 57.297C40.8031 56.7704 40.5434 56.2899 40.5047 56.3088Z" fill="#F57F62"/>
<path d="M38.2512 58.2338C38.2185 58.2576 38.4451 58.6281 38.757 59.0614C39.0692 59.4947 39.3484 59.8269 39.3812 59.8035C39.4137 59.7797 39.1873 59.4092 38.8753 58.9759C38.5632 58.5426 38.2838 58.2104 38.2512 58.2338Z" fill="#F57F62"/>
<path d="M75.5696 66.3782L65.202 76.7298L54.5656 90.1019L50.3357 72.2818L39.5273 74.505C39.5273 74.505 40.29 94.6345 43.6161 103.758C44.2489 105.494 46.1217 106.785 46.957 107.182C52.1822 109.665 57.2835 105.823 57.2835 105.823C57.2835 105.823 79.0829 91.1825 81.4458 81.3812C82.5617 76.7528 82.1144 71.2501 80.2132 68.9846C78.542 66.993 75.5696 66.3782 75.5696 66.3782Z" fill="#0F3F76"/>
<path d="M81.4453 81.3819C81.4453 81.3819 81.4211 81.4899 81.3624 81.6985C81.2943 81.9039 81.2397 82.2263 81.0706 82.6152C80.7964 83.4174 80.2317 84.5411 79.3591 85.8903C78.4812 87.2366 77.2708 88.7944 75.7325 90.48C74.1884 92.1603 72.3382 93.9892 70.1875 95.892C68.0446 97.8035 65.6091 99.7963 62.9277 101.847C61.586 102.871 60.1815 103.908 58.7134 104.947C58.3444 105.204 57.973 105.463 57.5987 105.724C57.2289 105.98 56.8414 106.25 56.4376 106.477C55.6274 106.935 54.7618 107.321 53.8494 107.607C52.0356 108.194 49.9843 108.313 48.0577 107.716C47.8127 107.659 47.5878 107.538 47.351 107.452C47.1178 107.357 46.8781 107.273 46.6561 107.142C46.2091 106.895 45.7938 106.598 45.3977 106.272C44.6187 105.615 43.907 104.811 43.5257 103.815C42.8349 101.858 42.3416 99.8078 41.9045 97.7172C41.5076 95.6193 41.139 93.4836 40.8638 91.3092C40.1018 85.5095 39.6678 79.8602 39.4239 74.5098L39.4199 74.4223L39.5062 74.4046C43.2786 73.6312 46.8925 72.8903 50.3155 72.1884L50.407 72.1699L50.4284 72.2603C52.0266 79.0309 53.4484 85.0549 54.6362 90.0857L54.5114 90.0529C58.1622 86.1231 61.0923 82.9693 63.1149 80.7921C64.1246 79.7119 64.9065 78.8753 65.4412 78.3031C65.7052 78.0243 65.9071 77.8107 66.0479 77.662C66.185 77.5183 66.2592 77.4484 66.2592 77.4484C66.2592 77.4484 66.1952 77.5277 66.0631 77.676C65.926 77.8279 65.729 78.046 65.4716 78.3311C64.9434 78.9093 64.171 79.7546 63.1736 80.8463C61.1625 83.0342 58.2488 86.2036 54.6189 90.1523L54.5262 90.2529L54.4941 90.1194C53.294 85.0914 51.8567 79.0712 50.2416 72.3046L50.3545 72.3765C46.9319 73.0829 43.3193 73.8284 39.5477 74.6067L39.6298 74.5016C39.8783 79.8437 40.3149 85.4911 41.0758 91.2809C41.3504 93.452 41.7177 95.5832 42.113 97.6753C42.548 99.7589 43.0393 101.802 43.7223 103.742C44.0818 104.687 44.7697 105.471 45.5303 106.113C45.9161 106.431 46.3236 106.723 46.755 106.962C46.9664 107.086 47.2007 107.169 47.4289 107.263C47.66 107.347 47.8792 107.465 48.1189 107.521C49.9983 108.105 52.0045 107.994 53.7907 107.418C54.6887 107.139 55.5432 106.76 56.3419 106.31C56.7441 106.083 57.1111 105.829 57.4911 105.567C57.865 105.307 58.2365 105.049 58.6051 104.793C60.0732 103.759 61.4781 102.726 62.8206 101.706C65.5032 99.6636 67.9412 97.6803 70.0874 95.7786C72.2409 93.8861 74.0953 92.0682 75.6442 90.3991C77.1879 88.725 78.404 87.1791 79.2897 85.8443C80.1697 84.507 80.7443 83.3939 81.0304 82.6C81.2052 82.2148 81.2664 81.8957 81.3415 81.6928C81.4067 81.4862 81.4453 81.3819 81.4453 81.3819Z" fill="#17282F"/>
<path d="M56.5313 98.2858C56.4931 98.2772 56.6199 97.7622 56.686 96.9177C56.7266 96.4959 56.7205 95.9911 56.6909 95.4338C56.6458 94.8773 56.5522 94.2694 56.3929 93.6451C56.074 92.3933 55.5364 91.341 55.1025 90.6153C54.6613 89.8908 54.3346 89.4747 54.3642 89.4513C54.3757 89.4423 54.4668 89.538 54.6227 89.7208C54.7816 89.9002 54.9888 90.1791 55.2302 90.5344C55.7026 91.2482 56.2739 92.312 56.6002 93.5913C56.7627 94.2292 56.8522 94.8522 56.8875 95.4215C56.9068 95.9911 56.8974 96.5058 56.8362 96.9321C56.7849 97.3592 56.7168 97.7014 56.6503 97.9322C56.5871 98.1638 56.5456 98.2895 56.5313 98.2858Z" fill="#17282F"/>
<path d="M55.0551 49.8133C55.0358 49.87 54.8129 49.8454 54.4727 49.776C54.1312 49.7086 53.674 49.6043 53.1655 49.5648C52.6561 49.5221 52.2009 49.5591 51.8878 49.6412C51.5676 49.716 51.433 49.8458 51.3809 49.8244C51.3558 49.8129 51.3554 49.7419 51.4203 49.6462C51.4835 49.5513 51.6087 49.4457 51.779 49.3591C52.1184 49.1829 52.6434 49.0909 53.1995 49.1385C53.7581 49.1821 54.2391 49.3443 54.5638 49.4876C54.8897 49.6334 55.074 49.7583 55.0551 49.8133Z" fill="#17282F"/>
<path d="M71.5238 115.796C71.5238 115.796 71.4652 115.789 71.3574 115.775L72.0554 113.238H72.171L71.5238 115.796Z" fill="#A7A9A8"/>
<path d="M71.3569 115.774C70.4946 115.668 66.4937 115.169 64.2248 114.818C63.5783 114.718 62.7751 114.616 62.0593 114.497C62.9844 113.924 63.9473 113.498 65.0235 113.498C65.0522 113.498 65.0814 113.499 65.1101 113.499L64.762 113.465C64.8458 113.459 64.9295 113.452 65.014 113.445C65.4138 113.411 65.7323 113.335 65.986 113.233L72.0559 113.237L71.3569 115.774ZM59.79 105.307C59.8266 104.899 59.8697 104.49 59.9193 104.083C60.6528 103.552 61.3694 103.023 62.0696 102.496C62.0232 102.74 61.9793 102.985 61.9374 103.232L59.79 105.307Z" fill="#20353D"/>
<path d="M62.06 114.497C61.2313 114.358 60.5196 114.197 60.3038 113.987C60.3021 113.986 60.3005 113.984 60.2988 113.983C60.7967 113.665 61.102 113.445 61.102 113.445C61.102 113.445 61.9295 113.522 63.089 113.522C63.5971 113.522 64.1688 113.507 64.7627 113.465L65.1108 113.5C65.082 113.499 65.0529 113.498 65.0242 113.498C63.948 113.498 62.9851 113.924 62.06 114.497Z" fill="#142127"/>
<path d="M60.2981 113.981C59.8035 113.496 59.8068 112.692 59.7538 112C59.5847 109.789 59.5893 107.545 59.79 105.306L61.9374 103.231C61.6065 105.184 61.4095 107.24 61.3476 109.392C61.3184 110.406 61.6919 111.366 62.3991 112.095C63.11 112.827 64.0634 113.231 65.0837 113.231L65.9859 113.232C65.7322 113.334 65.4137 113.41 65.014 113.444C64.9294 113.451 64.8457 113.458 64.762 113.464C64.1681 113.506 63.5963 113.521 63.0882 113.521C61.9287 113.521 61.1013 113.444 61.1013 113.444C61.1013 113.444 60.7959 113.664 60.2981 113.981Z" fill="#BA7562"/>
<path d="M59.9512 103.83C61.0758 95.1081 65.27 86.6133 73.9002 80.7233C74.4071 81.1652 75.01 81.5677 75.7192 81.918C75.9474 82.031 76.2212 82.1287 76.5364 82.2129C76.2598 82.3575 75.984 82.5074 75.7094 82.6622C71.5677 84.9963 68.2621 88.1872 65.8844 92.1452C64.12 95.0835 62.8616 98.4588 62.1203 102.232C61.414 102.763 60.6912 103.296 59.9512 103.83Z" fill="#20353D"/>
<path d="M59.9209 104.082C59.9312 103.998 59.9418 103.915 59.9525 103.83C60.6925 103.296 61.4153 102.763 62.1216 102.233C62.1044 102.32 62.0876 102.408 62.0712 102.495C61.371 103.022 60.6543 103.551 59.9209 104.082Z" fill="#0F191D"/>
<path d="M145.697 23.4601C147.307 23.6043 148.925 22.384 149.231 20.7954C149.536 19.2071 148.485 17.4735 146.937 17.0094C147.91 15.9609 148.12 14.2757 147.432 13.0206C146.744 11.7654 145.212 11.036 143.805 11.2935C143.712 9.8835 142.836 8.55074 141.578 7.90633C140.322 7.26233 138.729 7.33009 137.531 8.07841C135.94 6.7785 133.424 6.78918 131.844 8.10306C130.467 7.88292 128.99 8.64972 128.376 9.90281C127.763 11.1563 128.063 12.7942 129.082 13.7479" fill="#17282F"/>
<path d="M131.215 11.3766L131.939 11.3598C139.232 11.1893 145.432 16.6506 146.188 23.9108C146.891 30.6634 147.58 38.1327 147.62 41.763C147.703 49.2799 140.219 50.6237 140.219 50.6237L141.064 59.6377L122.824 59.4981L120.45 26.7908C119.596 19.0036 123.412 12.0157 131.215 11.3766Z" fill="#F9A78D"/>
<path d="M140.228 50.6228C140.228 50.6228 134.992 51.013 129.873 47.9602C129.873 47.9602 132.925 53.4383 140.402 52.5869L140.228 50.6228Z" fill="#F57F62"/>
<path d="M143.893 32.0665C143.927 32.6329 143.475 33.1282 142.884 33.1734C142.295 33.219 141.789 32.798 141.757 32.2316C141.723 31.6652 142.175 31.1699 142.764 31.1239C143.354 31.0787 143.86 31.5005 143.893 32.0665Z" fill="#17282F"/>
<path d="M144.658 27.6254C144.528 27.7684 143.702 27.1856 142.548 27.2156C141.395 27.2287 140.562 27.8427 140.433 27.7043C140.37 27.6431 140.5 27.3872 140.862 27.11C141.219 26.834 141.832 26.5592 142.551 26.5457C143.27 26.5329 143.881 26.7835 144.235 27.0463C144.596 27.3108 144.722 27.561 144.658 27.6254Z" fill="#17282F"/>
<path d="M133.956 32.0664C133.989 32.6328 133.538 33.1281 132.947 33.1733C132.358 33.2193 131.852 32.7979 131.819 32.2315C131.786 31.6656 132.238 31.1698 132.827 31.1243C133.417 31.0783 133.923 31.5005 133.956 32.0664Z" fill="#17282F"/>
<path d="M133.32 28.1045C133.19 28.2474 132.362 27.665 131.209 27.695C130.056 27.7086 129.223 28.3222 129.094 28.1838C129.032 28.1226 129.16 27.8667 129.524 27.5895C129.881 27.3135 130.494 27.0391 131.213 27.0251C131.931 27.012 132.542 27.263 132.897 27.5258C133.257 27.7899 133.383 28.0404 133.32 28.1045Z" fill="#17282F"/>
<path d="M137.707 36.5729C137.7 36.5072 138.414 36.3667 139.574 36.1905C139.867 36.1536 140.145 36.0883 140.19 35.8858C140.254 35.6714 140.124 35.3564 139.973 35.0163C139.679 34.3094 139.372 33.5681 139.049 32.791C137.764 29.622 136.827 27.0139 136.955 26.9634C137.083 26.9129 138.228 29.44 139.513 32.6087C139.823 33.3903 140.119 34.1357 140.4 34.8483C140.52 35.181 140.72 35.5564 140.58 36.002C140.506 36.2242 140.293 36.3893 140.106 36.4448C139.918 36.5068 139.753 36.5138 139.607 36.5257C138.439 36.616 137.713 36.6378 137.707 36.5729Z" fill="#17282F"/>
<path d="M133.564 25.7206C133.419 26.0172 132.423 25.7227 131.204 25.7116C129.985 25.6734 128.965 25.9268 128.846 25.6253C128.795 25.4816 129.005 25.2134 129.438 24.9686C129.868 24.7242 130.526 24.5275 131.257 24.5419C131.987 24.5575 132.626 24.7801 133.032 25.0417C133.443 25.3033 133.629 25.5797 133.564 25.7206Z" fill="#17282F"/>
<path d="M144.604 22.8629C144.367 23.1307 143.408 22.8806 142.262 22.8946C141.116 22.8753 140.151 23.1204 139.921 22.851C139.82 22.7204 139.967 22.4539 140.385 22.1959C140.796 21.9388 141.49 21.7199 142.278 21.7216C143.065 21.724 143.753 21.9458 144.158 22.2054C144.569 22.4654 144.708 22.7327 144.604 22.8629Z" fill="#17282F"/>
<path d="M145.385 20.4819C145.385 20.4819 143.294 15.8219 141.001 14.7763C138.225 13.5108 137.113 16.5538 134.48 15.8831C131.846 15.2124 129.196 13.9979 126.569 16.084C123.694 18.3675 125.101 19.8897 124.998 23.2284C124.58 36.7639 122.202 40.6443 121.352 34.293C121.259 33.5973 119.311 33.0876 118.956 30.1469C118.495 26.3338 118.24 21.6964 119.029 18.9643C119.695 16.6614 120.96 15.0514 123.256 13.2554C126.879 10.4206 131.942 10.2436 135.39 10.5098C138.837 10.7755 145.561 14.5816 145.385 20.4819Z" fill="#17282F"/>
<path d="M121.827 34.0773C121.752 32.9187 120.732 32.0262 119.58 32.1629C118.182 32.3289 116.642 33.161 116.803 36.0549C117.086 41.1888 122.178 39.845 122.179 39.6971C122.18 39.5969 121.965 36.2245 121.827 34.0773Z" fill="#F9A78D"/>
<path d="M120.956 37.8263C120.932 37.8115 120.869 37.8945 120.722 37.9721C120.579 38.0477 120.328 38.1081 120.055 38.0226C119.502 37.8534 118.998 37.018 118.922 36.0939C118.883 35.6274 118.956 35.1772 119.102 34.7993C119.238 34.4149 119.466 34.1393 119.736 34.0761C120.004 33.998 120.206 34.1508 120.277 34.2917C120.354 34.4314 120.327 34.5357 120.354 34.5435C120.37 34.5554 120.459 34.4511 120.406 34.2412C120.38 34.1406 120.313 34.0227 120.187 33.9307C120.058 33.8375 119.875 33.7964 119.686 33.8276C119.292 33.8769 118.956 34.2605 118.796 34.6749C118.615 35.0922 118.522 35.599 118.565 36.1231C118.655 37.1556 119.238 38.0945 119.992 38.2678C120.358 38.3422 120.652 38.2165 120.801 38.0871C120.953 37.9512 120.974 37.835 120.956 37.8263Z" fill="#F57F62"/>
<path d="M121.696 24.1208C122.373 24.5607 123.088 25.0141 123.893 25.0749C124.699 25.1361 125.607 24.6527 125.724 23.853C125.776 23.4936 125.679 23.0809 125.908 22.7991C126.18 22.4627 126.7 22.5539 127.131 22.5896C128.628 22.7133 130.334 21.0228 130.68 19.5606C131.074 20.1221 131.912 20.2753 132.479 19.89C133.047 19.5052 133.252 19.2879 133.691 18.7609C134.129 18.2336 134.752 17.7568 135.432 17.8377C135.813 17.8824 136.174 18.1005 136.555 18.0578C137.228 17.9822 137.538 17.1842 137.625 16.5123C137.711 15.8404 137.773 15.0571 138.335 14.6797C138.856 14.3302 139.547 14.5092 140.17 14.586C140.792 14.6632 141.59 14.4985 141.735 13.8874C141.811 13.567 141.667 13.2352 141.483 12.9612C140.655 11.7201 138.899 11.2013 137.529 11.7928C136.987 10.1072 135.37 8.82288 133.606 8.6779C131.842 8.53333 130.037 9.5367 129.228 11.1118C128.12 10.1524 126.534 9.77532 125.113 10.1347C123.692 10.4941 122.475 11.5796 121.955 12.9514C120.699 12.6516 119.287 13.1682 118.519 14.2082C117.752 15.2481 117.674 16.7505 118.33 17.8644C117.419 18.4135 116.651 19.3495 116.656 20.4137C116.662 21.4774 117.722 22.5128 118.741 22.2089C118.346 23.0468 118.709 24.1627 119.521 24.6062C120.334 25.0502 121.469 24.7529 121.959 23.9676" fill="#17282F"/>
<path d="M137.946 13.2954C137.95 13.2959 137.95 13.3279 137.947 13.3899C137.941 13.4515 137.94 13.5452 137.92 13.6651C137.879 13.9033 137.791 14.2569 137.571 14.6635C137.348 15.0644 137 15.5293 136.46 15.9047C135.933 16.2842 135.204 16.5803 134.371 16.554L134.456 16.4382C134.625 16.874 134.594 17.4022 134.386 17.8589C134.19 18.3234 133.873 18.7382 133.537 19.1432C133.364 19.3379 133.216 19.5654 132.976 19.7461C132.742 19.9199 132.46 20.0238 132.169 20.0673C131.592 20.1548 130.934 19.9909 130.503 19.5128L130.693 19.4541C130.587 20.478 130.03 21.5134 129.122 22.1583C128.642 22.5226 128.043 22.7522 127.449 22.7505C126.855 22.7583 126.298 22.5969 125.779 22.4244L125.915 22.3607C125.654 23.0056 125.242 23.5604 124.737 23.9744C124.241 24.388 123.572 24.6394 122.959 24.5039C121.741 24.2755 120.914 23.2857 120.73 22.3398L120.848 22.3915C120.254 22.7333 119.61 22.7797 119.089 22.6918C118.562 22.608 118.145 22.3895 117.846 22.1714C117.546 21.9492 117.367 21.7171 117.258 21.557C117.158 21.3898 117.116 21.297 117.122 21.2941C117.147 21.2728 117.301 21.6806 117.897 22.1008C118.194 22.3012 118.601 22.5004 119.109 22.5686C119.608 22.6421 120.219 22.5833 120.767 22.2564L120.861 22.1997L120.884 22.3078C121.068 23.19 121.864 24.1133 122.993 24.312C123.548 24.4287 124.136 24.2044 124.605 23.813C125.078 23.4224 125.47 22.8877 125.712 22.2815L125.751 22.1858L125.848 22.2178C126.359 22.3862 126.896 22.5374 127.446 22.5283C127.996 22.5271 128.533 22.3225 128.991 21.9771C129.848 21.3676 130.37 20.3988 130.476 19.4286L130.503 19.1851L130.667 19.3695C131.031 19.7782 131.62 19.9359 132.139 19.8583C132.399 19.8209 132.65 19.7293 132.854 19.5798C133.053 19.436 133.208 19.211 133.383 19.0146C133.719 18.6163 134.027 18.2174 134.214 17.7854C134.412 17.3578 134.441 16.8937 134.295 16.499L134.251 16.3774L134.38 16.3828C135.164 16.4177 135.867 16.1487 136.382 15.7922C136.909 15.441 137.258 14.9991 137.487 14.6163C137.937 13.8285 137.909 13.2848 137.946 13.2954Z" fill="#0F3F76"/>
<path d="M101.014 58.8311C101.014 58.8311 81.715 65.633 76.1323 68.4427C71.771 70.6379 69.0071 78.6013 75.719 81.9199C80.7234 84.3948 107.815 79.6651 107.815 79.6651L101.014 58.8311Z" fill="#F9A78D"/>
<path d="M159.932 126.448L110.896 124.591L109.121 141.294L107.156 174.801L132.187 174.906C132.198 174.764 135.309 156.072 135.309 156.072L136.724 155.701L136.592 174.906H160.053C161.285 159.014 161.989 145.665 162.032 144.409C162.373 134.481 159.932 126.448 159.932 126.448Z" fill="#17282F"/>
<path d="M133.543 145.661C133.534 145.684 133.796 145.823 134.288 146.04C134.781 146.248 135.506 146.566 136.479 146.705C136.965 146.773 137.514 146.775 138.086 146.648C138.654 146.523 139.256 146.253 139.732 145.771C140.207 145.287 140.499 144.626 140.674 143.945C140.851 143.259 140.939 142.549 141.052 141.827C141.487 138.93 141.752 136.29 141.891 134.376C141.961 133.42 142.001 132.645 142.018 132.108C142.034 131.572 142.029 131.274 142.004 131.273C141.978 131.271 141.935 131.565 141.874 132.097C141.808 132.708 141.727 133.461 141.631 134.353C141.426 136.257 141.12 138.884 140.687 141.772C140.466 143.2 140.335 144.651 139.487 145.533C138.639 146.4 137.413 146.539 136.51 146.445C135.577 146.346 134.845 146.072 134.34 145.906C133.835 145.731 133.553 145.637 133.543 145.661Z" fill="#0F3F76"/>
<path d="M138.22 131.935C138.225 131.919 138.103 131.848 137.856 131.844C137.613 131.836 137.247 131.925 136.894 132.199C136.557 132.47 136.205 132.948 136.217 133.578C136.215 134.216 136.739 134.822 137.397 135.028C138.05 135.252 138.83 135.073 139.207 134.558C139.589 134.056 139.588 133.463 139.476 133.044C139.353 132.615 139.111 132.327 138.91 132.189C138.708 132.047 138.569 132.032 138.563 132.048C138.518 132.097 139.066 132.32 139.221 133.104C139.29 133.475 139.25 133.972 138.942 134.343C138.646 134.722 138.053 134.856 137.512 134.677C136.971 134.5 136.571 134.043 136.557 133.562C136.528 133.08 136.79 132.656 137.064 132.398C137.653 131.856 138.227 132.002 138.22 131.935Z" fill="#0F3F76"/>
<path d="M110.896 140.29C110.895 140.316 111.106 140.339 111.493 140.358C111.879 140.384 112.44 140.369 113.129 140.307C114.506 140.187 116.405 139.771 118.327 138.867C120.246 137.957 121.774 136.754 122.743 135.766C123.229 135.273 123.596 134.849 123.821 134.534C124.052 134.223 124.169 134.045 124.149 134.03C124.098 133.989 123.565 134.654 122.562 135.577C121.563 136.502 120.047 137.642 118.169 138.533C116.289 139.417 114.446 139.863 113.098 140.048C111.748 140.236 110.896 140.224 110.896 140.29Z" fill="#0F3F76"/>
<path d="M160.92 123.725C159.958 121.533 160.137 121.332 160.137 121.332L157.41 97.4581L154.792 74.2334L152.668 57.0429L140.402 54.4147C140.402 54.4147 138.989 58.3305 133.06 58.4488C126.229 58.5851 122.314 52.4729 122.314 52.4729L102.699 56.6868L110.076 107.312L110.96 120.949C110.96 120.949 109.496 123.155 109.496 125.522C109.496 127.889 109.4 129.467 109.4 129.467C127.605 134.472 145.673 138.806 162.296 133.961C162.296 133.961 161.882 125.917 160.92 123.725Z" fill="#0F3F76"/>
<path d="M148.193 56.1461C148.193 56.1461 155.264 56.9363 157.772 59.601C160.281 62.2657 168.3 75.4497 168.3 75.4497L156.652 91.3953L151.256 84.027L148.193 56.1461Z" fill="#0F3F76"/>
<path d="M153.582 64.3978C153.68 64.3884 154.794 73.1518 156.07 83.9692C157.346 94.7903 158.301 103.568 158.203 103.577C158.106 103.587 156.992 94.8248 155.715 84.0037C154.439 73.1859 153.484 64.4072 153.582 64.3978Z" fill="#17282F"/>
<path d="M102.7 56.6859L86.9951 63.661L92.6776 79.5701L107.815 81.9707L102.7 56.6859Z" fill="#0F3F76"/>
<path d="M104.862 67.2313C104.966 67.2202 105.716 73.427 106.535 81.0926C107.355 88.7614 107.934 94.985 107.83 94.9961C107.725 95.0072 106.976 88.8017 106.156 81.1332C105.337 73.4676 104.757 67.2424 104.862 67.2313Z" fill="#17282F"/>
<path d="M108.734 147.894C108.734 147.894 108.885 145.151 109.082 141.668C109.088 141.665 109.094 141.662 109.1 141.659L108.734 147.894Z" fill="#A7A9A8"/>
<path d="M108.734 147.894L109.1 141.659C109.852 141.279 110.646 140.846 111.465 140.355C111.475 140.356 111.485 140.357 111.494 140.357C111.615 140.365 111.753 140.369 111.907 140.369C112.244 140.369 112.657 140.349 113.131 140.306C114.508 140.186 116.407 139.77 118.328 138.866C120.248 137.956 121.776 136.753 122.744 135.765C123.231 135.272 123.597 134.848 123.823 134.533C124.053 134.223 124.17 134.044 124.15 134.029C124.149 134.028 124.147 134.027 124.145 134.027C124.067 134.027 123.537 134.68 122.563 135.576C121.564 136.501 120.048 137.641 118.171 138.532C116.291 139.416 114.448 139.862 113.099 140.047C112.554 140.123 112.089 140.166 111.73 140.196C113.872 138.889 116.179 137.189 118.38 135.002C119.214 134.173 119.995 133.313 120.722 132.423C122.202 132.78 123.678 133.119 125.152 133.439C121.447 139.446 116.785 144.997 108.734 147.894Z" fill="#0F191D"/>
<path d="M111.905 140.37C111.752 140.37 111.614 140.366 111.493 140.358C111.483 140.357 111.473 140.357 111.464 140.356C111.552 140.304 111.64 140.25 111.728 140.196C112.088 140.167 112.552 140.124 113.098 140.048C114.446 139.863 116.289 139.416 118.169 138.533C120.046 137.642 121.563 136.502 122.562 135.577C123.536 134.681 124.066 134.028 124.143 134.028C124.145 134.028 124.147 134.029 124.149 134.03C124.169 134.045 124.052 134.223 123.821 134.534C123.596 134.848 123.229 135.273 122.743 135.766C121.774 136.754 120.246 137.957 118.327 138.867C116.405 139.771 114.506 140.187 113.129 140.307C112.655 140.35 112.242 140.37 111.905 140.37Z" fill="#20353D"/>
<path d="M125.151 133.439C123.677 133.12 122.201 132.78 120.721 132.424C125.483 126.598 127.966 119.46 128.116 111.147C130.081 117.986 129.386 126.337 125.798 132.37C125.585 132.727 125.369 133.084 125.151 133.439Z" fill="#20353D"/>
<path d="M132.834 58.4521C132.788 58.4521 132.743 58.4517 132.697 58.4513C132.702 58.3774 132.709 58.3031 132.718 58.2287L138.272 56.9325C137.146 57.7211 135.478 58.4016 133.059 58.4497C132.984 58.4513 132.909 58.4521 132.834 58.4521Z" fill="#BA7562"/>
<path d="M157.685 100.039C154.363 98.9085 151.669 96.3403 149.745 93.398C147.786 90.4006 146.534 87.0056 145.298 83.6443C143.863 79.7409 142.428 75.8374 140.993 71.9344C140.306 70.0648 139.6 68.1607 138.366 66.598C137.285 65.2291 135.848 64.1867 134.662 62.9077C133.526 61.6838 132.592 60.1017 132.699 58.4494C132.744 58.4498 132.79 58.4502 132.835 58.4502C132.91 58.4502 132.986 58.4494 133.061 58.4478C135.48 58.3997 137.147 57.7191 138.273 56.9306L141.636 56.1457L149.603 68.9662L151.257 84.0267L156.592 91.3119C157.023 94.8519 157.402 97.878 157.685 100.039Z" fill="#20353D"/>
<path d="M156.591 91.3113L151.256 84.026L149.602 68.9655L154.972 77.6082C155.202 79.6121 155.452 81.7638 155.716 84.0022C156.021 86.5864 156.317 89.0532 156.591 91.3113Z" fill="#20353D"/>
<path d="M157.87 100.1C157.808 100.08 157.746 100.06 157.684 100.039C157.401 97.878 157.021 94.8519 156.591 91.3119C156.316 89.0538 156.021 86.5871 155.716 84.0028C155.452 81.7644 155.202 79.6127 154.972 77.6088L155.283 78.1099L157.87 100.1Z" fill="#0F191D"/>
<path d="M146.861 58.4202C146.861 58.1438 147.08 47.9581 146.398 46.852C145.715 45.7456 145.169 44.7085 145.033 43.6715C145.033 43.6715 145.405 43.0665 144.727 42.6878C144.048 42.3083 142.972 43.2324 142.949 44.8675C142.926 46.5021 143.113 49.2983 143.113 49.2983C143.113 49.2983 135.603 45.0334 133.545 44.9147C131.486 44.7964 128.399 44.4173 128.235 45.4125C128.071 46.4076 128.212 46.6446 129.288 47.0237C130.363 47.4028 132.071 47.6632 133.756 48.232C135.44 48.8005 136.212 49.187 136.212 49.187C136.212 49.187 132.375 48.0567 131.533 49.187C130.691 50.3168 130.808 51.3358 131.346 51.8808C131.346 51.8808 130.2 52.3548 130.317 53.6104C130.434 54.8663 130.995 55.1744 130.995 55.1744C130.995 55.1744 129.872 56.0274 130.41 57.117C130.948 58.2071 132.212 57.52 133.405 58.7521C134.597 59.9842 137.569 62.8749 138.715 63.5143C139.861 64.1542 142.481 64.415 142.481 64.415L146.861 58.4202Z" fill="#F9A78D"/>
<path d="M146.861 58.42C146.864 58.4208 146.841 58.4557 146.794 58.5239C146.743 58.5978 146.673 58.6976 146.582 58.827C146.387 59.0993 146.105 59.4927 145.74 60.0024C144.992 61.0366 143.904 62.5411 142.525 64.4472L142.507 64.4727L142.475 64.4694C141.957 64.4148 141.417 64.3384 140.856 64.2328C140.295 64.126 139.712 63.9958 139.128 63.7753C138.834 63.6701 138.549 63.5071 138.29 63.3177C138.025 63.1333 137.771 62.9275 137.514 62.7181C137.003 62.2942 136.492 61.8379 135.974 61.3603C135.455 60.8818 134.93 60.3811 134.398 59.8595C134.133 59.5967 133.866 59.3305 133.594 59.0611C133.327 58.7822 133.064 58.5157 132.729 58.3312C132.4 58.1398 132.021 58.0466 131.632 57.9604C131.254 57.8737 130.797 57.7833 130.512 57.4248C130.232 57.0913 130.112 56.6206 130.219 56.1861C130.329 55.7528 130.599 55.3889 130.942 55.1034L130.952 55.2517C130.656 55.0451 130.511 54.7449 130.396 54.4364C130.291 54.1226 130.232 53.8002 130.221 53.4589C130.209 53.116 130.311 52.7632 130.508 52.4707C130.711 52.1808 130.982 51.9495 131.311 51.7951L131.28 51.9454C130.8 51.4649 130.727 50.6981 130.949 50.0837C131.052 49.7695 131.212 49.477 131.403 49.2084C131.49 49.0717 131.63 48.9304 131.782 48.8519C131.935 48.7673 132.099 48.7131 132.263 48.6729C132.927 48.5332 133.599 48.5907 134.261 48.6761C134.924 48.769 135.582 48.9094 136.239 49.0934L136.168 49.2733C135.182 48.8203 134.115 48.4375 133.03 48.1069C131.939 47.7808 130.799 47.5676 129.662 47.246C129.255 47.1171 128.849 47 128.47 46.7573C128.281 46.6345 128.125 46.4156 128.096 46.1831C128.061 45.9552 128.09 45.7399 128.118 45.5309C128.134 45.4352 128.143 45.3066 128.212 45.1957C128.278 45.089 128.373 45.0118 128.469 44.951C128.667 44.8368 128.878 44.7805 129.085 44.7399C129.503 44.6635 129.919 44.6495 130.331 44.647C131.154 44.6479 131.965 44.7111 132.765 44.7661C133.166 44.799 133.559 44.8031 133.969 44.8824C134.167 44.9267 134.359 44.9871 134.552 45.0389L135.115 45.2344C136.593 45.7962 137.975 46.4772 139.311 47.1544C140.645 47.8366 141.927 48.5279 143.156 49.2212L143.024 49.3037C142.932 47.69 142.837 46.1457 142.878 44.6511C142.935 43.9065 143.217 43.1393 143.839 42.7076C143.996 42.607 144.178 42.5364 144.369 42.529C144.561 42.5179 144.757 42.5967 144.898 42.7076C145.045 42.8169 145.168 42.9824 145.199 43.1726C145.231 43.3631 145.187 43.5459 145.096 43.7102L145.107 43.6613C145.269 44.799 145.836 45.7794 146.366 46.6706C146.431 46.7758 146.51 46.9014 146.545 47.0325C146.589 47.1602 146.612 47.2875 146.638 47.414C146.684 47.6674 146.717 47.9176 146.742 48.1644C146.794 48.6573 146.824 49.1361 146.848 49.5986C146.938 51.4501 146.936 53.0478 146.936 54.3547C146.932 55.6616 146.914 56.6781 146.899 57.3677C146.889 57.7065 146.881 57.9682 146.876 58.1526C146.87 58.3288 146.861 58.42 146.861 58.42C146.861 58.42 146.855 58.33 146.854 58.1522C146.854 57.9678 146.855 57.7061 146.855 57.3673C146.854 56.6699 146.853 55.6554 146.853 54.3547C146.84 53.049 146.829 51.4513 146.729 49.6052C146.702 49.1439 146.67 48.6671 146.616 48.1779C146.59 47.9336 146.556 47.6863 146.509 47.4391C146.457 47.1857 146.407 46.9581 146.251 46.7409C145.715 45.8471 145.132 44.8606 144.958 43.681L144.955 43.6576L144.969 43.6322C145.038 43.5057 145.077 43.3426 145.05 43.1984C145.025 43.0522 144.932 42.9245 144.805 42.83C144.554 42.6189 144.201 42.6526 143.925 42.8395C143.369 43.2251 143.091 43.9517 143.042 44.6631C143.006 46.1293 143.105 47.6863 143.201 49.2918L143.21 49.454L143.069 49.3748C141.842 48.6864 140.559 47.9981 139.227 47.3196C137.894 46.646 136.512 45.9683 135.049 45.4143L134.495 45.222C134.307 45.1727 134.119 45.1132 133.93 45.0713C133.559 44.9982 133.15 44.9908 132.752 44.9596C131.951 44.9046 131.143 44.8425 130.331 44.8425C129.926 44.8446 129.517 44.8594 129.122 44.9325C128.743 45.0093 128.301 45.1444 128.312 45.5588C128.285 45.7601 128.261 45.965 128.29 46.1511C128.317 46.3384 128.422 46.4862 128.582 46.5959C128.91 46.8082 129.323 46.9343 129.717 47.0575C130.837 47.3746 131.985 47.5898 133.085 47.9188C134.186 48.2552 135.243 48.6338 136.255 49.0996L136.184 49.2799C135.541 49.0992 134.886 48.9583 134.235 48.8667C133.585 48.7813 132.922 48.7283 132.306 48.8585C132.002 48.9316 131.714 49.0556 131.557 49.3177C131.374 49.574 131.224 49.8504 131.127 50.1424C130.921 50.7162 130.993 51.3955 131.412 51.8157L131.504 51.9085L131.381 51.966C131.098 52.0978 130.837 52.3159 130.66 52.5738C130.484 52.8355 130.392 53.1455 130.402 53.4569C130.411 53.7682 130.468 54.0886 130.565 54.3777C130.663 54.6607 130.824 54.9482 131.038 55.0964L131.141 55.1679L131.048 55.2443C130.74 55.4989 130.482 55.8472 130.388 56.2271C130.292 56.6046 130.4 57.0235 130.643 57.3151C130.88 57.6207 131.285 57.709 131.669 57.7965C132.058 57.884 132.459 57.983 132.81 58.1883C133.164 58.3826 133.45 58.6771 133.709 58.9481C133.978 59.218 134.244 59.4845 134.507 59.7478C135.037 60.2702 135.559 60.7717 136.075 61.251C136.59 61.7299 137.097 62.187 137.603 62.6105C138.115 63.022 138.603 63.4467 139.175 63.6533C139.744 63.8718 140.323 64.0053 140.878 64.1145C141.434 64.2221 141.973 64.3022 142.486 64.3597L142.436 64.3819C143.83 62.4942 144.93 61.0042 145.686 59.9798C146.062 59.4755 146.353 59.0865 146.553 58.8171C146.65 58.6898 146.725 58.5916 146.78 58.5193C146.831 58.4528 146.861 58.42 146.861 58.42Z" fill="#F57F62"/>
<path d="M171.196 82.1982C170.446 80.7632 168.751 77.7765 167.934 75.9479L162.566 77.9001C162.566 77.9001 147.361 57.3462 146.875 57.3462C146.39 57.3462 139.786 63.4733 139.786 63.4733C140.077 63.7649 153.768 95.1633 159.012 98.5644C164.256 101.966 168.164 104.125 170.98 99.2667C173.796 94.4079 174.497 88.5146 171.196 82.1982Z" fill="#F9A78D"/>
<path d="M169.441 87.1258C169.429 87.1319 169.34 86.9894 169.189 86.7274C169.04 86.4641 168.819 86.0867 168.539 85.625C167.98 84.7009 167.153 83.4585 166.15 82.1516C165.146 80.8443 164.171 79.712 163.462 78.8955C163.129 78.5106 162.848 78.1866 162.623 77.9278C162.426 77.6978 162.322 77.566 162.332 77.5569C162.342 77.5475 162.465 77.6613 162.679 77.8757C162.894 78.0896 163.197 78.4055 163.566 78.8026C164.302 79.597 165.297 80.7182 166.306 82.0317C167.314 83.3447 168.128 84.6085 168.659 85.5548C168.925 86.0275 169.128 86.4165 169.257 86.6912C169.387 86.9652 169.453 87.1196 169.441 87.1258Z" fill="#F57F62"/>
<path d="M138.513 41.3567C138.376 41.4573 137.81 40.8736 136.912 40.5594C136.021 40.2218 135.213 40.3052 135.173 40.1405C135.155 40.0658 135.349 39.936 135.708 39.8674C136.064 39.7976 136.585 39.8136 137.113 40.005C137.641 40.1976 138.05 40.5208 138.278 40.803C138.509 41.0868 138.574 41.3107 138.513 41.3567Z" fill="#17282F"/>
<path d="M152.238 123.583C152.242 123.59 152.177 123.627 152.051 123.694C151.923 123.756 151.74 123.865 151.488 123.967C150.99 124.18 150.236 124.428 149.271 124.564C148.308 124.698 147.139 124.713 145.865 124.547C144.59 124.385 143.212 124.064 141.797 123.638C138.971 122.773 136.469 121.825 134.678 121.092C133.783 120.725 133.066 120.411 132.573 120.188C132.344 120.081 132.157 119.994 132.009 119.924C131.881 119.862 131.815 119.826 131.817 119.82C131.82 119.813 131.891 119.837 132.024 119.888C132.177 119.949 132.368 120.024 132.603 120.117C133.13 120.327 133.851 120.614 134.73 120.963C136.53 121.662 139.036 122.587 141.854 123.449C143.262 123.874 144.628 124.197 145.889 124.367C147.148 124.541 148.301 124.541 149.253 124.426C150.207 124.31 150.957 124.085 151.46 123.896C151.96 123.697 152.23 123.567 152.238 123.583Z" fill="#17282F"/>
<path d="M115.1 84.3965C108.245 79.7764 100.092 78.1265 94.7486 78.1228C89.7438 78.1195 82.3781 78.9044 75.7098 82.6629C71.5681 84.997 68.2624 88.1878 65.8848 92.1459C63.0688 96.8346 61.5424 102.637 61.3483 109.393C61.3191 110.406 61.6926 111.366 62.3998 112.095C63.1107 112.827 64.0641 113.232 65.0844 113.232L78.2073 113.241C80.0591 113.242 81.6516 111.861 81.9118 110.028C82.4963 105.91 84.9433 98.9781 94.7642 98.815C102.248 98.6947 105.328 104.113 106.307 106.45C107.899 110.253 107.492 114.762 105.216 118.51C101.721 124.269 95.2965 125.147 91.7779 125.157C87.7318 125.169 84.4381 128.454 84.4356 132.479L84.4262 146.61C84.4245 148.673 86.1012 150.353 88.1636 150.355L100.949 150.363C103.011 150.365 104.69 148.687 104.691 146.623L104.693 143.654C104.693 143.583 104.738 143.522 104.807 143.498C107.704 142.483 113.32 140.029 118.38 135.002C124.839 128.583 128.118 120.296 128.124 110.37C128.134 96.1647 121.047 88.4051 115.1 84.3965Z" fill="#FF863F"/>
<path d="M95.1905 153.917L94.0717 153.916C88.7245 153.913 84.3714 158.263 84.3682 163.614C84.3645 168.965 88.7118 173.321 94.0589 173.324L95.1778 173.325C100.525 173.329 104.878 168.978 104.881 163.628C104.885 158.277 100.538 153.921 95.1905 153.917Z" fill="#FF863F"/>
<path d="M127.631 104.122C126.612 97.9534 124.119 93.3139 121.209 89.859C123.532 91.7733 125.393 94.2458 126.55 97.134C127.082 98.4635 127.459 99.8488 127.631 101.295C127.741 102.228 127.755 103.189 127.631 104.122Z" fill="#20353D"/>
<path d="M122.354 109.727C122.277 109.727 122.201 109.725 122.125 109.72C119.192 109.56 117.744 106.746 116.654 104.255C115.701 102.073 114.746 99.8908 113.792 97.709C113.149 96.237 112.467 94.7121 111.245 93.6692C109.993 92.6002 108.33 92.1722 106.719 91.8292C101.702 90.7606 96.3555 88.8294 91.3901 87.5414C86.4242 86.2534 81.74 85.5227 78.1523 81.8538L111.145 85.6086C114.893 86.0349 118.391 87.5364 121.209 89.8586C124.119 93.3136 126.612 97.953 127.631 104.122C127.408 105.805 126.735 107.398 125.369 108.57C124.527 109.292 123.457 109.727 122.354 109.727Z" fill="#CC4341"/>
<path d="M127.161 92.451C126.905 92.0017 121.891 85.866 119.398 83.4875C117.788 81.9515 115.363 80.8922 113.842 80.332C113.842 80.332 88.7365 71.2597 86.9942 70.3742L75.7188 81.9186C79.6441 83.0111 106.295 89.4322 112.87 90.8759C114.02 92.2185 115.177 93.3188 115.177 93.3188L117.088 97.8116C117.088 97.8116 117.308 99.4471 117.171 101.201C117.033 102.955 118.454 102.271 118.454 102.271C118.454 102.271 118.388 103.361 118.48 104.932L118.483 104.979C118.576 106.154 120.263 106.299 120.622 105.176L121.917 101.126C121.917 101.126 121.748 104.812 121.678 106.863C121.666 107.235 121.731 107.541 121.845 107.793C122.341 108.881 123.959 108.678 124.235 107.515L125.752 101.107L125.261 97.1824L126.534 100.768C126.534 100.768 126.886 102.685 126.815 105.377C126.786 106.455 127.149 106.913 127.595 107.075C128.341 107.347 129.129 106.752 129.194 105.96L129.68 100.022C129.68 100.022 127.415 92.9003 127.161 92.451Z" fill="#F9A78D"/>
<path d="M85.3752 69.9271C85.3863 69.8803 86.0996 69.9945 87.2222 70.3062C88.3455 70.6147 89.8674 71.1392 91.5145 71.7934C93.162 72.4485 94.6334 73.0802 95.6997 73.5336C96.7652 73.9891 97.4235 74.2746 97.405 74.3259C97.3882 74.374 96.6954 74.1768 95.6016 73.7846C94.507 73.3944 93.0167 72.8009 91.3745 72.1479C89.7324 71.4952 88.2372 70.9354 87.1421 70.5637C86.0487 70.1888 85.3617 69.9826 85.3752 69.9271Z" fill="#F57F62"/>
</g>
<defs>
<clipPath id="clip0_2172_24684">
<rect width="194" height="180" fill="white"/>
</clipPath>
</defs>
</svg>
