<svg width="40" height="40" viewBox="0 0 40 40" fill="none" xmlns="http://www.w3.org/2000/svg">
<circle cx="20" cy="20" r="20" fill="white" fill-opacity="0.25"/>
<path d="M28.307 15.4313C28.2334 15.1432 28.0924 14.8769 27.8955 14.6541C27.6987 14.4313 27.4517 14.2585 27.175 14.15C24.4969 13.1156 20.2344 13.125 20 13.125C19.7656 13.125 15.5031 13.1156 12.825 14.15C12.5483 14.2585 12.3013 14.4313 12.1044 14.6541C11.9076 14.8769 11.7666 15.1432 11.693 15.4313C11.4906 16.2109 11.25 17.6359 11.25 20C11.25 22.3641 11.4906 23.7891 11.693 24.5688C11.7665 24.8569 11.9075 25.1234 12.1043 25.3464C12.3011 25.5693 12.5482 25.7422 12.825 25.8508C15.3906 26.8406 19.4062 26.875 19.9484 26.875H20.0516C20.5938 26.875 24.6117 26.8406 27.175 25.8508C27.4518 25.7422 27.6989 25.5693 27.8957 25.3464C28.0925 25.1234 28.2335 24.8569 28.307 24.5688C28.5094 23.7875 28.75 22.3641 28.75 20C28.75 17.6359 28.5094 16.2109 28.307 15.4313ZM22.6734 20.2602L18.9234 22.7602C18.8764 22.7916 18.8216 22.8096 18.7651 22.8123C18.7086 22.8151 18.6524 22.8024 18.6025 22.7757C18.5526 22.749 18.5109 22.7092 18.4819 22.6607C18.4528 22.6121 18.4375 22.5566 18.4375 22.5V17.5C18.4375 17.4434 18.4528 17.3879 18.4819 17.3393C18.5109 17.2908 18.5526 17.251 18.6025 17.2243C18.6524 17.1976 18.7086 17.1849 18.7651 17.1877C18.8216 17.1904 18.8764 17.2084 18.9234 17.2398L22.6734 19.7398C22.7163 19.7684 22.7515 19.807 22.7758 19.8524C22.8001 19.8978 22.8128 19.9485 22.8128 20C22.8128 20.0515 22.8001 20.1022 22.7758 20.1476C22.7515 20.193 22.7163 20.2316 22.6734 20.2602Z" fill="white"/>
</svg>
